<?xml version="1.0" standalone="no"?>
<!DOCTYPE svg PUBLIC "-//W3C//DTD SVG 20010904//EN"
 "http://www.w3.org/TR/2001/REC-SVG-20010904/DTD/svg10.dtd">
<svg version="1.0" xmlns="http://www.w3.org/2000/svg"
 width="100.000000pt" height="100.000000pt" viewBox="0 0 100.000000 100.000000"
 preserveAspectRatio="xMidYMid meet">

<g transform="translate(0.000000,100.000000) scale(0.100000,-0.100000)"
fill="#000000" stroke="none">
<path d="M442 927 c-28 -30 -49 -57 -45 -60 3 -4 1 -7 -5 -7 -8 0 -12 -24 -12
-72 l0 -73 -71 3 -71 4 -63 -63 c-35 -35 -61 -68 -58 -74 4 -5 3 -7 -2 -3 -7
7 -35 -14 -35 -27 0 -8 77 -104 81 -102 2 1 3 0 2 -2 -2 -2 6 -19 18 -37 16
-27 21 -52 22 -131 l2 -98 90 -2 90 -2 54 53 c37 38 59 52 72 49 10 -3 17 -8
15 -12 -6 -8 64 -76 85 -84 9 -3 22 0 28 6 7 7 11 8 11 0 0 -6 24 -10 63 -9
l62 1 5 111 5 111 38 42 c20 22 37 46 37 51 0 22 2 25 21 32 10 4 19 14 19 21
0 20 -27 40 -41 31 -8 -4 -9 -3 -5 5 9 14 -12 43 -25 35 -5 -3 -9 0 -9 6 0 6
-16 29 -37 50 -34 38 -40 40 -94 40 -43 0 -58 4 -63 16 -3 9 -3 20 0 26 4 6 0
14 -7 19 -10 6 -11 9 -1 9 7 0 12 15 12 42 0 23 -2 39 -5 36 -3 -3 -31 21 -62
53 -31 33 -59 59 -62 59 -3 0 -30 -24 -59 -53z m118 -151 l0 -61 -52 0 c-29 0
-56 4 -59 9 -4 4 -4 33 -2 63 4 44 10 60 31 78 l27 24 28 -27 c24 -23 27 -33
27 -86z m28 89 c-3 -3 -9 2 -12 12 -6 14 -5 15 5 6 7 -7 10 -15 7 -18z m-211
-187 c-3 -8 -6 -5 -6 6 -1 11 2 17 5 13 3 -3 4 -12 1 -19z m81 15 c-5 -27 17
-43 58 -43 l44 0 0 -94 c0 -71 -4 -97 -15 -106 -8 -7 -13 -15 -11 -19 2 -3 -6
-11 -18 -17 -18 -8 -27 -7 -44 6 -19 15 -21 29 -22 141 -2 140 -2 139 5 139 3
0 4 -3 3 -7z m286 -8 c3 -8 1 -15 -4 -15 -6 0 -10 7 -10 15 0 8 2 15 4 15 2 0
6 -7 10 -15z m-363 -94 c1 -31 0 -85 -1 -120 -1 -59 1 -66 30 -96 l31 -32 -33
-33 c-44 -45 -71 -58 -108 -52 -32 5 -35 14 -30 128 1 24 -4 45 -13 52 -8 7
-27 32 -42 57 -16 24 -32 42 -36 39 -4 -2 -6 2 -5 10 3 21 97 105 121 108 11
2 35 1 53 -1 32 -3 32 -4 33 -60z m373 10 l49 -49 -21 -34 c-12 -18 -33 -46
-47 -62 -22 -26 -25 -37 -25 -113 l0 -83 -41 0 c-34 0 -47 6 -74 34 -18 19
-35 32 -39 29 -3 -4 -6 0 -6 7 0 8 17 31 37 52 l38 39 2 107 c1 59 2 110 2
115 1 4 18 7 39 7 32 0 45 -7 86 -49z m86 -51 c0 -11 -4 -20 -9 -20 -5 0 -7 9
-4 20 3 11 7 20 9 20 2 0 4 -9 4 -20z m-410 -294 c0 -2 -7 -7 -16 -10 -8 -3
-12 -2 -9 4 6 10 25 14 25 6z"/>
</g>
</svg>
