<?xml version="1.0" standalone="yes"?>
<svg xmlns="http://www.w3.org/2000/svg" width="565" height="600">
<path style="fill:#e3ddf0; stroke:none;" d="M0 0L0 600L565 600L565 0L0 0z"/>
<path style="fill:#a27677; stroke:none;" d="M270 67.439C240.572 72.024 211.924 74.0083 184.09 86.0934C102.161 121.665 43.0714 212.175 47.0394 302C50.7517 386.039 96.6411 463.507 173 501.235C189.005 509.142 204.343 516.385 222 520.197C226.194 521.102 231.693 524.503 235.956 523.638C241.391 522.535 241.469 516.037 239.558 512C232.142 496.337 223.419 482.165 218.884 465C214.064 446.758 208.474 427.896 207.09 409C203.952 366.145 218.58 317.022 240.464 281C249.9 265.467 259.446 249.306 272.208 236.184C298.652 208.996 341.869 188.398 378 179.677C399.301 174.535 421.347 173.931 443 174C449.03 174.019 462.756 178.601 467.353 173.415C470.952 169.354 462.712 162.738 460.435 160C450.413 147.95 442.076 135.619 429.715 125.559C392.699 95.4322 351.698 74.9592 304 69.8341C292.553 68.6041 281.635 65.6262 270 67.439z"/>
<path style="fill:#684ca7; stroke:none;" d="M233 272C227.262 274.653 225.696 273.564 220 272L231.147 262.582L243 240L240 237L240 236L244 237L244 236L240 233C233.406 235.787 222.289 234.249 220 226C238.207 225.837 247.246 214.838 263 209C261.243 206.218 260.586 195.292 264 200L265 200L272 187L276 189L285 184L290 184L286 179L293 179C305.462 164.991 328.189 166.678 344.91 162.485C352.743 160.52 360.656 158.316 367 165L360 170L352 170L352 174L364 172L364 171L360 172L368 168L368 171L369 171L370 168C375.26 168.794 384.051 167.601 386 162L385 162L384 165L368 164L368 163L373 162L373 157C376.966 157.576 387.568 153.523 388 160L400 160C401.615 164.594 408.499 165.477 413 165.896C426.013 167.106 445.491 170.97 458 168C453.1 151.501 433.755 135.982 421 125.661C414.216 120.172 408.299 113.048 400.985 108.259C372.409 89.5476 337.884 77.2321 304 73.831C266.27 70.0437 226.723 72.3328 191 87.0702C135.817 109.836 89.4461 156.959 66.7245 212C56.6598 236.381 52.8841 263.793 51.0895 290C45.5861 370.365 92.3814 451.141 161 491.09C178.763 501.431 195.424 508.435 215 514.414C219.233 515.707 230.359 521.722 234.393 518.781C238.707 515.636 232.515 507.865 230.834 505C223.419 492.363 218.84 477.901 214.502 464C201.052 420.909 201.063 375.799 211.235 332C213.918 320.448 218.145 306.761 223.256 296.09C226.986 288.302 234.903 281.051 233 272z"/>
<path style="fill:#42228e; stroke:none;" d="M232 516L233 515L214.763 475L204.376 438L198 412C191.909 414.414 181.919 404.841 183.541 398.118C184.578 393.818 191.331 392.198 193 387L185 367L181 367L172.139 350.981L169 332C163.748 326.857 168.693 316.891 160 315L160 312L163 312L160 308L159 305L159 304L163 304C160.593 300.034 158.792 296.779 154 296C152.728 300.042 152.159 313.044 148.61 315.079C145.555 316.83 144.384 311.966 144.09 309.999C143.003 302.721 141.667 298.124 144.509 291C147.639 283.154 147.78 274.7 150.724 267.129C153.71 259.449 157.799 252.344 159.764 244C160.995 238.774 159.591 232.944 161.023 228C164.566 215.773 175.863 199.697 175 187C183.95 184.308 192 162.745 194 154C205.451 153.108 212.794 135.578 220.514 128.31C224.849 124.229 230.14 124.566 232 118L240 118C241.544 115.049 244.033 109.91 246.513 107.741C250.893 103.909 255.435 106.311 256 99C264.394 97.8888 281.234 96.41 286 89L331 85L330 88L339 89C336.398 84.9252 330.868 84.4141 326.576 82.6204C314.168 77.436 301.496 76.6174 288 75.9614C235.457 73.4073 182.746 87.3469 140.985 120.514C109.576 145.46 83.2275 178.267 68.4637 216C28.9258 317.051 72.0205 436.15 165 490.077C185.996 502.255 208.113 511.368 232 516M328 86L329 87L328 86z"/>
<path style="fill:#684ca7; stroke:none;" d="M287 88L288 89L287 88z"/>
<path style="fill:#a27677; stroke:none;" d="M369 160L369 162L371 160L369 160z"/>
<path style="fill:#684ca7; stroke:none;" d="M388 161L388 165L389 165L390 161L388 161M391 162L392 163L391 162z"/>
<path style="fill:#f9bd41; stroke:none;" d="M469 171C463.227 177.952 454.806 174.206 447 174.015C429.315 173.581 411.573 173.537 394 176.615C346.015 185.02 289.714 209.504 259.865 250C232.928 286.546 216.139 326.174 210 371C208.232 383.907 205.451 399.025 207.3 412C210.937 437.524 215.687 465.463 226.833 489C231.777 499.443 243.575 512.894 238 524C262.558 532.313 289.062 529.724 314 526.209C339.404 522.628 364.735 515.57 387.791 504.298C403.753 496.494 420.664 482.612 433.325 470.262C445.33 458.552 458.444 447.039 468.273 432.91C506.762 377.584 518.916 305.513 500.427 241C493.735 217.647 485.377 189.558 469 171z"/>
<path style="fill:#684ca7; stroke:none;" d="M270 199L270 207L275 206L276 201L270 199z"/>
<path style="fill:#e3ddf0; stroke:none;" d="M276 236L276 241L264 250L262 256L261 261L264 260C264 267.942 262.284 277.389 264.681 284.999C266.388 290.416 272.46 294.21 272.752 300C273.574 316.326 265.858 332.396 267.845 349C270.101 367.857 274.32 382.958 284.787 399C293.431 412.248 305.87 421.6 320 427.351C358.133 442.872 396.603 438.206 427.611 409.367C456.351 382.636 460.734 332.992 442.412 300C438.387 292.753 433.639 283.051 426.895 277.951C414.822 268.821 403.899 259.525 389 254.904C377.452 251.322 364.335 252.06 353 248.437C342.512 245.085 334.097 236.986 324 232.725C311.066 227.266 287.891 229.722 276 236z"/>
<path style="fill:#684ca7; stroke:none;" d="M242 232L243 233L242 232z"/>
<path style="fill:#42228e; stroke:none;" d="M161.333 242.667L161.667 243.333L161.333 242.667z"/>
<path style="fill:#684ca7; stroke:none;" d="M156 304L157 305L156 304z"/>
<path style="fill:#a27677; stroke:none;" d="M206 306L209 310L209 306L206 306z"/>
<path style="fill:#684ca7; stroke:none;" d="M146 336C145.65 344.701 148.223 367.443 157 371L160 375C157.681 383.538 172.93 394.44 181 395L181 390L182 390L184 392L180 382L167 384C168.208 378.121 164.628 373.603 159 372L149 336L146 336z"/>
<path style="fill:#42228e; stroke:none;" d="M196 376L193.653 390L196 401C200.918 397.453 199.105 382.079 199 376L196 376z"/>
</svg>
