<?xml version="1.0" standalone="yes"?>
<svg xmlns="http://www.w3.org/2000/svg" width="308" height="293">
<path style="fill:#fcfdfd; stroke:none;" d="M0 0L0 293L187 293C201.496 293 216.519 294.147 230.961 292.942C236.062 292.516 242.249 287.358 246 293L261 290L261 291L258 292L262 291C265.077 294.338 275.263 292.021 279 290L283 293L284 293L291 290L292 290C292.651 293.021 293.914 293.086 296 291L297 291L298 293L299 293L307 292L308 261L308 200L308 0L0 0z"/>
<path style="fill:#98a4aa; stroke:none;" d="M146 12L146 13L167 13L146 12M138 13L138 14L142 15L138 13z"/>
<path style="fill:#5f6d78; stroke:none;" d="M142 13L142 14L149 14L142 13M166 13L166 14L172 14L166 13z"/>
<path style="fill:#98a4aa; stroke:none;" d="M169 15L172 16L170 18L178 24L162 22L162 23L186 30L185 33L187 32L187 33L187 39L171 59L171 57L164 60L164 64L163 65L161 64L157 68L153 77L170.7 62L182 51L184 44L185 44L175 69L170 70C170 74.1263 163.356 75.0286 160 76L162 77L162 78L155 78L155 80L152 79L148 82L151 78L147 84L144 83L144 86L139 89L140 89C143.596 86.0601 148.926 87.7051 153 89C154.091 85.55 156.568 84.9695 160 85L160 82L163 83L163 80L168 79L167 76L171 77C182.019 62.8712 193.594 57.5062 191.117 37C190.288 30.1427 181.441 20.9837 183 15L178 16L178 15L180 15L180 14C176.738 14.5437 174.196 16.2169 175 13L169 15M132 14L132 16L134 16L134 14L132 14z"/>
<path style="fill:#5f6d78; stroke:none;" d="M134 14L134 15L139 15L134 14z"/>
<path style="fill:#fcfdfd; stroke:none;" d="M122 18L120 20L120 21L143 21L178 24L170 18L172 16C156.296 9.34576 137.891 16.6046 122 18z"/>
<path style="fill:#5f6d78; stroke:none;" d="M174 14L174 15L178 15L174 14z"/>
<path style="fill:#98a4aa; stroke:none;" d="M127 15L130 17L127 15z"/>
<path style="fill:#5f6d78; stroke:none;" d="M129 15L129 16L132 16L129 15M178 15L178 16L182 16L178 15z"/>
<path style="fill:#98a4aa; stroke:none;" d="M124 16L123 19L124 16z"/>
<path style="fill:#5f6d78; stroke:none;" d="M125.667 16.3333L126.333 16.6667L125.667 16.3333M181 17C191.79 30.437 193.405 44.4511 187 60L194 53L198 46L198 45L195 45L194 28L192 28L190 18L181 17z"/>
<path style="fill:#98a4aa; stroke:none;" d="M185 16L186 17L185 16M121 17L117 19L116 20L117 24L118 24L120 20L123 20L121 17z"/>
<path style="fill:#5f6d78; stroke:none;" d="M122.667 17.3333L123.333 17.6667L122.667 17.3333z"/>
<path style="fill:#98a4aa; stroke:none;" d="M188 17L189 18L188 17z"/>
<path style="fill:#5f6d78; stroke:none;" d="M119.667 18.3333L120.333 18.6667L119.667 18.3333z"/>
<path style="fill:#98a4aa; stroke:none;" d="M190 18L192 20L190 18z"/>
<path style="fill:#5f6d78; stroke:none;" d="M118 19L119 20L118 19z"/>
<path style="fill:#3e4a54; stroke:none;" d="M188 19L188 20L192 28L194 28L195 45L198 44C199.072 36.1003 198.544 31.3271 195 24L197 25L197 24L194 24L193 23L194 21L188 19z"/>
<path style="fill:#5f6d78; stroke:none;" d="M117 20L118 21L117 20z"/>
<path style="fill:#263540; stroke:none;" d="M191 20L193 22L191 20z"/>
<path style="fill:#5f6d78; stroke:none;" d="M192 20L193 21L192 20z"/>
<path style="fill:#98a4aa; stroke:none;" d="M193 20L194 21L193 20z"/>
<path style="fill:#5f6d78; stroke:none;" d="M116 21L117 22L116 21z"/>
<path style="fill:#98a4aa; stroke:none;" d="M134 21L134 22L159 22L134 21M194 21L196 23L194 21z"/>
<path style="fill:#3e4a54; stroke:none;" d="M117 22L120 24L117 22z"/>
<path style="fill:#5f6d78; stroke:none;" d="M120 22L120 23L127 23L120 22z"/>
<path style="fill:#3e4a54; stroke:none;" d="M127 22L127 23L138 23L138 24L135 24L135 25L173 28L173 31L174 31L177 30L177 31L175 32C178.512 35.4411 178.159 38.3162 178 43L179 43L182 42L181 45C183.977 42.4001 187.649 37.3209 184 34C182.88 27.5964 175.694 25.447 169.91 24.3249C155.979 21.6217 141.147 22 127 22z"/>
<path style="fill:#263540; stroke:none;" d="M144.667 22.3333L145.333 22.6667L144.667 22.3333z"/>
<path style="fill:#5f6d78; stroke:none;" d="M150 22L150 23L162 23L150 22z"/>
<path style="fill:#263540; stroke:none;" d="M193 22L195 24L195 22L193 22M120 23L120 24L138 24L120 23M146.667 23.3333L147.333 23.6667L146.667 23.3333z"/>
<path style="fill:#5f6d78; stroke:none;" d="M164 23L164 24L168 24L164 23z"/>
<path style="fill:#98a4aa; stroke:none;" d="M196 23L197 24L196 23M120 24L121 25L120 24z"/>
<path style="fill:#5f6d78; stroke:none;" d="M121.667 24.3333L122.333 24.6667L121.667 24.3333z"/>
<path style="fill:#3e4a54; stroke:none;" d="M123 24L123 25L126 25L123 24z"/>
<path style="fill:#263540; stroke:none;" d="M142 24L142 25L146 25L142 24z"/>
<path style="fill:#5f6d78; stroke:none;" d="M171 24L172 25L171 24z"/>
<path style="fill:#263540; stroke:none;" d="M195 24L199 38L200 38C199.984 32.2726 199.535 27.9011 195 24z"/>
<path style="fill:#98a4aa; stroke:none;" d="M197 24L198 25L197 24M144 25L144 26L150 26L144 25z"/>
<path style="fill:#5f6d78; stroke:none;" d="M150.667 25.3333L151.333 25.6667L150.667 25.3333z"/>
<path style="fill:#263540; stroke:none;" d="M154 25L155 26L154 25M173 25L174 26L173 25z"/>
<path style="fill:#5f6d78; stroke:none;" d="M175 25L176 26L175 25M197 25L198 26L197 25z"/>
<path style="fill:#98a4aa; stroke:none;" d="M155 26L155 27L158 27L155 26z"/>
<path style="fill:#5f6d78; stroke:none;" d="M158.667 26.3333L159.333 26.6667L158.667 26.3333M177 26L178 27L177 26z"/>
<path style="fill:#fcfdfd; stroke:none;" d="M180 26L182 28L180 26z"/>
<path style="fill:#5f6d78; stroke:none;" d="M198 26L199 27L198 26z"/>
<path style="fill:#98a4aa; stroke:none;" d="M161.667 27.3333L162.333 27.6667L161.667 27.3333z"/>
<path style="fill:#5f6d78; stroke:none;" d="M163 27L164 28L163 27z"/>
<path style="fill:#263540; stroke:none;" d="M165 27L166 28L165 27z"/>
<path style="fill:#5f6d78; stroke:none;" d="M179 27L180 28L179 27z"/>
<path style="fill:#3e4a54; stroke:none;" d="M198 27L199 28L198 27z"/>
<path style="fill:#98a4aa; stroke:none;" d="M166 28L167 29L166 28z"/>
<path style="fill:#5f6d78; stroke:none;" d="M167 28L168 29L167 28z"/>
<path style="fill:#263540; stroke:none;" d="M168.667 28.3333L169.333 28.6667L168.667 28.3333z"/>
<path style="fill:#5f6d78; stroke:none;" d="M172 28L173 29L172 28z"/>
<path style="fill:#263540; stroke:none;" d="M178 28L181 31L178 28z"/>
<path style="fill:#98a4aa; stroke:none;" d="M199 28L200 29L199 28M169 29L170 30L169 29z"/>
<path style="fill:#5f6d78; stroke:none;" d="M170 29L171 30L170 29z"/>
<path style="fill:#263540; stroke:none;" d="M171.667 29.3333L172.333 29.6667L171.667 29.3333z"/>
<path style="fill:#5f6d78; stroke:none;" d="M199 29L200 30L199 29M172 30L173 31L172 30z"/>
<path style="fill:#263540; stroke:none;" d="M174.667 30.3333L175.333 30.6667L174.667 30.3333z"/>
<path style="fill:#5f6d78; stroke:none;" d="M176 30L177 31L176 30M183 30L184 31L183 30z"/>
<path style="fill:#fcfdfd; stroke:none;" d="M185.333 30.6667L185.667 31.3333L185.333 30.6667z"/>
<path style="fill:#5f6d78; stroke:none;" d="M174 31L175 32L174 31M179 31L180 32L179 31M184 31L185 32L184 31z"/>
<path style="fill:#98a4aa; stroke:none;" d="M175 32L176 33L175 32z"/>
<path style="fill:#fcfdfd; stroke:none;" d="M186.333 32.6667L186.667 33.3333L186.333 32.6667z"/>
<path style="fill:#98a4aa; stroke:none;" d="M200 32L200 36L201 36L200 32M176 33L177 34L176 33z"/>
<path style="fill:#263540; stroke:none;" d="M177 33L178 34L177 33M184 33L185 34L184 33z"/>
<path style="fill:#5f6d78; stroke:none;" d="M185 33L186 34L185 33M177 34L178 35L177 34z"/>
<path style="fill:#263540; stroke:none;" d="M180 34L181 35L180 34z"/>
<path style="fill:#fcfdfd; stroke:none;" d="M187.333 34.6667L187.667 35.3333L187.333 34.6667z"/>
<path style="fill:#98a4aa; stroke:none;" d="M177 35L178 36L177 35z"/>
<path style="fill:#263540; stroke:none;" d="M178.333 35.6667L178.667 36.3333L178.333 35.6667z"/>
<path style="fill:#5f6d78; stroke:none;" d="M180 36L180 41L181 41L180 36M178 37L179 38L178 37M185 38L186 39L185 38z"/>
<path style="fill:#fcfdfd; stroke:none;" d="M186 38L187 39L186 38z"/>
<path style="fill:#5f6d78; stroke:none;" d="M199 39L200 40L199 39M182 40L183 41L182 40z"/>
<path style="fill:#98a4aa; stroke:none;" d="M199 40L200 41L199 40M177.333 41.6667L177.667 42.3333L177.333 41.6667z"/>
<path style="fill:#5f6d78; stroke:none;" d="M179 41L176 45L177 48L175 47L171 53L171 54L173 56L166 59L166 60L171 57L171 59L183 44L181 45L182 42L179 41M184 41L185 42L184 41z"/>
<path style="fill:#263540; stroke:none;" d="M198 41L199 42L198 41z"/>
<path style="fill:#fcfdfd; stroke:none;" d="M185.333 42.6667L185.667 43.3333L185.333 42.6667z"/>
<path style="fill:#5f6d78; stroke:none;" d="M198 42L199 43L198 42M183 43L184 44L183 43z"/>
<path style="fill:#263540; stroke:none;" d="M197 43L198 44L197 43z"/>
<path style="fill:#98a4aa; stroke:none;" d="M198 43L199 44L198 43M176 44L177 45L176 44z"/>
<path style="fill:#3e4a54; stroke:none;" d="M177 44L178 45L177 44z"/>
<path style="fill:#fcfdfd; stroke:none;" d="M184 44L182 51L170.7 61.0748L148 82L152 79L155 80L155 78L162 78L162 77L160 76C164.022 75.1565 169.004 74.4331 170 70L175 69C176.936 61.092 186.475 52.9003 184 44z"/>
<path style="fill:#98a4aa; stroke:none;" d="M175 46L176 47L175 46z"/>
<path style="fill:#3e4a54; stroke:none;" d="M176.333 46.6667L176.667 47.3333L176.333 46.6667M181 46L182 47L181 46M195 46L193 52L194 52L197 46L195 46z"/>
<path style="fill:#5f6d78; stroke:none;" d="M196 47L197 48L196 47z"/>
<path style="fill:#98a4aa; stroke:none;" d="M174 48L175 49L174 48z"/>
<path style="fill:#3e4a54; stroke:none;" d="M175 48L176 49L175 48z"/>
<path style="fill:#98a4aa; stroke:none;" d="M195 49L196 50L195 49z"/>
<path style="fill:#3e4a54; stroke:none;" d="M174 50L175 51L174 50z"/>
<path style="fill:#98a4aa; stroke:none;" d="M172 51L173 52L172 51M194 51L195 52L194 51z"/>
<path style="fill:#3e4a54; stroke:none;" d="M172 52L173 53L172 52z"/>
<path style="fill:#98a4aa; stroke:none;" d="M174 52L175 53L174 52z"/>
<path style="fill:#3e4a54; stroke:none;" d="M192 53L191 55L192 53z"/>
<path style="fill:#98a4aa; stroke:none;" d="M169 55L169 56L173 56L173 55L169 55z"/>
<path style="fill:#3e4a54; stroke:none;" d="M171 54L172 55L171 54z"/>
<path style="fill:#5f6d78; stroke:none;" d="M188 54L187 56L188 54z"/>
<path style="fill:#98a4aa; stroke:none;" d="M192 54L193 55L192 54z"/>
<path style="fill:#3e4a54; stroke:none;" d="M170 55L171 56L170 55z"/>
<path style="fill:#98a4aa; stroke:none;" d="M191 55L192 56L191 55z"/>
<path style="fill:#3e4a54; stroke:none;" d="M169 56L170 57L169 56z"/>
<path style="fill:#263540; stroke:none;" d="M168 57L169 58L168 57z"/>
<path style="fill:#5f6d78; stroke:none;" d="M170 59L165 65L170 59z"/>
<path style="fill:#3e4a54; stroke:none;" d="M166 60L167 61L166 60z"/>
<path style="fill:#5f6d78; stroke:none;" d="M186 60L183 64L186 60z"/>
<path style="fill:#3e4a54; stroke:none;" d="M165 61L166 62L165 61M164 62L165 63L164 62z"/>
<path style="fill:#5f6d78; stroke:none;" d="M162.667 63.3333L163.333 63.6667L162.667 63.3333z"/>
<path style="fill:#3e4a54; stroke:none;" d="M162 64L163 65L162 64z"/>
<path style="fill:#5f6d78; stroke:none;" d="M158 68L159 69L162 65L158 68z"/>
<path style="fill:#3e4a54; stroke:none;" d="M158 68L159 69L158 68z"/>
<path style="fill:#fcfdfd; stroke:none;" d="M176 68L175 70L176 68z"/>
<path style="fill:#5f6d78; stroke:none;" d="M178 68L179 69L178 68z"/>
<path style="fill:#98a4aa; stroke:none;" d="M155 69L150 75L154 74L155 69z"/>
<path style="fill:#5f6d78; stroke:none;" d="M156 69L149 75L145 78L145 83C149.112 80.1885 158.642 74.6925 156 69z"/>
<path style="fill:#3e4a54; stroke:none;" d="M157 69L158 70L157 69z"/>
<path style="fill:#5f6d78; stroke:none;" d="M160 69L161 70L160 69z"/>
<path style="fill:#3e4a54; stroke:none;" d="M155 70L156 71L155 70z"/>
<path style="fill:#5f6d78; stroke:none;" d="M158 70L159 71L158 70M176 70L177 71L176 70z"/>
<path style="fill:#3e4a54; stroke:none;" d="M154 71L155 72L154 71z"/>
<path style="fill:#fcfdfd; stroke:none;" d="M173 71L174 72L173 71z"/>
<path style="fill:#5f6d78; stroke:none;" d="M175 71L176 72L175 71z"/>
<path style="fill:#3e4a54; stroke:none;" d="M153 72L154 73L153 72z"/>
<path style="fill:#5f6d78; stroke:none;" d="M174 72L175 73L174 72z"/>
<path style="fill:#3e4a54; stroke:none;" d="M152 73L153 74L152 73z"/>
<path style="fill:#fcfdfd; stroke:none;" d="M169 73L170 74L169 73z"/>
<path style="fill:#5f6d78; stroke:none;" d="M173 73L174 74L173 73z"/>
<path style="fill:#3e4a54; stroke:none;" d="M151 74L152 75L151 74z"/>
<path style="fill:#5f6d78; stroke:none;" d="M172 74L173 75L172 74z"/>
<path style="fill:#98a4aa; stroke:none;" d="M148 75L146 78L148 75z"/>
<path style="fill:#3e4a54; stroke:none;" d="M150 75L151 76L150 75z"/>
<path style="fill:#5f6d78; stroke:none;" d="M170 75L171 76L170 75z"/>
<path style="fill:#3e4a54; stroke:none;" d="M147 79L150 76L147 79z"/>
<path style="fill:#fcfdfd; stroke:none;" d="M167 76L168 77L167 76z"/>
<path style="fill:#5f6d78; stroke:none;" d="M169 76L170 77L169 76M167.667 77.3333L168.333 77.6667L167.667 77.3333z"/>
<path style="fill:#263540; stroke:none;" d="M146 78L147 79L146 78z"/>
<path style="fill:#5f6d78; stroke:none;" d="M166 78L167 79L166 78z"/>
<path style="fill:#98a4aa; stroke:none;" d="M143 79L141 82L143 79z"/>
<path style="fill:#3e4a54; stroke:none;" d="M141 84L139 83L137 87L140 87L141 84L146 79L141 84z"/>
<path style="fill:#5f6d78; stroke:none;" d="M165 79L166 80L165 79z"/>
<path style="fill:#3e4a54; stroke:none;" d="M146 80L147 81L146 80z"/>
<path style="fill:#5f6d78; stroke:none;" d="M163.667 80.3333L164.333 80.6667L163.667 80.3333z"/>
<path style="fill:#98a4aa; stroke:none;" d="M207 80L207 82L220 85L219 90C209.198 90.0065 197.927 90.3669 193 100C212.447 89.0798 226.688 93.9977 248 94L248 93L238 93L238 92L253 93L253 92L239.148 90.3966L230 83L230 82L233 82L233 81L220 82L220 81L224 81L207 80z"/>
<path style="fill:#5f6d78; stroke:none;" d="M162 81L163 82L162 81z"/>
<path style="fill:#98a4aa; stroke:none;" d="M199 81L199 83L202 83L202 81L199 81z"/>
<path style="fill:#5f6d78; stroke:none;" d="M202 81L202 82L207 82L202 81M220 81L220 82L225 82L220 81z"/>
<path style="fill:#3e4a54; stroke:none;" d="M225 81L225 82L228 82L225 81z"/>
<path style="fill:#5f6d78; stroke:none;" d="M228.667 81.3333L229.333 81.6667L228.667 81.3333M140 82L141 83L140 82z"/>
<path style="fill:#fcfdfd; stroke:none;" d="M145 84L148 82L145 84z"/>
<path style="fill:#5f6d78; stroke:none;" d="M160.667 82.3333L161.333 82.6667L160.667 82.3333z"/>
<path style="fill:#98a4aa; stroke:none;" d="M195.333 82.6667L195.667 83.3333L195.333 82.6667z"/>
<path style="fill:#5f6d78; stroke:none;" d="M196 82L196 83L199 83L196 82z"/>
<path style="fill:#fcfdfd; stroke:none;" d="M210 148L211 148L210 138L214 138C213.956 125.57 201.09 119.597 195.839 109C192.55 102.362 193.682 95.5597 201.005 92.7145C203.262 91.8374 205.623 91.3417 208 90.9236C211.688 90.2748 215.261 90.0103 219 90L220 85C205.119 76.4725 171.578 85.5392 176.529 107C180.487 124.156 199.643 135.155 210 148z"/>
<path style="fill:#5f6d78; stroke:none;" d="M230 82L230 83L233 83L230 82z"/>
<path style="fill:#3e4a54; stroke:none;" d="M233.667 82.3333L234.333 82.6667L233.667 82.3333z"/>
<path style="fill:#5f6d78; stroke:none;" d="M234 83C239.432 92.6761 243.544 90.0588 254 92L255 88L245 90C244.509 83.5642 239.887 82.3515 234 83z"/>
<path style="fill:#98a4aa; stroke:none;" d="M237 82L237 83L240 83L237 82M138 83L137 85L138 83z"/>
<path style="fill:#263540; stroke:none;" d="M140 83L141 84L140 83z"/>
<path style="fill:#5f6d78; stroke:none;" d="M159 83L160 84L159 83z"/>
<path style="fill:#98a4aa; stroke:none;" d="M191 83L191 85L193 85L193 83L191 83z"/>
<path style="fill:#5f6d78; stroke:none;" d="M193.667 83.3333L194.333 83.6667L193.667 83.3333z"/>
<path style="fill:#3e4a54; stroke:none;" d="M238 83L238 84L241 84L238 83z"/>
<path style="fill:#98a4aa; stroke:none;" d="M243.667 83.3333L244.333 83.6667L243.667 83.3333z"/>
<path style="fill:#263540; stroke:none;" d="M138 84L139 85L138 84z"/>
<path style="fill:#5f6d78; stroke:none;" d="M141.333 84.6667L141.667 85.3333L141.333 84.6667z"/>
<path style="fill:#fcfdfd; stroke:none;" d="M144 84L145 85L144 84z"/>
<path style="fill:#5f6d78; stroke:none;" d="M152 87L152 88L159 85L152 87z"/>
<path style="fill:#98a4aa; stroke:none;" d="M189.333 84.6667L189.667 85.3333L189.333 84.6667z"/>
<path style="fill:#5f6d78; stroke:none;" d="M190 84L191 85L190 84z"/>
<path style="fill:#3e4a54; stroke:none;" d="M244 84L245 90L254 87L244 84z"/>
<path style="fill:#263540; stroke:none;" d="M245 84L246 85L245 84z"/>
<path style="fill:#98a4aa; stroke:none;" d="M247 84L248 85L247 84z"/>
<path style="fill:#5f6d78; stroke:none;" d="M136 85L137 86L136 85z"/>
<path style="fill:#263540; stroke:none;" d="M137 85L138 86L137 85z"/>
<path style="fill:#fcfdfd; stroke:none;" d="M142.667 85.3333L143.333 85.6667L142.667 85.3333z"/>
<path style="fill:#5f6d78; stroke:none;" d="M145 85L146 86L145 85z"/>
<path style="fill:#98a4aa; stroke:none;" d="M157 85L158 86L157 85M185 88L186 88L188 87C186.188 85.4993 185.978 85.8421 185 88z"/>
<path style="fill:#5f6d78; stroke:none;" d="M187.667 85.3333L188.333 85.6667L187.667 85.3333M250 85L251 86L250 85z"/>
<path style="fill:#98a4aa; stroke:none;" d="M251 85L252 86L251 85M134 86L133 88L134 86z"/>
<path style="fill:#3e4a54; stroke:none;" d="M135 86L136 87L135 86z"/>
<path style="fill:#263540; stroke:none;" d="M125 100L138 95C133.201 93.2346 130.425 94.959 126 97L131 91L139 86C132.701 87.266 124.003 92.9508 125 100z"/>
<path style="fill:#fcfdfd; stroke:none;" d="M141 86L142 87L141 86z"/>
<path style="fill:#5f6d78; stroke:none;" d="M147 86L148 87L147 86z"/>
<path style="fill:#98a4aa; stroke:none;" d="M156 86L157 87L156 86z"/>
<path style="fill:#5f6d78; stroke:none;" d="M186 86L187 87L186 86M246 86L247 87L246 86z"/>
<path style="fill:#98a4aa; stroke:none;" d="M252 86L253 87L252 86z"/>
<path style="fill:#5f6d78; stroke:none;" d="M138 87L139 88L138 87z"/>
<path style="fill:#fcfdfd; stroke:none;" d="M140 87L141 88L140 87z"/>
<path style="fill:#5f6d78; stroke:none;" d="M138 91L151 90C149.805 84.5106 139.986 86.8916 138 91z"/>
<path style="fill:#3e4a54; stroke:none;" d="M153 87L154 88L153 87z"/>
<path style="fill:#98a4aa; stroke:none;" d="M154 87L155 88L154 87M183 87L182 90L183 87z"/>
<path style="fill:#5f6d78; stroke:none;" d="M184 87L185 88L184 87M248.333 87.6667L248.667 88.3333L248.333 87.6667M251 87L252 88L251 87z"/>
<path style="fill:#98a4aa; stroke:none;" d="M131 88L129 91L131 88z"/>
<path style="fill:#5f6d78; stroke:none;" d="M132 88L133 89L132 88z"/>
<path style="fill:#3e4a54; stroke:none;" d="M134 88L135 89L134 88z"/>
<path style="fill:#98a4aa; stroke:none;" d="M137 88L135 91L137 88z"/>
<path style="fill:#fcfdfd; stroke:none;" d="M138 88L139 89L138 88z"/>
<path style="fill:#3e4a54; stroke:none;" d="M151 88L152 89L151 88z"/>
<path style="fill:#5f6d78; stroke:none;" d="M182 88L183 89L182 88z"/>
<path style="fill:#3e4a54; stroke:none;" d="M131 89L132 90L131 89M135 89L136 90L135 89M149 89L147 90L147 91L149 89z"/>
<path style="fill:#98a4aa; stroke:none;" d="M180 89L181 90L180 89z"/>
<path style="fill:#5f6d78; stroke:none;" d="M181 89L182 90L181 89z"/>
<path style="fill:#263540; stroke:none;" d="M254 89L255 90L254 89z"/>
<path style="fill:#98a4aa; stroke:none;" d="M255 89L254 92L255 89z"/>
<path style="fill:#3e4a54; stroke:none;" d="M130 90L131 91L130 90M133.667 90.3333L134.333 90.6667L133.667 90.3333M137 90L134 92L139 96L145 92L137 90M144 90L145 91L144 90z"/>
<path style="fill:#98a4aa; stroke:none;" d="M149 90L150 91L149 90z"/>
<path style="fill:#5f6d78; stroke:none;" d="M180 90L181 91L180 90M233 90L234 91L233 90z"/>
<path style="fill:#3e4a54; stroke:none;" d="M254 90L255 91L254 90z"/>
<path style="fill:#98a4aa; stroke:none;" d="M128 91L129 92L128 91z"/>
<path style="fill:#3e4a54; stroke:none;" d="M131 91L133 94L131 91z"/>
<path style="fill:#98a4aa; stroke:none;" d="M133 91L132 93L134 93L133 91z"/>
<path style="fill:#fcfdfd; stroke:none;" d="M134 91L135 92L134 91z"/>
<path style="fill:#5f6d78; stroke:none;" d="M135 91L136 92L135 91z"/>
<path style="fill:#263540; stroke:none;" d="M145.667 91.3333L146.333 91.6667L145.667 91.3333z"/>
<path style="fill:#98a4aa; stroke:none;" d="M147 91L148 92L147 91z"/>
<path style="fill:#5f6d78; stroke:none;" d="M179 91L180 92L179 91M208 92L208 93L212 95L226 93L226 91L208 92z"/>
<path style="fill:#98a4aa; stroke:none;" d="M127 92L128 93L127 92z"/>
<path style="fill:#263540; stroke:none;" d="M135 92L136 93L135 92z"/>
<path style="fill:#98a4aa; stroke:none;" d="M145 92L146 93L145 92M177 92L176 95C178.158 94.0224 178.501 93.8117 177 92z"/>
<path style="fill:#5f6d78; stroke:none;" d="M178 92L179 93L178 92z"/>
<path style="fill:#3e4a54; stroke:none;" d="M213 92L214 93L213 92z"/>
<path style="fill:#5f6d78; stroke:none;" d="M230 93L230 94L238 94L230 93M238 92L238 93L252 93L238 92M126 93L127 94L126 93M130.333 93.6667L130.667 94.3333L130.333 93.6667z"/>
<path style="fill:#98a4aa; stroke:none;" d="M131 93L132 94L131 93z"/>
<path style="fill:#5f6d78; stroke:none;" d="M143 93L144 94L143 93z"/>
<path style="fill:#98a4aa; stroke:none;" d="M144 93L145 94L144 93z"/>
<path style="fill:#5f6d78; stroke:none;" d="M203.667 93.3333L204.333 93.6667L203.667 93.3333z"/>
<path style="fill:#3e4a54; stroke:none;" d="M202 97L213 94C208.788 92.2374 204.478 93.0726 202 97M214 93L214 94L230 94L214 93z"/>
<path style="fill:#5f6d78; stroke:none;" d="M125 94L126 95L125 94z"/>
<path style="fill:#3e4a54; stroke:none;" d="M128 94L130 96L128 94z"/>
<path style="fill:#98a4aa; stroke:none;" d="M129 94L130 95L129 94z"/>
<path style="fill:#3e4a54; stroke:none;" d="M133 94L134 95L133 94z"/>
<path style="fill:#263540; stroke:none;" d="M139 94L140 95L139 94z"/>
<path style="fill:#5f6d78; stroke:none;" d="M141 94L142 95L141 94M197 96L197 97L202 95L197 96z"/>
<path style="fill:#263540; stroke:none;" d="M202.667 94.3333L203.333 94.6667L202.667 94.3333z"/>
<path style="fill:#98a4aa; stroke:none;" d="M214 94L214 95L218 95L214 94M124 95L125 96L124 95z"/>
<path style="fill:#5f6d78; stroke:none;" d="M126 97L129 96L126 97M139 95L140 96L139 95z"/>
<path style="fill:#98a4aa; stroke:none;" d="M140 95L141 96L140 95z"/>
<path style="fill:#5f6d78; stroke:none;" d="M176 95L177 96L176 95z"/>
<path style="fill:#3e4a54; stroke:none;" d="M200 95L198 98L201 98L200 95z"/>
<path style="fill:#263540; stroke:none;" d="M201 95L202 98L201 95M205 95L206 96L205 95z"/>
<path style="fill:#5f6d78; stroke:none;" d="M207 95L208 96L207 95z"/>
<path style="fill:#98a4aa; stroke:none;" d="M208.667 95.3333L209.333 95.6667L208.667 95.3333M123 96L124 97L123 96z"/>
<path style="fill:#3e4a54; stroke:none;" d="M127 96L128 97L127 96M130 96L131 97L130 96M136 96L137 97L136 96z"/>
<path style="fill:#5f6d78; stroke:none;" d="M137 96L138 97L137 96z"/>
<path style="fill:#98a4aa; stroke:none;" d="M138 96L139 97L138 96M175.667 96.3333L176.333 96.6667L175.667 96.3333z"/>
<path style="fill:#263540; stroke:none;" d="M198 96L199 97L198 96z"/>
<path style="fill:#98a4aa; stroke:none;" d="M204 96L205 97L204 96z"/>
<path style="fill:#5f6d78; stroke:none;" d="M123.333 97.6667L123.667 98.3333L123.333 97.6667z"/>
<path style="fill:#3e4a54; stroke:none;" d="M125 97L126 98L125 97M134 97L135 98L134 97z"/>
<path style="fill:#98a4aa; stroke:none;" d="M135 97L136 98L135 97z"/>
<path style="fill:#5f6d78; stroke:none;" d="M175 97L176 98L175 97z"/>
<path style="fill:#3e4a54; stroke:none;" d="M196 97L195 99L196 97z"/>
<path style="fill:#263540; stroke:none;" d="M198 108L199 108L200 97C192.84 98.3424 195.336 104.004 198 108z"/>
<path style="fill:#98a4aa; stroke:none;" d="M202 97L203 98L202 97z"/>
<path style="fill:#3e4a54; stroke:none;" d="M131 98L132 99L131 98z"/>
<path style="fill:#5f6d78; stroke:none;" d="M132 98L133 99L132 98z"/>
<path style="fill:#98a4aa; stroke:none;" d="M133 98L134 99L133 98M174 98L174 106L175 106L174 98z"/>
<path style="fill:#5f6d78; stroke:none;" d="M200 98L201 99L200 98z"/>
<path style="fill:#3e4a54; stroke:none;" d="M124 99L125 100L124 99M127 99L128 100L127 99z"/>
<path style="fill:#5f6d78; stroke:none;" d="M128.667 99.3333L129.333 99.6667L128.667 99.3333z"/>
<path style="fill:#98a4aa; stroke:none;" d="M130 99L131 100L130 99z"/>
<path style="fill:#3e4a54; stroke:none;" d="M199 99L200 100L199 99z"/>
<path style="fill:#98a4aa; stroke:none;" d="M124 100L125 101L124 100z"/>
<path style="fill:#5f6d78; stroke:none;" d="M174 100L174 104L175 104L174 100M194 100L195 101L194 100z"/>
<path style="fill:#3e4a54; stroke:none;" d="M195 100L196 101L195 100z"/>
<path style="fill:#98a4aa; stroke:none;" d="M199 100L200 101L199 100z"/>
<path style="fill:#3e4a54; stroke:none;" d="M194 101L194 104L195 104L194 101M198 101L199 102L198 101z"/>
<path style="fill:#5f6d78; stroke:none;" d="M198.333 102.667L198.667 103.333L198.333 102.667M194 104L195 105L194 104z"/>
<path style="fill:#3e4a54; stroke:none;" d="M198.333 104.667L198.667 105.333L198.333 104.667z"/>
<path style="fill:#5f6d78; stroke:none;" d="M175 105L176 106L175 105z"/>
<path style="fill:#98a4aa; stroke:none;" d="M194.333 105.667L194.667 106.333L194.333 105.667z"/>
<path style="fill:#3e4a54; stroke:none;" d="M175.333 106.667L175.667 107.333L175.333 106.667M195 106L201 113L199 111L198 106L195 106z"/>
<path style="fill:#98a4aa; stroke:none;" d="M176 107L175 109L176 107z"/>
<path style="fill:#5f6d78; stroke:none;" d="M195 107L196 108L195 107z"/>
<path style="fill:#98a4aa; stroke:none;" d="M199 107L200 108L199 107M111 108L111 109L118 110L118 108L111 108z"/>
<path style="fill:#5f6d78; stroke:none;" d="M176 108L177 109L176 108z"/>
<path style="fill:#98a4aa; stroke:none;" d="M195 108L196 109L195 108z"/>
<path style="fill:#5f6d78; stroke:none;" d="M199 108L200 109L199 108z"/>
<path style="fill:#98a4aa; stroke:none;" d="M99 109L99 111L102 111L102 109L99 109z"/>
<path style="fill:#5f6d78; stroke:none;" d="M102 109L102 110L112 110L102 109M118 109L118 110L128 110L118 109z"/>
<path style="fill:#98a4aa; stroke:none;" d="M128 109L131 111L128 109z"/>
<path style="fill:#3e4a54; stroke:none;" d="M176 109L179 116L180 116L176 109z"/>
<path style="fill:#5f6d78; stroke:none;" d="M196 109L198 111L196 109z"/>
<path style="fill:#98a4aa; stroke:none;" d="M92 110L92 112L94 112L94 110L92 110z"/>
<path style="fill:#5f6d78; stroke:none;" d="M94 110L94 111L99 111L94 110z"/>
<path style="fill:#fcfdfd; stroke:none;" d="M71 118L71 119C92.2699 123.672 132.705 107.283 146.991 131.004C149.713 135.525 147.959 140.197 149 145L150 145L150 141L157 139L162 135C161.049 120.437 151.378 115.337 138 112.13C117.167 107.136 90.4641 108.863 71 118z"/>
<path style="fill:#5f6d78; stroke:none;" d="M131 110L131 111L134 111L131 110z"/>
<path style="fill:#98a4aa; stroke:none;" d="M134 110L137 112L134 110M177 110L178 111L177 110M196 110L197 111L196 110z"/>
<path style="fill:#263540; stroke:none;" d="M199 110L200 111L199 110z"/>
<path style="fill:#98a4aa; stroke:none;" d="M200 110L201 111L200 110M86 111L89 113L86 111z"/>
<path style="fill:#5f6d78; stroke:none;" d="M88.6667 111.333L89.3333 111.667L88.6667 111.333z"/>
<path style="fill:#3e4a54; stroke:none;" d="M90 111L91 112L90 111z"/>
<path style="fill:#5f6d78; stroke:none;" d="M91 111L92 112L91 111M137.667 111.333L138.333 111.667L137.667 111.333z"/>
<path style="fill:#98a4aa; stroke:none;" d="M139 111L139 113L141 113L141 111L139 111M176 111L177 112L176 111M197 111L201 116L197 111M82 112L84 114L82 112z"/>
<path style="fill:#5f6d78; stroke:none;" d="M83 112L83 113L87 113L83 112M141.667 112.333L142.333 112.667L141.667 112.333z"/>
<path style="fill:#98a4aa; stroke:none;" d="M143.333 112.667L143.667 113.333L143.333 112.667M178 112L179 113L178 112z"/>
<path style="fill:#5f6d78; stroke:none;" d="M198 112L199 113L198 112z"/>
<path style="fill:#98a4aa; stroke:none;" d="M201 112L202 113L201 112M78 113L80 115L80 113L78 113z"/>
<path style="fill:#5f6d78; stroke:none;" d="M80 113L81 114L80 113z"/>
<path style="fill:#3e4a54; stroke:none;" d="M81 113L82 114L81 113z"/>
<path style="fill:#5f6d78; stroke:none;" d="M82 113L83 114L82 113M144.667 113.333L145.333 113.667L144.667 113.333z"/>
<path style="fill:#98a4aa; stroke:none;" d="M146.333 113.667L146.667 114.333L146.333 113.667M177 113L178 114L177 113z"/>
<path style="fill:#5f6d78; stroke:none;" d="M199 113L214 129L203 114L199 113z"/>
<path style="fill:#263540; stroke:none;" d="M201 113L202 114L201 113z"/>
<path style="fill:#98a4aa; stroke:none;" d="M75 114L77 116L77 114L75 114z"/>
<path style="fill:#3e4a54; stroke:none;" d="M77 114L78 115L77 114z"/>
<path style="fill:#5f6d78; stroke:none;" d="M78 114L79 115L78 114M147 114L147 115L151 116L151 115L147 114z"/>
<path style="fill:#98a4aa; stroke:none;" d="M149 114L150 115L149 114M179 114L180 115L179 114M73 115L70 117L70 118L73 115z"/>
<path style="fill:#5f6d78; stroke:none;" d="M74.6667 115.333L75.3333 115.667L74.6667 115.333z"/>
<path style="fill:#98a4aa; stroke:none;" d="M148 115L149 116L148 115M151 115L154 117L154 116L151 115M178 115L179 116L178 115M180 115L181 116L180 115z"/>
<path style="fill:#3e4a54; stroke:none;" d="M202 115L204 117L202 115z"/>
<path style="fill:#98a4aa; stroke:none;" d="M203 115L204 116L203 115z"/>
<path style="fill:#5f6d78; stroke:none;" d="M152 116L153 117L152 116M179.667 116.333L180.333 116.667L179.667 116.333z"/>
<path style="fill:#98a4aa; stroke:none;" d="M204 116L205 117L204 116z"/>
<path style="fill:#5f6d78; stroke:none;" d="M153 117L153 118L160 123L153 117z"/>
<path style="fill:#98a4aa; stroke:none;" d="M179 117L179 118L183 121L181 120L181 121L184 125L194 134L195 135L194 137L199 141L196 139L201 141C208.319 156.058 228.054 160.401 220 180L221 180L223 179C228.687 170.469 219.122 162.225 221 158C222.521 154.578 224.832 150.458 227 151L225 147L229 150L229 147L233 150L228 147L226 141L225 140L214 131L214 138L210 138L211 148L210 148L191.285 128L179 117z"/>
<path style="fill:#3e4a54; stroke:none;" d="M180 117L181 118L180 117z"/>
<path style="fill:#98a4aa; stroke:none;" d="M201 117L203 119L203 117L201 117z"/>
<path style="fill:#5f6d78; stroke:none;" d="M70 118L72 121L70 118z"/>
<path style="fill:#98a4aa; stroke:none;" d="M73 118L74 119L73 118M106 118L106 119L117 119L106 118M154 118L155 119L154 118M156 118L157 119L156 118z"/>
<path style="fill:#3e4a54; stroke:none;" d="M181 118L182 119L181 118z"/>
<path style="fill:#98a4aa; stroke:none;" d="M71.6667 119.333L72.3333 119.667L71.6667 119.333M76 119L77 120L76 119M79 119L79 120L86 120L79 119z"/>
<path style="fill:#5f6d78; stroke:none;" d="M86 119L86 120L90 120L86 119z"/>
<path style="fill:#3e4a54; stroke:none;" d="M76 121L76 122L110 120C100.223 115.897 86.2538 120.303 76 121z"/>
<path style="fill:#5f6d78; stroke:none;" d="M110 119L110 120L118 120L110 119z"/>
<path style="fill:#98a4aa; stroke:none;" d="M118 119L118 120L126 120L118 119M157 119L158 120L157 119z"/>
<path style="fill:#5f6d78; stroke:none;" d="M181.667 119.333L182.333 119.667L181.667 119.333z"/>
<path style="fill:#98a4aa; stroke:none;" d="M203 119L204 120L203 119M206 119L208 121L206 119z"/>
<path style="fill:#3e4a54; stroke:none;" d="M72 120L73 121L72 120z"/>
<path style="fill:#5f6d78; stroke:none;" d="M73 120L73 121L81 121L73 120M82 120L83 121L82 120z"/>
<path style="fill:#263540; stroke:none;" d="M89 121L89 122L126 123C115.161 117.236 100.603 120.761 89 121z"/>
<path style="fill:#3e4a54; stroke:none;" d="M113 120L114 121L113 120M116 120L116 121L121 121L116 120z"/>
<path style="fill:#5f6d78; stroke:none;" d="M121 120L122 121L121 120z"/>
<path style="fill:#3e4a54; stroke:none;" d="M122 120L126 122L126 123L124 125L129 126L131 124L131 127L135 127L141 132L140 139L143 142L141 141L142 144L143 144L144 141L145 141L145 146L146 146L147 137L145 131L144 131L136 128L135 126L136 124L135 123L122 120z"/>
<path style="fill:#5f6d78; stroke:none;" d="M123 120L123 121L135 123L136 124L135 126L137 126L136 128L144 131L145 131L147 137L146 145C156.751 129.525 135.029 120.524 123 120z"/>
<path style="fill:#98a4aa; stroke:none;" d="M128 120L128 121L131 121L128 120M158 120L159 121L158 120z"/>
<path style="fill:#3e4a54; stroke:none;" d="M182 120L183 121L182 120z"/>
<path style="fill:#98a4aa; stroke:none;" d="M204 120L204 122L206 122L204 120z"/>
<path style="fill:#3e4a54; stroke:none;" d="M206 120L207 121L206 120z"/>
<path style="fill:#98a4aa; stroke:none;" d="M72.6667 121.333L73.3333 121.667L72.6667 121.333z"/>
<path style="fill:#3e4a54; stroke:none;" d="M74 121L75 122L74 121z"/>
<path style="fill:#263540; stroke:none;" d="M75 121L76 122L75 121z"/>
<path style="fill:#98a4aa; stroke:none;" d="M132 121L132 122L135 122L132 121M159 121L160 122L159 121z"/>
<path style="fill:#3e4a54; stroke:none;" d="M183 121L184 122L183 121z"/>
<path style="fill:#98a4aa; stroke:none;" d="M208 121L209 122L208 121M77 122L77 123L106 123L77 122z"/>
<path style="fill:#5f6d78; stroke:none;" d="M106 122L106 123L109 123L106 122z"/>
<path style="fill:#3e4a54; stroke:none;" d="M109 122L109 123L112 123L109 122M120.667 122.333L121.333 122.667L120.667 122.333z"/>
<path style="fill:#98a4aa; stroke:none;" d="M136 122L137 123L136 122M160 122L163 127L163 126L160 122z"/>
<path style="fill:#5f6d78; stroke:none;" d="M183.667 122.333L184.333 122.667L183.667 122.333z"/>
<path style="fill:#98a4aa; stroke:none;" d="M206 122L207 123L206 122z"/>
<path style="fill:#3e4a54; stroke:none;" d="M208 122L209 123L208 122z"/>
<path style="fill:#98a4aa; stroke:none;" d="M114 123L114 124L118 124L114 123z"/>
<path style="fill:#5f6d78; stroke:none;" d="M118 123L119 124L118 123z"/>
<path style="fill:#3e4a54; stroke:none;" d="M119 123L120 124L119 123z"/>
<path style="fill:#98a4aa; stroke:none;" d="M139 123L140 124L139 123z"/>
<path style="fill:#3e4a54; stroke:none;" d="M160 123L161 124L160 123z"/>
<path style="fill:#263540; stroke:none;" d="M184 123L185 124L184 123z"/>
<path style="fill:#98a4aa; stroke:none;" d="M207 123L208 124L207 123M122.667 124.333L123.333 124.667L122.667 124.333z"/>
<path style="fill:#263540; stroke:none;" d="M125 124L125 125L128 125L125 124z"/>
<path style="fill:#5f6d78; stroke:none;" d="M130 124L131 125L130 124M134 124L135 125L134 124M161.333 124.667L161.667 125.333L161.333 124.667M185 124L190 132L191 132L185 124z"/>
<path style="fill:#98a4aa; stroke:none;" d="M208 124L211 127L208 124M126 125L127 126L126 125z"/>
<path style="fill:#5f6d78; stroke:none;" d="M127 125L128 126L127 125z"/>
<path style="fill:#263540; stroke:none;" d="M129 125L129 126L132 126L129 125z"/>
<path style="fill:#98a4aa; stroke:none;" d="M139 125L140 126L139 125M142 125L143 126L142 125z"/>
<path style="fill:#3e4a54; stroke:none;" d="M210 125L211 126L210 125z"/>
<path style="fill:#98a4aa; stroke:none;" d="M129 126L130 127L129 126z"/>
<path style="fill:#5f6d78; stroke:none;" d="M130 126L131 127L130 126z"/>
<path style="fill:#3e4a54; stroke:none;" d="M186 126L187 127L186 126z"/>
<path style="fill:#98a4aa; stroke:none;" d="M212 126L213 127L212 126M132 127L133 128L132 127z"/>
<path style="fill:#263540; stroke:none;" d="M134 127L135 128L134 127z"/>
<path style="fill:#98a4aa; stroke:none;" d="M160.333 127.667L160.667 128.333L160.333 127.667z"/>
<path style="fill:#5f6d78; stroke:none;" d="M162.333 127.667L162.667 128.333L162.333 127.667z"/>
<path style="fill:#98a4aa; stroke:none;" d="M186 127L187 128L186 127M211 127L215 129L215 128L211 127M213 127L214 128L213 127M134 128L135 129L134 128z"/>
<path style="fill:#5f6d78; stroke:none;" d="M138 128L140 130L138 128z"/>
<path style="fill:#98a4aa; stroke:none;" d="M187 128L188 129L187 128M135 129L136 130L135 129M146 129L147 130L146 129M162 129L162 135L157 139L150 141L150 145L147 143L118 178C126.464 172.421 133.135 165.663 144 166L148 163L147 160L151 161L152 160C151.47 157.351 151.572 156.393 154 157C153.47 154.351 153.572 153.393 156 154L155 151L158 151L157 148L159 149L158 146L160 147L159 144L161 145L159 143L159 142C161.595 141.685 161.523 141.54 161 139L163 140L163 139L162 136L164 129L162 129M188 129L189 130L188 129z"/>
<path style="fill:#3e4a54; stroke:none;" d="M214 129L217 132L214 129M146.333 130.667L146.667 131.333L146.333 130.667z"/>
<path style="fill:#5f6d78; stroke:none;" d="M214 130L215 131L214 130z"/>
<path style="fill:#98a4aa; stroke:none;" d="M137 131L139 133L137 131z"/>
<path style="fill:#263540; stroke:none;" d="M138 131L139 132L138 131z"/>
<path style="fill:#98a4aa; stroke:none;" d="M147 131L148 132L147 131M160 131L161 132L160 131z"/>
<path style="fill:#5f6d78; stroke:none;" d="M192 131L193 132L192 131M215 131L216 132L215 131z"/>
<path style="fill:#263540; stroke:none;" d="M140 132L140 135L141 135L140 132M191 132L192 133L191 132z"/>
<path style="fill:#5f6d78; stroke:none;" d="M216 132L219 134L216 132M140 133L141 134L140 133z"/>
<path style="fill:#98a4aa; stroke:none;" d="M148 133L148 136L149 136L148 133M159 133L160 134L159 133z"/>
<path style="fill:#5f6d78; stroke:none;" d="M192 133L193 134L192 133z"/>
<path style="fill:#fcfdfd; stroke:none;" d="M215.333 133.667L215.667 134.333L215.333 133.667z"/>
<path style="fill:#98a4aa; stroke:none;" d="M95 134L88 141L88 142L93 141L95 134z"/>
<path style="fill:#5f6d78; stroke:none;" d="M96 134L95 136L96 134z"/>
<path style="fill:#98a4aa; stroke:none;" d="M97.6667 134.333L98.3333 134.667L97.6667 134.333z"/>
<path style="fill:#5f6d78; stroke:none;" d="M99 134L100 135L99 134z"/>
<path style="fill:#98a4aa; stroke:none;" d="M100 134L101 135L100 134M139 134L139 137L140 137L139 134z"/>
<path style="fill:#5f6d78; stroke:none;" d="M193 134L193 136L195 136L193 134z"/>
<path style="fill:#3e4a54; stroke:none;" d="M218 134L219 135L218 134z"/>
<path style="fill:#fcfdfd; stroke:none;" d="M93 141L90 144L87 145L88 148L93 146L86 159L87 159L100 135C95.9796 135.622 93.7212 136.908 93 141z"/>
<path style="fill:#3e4a54; stroke:none;" d="M100 135L99 141L100 141L100 135M219 135L221 137L219 135z"/>
<path style="fill:#5f6d78; stroke:none;" d="M93 136L94 137L93 136z"/>
<path style="fill:#263540; stroke:none;" d="M141 136L142 137L141 136z"/>
<path style="fill:#5f6d78; stroke:none;" d="M162.333 136.667L162.667 137.333L162.333 136.667M195 136L199 141L195 136M92 137L93 138L92 137z"/>
<path style="fill:#fcfdfd; stroke:none;" d="M215 137L216 138L215 137z"/>
<path style="fill:#3e4a54; stroke:none;" d="M221 137L222 138L221 137z"/>
<path style="fill:#5f6d78; stroke:none;" d="M91 138L92 139L91 138z"/>
<path style="fill:#98a4aa; stroke:none;" d="M99 138L100 139L99 138z"/>
<path style="fill:#263540; stroke:none;" d="M141 138L137 153L135 152L135 153L138 156L139 156L145 141L144 141L143 144L142 144L141 141L143 142L143 141L141 138z"/>
<path style="fill:#98a4aa; stroke:none;" d="M148 138L148 141L149 141L148 138z"/>
<path style="fill:#5f6d78; stroke:none;" d="M199 138L200 139L199 138M221 138L224 140L221 138M90 139L91 140L90 139z"/>
<path style="fill:#98a4aa; stroke:none;" d="M100 139L101 140L100 139z"/>
<path style="fill:#5f6d78; stroke:none;" d="M161.333 139.667L161.667 140.333L161.333 139.667z"/>
<path style="fill:#98a4aa; stroke:none;" d="M98 140L99 141L98 140M139.333 140.667L139.667 141.333L139.333 140.667z"/>
<path style="fill:#fcfdfd; stroke:none;" d="M215 140L216 141L215 140z"/>
<path style="fill:#3e4a54; stroke:none;" d="M223 140L224 141L223 140z"/>
<path style="fill:#5f6d78; stroke:none;" d="M89 141L90 142L89 141M98.6667 141.333L99.3333 141.667L98.6667 141.333M199 141L210 156L213 160L216 156L199 141z"/>
<path style="fill:#3e4a54; stroke:none;" d="M224 141L225 142L224 141M88 142L89 143L88 142z"/>
<path style="fill:#98a4aa; stroke:none;" d="M97 142L98 143L97 142z"/>
<path style="fill:#263540; stroke:none;" d="M98 142L99 143L98 142z"/>
<path style="fill:#5f6d78; stroke:none;" d="M139 142L140 143L139 142z"/>
<path style="fill:#fcfdfd; stroke:none;" d="M159 142L160 143L159 142z"/>
<path style="fill:#3e4a54; stroke:none;" d="M160 142L161 143L160 142z"/>
<path style="fill:#5f6d78; stroke:none;" d="M202 142L203 143L202 142z"/>
<path style="fill:#3e4a54; stroke:none;" d="M225 142L226 143L225 142z"/>
<path style="fill:#5f6d78; stroke:none;" d="M87 143L81 152L87 143z"/>
<path style="fill:#98a4aa; stroke:none;" d="M88.6667 143.333L89.3333 143.667L88.6667 143.333z"/>
<path style="fill:#5f6d78; stroke:none;" d="M97.6667 143.333L98.3333 143.667L97.6667 143.333z"/>
<path style="fill:#3e4a54; stroke:none;" d="M139 143L140 144L139 143M226 143L227 144L226 143z"/>
<path style="fill:#98a4aa; stroke:none;" d="M87 144L88 145L87 144M96 144L95 146L96 144z"/>
<path style="fill:#263540; stroke:none;" d="M97 144L98 145L97 144z"/>
<path style="fill:#98a4aa; stroke:none;" d="M98 144L99 145L98 144M138 144L139 145L138 144z"/>
<path style="fill:#3e4a54; stroke:none;" d="M159 144L160 145L159 144M227 144L228 145L227 144z"/>
<path style="fill:#98a4aa; stroke:none;" d="M85 145L86 146L85 145M88 145L89 146L88 145z"/>
<path style="fill:#3e4a54; stroke:none;" d="M96.3333 145.667L96.6667 146.333L96.3333 145.667z"/>
<path style="fill:#5f6d78; stroke:none;" d="M97 145L98 146L97 145M138 145L139 146L138 145z"/>
<path style="fill:#fcfdfd; stroke:none;" d="M147 145L148 146L147 145z"/>
<path style="fill:#5f6d78; stroke:none;" d="M159 145L160 146L159 145z"/>
<path style="fill:#3e4a54; stroke:none;" d="M202 145L204 147L202 145z"/>
<path style="fill:#5f6d78; stroke:none;" d="M227.667 145.333L228.333 145.667L227.667 145.333z"/>
<path style="fill:#98a4aa; stroke:none;" d="M86 146L79 153L79 154L81 153L81 154L80 158L83 157L85 162L86 162L89 158L86 159L93 146L89 148L86 146z"/>
<path style="fill:#5f6d78; stroke:none;" d="M95 146L90 156L91 156L95 146z"/>
<path style="fill:#3e4a54; stroke:none;" d="M138 146L139 147L138 146z"/>
<path style="fill:#5f6d78; stroke:none;" d="M145 146L146 147L145 146M158.333 146.667L158.667 147.333L158.333 146.667z"/>
<path style="fill:#98a4aa; stroke:none;" d="M202 146L203 147L202 146z"/>
<path style="fill:#5f6d78; stroke:none;" d="M226 146L228 148L226 146z"/>
<path style="fill:#3e4a54; stroke:none;" d="M228 146L229 147L228 146z"/>
<path style="fill:#98a4aa; stroke:none;" d="M94 147L95 148L94 147M96 147L97 148L96 147M137 147L136 150L137 150L137 147z"/>
<path style="fill:#3e4a54; stroke:none;" d="M144 147L145 148L144 147z"/>
<path style="fill:#98a4aa; stroke:none;" d="M203 147L204 148L203 147z"/>
<path style="fill:#5f6d78; stroke:none;" d="M225 147L227 151C223.488 149.595 219.175 158.936 220 161C221.554 164.884 224.64 165.441 224 168L233 155L234 155L236 157L235 153L233 150L228 148L229 150L225 147z"/>
<path style="fill:#3e4a54; stroke:none;" d="M229 147L230 148L229 147z"/>
<path style="fill:#98a4aa; stroke:none;" d="M83 148L84 149L83 148z"/>
<path style="fill:#3e4a54; stroke:none;" d="M137 148L138 149L137 148z"/>
<path style="fill:#5f6d78; stroke:none;" d="M144 148L145 149L144 148M157.333 148.667L157.667 149.333L157.333 148.667z"/>
<path style="fill:#98a4aa; stroke:none;" d="M204 148L205 149L204 148z"/>
<path style="fill:#3e4a54; stroke:none;" d="M230 148L231 149L230 148z"/>
<path style="fill:#98a4aa; stroke:none;" d="M82 149L83 150L82 149z"/>
<path style="fill:#3e4a54; stroke:none;" d="M143 149L144 150L143 149z"/>
<path style="fill:#98a4aa; stroke:none;" d="M92 150L93 151L92 150z"/>
<path style="fill:#5f6d78; stroke:none;" d="M143 150L144 151L143 150z"/>
<path style="fill:#3e4a54; stroke:none;" d="M156 150L157 151L156 150z"/>
<path style="fill:#5f6d78; stroke:none;" d="M223 150L224 151L223 150z"/>
<path style="fill:#98a4aa; stroke:none;" d="M94 151L95 152L94 151z"/>
<path style="fill:#5f6d78; stroke:none;" d="M135 151L136 152L135 151z"/>
<path style="fill:#3e4a54; stroke:none;" d="M136.333 151.667L136.667 152.333L136.333 151.667M138 151L139 152L138 151z"/>
<path style="fill:#5f6d78; stroke:none;" d="M142 151L143 152L142 151M155.667 151.333L156.333 151.667L155.667 151.333z"/>
<path style="fill:#3e4a54; stroke:none;" d="M207 151L209 153L207 151M232 151L233 154L234 154L232 151z"/>
<path style="fill:#98a4aa; stroke:none;" d="M233 151L234 152L233 151z"/>
<path style="fill:#3e4a54; stroke:none;" d="M81 152L82 153L81 152z"/>
<path style="fill:#98a4aa; stroke:none;" d="M91 152L92 153L91 152M134 152L135 153L134 152z"/>
<path style="fill:#3e4a54; stroke:none;" d="M141 152L140 154L141 152M155 152L156 153L155 152z"/>
<path style="fill:#98a4aa; stroke:none;" d="M207 152L208 153L207 152z"/>
<path style="fill:#5f6d78; stroke:none;" d="M222 152L221 154L222 152M80 153L72 164L67 175L70 175L69 172L72 173L74 177L81 163L84 162L83 157L80 158L80 153z"/>
<path style="fill:#98a4aa; stroke:none;" d="M90 153L91 154L90 153z"/>
<path style="fill:#3e4a54; stroke:none;" d="M92 153L93 154L92 153M134 153L128 162L131 161L129 165L130 165L131 162C135.428 161.241 137.831 158.308 139 154L134 153z"/>
<path style="fill:#5f6d78; stroke:none;" d="M141 153L142 154L141 153M154.333 153.667L154.667 154.333L154.333 153.667z"/>
<path style="fill:#98a4aa; stroke:none;" d="M208 153L209 154L208 153M92 154L93 155L92 154z"/>
<path style="fill:#5f6d78; stroke:none;" d="M133 154L134 155L133 154M140 154L141 155L140 154z"/>
<path style="fill:#98a4aa; stroke:none;" d="M209 154L210 155L209 154z"/>
<path style="fill:#3e4a54; stroke:none;" d="M210 154L211 155L210 154M234 154L236 157L234 155L233 155C228.388 161.049 225.11 166.275 226 174L227 174C229.632 169.319 234.283 166.824 233 161L240 163L234 154z"/>
<path style="fill:#98a4aa; stroke:none;" d="M235 154L236 155L235 154M78 155L77 157L78 155z"/>
<path style="fill:#5f6d78; stroke:none;" d="M81 155L82 156L81 155z"/>
<path style="fill:#98a4aa; stroke:none;" d="M89 155L88 157L90 157L89 155z"/>
<path style="fill:#3e4a54; stroke:none;" d="M91 155L87 162L88 162L91 155z"/>
<path style="fill:#98a4aa; stroke:none;" d="M132 155L133 156L132 155z"/>
<path style="fill:#5f6d78; stroke:none;" d="M139 155L140 156L139 155z"/>
<path style="fill:#3e4a54; stroke:none;" d="M153 155L154 156L153 155M211.333 155.667L211.667 156.333L211.333 155.667z"/>
<path style="fill:#98a4aa; stroke:none;" d="M236 155L237 156L236 155z"/>
<path style="fill:#3e4a54; stroke:none;" d="M78 156L79 157L78 156z"/>
<path style="fill:#5f6d78; stroke:none;" d="M83 156L84 157L83 156z"/>
<path style="fill:#98a4aa; stroke:none;" d="M91 156L92 157L91 156M131 156L132 157L131 156z"/>
<path style="fill:#5f6d78; stroke:none;" d="M152.333 156.667L152.667 157.333L152.333 156.667M88.6667 157.333L89.3333 157.667L88.6667 157.333z"/>
<path style="fill:#98a4aa; stroke:none;" d="M130 157L131 158L130 157z"/>
<path style="fill:#3e4a54; stroke:none;" d="M212 157L213 158L212 157M214 157L215 158L214 157z"/>
<path style="fill:#98a4aa; stroke:none;" d="M237 157L238 158L237 157M76 158L75 160L76 158z"/>
<path style="fill:#5f6d78; stroke:none;" d="M87 158L88 159L87 158z"/>
<path style="fill:#98a4aa; stroke:none;" d="M90 158L91 159L90 158z"/>
<path style="fill:#5f6d78; stroke:none;" d="M132 158L133 159L132 158M137 158L138 159L137 158z"/>
<path style="fill:#3e4a54; stroke:none;" d="M151 158L152 159L151 158z"/>
<path style="fill:#98a4aa; stroke:none;" d="M212.333 158.667L212.667 159.333L212.333 158.667z"/>
<path style="fill:#263540; stroke:none;" d="M213 158L214 159L213 158z"/>
<path style="fill:#3e4a54; stroke:none;" d="M215 158L214 159L214 161L218 165L220 163L217 158L215 158M76 159L77 160L76 159z"/>
<path style="fill:#5f6d78; stroke:none;" d="M84 159L85 160L84 159M89 159L90 160L89 159M130 159L131 160L130 159z"/>
<path style="fill:#263540; stroke:none;" d="M132 159L133 160L132 159z"/>
<path style="fill:#5f6d78; stroke:none;" d="M136 159L137 160L136 159M148 159L149 160L148 159z"/>
<path style="fill:#3e4a54; stroke:none;" d="M150 159L151 160L150 159z"/>
<path style="fill:#5f6d78; stroke:none;" d="M217 159L218 160L217 159M219 159L220 160L219 159M238 159L239 160L238 159z"/>
<path style="fill:#3e4a54; stroke:none;" d="M75 160L73 164L75 160z"/>
<path style="fill:#fcfdfd; stroke:none;" d="M85 160L86 161L85 160z"/>
<path style="fill:#5f6d78; stroke:none;" d="M87 160L88 161L87 160z"/>
<path style="fill:#98a4aa; stroke:none;" d="M128 160L129 161L128 160z"/>
<path style="fill:#5f6d78; stroke:none;" d="M131 160L132 161L131 160M135 160L136 161L135 160M147 160C148.127 162.006 148.873 162.006 150 160L147 160z"/>
<path style="fill:#98a4aa; stroke:none;" d="M213 160L214 161L213 160z"/>
<path style="fill:#5f6d78; stroke:none;" d="M218 160L219 161L218 160z"/>
<path style="fill:#263540; stroke:none;" d="M238 160L239 161L238 160z"/>
<path style="fill:#98a4aa; stroke:none;" d="M74 161L75 162L74 161z"/>
<path style="fill:#fcfdfd; stroke:none;" d="M84 161L83 164L84 161z"/>
<path style="fill:#5f6d78; stroke:none;" d="M86 161L84 167L82 170L83 170L85 169L88 162L86 161z"/>
<path style="fill:#98a4aa; stroke:none;" d="M88 161L89 162L88 161M127 161L123 166L127 161z"/>
<path style="fill:#5f6d78; stroke:none;" d="M109 179L107 178L106 181L104 180L102 184L100 183L96 185L97 187L94 186L96 189L100 186L100 188C108.833 183.823 130.116 172.155 132 162L130 165L129 165L131 161C124.018 163.551 112.646 172.527 109 179M134 161L135 162L134 161z"/>
<path style="fill:#98a4aa; stroke:none;" d="M214 161L215 162L214 161z"/>
<path style="fill:#263540; stroke:none;" d="M215.333 161.667L215.667 162.333L215.333 161.667z"/>
<path style="fill:#5f6d78; stroke:none;" d="M233 161C234.631 165.892 227.163 173.541 225 173C224.292 177.246 221.378 180.594 219 180L219 182L214 182L214 183L217 183L217 184L208 185L208 184L211 184L211 183L184 186.06L176 191L170 191L170 192L194 193L194 192L192 191L203 192L203 191L198 191L198 190L202 185L214 187L210 191L204 194L208 194L207 192L216 193C216 189.817 218.615 191.31 221 192L227 188L232 188C232 183.558 242.199 182.998 239 175L242 175L242 174L242 166L233 161M239 161L240 162L239 161z"/>
<path style="fill:#98a4aa; stroke:none;" d="M73 162L74 163L73 162M83 162L84 163L83 162z"/>
<path style="fill:#5f6d78; stroke:none;" d="M133 162L134 163L133 162M143 162L144 163L143 162M146 162L144 166C136.281 165.354 122.619 169.312 121 178C116.308 178.685 113.156 180.758 111 185L108 187L113 189L114 189L113 186L117 187L115 189C120.74 188.466 126.517 183.064 129 178L135 177L136 176L135 174L136 173L138 174L142 171L146 162z"/>
<path style="fill:#3e4a54; stroke:none;" d="M148 162L149 163L148 162M75 163L77 166L75 163M81 163L82 164L81 163z"/>
<path style="fill:#98a4aa; stroke:none;" d="M82 163L80 168L81 169L84 164L82 163M84 163L85 164L84 163z"/>
<path style="fill:#3e4a54; stroke:none;" d="M86 163L87 164L86 163z"/>
<path style="fill:#98a4aa; stroke:none;" d="M87 163L88 164L87 163z"/>
<path style="fill:#3e4a54; stroke:none;" d="M126 163L127 164L126 163M147 163L145 166L147 163z"/>
<path style="fill:#98a4aa; stroke:none;" d="M215 163L216 164L215 163z"/>
<path style="fill:#263540; stroke:none;" d="M217 163C217.62 168.302 218.314 172.19 214 176L214 177L219 177L223 172L220 166L221 164L217 163z"/>
<path style="fill:#5f6d78; stroke:none;" d="M220 163L221 164L220 163z"/>
<path style="fill:#98a4aa; stroke:none;" d="M240 163L241 164L240 163z"/>
<path style="fill:#3e4a54; stroke:none;" d="M125 164L126 165L125 164z"/>
<path style="fill:#98a4aa; stroke:none;" d="M145 164L146 165L145 164M147 164L148 165L147 164z"/>
<path style="fill:#3e4a54; stroke:none;" d="M219 164L220 165L219 164M238 164L239 165L238 164M240 164L241 165L240 164z"/>
<path style="fill:#98a4aa; stroke:none;" d="M71 165L72 166L71 165z"/>
<path style="fill:#3e4a54; stroke:none;" d="M72 165L70 169L72 165z"/>
<path style="fill:#fcfdfd; stroke:none;" d="M82 165L83 166L82 165z"/>
<path style="fill:#3e4a54; stroke:none;" d="M85 165L86 166L85 165z"/>
<path style="fill:#98a4aa; stroke:none;" d="M86 165L87 166L86 165z"/>
<path style="fill:#3e4a54; stroke:none;" d="M124 165L125 166L124 165z"/>
<path style="fill:#5f6d78; stroke:none;" d="M133 165L134 166L133 165z"/>
<path style="fill:#98a4aa; stroke:none;" d="M146 165L147 166L146 165z"/>
<path style="fill:#5f6d78; stroke:none;" d="M216 165L217 166L216 165z"/>
<path style="fill:#3e4a54; stroke:none;" d="M220 165L221 166L220 165z"/>
<path style="fill:#5f6d78; stroke:none;" d="M221 165L222 166L221 165z"/>
<path style="fill:#3e4a54; stroke:none;" d="M225 165L226 166L225 165z"/>
<path style="fill:#263540; stroke:none;" d="M240 165L241 166L240 165z"/>
<path style="fill:#fcfdfd; stroke:none;" d="M81 166L82 167L81 166z"/>
<path style="fill:#3e4a54; stroke:none;" d="M83 166L84 167L83 166z"/>
<path style="fill:#98a4aa; stroke:none;" d="M85.3333 166.667L85.6667 167.333L85.3333 166.667z"/>
<path style="fill:#3e4a54; stroke:none;" d="M127 166L128 167L127 166z"/>
<path style="fill:#5f6d78; stroke:none;" d="M135.667 166.333L136.333 166.667L135.667 166.333z"/>
<path style="fill:#98a4aa; stroke:none;" d="M145 166L146 167L145 166M216 166L217 167L216 166z"/>
<path style="fill:#3e4a54; stroke:none;" d="M224 166L225 167L224 166z"/>
<path style="fill:#98a4aa; stroke:none;" d="M70 167L71 168L70 167z"/>
<path style="fill:#3e4a54; stroke:none;" d="M84 167L85 168L84 167M122 167L123 168L122 167M143 167L144 168L143 167z"/>
<path style="fill:#98a4aa; stroke:none;" d="M144 167L145 168L144 167z"/>
<path style="fill:#3e4a54; stroke:none;" d="M217 167L218 168L217 167z"/>
<path style="fill:#5f6d78; stroke:none;" d="M222 167L223 168L222 167z"/>
<path style="fill:#98a4aa; stroke:none;" d="M69 168L70 169L69 168z"/>
<path style="fill:#fcfdfd; stroke:none;" d="M80 168L76 176L77 176L80 168z"/>
<path style="fill:#3e4a54; stroke:none;" d="M83.3333 168.667L83.6667 169.333L83.3333 168.667z"/>
<path style="fill:#98a4aa; stroke:none;" d="M143 168L144 169L143 168z"/>
<path style="fill:#5f6d78; stroke:none;" d="M217 168L218 169L217 168z"/>
<path style="fill:#3e4a54; stroke:none;" d="M222 168L223 169L222 168M241 168L241 174L242 174L241 168M78 169L79 170L78 169M81 169L75 181C79.216 178.839 82.9149 173.882 81 169z"/>
<path style="fill:#98a4aa; stroke:none;" d="M84 169L85 170L84 169M118 169L115 173L118 169z"/>
<path style="fill:#3e4a54; stroke:none;" d="M141 169L142 170L141 169z"/>
<path style="fill:#98a4aa; stroke:none;" d="M142 169L143 170L142 169M217.333 169.667L217.667 170.333L217.333 169.667M68 170L69 171L68 170M78 170L79 171L78 170z"/>
<path style="fill:#5f6d78; stroke:none;" d="M80 170L81 171L80 170z"/>
<path style="fill:#263540; stroke:none;" d="M82.3333 170.667L82.6667 171.333L82.3333 170.667z"/>
<path style="fill:#98a4aa; stroke:none;" d="M83 170L84 171L83 170z"/>
<path style="fill:#3e4a54; stroke:none;" d="M118 170L119 171L118 170M124 170L125 171L124 170M140 170L137 172L137 173L140 170z"/>
<path style="fill:#5f6d78; stroke:none;" d="M223 170L223 174L224 174L223 170M225.333 170.667L225.667 171.333L225.333 170.667z"/>
<path style="fill:#98a4aa; stroke:none;" d="M67 171L68 172L67 171M79 171L80 172L79 171z"/>
<path style="fill:#5f6d78; stroke:none;" d="M81 171L82 172L81 171z"/>
<path style="fill:#3e4a54; stroke:none;" d="M117 171L118 172L117 171z"/>
<path style="fill:#98a4aa; stroke:none;" d="M140 171L141 172L140 171z"/>
<path style="fill:#5f6d78; stroke:none;" d="M217 171L218 172L217 171z"/>
<path style="fill:#98a4aa; stroke:none;" d="M69 172L70 175L64 176C64.5298 178.649 64.4278 179.607 62 179L63 182L61 181L59 184L60 187L58 186L59 189L57 188L58 191L56 190L55 196L53 195L53 200L51 199L52 202L50 201L51 204L49 203L50 206L48 205L47 208L50 209L66.4282 197.356L78 199L78 200L60 210L58 214L61 215C61 212.564 61.7861 213.385 64 214L68 213C68 210.564 68.7861 211.385 71 212C71 209.564 71.7861 210.385 74 211L73 209L76 210L80 209L80 208L78 207L84 207L83 205L86 206L89 205L88 203L91 204L90 202L93 203L98 201L104 196L103 198L104 198L107 196L106 194L109 195L108 193L111 194C111.391 190.955 113.126 190.927 116 191L117 187L113 186L114 189L113 189L108 187L109 183L111 185L112 182L107 186L104 185L101 187L102 189L99 188L97 191L98 189L97 189L97 192L94 191L95 193L92 192L93 194L90 193L87 194L88 196L87 196L71 198L74 179L77 178L77 174L74 177L69 172M77 172L78 173L77 172z"/>
<path style="fill:#5f6d78; stroke:none;" d="M80 172L81 173L80 172z"/>
<path style="fill:#98a4aa; stroke:none;" d="M82 172L83 173L82 172z"/>
<path style="fill:#3e4a54; stroke:none;" d="M116 172L117 173L116 172z"/>
<path style="fill:#fcfdfd; stroke:none;" d="M123 172L124 173L123 172z"/>
<path style="fill:#98a4aa; stroke:none;" d="M139 172L140 173L139 172z"/>
<path style="fill:#3e4a54; stroke:none;" d="M217 172L218 173L217 172M221 172L218 175L219 177L185 181L185 182C191.402 182.505 204.978 185.204 209 179C211.683 180.716 213.13 180.656 215 178C219.82 178.391 221.622 176.5 223 172L221 172z"/>
<path style="fill:#98a4aa; stroke:none;" d="M66 173L67 174L66 173M78 173L79 174L78 173z"/>
<path style="fill:#5f6d78; stroke:none;" d="M79 173L80 174L79 173z"/>
<path style="fill:#263540; stroke:none;" d="M81 173L82 174L81 173z"/>
<path style="fill:#3e4a54; stroke:none;" d="M128 173L127 175L128 173M136 173L135 175L137 175L136 173z"/>
<path style="fill:#98a4aa; stroke:none;" d="M138 173L139 174L138 173M216 173L214 176L216 173z"/>
<path style="fill:#3e4a54; stroke:none;" d="M228 173L229 174L228 173M66 174L67 175L66 174z"/>
<path style="fill:#98a4aa; stroke:none;" d="M73 174L74 175L73 174z"/>
<path style="fill:#5f6d78; stroke:none;" d="M78 174L79 175L78 174z"/>
<path style="fill:#98a4aa; stroke:none;" d="M81.3333 174.667L81.6667 175.333L81.3333 174.667M112 174L111 176L112 174M116 174L117 175L116 174z"/>
<path style="fill:#3e4a54; stroke:none;" d="M130 174L131 175L130 174M133 174L134 175L133 174z"/>
<path style="fill:#98a4aa; stroke:none;" d="M137 174L138 175L137 174z"/>
<path style="fill:#5f6d78; stroke:none;" d="M216 174L217 175L216 174z"/>
<path style="fill:#263540; stroke:none;" d="M222 174L223 175L222 174z"/>
<path style="fill:#5f6d78; stroke:none;" d="M65 175L66 176L65 175z"/>
<path style="fill:#98a4aa; stroke:none;" d="M77 175L78 176L77 175z"/>
<path style="fill:#3e4a54; stroke:none;" d="M112 175L113 176L112 175M124.333 175.667L124.667 176.333L124.333 175.667z"/>
<path style="fill:#263540; stroke:none;" d="M134 175L135 176L134 175z"/>
<path style="fill:#98a4aa; stroke:none;" d="M136 175L137 176L136 175z"/>
<path style="fill:#3e4a54; stroke:none;" d="M215 175L216 176L215 175z"/>
<path style="fill:#5f6d78; stroke:none;" d="M219 175L220 176L219 175M222 175L223 176L222 175z"/>
<path style="fill:#98a4aa; stroke:none;" d="M239 175L240 176L239 175z"/>
<path style="fill:#3e4a54; stroke:none;" d="M240 175L239 179L240 179L240 175z"/>
<path style="fill:#98a4aa; stroke:none;" d="M241.333 175.667L241.667 176.333L241.333 175.667z"/>
<path style="fill:#3e4a54; stroke:none;" d="M65 176L66 177L65 176z"/>
<path style="fill:#98a4aa; stroke:none;" d="M80 176L81 177L80 176z"/>
<path style="fill:#fcfdfd; stroke:none;" d="M118 176L119 177L118 176z"/>
<path style="fill:#3e4a54; stroke:none;" d="M126 177L126 178L130 177L126 177z"/>
<path style="fill:#263540; stroke:none;" d="M133 176L134 177L133 176z"/>
<path style="fill:#98a4aa; stroke:none;" d="M135 176L136 177L135 176M212 176L213 177L212 176z"/>
<path style="fill:#5f6d78; stroke:none;" d="M213 176L214 177L213 176M221 176L222 177L221 176z"/>
<path style="fill:#3e4a54; stroke:none;" d="M64 177L65 178L64 177z"/>
<path style="fill:#fcfdfd; stroke:none;" d="M75 177L76 178L75 177z"/>
<path style="fill:#263540; stroke:none;" d="M79 177L80 178L79 177z"/>
<path style="fill:#98a4aa; stroke:none;" d="M108 177L109 178L108 177M116 177L115 180L112 180L112 181L115 181L116 177z"/>
<path style="fill:#fcfdfd; stroke:none;" d="M117 177L118 178L117 177z"/>
<path style="fill:#3e4a54; stroke:none;" d="M119.667 177.333L120.333 177.667L119.667 177.333M132 177L129 178L126 183L132 177z"/>
<path style="fill:#98a4aa; stroke:none;" d="M133 177L134 178L133 177M209 177L210 178L209 177z"/>
<path style="fill:#5f6d78; stroke:none;" d="M210 177L211 178L210 177z"/>
<path style="fill:#263540; stroke:none;" d="M212 177L213 178L212 177z"/>
<path style="fill:#5f6d78; stroke:none;" d="M63.3333 178.667L63.6667 179.333L63.3333 178.667M79 178L80 179L79 178z"/>
<path style="fill:#3e4a54; stroke:none;" d="M108 178L109 179L108 178z"/>
<path style="fill:#fcfdfd; stroke:none;" d="M116 178L117 179L116 178z"/>
<path style="fill:#3e4a54; stroke:none;" d="M122 178L123 179L122 178z"/>
<path style="fill:#98a4aa; stroke:none;" d="M132 178L133 179L132 178M204.667 178.333L205.333 178.667L204.667 178.333z"/>
<path style="fill:#5f6d78; stroke:none;" d="M206 178L207 179L206 178z"/>
<path style="fill:#263540; stroke:none;" d="M208 178L209 179L208 178M215.667 178.333L216.333 178.667L215.667 178.333z"/>
<path style="fill:#5f6d78; stroke:none;" d="M213 180L213 181L220 179L213 180z"/>
<path style="fill:#fcfdfd; stroke:none;" d="M221 178L222 179L221 178z"/>
<path style="fill:#3e4a54; stroke:none;" d="M224 178L225 179L224 178z"/>
<path style="fill:#98a4aa; stroke:none;" d="M240 178L241 179L240 178z"/>
<path style="fill:#fcfdfd; stroke:none;" d="M74 179L75 180L74 179z"/>
<path style="fill:#5f6d78; stroke:none;" d="M75 179L76 180L75 179z"/>
<path style="fill:#263540; stroke:none;" d="M78 179C74.1317 182.834 72.2835 186.536 72 192C74.5874 191.75 77.9968 193.29 76 196L79 197L79 195C81.6986 195.69 84.5305 196.141 85 193L88 194L90 189L76 192L78 179z"/>
<path style="fill:#98a4aa; stroke:none;" d="M79 179L80 180L79 179M105 179L106 180L105 179z"/>
<path style="fill:#3e4a54; stroke:none;" d="M106 179L107 180L106 179z"/>
<path style="fill:#fcfdfd; stroke:none;" d="M114 179L115 180L114 179z"/>
<path style="fill:#3e4a54; stroke:none;" d="M124 179L125 180L124 179z"/>
<path style="fill:#98a4aa; stroke:none;" d="M131 179L132 180L131 179M194 179L194 180L198 180L194 179z"/>
<path style="fill:#5f6d78; stroke:none;" d="M198.667 179.333L199.333 179.667L198.667 179.333z"/>
<path style="fill:#263540; stroke:none;" d="M202 179L202 180L205 180L202 179M209 179L210 180L209 179z"/>
<path style="fill:#98a4aa; stroke:none;" d="M218 179L215 180L215 181L215 182L218 179z"/>
<path style="fill:#fcfdfd; stroke:none;" d="M219 179L220 180L219 179z"/>
<path style="fill:#5f6d78; stroke:none;" d="M62 180L63 181L62 180M78 180L79 181L78 180z"/>
<path style="fill:#3e4a54; stroke:none;" d="M105 180L106 181L105 180z"/>
<path style="fill:#fcfdfd; stroke:none;" d="M113 180L114 181L113 180z"/>
<path style="fill:#3e4a54; stroke:none;" d="M118 180L119 181L118 180M122 180L123 181L122 180z"/>
<path style="fill:#98a4aa; stroke:none;" d="M130 180L131 181L130 180M174 180L174 181L180 181L174 180z"/>
<path style="fill:#5f6d78; stroke:none;" d="M174 182L174 183L190 183L190 182L185 182L186 180L174 182z"/>
<path style="fill:#263540; stroke:none;" d="M193 180L193 181L198 181L193 180z"/>
<path style="fill:#5f6d78; stroke:none;" d="M209 180L208 182L210 182L209 180z"/>
<path style="fill:#fcfdfd; stroke:none;" d="M216 180L217 181L216 180z"/>
<path style="fill:#3e4a54; stroke:none;" d="M220 180L221 181L220 180M222 180L223 181L222 180z"/>
<path style="fill:#98a4aa; stroke:none;" d="M239 180L240 181L239 180z"/>
<path style="fill:#3e4a54; stroke:none;" d="M62 181L63 182L62 181z"/>
<path style="fill:#98a4aa; stroke:none;" d="M78 181L79 182L78 181M102 181L100 182L100 183L102 181z"/>
<path style="fill:#3e4a54; stroke:none;" d="M104 181L105 182L104 181z"/>
<path style="fill:#fcfdfd; stroke:none;" d="M111.667 181.333L112.333 181.667L111.667 181.333z"/>
<path style="fill:#98a4aa; stroke:none;" d="M128 181L129 182L128 181M152 181L152 182L154 182L154 183L146 183L152 188L152 189L150 189L150 190L164 190L164 191L161 191L161 192L176 191C176 184.81 194.27 185 199 185L180 182.985L152 181z"/>
<path style="fill:#5f6d78; stroke:none;" d="M157 181L157 182L162 182L157 181z"/>
<path style="fill:#3e4a54; stroke:none;" d="M162 181L162 182L177 182L162 181M178 181L179 182L178 181z"/>
<path style="fill:#98a4aa; stroke:none;" d="M210 181L210 182L214 183L214 182L210 181z"/>
<path style="fill:#fcfdfd; stroke:none;" d="M212 181L212 182L215 182L212 181z"/>
<path style="fill:#3e4a54; stroke:none;" d="M218 181L219 182L218 181z"/>
<path style="fill:#5f6d78; stroke:none;" d="M61 182L62 183L61 182z"/>
<path style="fill:#3e4a54; stroke:none;" d="M74 182L75 183L74 182M77 182L78 183L77 182M102 182L103 183L102 182z"/>
<path style="fill:#fcfdfd; stroke:none;" d="M110 182L111 183L110 182z"/>
<path style="fill:#98a4aa; stroke:none;" d="M127 182L128 183L127 182z"/>
<path style="fill:#5f6d78; stroke:none;" d="M148 182L148 183L154 183L148 182M198 182L198 183L203 183L198 182z"/>
<path style="fill:#98a4aa; stroke:none;" d="M203 182L203 183L208 184L203 182z"/>
<path style="fill:#fcfdfd; stroke:none;" d="M206 182L206 183L211 183L206 182z"/>
<path style="fill:#5f6d78; stroke:none;" d="M73 183L74 184L73 183z"/>
<path style="fill:#98a4aa; stroke:none;" d="M77 183L78 184L77 183M99 183L100 184L99 183z"/>
<path style="fill:#3e4a54; stroke:none;" d="M101 183L102 184L101 183z"/>
<path style="fill:#fcfdfd; stroke:none;" d="M109 183L110 184L109 183z"/>
<path style="fill:#98a4aa; stroke:none;" d="M118 183L119 184L118 183M126 183L127 184L126 183z"/>
<path style="fill:#3e4a54; stroke:none;" d="M147 183L148 184L147 183z"/>
<path style="fill:#fcfdfd; stroke:none;" d="M195 183L195 184L204 184L195 183z"/>
<path style="fill:#3e4a54; stroke:none;" d="M208 184L208 185L217 184L208 184M235 183L236 184L235 183z"/>
<path style="fill:#5f6d78; stroke:none;" d="M60 184L61 185L60 184z"/>
<path style="fill:#3e4a54; stroke:none;" d="M73 184L74 185L73 184z"/>
<path style="fill:#98a4aa; stroke:none;" d="M97 184L98 185L97 184z"/>
<path style="fill:#3e4a54; stroke:none;" d="M98 184L99 185L98 184z"/>
<path style="fill:#263540; stroke:none;" d="M99 184L100 185L99 184z"/>
<path style="fill:#fcfdfd; stroke:none;" d="M107 184L108 185L107 184z"/>
<path style="fill:#3e4a54; stroke:none;" d="M123 184L120 186L120 187L124 185L123 184z"/>
<path style="fill:#98a4aa; stroke:none;" d="M124 184L125 185L124 184z"/>
<path style="fill:#263540; stroke:none;" d="M146 184L147 185L146 184z"/>
<path style="fill:#3e4a54; stroke:none;" d="M217 184L218 185L217 184z"/>
<path style="fill:#5f6d78; stroke:none;" d="M59.3333 185.667L59.6667 186.333L59.3333 185.667z"/>
<path style="fill:#3e4a54; stroke:none;" d="M76 185L77 186L76 185z"/>
<path style="fill:#98a4aa; stroke:none;" d="M95 185L96 186L95 185z"/>
<path style="fill:#3e4a54; stroke:none;" d="M97 185L98 186L97 185M102 185L103 186L102 185z"/>
<path style="fill:#fcfdfd; stroke:none;" d="M105.667 185.333L106.333 185.667L105.667 185.333z"/>
<path style="fill:#98a4aa; stroke:none;" d="M109 185L110 186L109 185M119 185L120 186L119 185M123 185L124 186L123 185z"/>
<path style="fill:#3e4a54; stroke:none;" d="M146 185L147 186L146 185M202 185L198 190L198 191L203 191L203 192L194 192L194 193L190 193L190 194L210 191L214 187L202 185M233 185L231 186L231 187L233 185z"/>
<path style="fill:#5f6d78; stroke:none;" d="M72 186L73 187L72 186z"/>
<path style="fill:#98a4aa; stroke:none;" d="M76 186L76 189L77 189L76 186z"/>
<path style="fill:#3e4a54; stroke:none;" d="M95.6667 186.333L96.3333 186.667L95.6667 186.333M99 186L97 189L99 186z"/>
<path style="fill:#fcfdfd; stroke:none;" d="M104 186L105 187L104 186z"/>
<path style="fill:#98a4aa; stroke:none;" d="M117 186L118 187L117 186M121 186L122 187L121 186z"/>
<path style="fill:#5f6d78; stroke:none;" d="M146 186L147 187L146 186z"/>
<path style="fill:#3e4a54; stroke:none;" d="M222 186L223 187L222 186z"/>
<path style="fill:#98a4aa; stroke:none;" d="M233 186L234 187L233 186z"/>
<path style="fill:#5f6d78; stroke:none;" d="M58.3333 187.667L58.6667 188.333L58.3333 187.667z"/>
<path style="fill:#98a4aa; stroke:none;" d="M91 187L92 188L91 187z"/>
<path style="fill:#5f6d78; stroke:none;" d="M92 187L96 191L92 187z"/>
<path style="fill:#263540; stroke:none;" d="M93 187L94 188L93 187z"/>
<path style="fill:#3e4a54; stroke:none;" d="M94 187L97 190L94 187z"/>
<path style="fill:#fcfdfd; stroke:none;" d="M102 187L103 188L102 187z"/>
<path style="fill:#98a4aa; stroke:none;" d="M120 187L121 188L120 187z"/>
<path style="fill:#3e4a54; stroke:none;" d="M147 187L148 188L147 187z"/>
<path style="fill:#5f6d78; stroke:none;" d="M205 187L207 189L205 187M209.667 187.333L210.333 187.667L209.667 187.333z"/>
<path style="fill:#263540; stroke:none;" d="M230 187L231 188L230 187z"/>
<path style="fill:#5f6d78; stroke:none;" d="M71.3333 188.667L71.6667 189.333L71.3333 188.667z"/>
<path style="fill:#98a4aa; stroke:none;" d="M89 188L90 189L89 188z"/>
<path style="fill:#5f6d78; stroke:none;" d="M90 188L91 189L90 188z"/>
<path style="fill:#263540; stroke:none;" d="M91.6667 188.333L92.3333 188.667L91.6667 188.333z"/>
<path style="fill:#5f6d78; stroke:none;" d="M98 188L99 189L98 188z"/>
<path style="fill:#fcfdfd; stroke:none;" d="M100.667 188.333L101.333 188.667L100.667 188.333z"/>
<path style="fill:#98a4aa; stroke:none;" d="M118 188L119 189L118 188z"/>
<path style="fill:#5f6d78; stroke:none;" d="M148 188L149 189L148 188z"/>
<path style="fill:#3e4a54; stroke:none;" d="M149 188L150 189L149 188z"/>
<path style="fill:#5f6d78; stroke:none;" d="M150.667 188.333L151.333 188.667L150.667 188.333M202 188L203 189L202 188z"/>
<path style="fill:#3e4a54; stroke:none;" d="M227 188L228 189L227 188M57 189L58 190L57 189z"/>
<path style="fill:#98a4aa; stroke:none;" d="M87 189L88 190L87 189z"/>
<path style="fill:#3e4a54; stroke:none;" d="M88 189L89 190L88 189M87 191L88 194L95 190L87 191z"/>
<path style="fill:#fcfdfd; stroke:none;" d="M97 191L100 189L97 191z"/>
<path style="fill:#3e4a54; stroke:none;" d="M115 189L116 190L115 189z"/>
<path style="fill:#98a4aa; stroke:none;" d="M117 189L118 190L117 189z"/>
<path style="fill:#5f6d78; stroke:none;" d="M152 189L153 190L152 189z"/>
<path style="fill:#3e4a54; stroke:none;" d="M153 189L154 190L153 189z"/>
<path style="fill:#5f6d78; stroke:none;" d="M154 189L154 190L160 191L154 189z"/>
<path style="fill:#3e4a54; stroke:none;" d="M225 189L226 190L225 189z"/>
<path style="fill:#98a4aa; stroke:none;" d="M227 189L228 190L227 189z"/>
<path style="fill:#5f6d78; stroke:none;" d="M57 190L58 191L57 190z"/>
<path style="fill:#3e4a54; stroke:none;" d="M71 190C71.1744 195.31 72.6899 196.826 78 197L78 196L76 195L78 195L71 190z"/>
<path style="fill:#98a4aa; stroke:none;" d="M76 190L77 191L76 190M84 190L85 191L84 190z"/>
<path style="fill:#5f6d78; stroke:none;" d="M85 190L86 191L85 190M113.333 190.667L113.667 191.333L113.333 190.667z"/>
<path style="fill:#3e4a54; stroke:none;" d="M114 190L115 191L114 190z"/>
<path style="fill:#98a4aa; stroke:none;" d="M155.667 190.333L156.333 190.667L155.667 190.333z"/>
<path style="fill:#3e4a54; stroke:none;" d="M160.667 190.333L161.333 190.667L160.667 190.333z"/>
<path style="fill:#5f6d78; stroke:none;" d="M162.667 190.333L163.333 190.667L162.667 190.333z"/>
<path style="fill:#3e4a54; stroke:none;" d="M221.667 190.333L222.333 190.667L221.667 190.333z"/>
<path style="fill:#98a4aa; stroke:none;" d="M224.667 190.333L225.333 190.667L224.667 190.333z"/>
<path style="fill:#3e4a54; stroke:none;" d="M56 191L57 192L56 191z"/>
<path style="fill:#5f6d78; stroke:none;" d="M70 191L69 196L71 196L70 191z"/>
<path style="fill:#3e4a54; stroke:none;" d="M76 191L77 192L76 191z"/>
<path style="fill:#5f6d78; stroke:none;" d="M77.6667 191.333L78.3333 191.667L77.6667 191.333z"/>
<path style="fill:#98a4aa; stroke:none;" d="M79 191L80 192L79 191z"/>
<path style="fill:#5f6d78; stroke:none;" d="M80.6667 191.333L81.3333 191.667L80.6667 191.333z"/>
<path style="fill:#3e4a54; stroke:none;" d="M82.6667 191.333L83.3333 191.667L82.6667 191.333z"/>
<path style="fill:#263540; stroke:none;" d="M91 191L89 192L89 193L91 191z"/>
<path style="fill:#5f6d78; stroke:none;" d="M93 191L94 192L93 191z"/>
<path style="fill:#fcfdfd; stroke:none;" d="M95.6667 191.333L96.3333 191.667L95.6667 191.333z"/>
<path style="fill:#5f6d78; stroke:none;" d="M111 191L110 193L112 193L111 191z"/>
<path style="fill:#3e4a54; stroke:none;" d="M112 191L113 192L112 191z"/>
<path style="fill:#5f6d78; stroke:none;" d="M164.667 191.333L165.333 191.667L164.667 191.333z"/>
<path style="fill:#3e4a54; stroke:none;" d="M166 191L166 192L170 192L166 191M215 191L215 192L220 192L215 191z"/>
<path style="fill:#98a4aa; stroke:none;" d="M221 191L222 192L221 191z"/>
<path style="fill:#5f6d78; stroke:none;" d="M55.6667 192.333L56.3333 192.667L55.6667 192.333z"/>
<path style="fill:#3e4a54; stroke:none;" d="M84 192L85 193L84 192z"/>
<path style="fill:#5f6d78; stroke:none;" d="M91 192L92 193L91 192z"/>
<path style="fill:#fcfdfd; stroke:none;" d="M93.6667 192.333L94.3333 192.667L93.6667 192.333z"/>
<path style="fill:#98a4aa; stroke:none;" d="M112 192L113 193L112 192M169 192L169 193L172 193L169 192z"/>
<path style="fill:#3e4a54; stroke:none;" d="M174 192L174 193L182 193L174 192M185 192L186 193L185 192M207 192L207 193L212 193L207 192z"/>
<path style="fill:#263540; stroke:none;" d="M212.667 192.333L213.333 192.667L212.667 192.333z"/>
<path style="fill:#98a4aa; stroke:none;" d="M216.667 192.333L217.333 192.667L216.667 192.333z"/>
<path style="fill:#3e4a54; stroke:none;" d="M55 193L56 194L55 193M79 193L80 194L79 193M85.6667 193.333L86.3333 193.667L85.6667 193.333z"/>
<path style="fill:#5f6d78; stroke:none;" d="M89 193L90 194L89 193z"/>
<path style="fill:#fcfdfd; stroke:none;" d="M91.6667 193.333L92.3333 193.667L91.6667 193.333z"/>
<path style="fill:#5f6d78; stroke:none;" d="M108.667 193.333L109.333 193.667L108.667 193.333z"/>
<path style="fill:#98a4aa; stroke:none;" d="M179 193L179 194L185 194L179 193z"/>
<path style="fill:#263540; stroke:none;" d="M195 193L195 194L198 194L195 193z"/>
<path style="fill:#98a4aa; stroke:none;" d="M208 193L208 194L212 194L208 193z"/>
<path style="fill:#5f6d78; stroke:none;" d="M54 194L55 195L54 194M86 194L87 195L86 194z"/>
<path style="fill:#fcfdfd; stroke:none;" d="M88.6667 194.333L89.3333 194.667L88.6667 194.333z"/>
<path style="fill:#5f6d78; stroke:none;" d="M106.667 194.333L107.333 194.667L106.667 194.333z"/>
<path style="fill:#3e4a54; stroke:none;" d="M54 195L55 196L54 195M79.3333 195.667L79.6667 196.333L79.3333 195.667M83 195L84 196L83 195z"/>
<path style="fill:#fcfdfd; stroke:none;" d="M86.6667 195.333L87.3333 195.667L86.6667 195.333z"/>
<path style="fill:#3e4a54; stroke:none;" d="M105 195L106 196L105 195z"/>
<path style="fill:#fcfdfd; stroke:none;" d="M47 214C51.3446 215.195 58.8787 215.246 60 210L78 200C66.5483 195.004 50.5959 200.686 47 214z"/>
<path style="fill:#5f6d78; stroke:none;" d="M71.3333 196.667L71.6667 197.333L71.3333 196.667M80 196L81 197L80 196z"/>
<path style="fill:#fcfdfd; stroke:none;" d="M84.6667 196.333L85.3333 196.667L84.6667 196.333z"/>
<path style="fill:#5f6d78; stroke:none;" d="M101 198L104 196L101 198M53 197L54 198L53 197M73 197L73 198L77 198L73 197M52.3333 198.667L52.6667 199.333L52.3333 198.667z"/>
<path style="fill:#fcfdfd; stroke:none;" d="M78 198L79 199L78 198z"/>
<path style="fill:#5f6d78; stroke:none;" d="M97 199L97 200L101 199L97 199M51.3333 200.667L51.6667 201.333L51.3333 200.667M94 202L97 201L94 202z"/>
<path style="fill:#3e4a54; stroke:none;" d="M93 201L94 202L93 201z"/>
<path style="fill:#98a4aa; stroke:none;" d="M95 201L96 202L95 201z"/>
<path style="fill:#5f6d78; stroke:none;" d="M50.3333 202.667L50.6667 203.333L50.3333 202.667M90.6667 202.333L91.3333 202.667L90.6667 202.333M88.6667 203.333L89.3333 203.667L88.6667 203.333M49.3333 204.667L49.6667 205.333L49.3333 204.667z"/>
<path style="fill:#fcfdfd; stroke:none;" d="M52 204L53 205L52 204z"/>
<path style="fill:#3e4a54; stroke:none;" d="M86 204L87 205L86 204z"/>
<path style="fill:#5f6d78; stroke:none;" d="M87 204L88 205L87 204M83.6667 205.333L84.3333 205.667L83.6667 205.333M48 206L49 207L48 206M80.3333 206.667L80.6667 207.333L80.3333 206.667z"/>
<path style="fill:#3e4a54; stroke:none;" d="M81 206L82 207L81 206z"/>
<path style="fill:#5f6d78; stroke:none;" d="M82 206L83 207L82 206M78 207L79 208L78 207z"/>
<path style="fill:#3e4a54; stroke:none;" d="M79 207L80 208L79 207z"/>
<path style="fill:#98a4aa; stroke:none;" d="M81 207L82 208L81 207z"/>
<path style="fill:#5f6d78; stroke:none;" d="M47.3333 208.667L47.6667 209.333L47.3333 208.667M75 208L76 209L75 208z"/>
<path style="fill:#3e4a54; stroke:none;" d="M76.6667 208.333L77.3333 208.667L76.6667 208.333z"/>
<path style="fill:#98a4aa; stroke:none;" d="M46 209L48 212L46 209z"/>
<path style="fill:#3e4a54; stroke:none;" d="M73.6667 209.333L74.3333 209.667L73.6667 209.333z"/>
<path style="fill:#5f6d78; stroke:none;" d="M70 210L71 211L70 210z"/>
<path style="fill:#3e4a54; stroke:none;" d="M71 210L72 211L71 210z"/>
<path style="fill:#5f6d78; stroke:none;" d="M72 210L73 211L72 210M46 211L47 212L46 211M67 211L67 212L70 212L67 211z"/>
<path style="fill:#3e4a54; stroke:none;" d="M46 212L46 215L47 215L46 212M64.6667 212.333L65.3333 212.667L64.6667 212.333z"/>
<path style="fill:#5f6d78; stroke:none;" d="M66 212L67 213L66 212M60 213L61 214L60 213z"/>
<path style="fill:#3e4a54; stroke:none;" d="M61 213L62 214L61 213z"/>
<path style="fill:#5f6d78; stroke:none;" d="M62 213L63 214L62 213z"/>
<path style="fill:#98a4aa; stroke:none;" d="M47 214L46 216L47 214M53 214L56 216L53 214z"/>
<path style="fill:#5f6d78; stroke:none;" d="M56 214L57 215L56 214z"/>
<path style="fill:#3e4a54; stroke:none;" d="M57 214L58 215L57 214z"/>
<path style="fill:#5f6d78; stroke:none;" d="M58 214L59 215L58 214M47 215L48 216L47 215z"/>
<path style="fill:#3e4a54; stroke:none;" d="M48 215L48 216L53 216L48 215z"/>
<path style="fill:#5f6d78; stroke:none;" d="M53 215L54 216L53 215z"/>
<path style="fill:#98a4aa; stroke:none;" d="M108 238L108 239L123 239L108 238M150 238L150 239L166 239L150 238M170 238L170 239L188 239L170 238M226 238L226 239L230 239L226 238z"/>
<path style="fill:#5f6d78; stroke:none;" d="M230 238L230 239L244 242L244 241L239 238L230 238z"/>
<path style="fill:#98a4aa; stroke:none;" d="M239 238L239 239L242 239L239 238M79 276L79 271C71.6624 271 60.7645 272.997 54.1088 269.427C45.0355 264.562 50.78 249.854 58.0046 246.179C66.2106 242.005 82.7978 250.444 86 239C74.6095 239 57.798 235.858 48.0147 242.803C39.2464 249.028 32.6391 266.904 44.0193 273.991C52.088 279.015 70.1745 278.609 79 276M90 255L91 255L95 249L96 244L104 243L101 250L109 243L104 243L104 242L107 242L107 241L104 241L104 240L107 240C97.9898 236.805 91.7203 247.761 90 255z"/>
<path style="fill:#5f6d78; stroke:none;" d="M104 240L104 241L107 241L107 242L104 242L104 243L108 245C112.259 244.209 117.066 243.124 120.941 245.742C125.274 248.669 126.85 255.85 121.725 258.976C115.792 262.595 105.716 259.015 99 261L98 254L104 243L96 244L95 249C91.2004 249.522 90.3428 255.515 90 259L94 255L95 255L90 272L87 271L87 272L90 273L90 274L87 276L91 270L92 270L92 274L94 276L95 276L94 271L96 272L96 271L95 268L97 265L122 265L121 276C132.253 275.96 138.538 253.194 132.106 244.133C126.735 236.567 111.782 238.555 104 240z"/>
<path style="fill:#98a4aa; stroke:none;" d="M124 239L124 240L130 241L124 239M141 239L140 242L141 242L141 239z"/>
<path style="fill:#5f6d78; stroke:none;" d="M140 244L156 244L150 276C164.239 275.989 165.014 256.05 166 244L187 244L188 239L153 239C147.44 239 142.211 237.986 140 244z"/>
<path style="fill:#98a4aa; stroke:none;" d="M191.333 239.667L191.667 240.333L191.333 239.667z"/>
<path style="fill:#5f6d78; stroke:none;" d="M192 239L191 244L198 244L198 243L196 241L200 244L201 239L194 241L193 241L192 239z"/>
<path style="fill:#3e4a54; stroke:none;" d="M193.333 239.667L193.667 240.333L193.333 239.667M195 239L196 240L195 239M197 239L198 240L197 239z"/>
<path style="fill:#98a4aa; stroke:none;" d="M221.667 239.333L222.333 239.667L221.667 239.333z"/>
<path style="fill:#5f6d78; stroke:none;" d="M223.667 239.333L224.333 239.667L223.667 239.333z"/>
<path style="fill:#3e4a54; stroke:none;" d="M221 243L217 242L217 243L219 243L219 244L214 244L215 248L214 246L213 246C210.516 251.656 206.123 260.378 210 266L205 275L214 276L218 250L224 243C228.081 245.59 232.632 242.828 237.169 244.353C242.93 246.29 247.164 254.935 240.7 258.976C234.892 262.606 226.883 257.879 221 262C219.028 259.09 218.158 262.91 218 265L242 265L239 276L241 274L242 274C244.051 276.255 246.801 275.649 248.297 272.772C254.874 260.121 255.767 239.814 238 239L238 240L244 241C236.778 241.907 226.063 234.724 221 243z"/>
<path style="fill:#5f6d78; stroke:none;" d="M243 239L244 240L243 239z"/>
<path style="fill:#98a4aa; stroke:none;" d="M244.667 239.333L245.333 239.667L244.667 239.333z"/>
<path style="fill:#5f6d78; stroke:none;" d="M79 240L80 241L79 240M83 240L83 243L84 243L83 240z"/>
<path style="fill:#3e4a54; stroke:none;" d="M199 240L200 241L199 240z"/>
<path style="fill:#98a4aa; stroke:none;" d="M219 240L220 241L219 240z"/>
<path style="fill:#5f6d78; stroke:none;" d="M218 242L222 240L218 242M226 240L227 241L226 240M246 240L247 241L246 240z"/>
<path style="fill:#98a4aa; stroke:none;" d="M247 240L248 241L247 240z"/>
<path style="fill:#5f6d78; stroke:none;" d="M98 244L104 242L98 244z"/>
<path style="fill:#98a4aa; stroke:none;" d="M130 241L131 242L130 241z"/>
<path style="fill:#3e4a54; stroke:none;" d="M194.333 241.667L194.667 242.333L194.333 241.667M196 241L199 244L196 241z"/>
<path style="fill:#98a4aa; stroke:none;" d="M217 241L218 242L217 241z"/>
<path style="fill:#5f6d78; stroke:none;" d="M230 241L231 242L230 241M248 241L249 242L248 241z"/>
<path style="fill:#98a4aa; stroke:none;" d="M249 241L250 242L249 241M131 242L132 243L131 242z"/>
<path style="fill:#3e4a54; stroke:none;" d="M186 242L187 243L186 242z"/>
<path style="fill:#98a4aa; stroke:none;" d="M187 242L188 243L187 242z"/>
<path style="fill:#5f6d78; stroke:none;" d="M215 245L219 244L215 245M222 242L223 243L222 242M227.667 242.333L228.333 242.667L227.667 242.333M238 242L239 243L238 242M246 242L246 245L249 244L249 243L246 242z"/>
<path style="fill:#98a4aa; stroke:none;" d="M250 242L252 244L250 242z"/>
<path style="fill:#5f6d78; stroke:none;" d="M54 243L55 244L54 243z"/>
<path style="fill:#98a4aa; stroke:none;" d="M132.333 243.667L132.667 244.333L132.333 243.667z"/>
<path style="fill:#3e4a54; stroke:none;" d="M156 243L157 244L156 243M192 243L193 244L192 243z"/>
<path style="fill:#98a4aa; stroke:none;" d="M200 243L201 244L200 243z"/>
<path style="fill:#5f6d78; stroke:none;" d="M224 243L226 246L224 243M229 243L228 245L230 245L229 243M234 243L234 244L239 245L239 244L234 243M240.667 243.333L241.333 243.667L240.667 243.333M250 243L251 244L250 243z"/>
<path style="fill:#98a4aa; stroke:none;" d="M110 244L110 245L122 246L110 244M140 244L140 245L156 245L140 244M166 244L166 245L187 245L166 244M190 244L190 245L200 245L190 244M213 244L212 246L213 244z"/>
<path style="fill:#5f6d78; stroke:none;" d="M221 244L217 249L219 246L221 244z"/>
<path style="fill:#98a4aa; stroke:none;" d="M230 244L230 245L235 245L230 244z"/>
<path style="fill:#5f6d78; stroke:none;" d="M251 244L252 245L251 244M101 249L106 246L101 249z"/>
<path style="fill:#fcfdfd; stroke:none;" d="M99 259L122 260C127.887 247.972 117.459 240.508 106.019 246.457C101.098 249.016 100.033 254.011 99 259z"/>
<path style="fill:#98a4aa; stroke:none;" d="M133 245L134 246L133 245z"/>
<path style="fill:#5f6d78; stroke:none;" d="M213 245L215 248L213 245M216 245L217 246L216 245z"/>
<path style="fill:#98a4aa; stroke:none;" d="M226 245L227 246L226 245z"/>
<path style="fill:#fcfdfd; stroke:none;" d="M218 259L230 259.001C235.72 259.026 251.204 255.421 240.682 246.742C230.88 238.657 219.397 249.547 218 259z"/>
<path style="fill:#98a4aa; stroke:none;" d="M239 245L240 246L239 245z"/>
<path style="fill:#5f6d78; stroke:none;" d="M240 245L241 246L240 245M249 245L250 246L249 245z"/>
<path style="fill:#98a4aa; stroke:none;" d="M252 245L253 246L252 245z"/>
<path style="fill:#5f6d78; stroke:none;" d="M54 246L55 247L54 246z"/>
<path style="fill:#98a4aa; stroke:none;" d="M155 246L155 249L156 249L155 246z"/>
<path style="fill:#5f6d78; stroke:none;" d="M212.333 246.667L212.667 247.333L212.333 246.667z"/>
<path style="fill:#98a4aa; stroke:none;" d="M223.667 246.333L224.333 246.667L223.667 246.333M241 246L242 247L241 246z"/>
<path style="fill:#5f6d78; stroke:none;" d="M251 246L253 249L253 246L251 246z"/>
<path style="fill:#98a4aa; stroke:none;" d="M97.3333 247.667L97.6667 248.333L97.3333 247.667M123 247L124 248L123 247M189 251L190 251L190 248L200 249C196.842 245.386 190.502 246.475 189 251M211 247L210 250L211 247z"/>
<path style="fill:#5f6d78; stroke:none;" d="M221 247L222 248L221 247z"/>
<path style="fill:#98a4aa; stroke:none;" d="M222 247L223 248L222 247M242 247L243 248L242 247M124.333 248.667L124.667 249.333L124.333 248.667M134 248L134 254L135 254L134 248M165.333 248.667L165.667 249.333L165.333 248.667z"/>
<path style="fill:#5f6d78; stroke:none;" d="M190 248L184 276L194 276L194 265L196 266L195 262C197.266 260.094 198.185 257.241 196 255C201.029 249.116 195.384 248.019 190 248z"/>
<path style="fill:#3e4a54; stroke:none;" d="M198 248L199 249L198 248z"/>
<path style="fill:#5f6d78; stroke:none;" d="M213 248C211.998 250.989 211.12 252.19 214 254L213 248z"/>
<path style="fill:#98a4aa; stroke:none;" d="M221 248L222 249L221 248z"/>
<path style="fill:#5f6d78; stroke:none;" d="M243.333 248.667L243.667 249.333L243.333 248.667M211 249L212 250L211 249z"/>
<path style="fill:#98a4aa; stroke:none;" d="M220 249L221 250L220 249M94 250L93 253L96 258L97 258L99 250L98 250C97.3466 251.96 97 252.554 97 250L96 250L97 254L96 254L94 250z"/>
<path style="fill:#5f6d78; stroke:none;" d="M210 250L211 251L210 250M218 250L218 252L220 250L218 250z"/>
<path style="fill:#98a4aa; stroke:none;" d="M243 250L243 253L244 253L243 250M154.333 251.667L154.667 252.333L154.333 251.667M219.333 251.667L219.667 252.333L219.333 251.667z"/>
<path style="fill:#5f6d78; stroke:none;" d="M245 251L246 252L245 251z"/>
<path style="fill:#98a4aa; stroke:none;" d="M100 252L101 253L100 252M124 252L124 256L125 256L124 252M164 252L164 255L165 255L164 252M198.333 252.667L198.667 253.333L198.333 252.667M209 252L210 253L209 252z"/>
<path style="fill:#3e4a54; stroke:none;" d="M189 253L190 254L189 253z"/>
<path style="fill:#5f6d78; stroke:none;" d="M209 253L209 256L210 256L211 253L209 253M218 253L219 254L218 253M243 253L243 255L245 253L243 253M252 253L252 256L253 256L252 253z"/>
<path style="fill:#98a4aa; stroke:none;" d="M98 254L99 257L100 257L100 254L98 254z"/>
<path style="fill:#3e4a54; stroke:none;" d="M163 254L164 255L163 254z"/>
<path style="fill:#98a4aa; stroke:none;" d="M188 254L189 255L188 254z"/>
<path style="fill:#3e4a54; stroke:none;" d="M196.667 254.333L197.333 254.667L196.667 254.333z"/>
<path style="fill:#98a4aa; stroke:none;" d="M218.333 254.667L218.667 255.333L218.333 254.667M92 255L91 257L92 255M94 255L90 257L89 257C88.5815 262.124 85.1407 268.482 90 272L94 255z"/>
<path style="fill:#3e4a54; stroke:none;" d="M192.333 255.667L192.667 256.333L192.333 255.667z"/>
<path style="fill:#98a4aa; stroke:none;" d="M208 255L208 258L209 258L208 255z"/>
<path style="fill:#5f6d78; stroke:none;" d="M211 255L210 259L211 259L213 255L211 255z"/>
<path style="fill:#98a4aa; stroke:none;" d="M133 256L133 259L134 259L133 256M153.333 256.667L153.667 257.333L153.333 256.667M242 256L243 257L242 256M252 256L253 257L252 256M123.333 257.667L123.667 258.333L123.333 257.667z"/>
<path style="fill:#3e4a54; stroke:none;" d="M194 257L194 260L195 260L196 257L194 257z"/>
<path style="fill:#98a4aa; stroke:none;" d="M197.333 257.667L197.667 258.333L197.333 257.667z"/>
<path style="fill:#5f6d78; stroke:none;" d="M242.333 257.667L242.667 258.333L242.333 257.667z"/>
<path style="fill:#98a4aa; stroke:none;" d="M98 258L101 260L98 258M163.333 258.667L163.667 259.333L163.333 258.667M187.333 258.667L187.667 259.333L187.333 258.667z"/>
<path style="fill:#3e4a54; stroke:none;" d="M188 258L189 259L188 258z"/>
<path style="fill:#5f6d78; stroke:none;" d="M208.333 258.667L208.667 259.333L208.333 258.667M217 258L216 265L220 261L220 260L217 258M251 258L250 262L251 262L251 258z"/>
<path style="fill:#98a4aa; stroke:none;" d="M118 259L119 260L118 259M120 259L121 260L120 259M122 259L123 260L122 259M218 259L218 260L238 260L218 259M239.667 259.333L240.333 259.667L239.667 259.333z"/>
<path style="fill:#5f6d78; stroke:none;" d="M241 259L242 260L241 259M244 259L245 260L244 259z"/>
<path style="fill:#98a4aa; stroke:none;" d="M132 260L132 263L133 263L132 260M152 260L152 263L153 263L152 260M207.333 260.667L207.667 261.333L207.333 260.667z"/>
<path style="fill:#5f6d78; stroke:none;" d="M221.333 260.667L221.667 261.333L221.333 260.667M242 260L243 261L242 260z"/>
<path style="fill:#98a4aa; stroke:none;" d="M251.333 260.667L251.667 261.333L251.333 260.667M93 261L92 270L93 270L95 262L93 261M120 261L121 262L120 261z"/>
<path style="fill:#3e4a54; stroke:none;" d="M189 261L190 262L189 261z"/>
<path style="fill:#5f6d78; stroke:none;" d="M240 261L242 265L243 265L240 261z"/>
<path style="fill:#98a4aa; stroke:none;" d="M96 262L96 267L96 262M162 262L162 265L163 265L162 262M186 262L186 265L187 265L186 262z"/>
<path style="fill:#3e4a54; stroke:none;" d="M195 262L196 263L195 262z"/>
<path style="fill:#98a4aa; stroke:none;" d="M196.333 262.667L196.667 263.333L196.333 262.667z"/>
<path style="fill:#5f6d78; stroke:none;" d="M207 262L206 270L207 270L210 266L207 262M209 262L210 263L209 262M215 262L216 263L215 262M89.3333 263.667L89.6667 264.333L89.3333 263.667z"/>
<path style="fill:#98a4aa; stroke:none;" d="M99 263L100 264L99 263M101 263L102 264L101 263z"/>
<path style="fill:#3e4a54; stroke:none;" d="M189 263L187 266L189 263z"/>
<path style="fill:#5f6d78; stroke:none;" d="M239 263L240 264L239 263M250.333 263.667L250.667 264.333L250.333 263.667M214 264L215 265L214 264M220 264L220 265L223 265L220 264z"/>
<path style="fill:#98a4aa; stroke:none;" d="M97 265L97 266L122 266L97 265M151 265L151 268L152 268L151 265z"/>
<path style="fill:#3e4a54; stroke:none;" d="M194 265L194 268L195 268L194 265z"/>
<path style="fill:#98a4aa; stroke:none;" d="M206.333 265.667L206.667 266.333L206.333 265.667z"/>
<path style="fill:#5f6d78; stroke:none;" d="M212 265L212 273L213 273L212 265z"/>
<path style="fill:#98a4aa; stroke:none;" d="M216 265L216 266L241 267C235.244 262.639 223.051 265 216 265z"/>
<path style="fill:#5f6d78; stroke:none;" d="M240 265L240 268C242.006 266.873 242.006 266.127 240 265z"/>
<path style="fill:#98a4aa; stroke:none;" d="M250.333 265.667L250.667 266.333L250.333 265.667z"/>
<path style="fill:#5f6d78; stroke:none;" d="M88.3333 266.667L88.6667 267.333L88.3333 266.667z"/>
<path style="fill:#98a4aa; stroke:none;" d="M131.333 266.667L131.667 267.333L131.333 266.667z"/>
<path style="fill:#3e4a54; stroke:none;" d="M159 266L160 267L159 266z"/>
<path style="fill:#98a4aa; stroke:none;" d="M195.333 266.667L195.667 267.333L195.333 266.667z"/>
<path style="fill:#5f6d78; stroke:none;" d="M210 266L210 271L211 271L210 266M215 266L214 269L215 266z"/>
<path style="fill:#98a4aa; stroke:none;" d="M121 267L121 271L122 271L121 267M161 267L161 270L162 270L161 267M185 267L185 270L186 270L185 267M95 268L96 272L97 272L95 268M215.333 268.667L215.667 269.333L215.333 268.667z"/>
<path style="fill:#5f6d78; stroke:none;" d="M249.333 268.667L249.667 269.333L249.333 268.667M241 269L242 270L241 269M243 269L244 270L243 269z"/>
<path style="fill:#98a4aa; stroke:none;" d="M91 270L87 276L90 274L90 273L86 272L86 277L95 277L92 274L91 270M130 270L130 273L131 273L130 270M150.333 270.667L150.667 271.333L150.333 270.667M205.333 270.667L205.667 271.333L205.333 270.667M239.333 270.667L239.667 271.333L239.333 270.667z"/>
<path style="fill:#5f6d78; stroke:none;" d="M246 270L247 271L246 270z"/>
<path style="fill:#98a4aa; stroke:none;" d="M249 270L250 271L249 270M94 271L95 276L96 276L94 271M194.333 271.667L194.667 272.333L194.333 271.667z"/>
<path style="fill:#5f6d78; stroke:none;" d="M214.333 271.667L214.667 272.333L214.333 271.667M78.3333 272.667L78.6667 273.333L78.3333 272.667z"/>
<path style="fill:#98a4aa; stroke:none;" d="M120 272L120 277L129 277L129 276L121 276L120 272M160.333 272.667L160.667 273.333L160.333 272.667M184 272L184 275L185 275L184 272z"/>
<path style="fill:#5f6d78; stroke:none;" d="M205.333 272.667L205.667 273.333L205.333 272.667M239 272L240 273L239 272z"/>
<path style="fill:#3e4a54; stroke:none;" d="M151 273L152 274L151 273z"/>
<path style="fill:#98a4aa; stroke:none;" d="M214.333 273.667L214.667 274.333L214.333 273.667z"/>
<path style="fill:#5f6d78; stroke:none;" d="M246 273L247 274L246 273M248 273L249 274L248 273z"/>
<path style="fill:#98a4aa; stroke:none;" d="M149.333 274.667L149.667 275.333L149.333 274.667z"/>
<path style="fill:#3e4a54; stroke:none;" d="M158 274L159 275L158 274z"/>
<path style="fill:#98a4aa; stroke:none;" d="M204 274C206.332 277.598 210.013 276.997 214 277L214 276L204 274z"/>
<path style="fill:#5f6d78; stroke:none;" d="M205 275L205 276L210 276L205 275M241.333 274.667L241.667 275.333L241.333 274.667z"/>
<path style="fill:#98a4aa; stroke:none;" d="M248 274L238 275C239.899 277.601 248.735 278.457 248 274M129 275L130 276L129 275M159 275L160 276L159 275z"/>
<path style="fill:#5f6d78; stroke:none;" d="M246.667 275.333L247.333 275.667L246.667 275.333z"/>
<path style="fill:#98a4aa; stroke:none;" d="M150 276L150 277L159 277L150 276M184 276L184 277L194 277L184 276M236 290L235 293L238 291L236 290z"/>
<path style="fill:#5f6d78; stroke:none;" d="M237 290L237 293L238 293L239 290L237 290z"/>
<path style="fill:#98a4aa; stroke:none;" d="M239 290L243 293L242 290L239 290z"/>
<path style="fill:#3e4a54; stroke:none;" d="M242 290L243 291L242 290z"/>
<path style="fill:#5f6d78; stroke:none;" d="M243 290L243 291L246 292L243 290z"/>
<path style="fill:#98a4aa; stroke:none;" d="M245 290L246 291L245 290M247.333 290.667L247.667 291.333L247.333 290.667z"/>
<path style="fill:#5f6d78; stroke:none;" d="M248.667 290.333L249.333 290.667L248.667 290.333z"/>
<path style="fill:#98a4aa; stroke:none;" d="M251 290L253 293L251 290z"/>
<path style="fill:#3e4a54; stroke:none;" d="M252 290L253 291L252 290z"/>
<path style="fill:#5f6d78; stroke:none;" d="M253 290L254 291L253 290z"/>
<path style="fill:#3e4a54; stroke:none;" d="M254 290L255 291L254 290z"/>
<path style="fill:#98a4aa; stroke:none;" d="M255 290L259 293L259 292L258 290L255 290z"/>
<path style="fill:#3e4a54; stroke:none;" d="M258 290L259 291L258 290z"/>
<path style="fill:#5f6d78; stroke:none;" d="M259.667 290.333L260.333 290.667L259.667 290.333z"/>
<path style="fill:#98a4aa; stroke:none;" d="M276 293L282 293L282 292L282 291L279 290L276 293z"/>
<path style="fill:#5f6d78; stroke:none;" d="M291 290L292 291L291 290z"/>
<path style="fill:#fcfdfd; stroke:none;" d="M243 291L243 293L245 291L243 291z"/>
<path style="fill:#5f6d78; stroke:none;" d="M250.333 291.667L250.667 292.333L250.333 291.667z"/>
<path style="fill:#fcfdfd; stroke:none;" d="M253 291L253 293L255 291L253 291z"/>
<path style="fill:#5f6d78; stroke:none;" d="M255.333 291.667L255.667 292.333L255.333 291.667M257 291L258 292L257 291M261 291L262 292L261 291z"/>
<path style="fill:#98a4aa; stroke:none;" d="M264.333 291.667L264.667 292.333L264.333 291.667M270 292L270 293L275 293L270 292M285 291L285 292L285 293L289 293L289 292L285 291z"/>
<path style="fill:#3e4a54; stroke:none;" d="M291.333 291.667L291.667 292.333L291.333 291.667z"/>
<path style="fill:#98a4aa; stroke:none;" d="M296.333 291.667L296.667 292.333L296.333 291.667M300.333 291.667L300.667 292.333L300.333 291.667M304 291L305 292L304 291M307 291L308 292L307 291z"/>
<path style="fill:#fcfdfd; stroke:none;" d="M238.667 292.333L239.333 292.667L238.667 292.333z"/>
<path style="fill:#5f6d78; stroke:none;" d="M240 292L241 293L240 292z"/>
<path style="fill:#98a4aa; stroke:none;" d="M244 292L245 293L244 292z"/>
<path style="fill:#3e4a54; stroke:none;" d="M245 292L246 293L245 292z"/>
<path style="fill:#98a4aa; stroke:none;" d="M249 292L250 293L249 292M254 292L255 293L254 292z"/>
<path style="fill:#fcfdfd; stroke:none;" d="M256 292L257 293L256 292z"/>
<path style="fill:#3e4a54; stroke:none;" d="M261 292L262 293L261 292z"/>
<path style="fill:#5f6d78; stroke:none;" d="M263 292L264 293L263 292z"/>
<path style="fill:#3e4a54; stroke:none;" d="M265 292L266 293L265 292z"/>
<path style="fill:#98a4aa; stroke:none;" d="M266 292L267 293L266 292z"/>
<path style="fill:#5f6d78; stroke:none;" d="M267 292L268 293L267 292z"/>
<path style="fill:#263540; stroke:none;" d="M269 292L270 293L269 292M273 292L274 293L273 292z"/>
<path style="fill:#5f6d78; stroke:none;" d="M275 292L276 293L275 292M280 292L281 293L280 292M282 292L283 293L282 292M284 292L285 293L284 292M286 292L287 293L286 292M289.667 292.333L290.333 292.667L289.667 292.333M295 292L296 293L295 292M297 292L298 293L297 292M299 292L300 293L299 292z"/>
<path style="fill:#3e4a54; stroke:none;" d="M301 292L302 293L301 292z"/>
<path style="fill:#98a4aa; stroke:none;" d="M302 292L303 293L302 292z"/>
<path style="fill:#5f6d78; stroke:none;" d="M303 292L303 293L308 293L303 292z"/>
</svg>
