<?xml version="1.0" standalone="yes"?>
<svg xmlns="http://www.w3.org/2000/svg" width="640" height="643">
<path style="fill:#130803; stroke:none;" d="M0 0L0 446L1 446C4.62272 433.239 9.18595 420.374 13.9105 408C15.7783 403.108 16.4329 396.428 20.4985 392.702C24.1374 389.367 30.4857 388.103 35 386.341C46.6714 381.786 58.7693 377.772 71 374.989C77.3401 373.547 96.7327 365.31 102 369L103 369L102 197L316 197L316 196L293 195L294 190L297 191L301 176L302 189L304 189C304.005 182.414 307.976 169.242 314 166L318 156L318 170L319 170C319.205 163.615 323.8 153.178 330 151C326.988 146.737 320.731 148 316 148C304.009 147.999 292.042 147 280 147L131 147L131 146C145.863 142.461 163.744 145 179 145L274 145L437 145C461.465 145 490.123 140.558 514 145.21C528.801 148.094 533.86 171.004 538.734 183C540.606 187.608 543.194 191.904 543 197L546 205L546 230L546.333 254L552 267L546.167 299L546 330L547 330C547 316.583 549.815 291.395 567 289C565.312 301.537 559.199 315.457 564.029 327.996C567.599 337.267 576.112 343.611 579.229 354C581.717 362.292 580.046 376.347 585.027 383.362C588.465 388.203 598.053 388.312 602.895 391.815C608.58 395.928 610.689 405.553 612.515 412C615.963 424.177 621.146 435.852 624.725 448C625.788 451.608 629.08 457.199 628.187 460.957C627.137 465.372 620.595 468.012 617 470C618.567 473.926 621.112 477.586 620.851 482C619.966 496.968 599.391 503.186 588 507.239C551.819 520.114 511.066 521 473 521C451.225 521 429.607 516.029 408 516.029C363.748 516.029 319.469 520.075 275 518.985C196.942 517.073 114.048 510.503 40 484.287C26.0007 479.331 13.4858 471.935 0 466L0 643L640 643L640 0L0 0z"/>
<path style="fill:#a33a16; stroke:none;" d="M131 146L131 147L277 147C289.033 147 301.029 147.981 313 148C318.818 148.009 325.488 146.772 330 151C323.148 152.429 319.077 163.474 319 170L318 170L318 156C314.193 158.402 314.047 161.745 314 166C307.416 168.133 304.001 182.611 304 189L302 189L301 176L297 191L294 190L293 195L316 196L316 197L102 197C110.118 200.407 123.203 198 132 198L199 198L362 198C388.177 198 414.918 196.44 441 197.914C466.819 199.374 493.13 198 519 198C523.185 198 541.479 200.401 542.957 195.682C544.715 190.067 537.612 179.124 535.421 174C532.071 166.165 529.473 155.103 522.945 149.329C510.559 138.374 481.431 145 466 145L236 145L166 145C155.045 145 141.522 142.89 131 146M130 145L131 146L130 145z"/>
<path style="fill:#130803; stroke:none;" d="M331 149L331 151L333 151L333 149L331 149z"/>
<path style="fill:#a33a16; stroke:none;" d="M114 166L115 167L114 166z"/>
<path style="fill:#e6e5e3; stroke:none;" d="M544 196L544 200L545 200L544 196z"/>
<path style="fill:#bdaca3; stroke:none;" d="M434 197L434 198L438 198L438 203L433 203C434.178 195.291 420.121 198 415 198L356 198L102 198L102 199L103 204L140 203L140 267L103 267L103 273C112.222 270.804 122.559 272 132 272L186 272C191.551 272 208.556 269.198 211.972 274.318C215.038 278.912 213 289.639 213 295L213 349L104 349L103 354L140 354L140 434L145 434L145 354L284 354L284 434L289 434L289 354L330 354L330 349L218 349L218 272L352 272C350.796 264.788 341.705 267 336 267L288 267L288 203L379 203L425 204C436.774 198.241 433.248 216.226 433 222C439.228 217.917 438 209.56 438 203C443.504 202.996 446.898 202.963 450 198L434 197M451 197L452 204L485 203L545 203C542.579 195.023 528.762 198 522 198C499.728 198 472.662 202.157 451 197M543 197L544 198L543 197z"/>
<path style="fill:#e6e5e3; stroke:none;" d="M433 198L433 203L438 203L438 198L433 198z"/>
<path style="fill:#f8b840; stroke:none;" d="M427 252L426 252L421.303 228L427 202C417.269 207.883 407.526 222.522 407 234L408 234L408 229L409 229L409 246L408 246L408 240L407 240L414 268L425 254L426.32 278L407 330L406 330C405.984 305.769 411.906 272.11 386 258C389.955 272.073 394.396 288.574 390.065 303C387.656 311.022 379.915 315.525 376.259 323C366.423 343.114 358.9 377.377 367 399L357 394C365.5 420.08 379.773 446.105 404 460.547C427.182 474.366 465.55 480.623 492 475.539C499.883 474.024 506.459 469.569 514 467.221C524.279 464.021 534.871 464.056 545 459.561C568.134 449.294 583.491 424.798 590 401L582 405C585.69 385.972 584.271 364.003 576.573 346C573.148 337.991 565.105 332.281 563.215 324C560.529 312.227 566.051 300.623 567 289C546.3 290.453 549.791 319.855 545 333L544 333C536.931 316.022 531.629 306.666 534 288L535 288L541 299L543 299C549.266 281.807 550.061 256.344 532 246L536.059 265L533 285L532 285C530.072 269.828 524.319 252.03 512 242L507 270L506 270L500 257L496.861 275.91L488.8 289L487 326L484 323L483 323L481 329L480 329L480 316L481 316L481 319L482 319L477 311L478 307L479 307L479 310L480 310C481.264 294.004 485.037 278.722 478.881 263C475.568 254.539 467.436 248.566 462.548 241C454.283 228.207 452 212.935 452 198C435.89 206.231 428.31 235.425 427 252z"/>
<path style="fill:#e6e5e3; stroke:none;" d="M102 199L102 205L103 205L104 199L102 199M140 203L145 203C143.723 199.156 141.277 199.156 140 203z"/>
<path style="fill:#a33a16; stroke:none;" d="M545 199L546 200L545 199M545 201C540.051 204.749 531.012 203 525 203L476 203C471.245 203 456.167 200.549 453.032 204.603C449.846 208.724 454.14 221.456 455.428 226C456.717 230.548 458.528 234.893 460.873 239C466.477 248.817 476.82 255.988 480 267C491.206 267 498.951 269.268 500 256L501 256L505 267L508 267L511 242C521.652 250.171 522.142 266.989 537 267L532 245L544 257C548.831 245.599 546 229.258 546 217C546 211.92 546.981 205.72 545 201M103 267L140 267L140 203L115 203L104.603 204.028L103 220L103 267M145 203L145 267L243 267C253.057 267 272.677 270.828 281.682 266.397C285.507 264.515 284 256.471 284 253L284 217C284 213.685 285.351 206.368 282.397 204.028C279.948 202.088 274.91 203 272 203L246 203L145 203M288 203L288 267L336 267C341.875 267 349.921 265.151 352 272L218 272L218 349L330 349L330 354L289 354L289 434L284 434L284 354L145 354L145 434L140 434L140 354L103 354C103 371.722 104 389.283 104 407C104 415.587 102.626 424.53 110.043 430.606C116.003 435.487 123.772 435 131 435L172 435L281 435C299.108 435 317.964 433.47 335.996 435.059C345.224 435.872 354.973 451.169 363 456.301C376.698 465.059 383.55 461.126 398 459C393.802 451.67 385.802 446.574 380.468 440C370.16 427.297 360.78 408.95 357 393L366 399L367 352L362 352L362 349L368 349C369.42 338.463 373.713 327.055 379.352 318.039C384.849 309.25 389.904 305.949 391.42 295C392.078 290.247 392.678 276.281 388.411 273.028C384.137 269.769 372.232 272 367 272L367 344L366 344C363.054 331.767 362.23 318.547 363.09 306C363.705 297.01 365.261 282.723 361.397 274.299C360.089 271.446 356.619 269.901 355 267L388 267L386 258C410.356 276.557 406 301.674 406 329L407 329L426.532 277L425 255L415 269L411 268L413 266C404.676 250.387 403.091 236.895 407 220L408 220L408 223L409 223L424 203L288 203M427 203C423.335 220.758 420.694 233.09 426 251C431.111 241.39 432.674 226.72 433.728 216C434.392 209.251 435.098 203.266 427 203M438 203L438 215L439 215L446 203L438 203z"/>
<path style="fill:#130803; stroke:none;" d="M408 205L393 236L402 235C403.265 225.216 412.945 214.301 408 205z"/>
<path style="fill:#bdaca3; stroke:none;" d="M426 205L427 206L426 205M422 206L423 207L422 206M421 207L422 208L421 207M452 210L453 211L452 210M424 213L425 214L424 213M415 214L416 215L415 214M414 215L415 216L414 215M413 216L414 217L413 216M412 217L413 218L412 217M453 217L454 218L453 217M411.333 218.667L411.667 219.333L411.333 218.667M407 220C402.268 234.547 404.577 246.943 410 261L411 261C408.853 245.059 406.479 235.816 411 220L410 220L409 223L408 223L407 220M433.333 223.667L433.667 224.333L433.333 223.667M421 225L422 226L421 225z"/>
<path style="fill:#e6e5e3; stroke:none;" d="M409 226L409 229L410 229L409 226M408 229L408 246L409 246L408 229z"/>
<path style="fill:#bdaca3; stroke:none;" d="M456 229L457 230L456 229M431 230L432 231L431 230M421 231L422 232L421 231z"/>
<path style="fill:#130803; stroke:none;" d="M402 238L402 242L403 242L402 238z"/>
<path style="fill:#bdaca3; stroke:none;" d="M428 241L429 242L428 241M462 241L463 242L462 241M511 242L511 246L512 246L511 242z"/>
<path style="fill:#130803; stroke:none;" d="M403 244L404 245L403 244z"/>
<path style="fill:#bdaca3; stroke:none;" d="M532 245L533 246L532 245z"/>
<path style="fill:#e6e5e3; stroke:none;" d="M409 246L409 250L410 250L409 246z"/>
<path style="fill:#bdaca3; stroke:none;" d="M427 247L428 248L427 247M534 247L535 248L534 247M535 248L536 249L535 248M469 250L470 251L469 250M426 251L427 252L426 251M423.667 254.333L424.333 254.667L423.667 254.333M545 254L544 259L545 259L545 254z"/>
<path style="fill:#e6e5e3; stroke:none;" d="M546 254L546.921 274L546 298C552.951 287.483 556.451 263.169 546 254z"/>
<path style="fill:#bdaca3; stroke:none;" d="M541 255L542 256L541 255z"/>
<path style="fill:#e6e5e3; stroke:none;" d="M429 256L437 273L438 273C437.059 266.048 434.312 260.646 429 256z"/>
<path style="fill:#bdaca3; stroke:none;" d="M500 256L501 257L500 256M510 256L511 257L510 256M542 256L543 257L542 256M425 258L426 259L425 258M476 258L477 259L476 258M389 260L390 261L389 260M420 260L421 261L420 260M499.333 260.667L499.667 261.333L499.333 260.667M535 260L536 261L535 260M411 261L411 264L412 264L411 261M418 263L419 264L418 263M412.333 264.667L412.667 265.333L412.333 264.667M479 264L480 265L479 264z"/>
<path style="fill:#e6e5e3; stroke:none;" d="M102 265L102 274L103 274L102 265z"/>
<path style="fill:#bdaca3; stroke:none;" d="M426 265L426 271L427 271L426 265M498 266L480 267L481 272L498 273L498 266z"/>
<path style="fill:#e6e5e3; stroke:none;" d="M140 268L140 271L145 271C144 267.964 143.137 267.506 140 268M284 267L284 271L288 271L284 267z"/>
<path style="fill:#bdaca3; stroke:none;" d="M355 267L361.682 276.058L366 344L367 344L367 272L389 272L388 267L355 267M411 267L411 268L415 269L415 268L411 267M415 267L416 268L415 267M506 267L506 269L508 267L506 267M528 267L535 273L536 267L528 267z"/>
<path style="fill:#e6e5e3; stroke:none;" d="M391 268L393 270L391 268z"/>
<path style="fill:#bdaca3; stroke:none;" d="M398.333 268.667L398.667 269.333L398.333 268.667z"/>
<path style="fill:#e6e5e3; stroke:none;" d="M506 269L507 270L506 269M213 270L213 272L218 272L218 270L213 270M362 270L362 272L367 272L367 270L362 270z"/>
<path style="fill:#bdaca3; stroke:none;" d="M399 270L400 271L399 270z"/>
<path style="fill:#a33a16; stroke:none;" d="M103 349L213 349L213 294C213 289.103 215.124 277.582 211.972 273.603C208.917 269.746 195.526 272 191 272L127 272C122.187 272 107.242 269.545 104.028 273.603C100.876 277.582 103 289.103 103 294L103 349z"/>
<path style="fill:#bdaca3; stroke:none;" d="M389 272L390 273L389 272M400 272L401 273L400 272z"/>
<path style="fill:#a33a16; stroke:none;" d="M481 272L483.712 315L487 326C485.668 309.12 483.291 290.27 493 276L496 278L498 273L481 272M530 272L532 285L533 285L535 273L530 272z"/>
<path style="fill:#bdaca3; stroke:none;" d="M497.333 274.667L497.667 275.333L497.333 274.667z"/>
<path style="fill:#e6e5e3; stroke:none;" d="M452 276C454.257 287.982 456.483 294.591 467 302C466.667 290.83 461.18 283.021 452 276z"/>
<path style="fill:#bdaca3; stroke:none;" d="M493 276C484.883 284.581 485.609 292.053 487 303L488 303C488 293.575 488.613 285.77 496 279L496 278L493 276M390 277L391 278L390 277M402 277L403 278L402 277M426 277L427 278L426 277M496 277L497 278L496 277M533 279L534 280L533 279M425 281L426 282L425 281M404 283L405 284L404 283M391 285L391 288L392 288L391 285M423 286L424 287L423 286M405 287L406 288L405 287z"/>
<path style="fill:#e6e5e3; stroke:none;" d="M490 288L489 295L490 295L490 288z"/>
<path style="fill:#a33a16; stroke:none;" d="M534 288C531.017 303.832 533.424 320.635 545 333L546 299C539.578 297.988 537.81 292.534 534 288z"/>
<path style="fill:#bdaca3; stroke:none;" d="M422 289L423 290L422 289z"/>
<path style="fill:#e6e5e3; stroke:none;" d="M530 289L523 302L524 302L530 289z"/>
<path style="fill:#bdaca3; stroke:none;" d="M421 291L422 292L421 291M406.333 292.667L406.667 293.333L406.333 292.667M391 294L391 297L392 297L391 294z"/>
<path style="fill:#e6e5e3; stroke:none;" d="M455 294L455 315L456 315C457.548 308.498 457.679 300.211 455 294z"/>
<path style="fill:#bdaca3; stroke:none;" d="M544 295L543 299L546 299L544 295M390 301L391 302L390 301M406 302L407 303L406 302z"/>
<path style="fill:#e6e5e3; stroke:none;" d="M473 302L477 309L473 302z"/>
<path style="fill:#bdaca3; stroke:none;" d="M389 305L390 306L389 305z"/>
<path style="fill:#e6e5e3; stroke:none;" d="M510 306C504.358 313.432 499.542 317.487 499 327C505.557 322.385 513.457 314.857 510 306z"/>
<path style="fill:#bdaca3; stroke:none;" d="M388 307L389 308L388 307z"/>
<path style="fill:#e6e5e3; stroke:none;" d="M478 307L478 312L479 312L478 307z"/>
<path style="fill:#bdaca3; stroke:none;" d="M413 308L414 309L413 308M480 308L483 323L484 323C484.956 317.201 484.068 312.4 480 308M386 310L387 311L386 310M412 310L413 311L412 310M385 311L386 312L385 311M405 311L405 321L406 321L405 311M384 312L385 313L384 312M381 314L382 315L381 314z"/>
<path style="fill:#e6e5e3; stroke:none;" d="M479.333 314.667L479.667 315.333L479.333 314.667z"/>
<path style="fill:#bdaca3; stroke:none;" d="M380 315L381 316L380 315M410 315L411 316L410 315z"/>
<path style="fill:#a33a16; stroke:none;" d="M382 316L383 317L382 316z"/>
<path style="fill:#e6e5e3; stroke:none;" d="M480 316L480 329L481 329C483.199 324.35 482.735 320.353 480 316M455 317L455 320L456 320L455 317z"/>
<path style="fill:#bdaca3; stroke:none;" d="M409 318L410 319L409 318M486 318L486 322L487 322L486 318z"/>
<path style="fill:#e6e5e3; stroke:none;" d="M397 320C387.476 329.335 382.111 343.573 382 357L383 357C383.533 350.47 385.438 342.678 388.979 337.09C392.224 331.969 397.749 326.563 397 320z"/>
<path style="fill:#f8b840; stroke:none;" d="M482.333 320.667L482.667 321.333L482.333 320.667z"/>
<path style="fill:#e6e5e3; stroke:none;" d="M455 321L456 322L455 321z"/>
<path style="fill:#bdaca3; stroke:none;" d="M408 322L409 323L408 322z"/>
<path style="fill:#e6e5e3; stroke:none;" d="M508 323L508 341L509 341L508 323z"/>
<path style="fill:#bdaca3; stroke:none;" d="M484 324L485 325L484 324M373 329L374 330L373 329M406 329L407 330L406 329z"/>
<path style="fill:#a33a16; stroke:none;" d="M404 331L404 335L405 335L404 331z"/>
<path style="fill:#bdaca3; stroke:none;" d="M543 331L544 332L543 331z"/>
<path style="fill:#130803; stroke:none;" d="M547 334L547 338L548 338L547 334z"/>
<path style="fill:#a33a16; stroke:none;" d="M405 338L407 347L408 347L405 338z"/>
<path style="fill:#e6e5e3; stroke:none;" d="M556 342L566 363L567 363C565.795 354.841 562.836 346.932 556 342z"/>
<path style="fill:#bdaca3; stroke:none;" d="M368.333 345.667L368.667 346.333L368.333 345.667z"/>
<path style="fill:#e6e5e3; stroke:none;" d="M103 349L103 353L104 353L103 349M213 349L213 352L218 352L218 349L213 349z"/>
<path style="fill:#bdaca3; stroke:none;" d="M362 349L362 352L367 354L368 354L368 349L362 349z"/>
<path style="fill:#e6e5e3; stroke:none;" d="M437 354C445.046 359.853 457.146 373.319 456 384L455 384L453 378L452 378L452 401L453 401C454.265 394.87 454.011 387.156 459 383C457.053 373.69 451.468 367.677 454 358L465 362C462.835 354.687 440.49 343.484 437 354z"/>
<path style="fill:#a33a16; stroke:none;" d="M549 358L550 359L549 358M549 360L547 363L549 360z"/>
<path style="fill:#bdaca3; stroke:none;" d="M366 361L367 362L366 361z"/>
<path style="fill:#e6e5e3; stroke:none;" d="M381.333 361.667L381.667 362.333L381.333 361.667M567.333 364.667L567.667 365.333L567.333 364.667z"/>
<path style="fill:#bdaca3; stroke:none;" d="M365 365L366 366L365 365z"/>
<path style="fill:#e6e5e3; stroke:none;" d="M617 470C620.996 468.468 627.781 465.777 628.578 460.957C629.437 455.761 624.84 446.891 623 442C617.754 428.059 615.245 404.482 605.362 393.275C600.688 387.974 590.561 385.871 584 384L582 405L590 401C577.219 433.951 555.228 465.892 516 466L516 467C525.777 467.082 560.485 478.956 540.999 490.319C538.781 491.613 536.405 492.667 534 493.561C506.854 503.65 471.86 501.776 444 495.997C430.004 493.094 413.315 488.59 417 472C404.229 470.984 390.634 464.803 378 464.977C364.577 465.162 352.136 475.648 339 476.896C295.298 481.046 247.836 476.169 205 467.6C188.191 464.238 169.529 460.3 155 450.699C151.658 448.491 141.911 441.545 144 437L144 436C134.377 434.784 123.028 437.746 114 433.427C93.1585 423.458 106.3 385.061 102 367C83.0207 372.386 63.8569 376.552 45 382.434C37.549 384.758 26.6632 387.137 20.4985 392.085C13.8845 397.394 12.2738 412.316 9.56173 420C5.39024 431.819 -5.85432 452.809 0.858025 465.468C3.88967 471.185 16.2974 475.159 22 477.504C41.8971 485.686 62.9699 492.922 84 497.483C146.257 510.986 210.322 517.425 274 518.985C318.798 520.083 363.419 516.076 408 516.079C430.586 516.08 453.213 521 476 521C514.996 521 553.695 518.248 591 506.566C607.91 501.271 628.391 489.957 617 470M568 368L569 369L568 368z"/>
<path style="fill:#bdaca3; stroke:none;" d="M364.333 371.667L364.667 372.333L364.333 371.667M103 381L103 421L104 421C104 409.566 107.411 391.512 103 381M364 388L365 389L364 388z"/>
<path style="fill:#a33a16; stroke:none;" d="M458 392L452 409L451 409L444 400C430.041 407.252 435 433.292 435 446C421.367 434.867 414 421.536 414 404L410 405L409 405C411.757 426.705 425.169 440.697 437 458C418.996 439.616 412.009 421.658 405 398C399.575 404.221 396.569 412.098 392.136 419C390.489 421.564 387.434 424.685 388.021 428C388.881 432.861 395.369 436.797 399 439.525C410.215 447.949 424.429 457.091 438 461L437 458L443 465C425.271 457.619 407.033 447.983 392 435.996C386.08 431.276 379.084 419.674 371 421C385.244 455.213 413.971 464.895 447 471.666C466.497 475.663 485.128 478.786 504 470L501 469L501 468C529.054 467.418 569.205 454.922 577 424L564.996 432.561L542 448L542 447C548.227 444.313 563.025 436.797 563.404 429C563.746 421.991 553.824 411.554 551 405L550 405C548.353 417.966 543.516 429.983 535 440C539.099 432.609 550.912 417.755 543 410C542.709 424.115 536.637 435.802 525 444C528.259 432.976 527.161 411.795 516.957 404.407C510.205 399.519 495.181 399 487 399L491 438L490 438L484 397L483 397C477.78 404.889 464.683 420.351 464.796 430C464.887 437.885 471.899 444.856 477 450L443 412C442.627 430.078 443.722 443.117 457 457C439.469 444.389 440.513 424.816 442 406L459 423L458 392z"/>
<path style="fill:#bdaca3; stroke:none;" d="M357 393L358 394L357 393M365 394L366 395L365 394M357 395L358 396L357 395M361 396L362 397L361 396z"/>
<path style="fill:#a33a16; stroke:none;" d="M359 397L368 404L359 397z"/>
<path style="fill:#bdaca3; stroke:none;" d="M358 398L359 399L358 398M366 398L367 399L366 398M362 402L370 421L376 420C373.464 413.074 369.431 404.26 362 402M360 403L361 404L360 403z"/>
<path style="fill:#a33a16; stroke:none;" d="M586 404L580 411C583.109 409.503 586.829 407.863 586 404z"/>
<path style="fill:#bdaca3; stroke:none;" d="M362 408L363 409L362 408M584 408L574 423L578 425L584 408z"/>
<path style="fill:#a33a16; stroke:none;" d="M418 419C419.281 427.548 425.037 437.255 433 441L431 420L421 424L418 419z"/>
<path style="fill:#bdaca3; stroke:none;" d="M376 420L377 421L376 420M377 421L378 422L377 421M371 422L372 423L371 422M104 423L105 424L104 423M378 423L379 424L378 423z"/>
<path style="fill:#a33a16; stroke:none;" d="M529 423L527 441C533.086 436.676 537.674 430.432 539 423L538 423L537 426L529 423z"/>
<path style="fill:#bdaca3; stroke:none;" d="M573 423L574 424L573 423M372 424L373 425L372 424M379 424L380 425L379 424M572 424L573 425L572 424M105 425L106 426L105 425M380 425L381 426L380 425M571 425L572 426L571 425M371 426L372 427L371 426M373 426L374 427L373 426M381 426L382 427L381 426M576 426L577 427L576 426M106 427L107 428L106 427M382 427L383 428L382 427M570 427L571 428L570 427M107 428L108 429L107 428M383 428L384 429L383 428M569 428L570 429L569 428M108 429L109 430L108 429M373 429L374 430L373 429M384 429L385 430L384 429M568 429L569 430L568 429M109 430L110 431L109 430M385 430L386 431L385 430M567 430L568 431L567 430M110 431L111 432L110 431M566 431L567 432L566 431M111.667 432.333L112.333 432.667L111.667 432.333M565 432L566 433L565 432M113.667 433.333L114.333 433.667L113.667 433.333M388 433L389 434L388 433M116 434L116 435L119 435L116 434M376 434L377 435L376 434M123 435L123 436L131 436L123 435M140 435L140 436L144 436L144 437L142 438C158.174 461.681 193.558 466.376 220 470.272C259.08 476.029 300.337 480.663 340 476.896C352.793 475.681 365.341 464.835 378.424 465.219C391.217 465.595 404.052 471.443 417 472C411.522 487.807 428.148 492.69 441 495.575C466.935 501.396 494.882 501.606 521 497.08C528.465 495.787 543.135 493.544 546.932 485.896C552.493 474.696 527.24 467.356 520 467.041C506.892 466.471 494.479 475.987 481 476.91C451.079 478.961 424.868 467.169 398 457C383.222 469.154 364.913 458.949 353 447.91C348.441 443.685 343.61 435.65 336.985 435.059C315.364 433.129 292.716 435 271 435L140 435M377.333 435.667L377.667 436.333L377.333 435.667M378 437L379 438L378 437M379 438L380 439L379 438z"/>
<path style="fill:#f8b840; stroke:none;" d="M491 438L497 458L497 459L504 460L491 438z"/>
<path style="fill:#bdaca3; stroke:none;" d="M380.333 439.667L380.667 440.333L380.333 439.667z"/>
<path style="fill:#f8b840; stroke:none;" d="M534 440L519 460L542 449L542 448L523 457L534 440z"/>
<path style="fill:#bdaca3; stroke:none;" d="M381 441L382 442L381 441M382 442L383 443L382 442M383 443L384 444L383 443M384 444L385 445L384 444M385 445L386 446L385 445M386 446L387 447L386 446M387 447L388 448L387 447M388 448L389 449L388 448M389 449L390 450L389 449M390 450L391 451L390 450z"/>
<path style="fill:#f8b840; stroke:none;" d="M477 450L477 451L489 456L489 455L477 450z"/>
<path style="fill:#bdaca3; stroke:none;" d="M391 451L392 452L391 451M392 452L393 453L392 452M393 453L394 454L393 453M394 454L398 457L394 454z"/>
<path style="fill:#f8b840; stroke:none;" d="M490 456L490 457L496 458L496 457L490 456M457 457L463 462L461 465L479 468L479 467L457 457z"/>
<path style="fill:#e6e5e3; stroke:none;" d="M512 467L513 468L512 467z"/>
<path style="fill:#f8b840; stroke:none;" d="M480 468L480 469L484 469L480 468z"/>
<path style="fill:#e6e5e3; stroke:none;" d="M510 468L511 469L510 468z"/>
<path style="fill:#f8b840; stroke:none;" d="M486 469L486 470L500 470L486 469z"/>
<path style="fill:#e6e5e3; stroke:none;" d="M508 469L509 470L508 469M418.667 473.333L419.333 473.667L418.667 473.333z"/>
</svg>
