<?xml version="1.0" standalone="yes"?>
<svg xmlns="http://www.w3.org/2000/svg" width="1000" height="1000">
<path style="fill:#f8f8f9; stroke:none;" d="M0 0L0 1000L1000 1000L1000 0L0 0z"/>
<path style="fill:#a69fa1; stroke:none;" d="M109 391L105 391C105.184 394.509 105.116 396.193 102 398L89 373C81.7836 378.169 94.4455 387.263 90.1875 393.566C88.3207 396.33 83.8681 395.93 81 396.593C71.3069 398.836 46.9863 395.769 46 383L61.0008 375.494L79 384C78.9835 362.69 49.3476 363.106 43.321 380.911C41.3863 386.627 39.1155 393.414 44.5579 398.297C52.3271 405.267 66.9992 398.963 75.9059 401.622C79.9145 402.819 80.8502 407.669 85 409C89.7693 395.466 99.8807 415.752 100 422L98 422C95.4066 417.098 90.6843 410.924 85 410C84.3159 426.183 91.7354 445.481 104.093 456.741C110.571 462.642 127.172 470.48 129.566 479.015C131.729 486.722 129.997 497.017 130 505C130.006 519.996 130.994 534.944 131 550C131.011 579.737 130.743 609.278 130.015 639C129.697 651.975 131.868 666.171 129.852 678.985C129.282 682.607 126.339 684.746 125.027 688.039C121.675 696.458 118.428 709.866 112.487 716.726C106.179 724.009 95.1331 728.168 90.51 737.259C85.7588 746.603 89.2851 762.751 88.9846 773C88.3716 793.904 86.2531 815.942 84.9113 837C84.3888 845.2 81.011 860.106 84.6034 867.718C86.8306 872.436 93.7872 869.602 97 867.792C107.697 861.764 116.886 852.835 128 848L128 846C118.297 843.923 108.77 854.127 100.929 858.835C98.6664 860.193 93.4024 865.83 91.4599 861.793C88.0573 854.723 90.8101 838.665 91.7145 831C94.0208 811.454 96 791.75 96 772C96 762.971 93.4438 749.217 97.5579 741.001C101.858 732.414 111.081 728.316 117.137 721.267C125.407 711.641 132.661 693.566 134.775 681C137.083 667.288 134.79 652.807 136.171 639C140.018 600.519 141 562.78 141 524C141 506.884 142.458 489.036 140.83 472C140.309 466.548 139.739 460.303 135.521 456.318C132.62 453.578 128.481 454.135 125 452.586C115.725 448.46 113.939 440.494 115 431L117 431C120.154 437.798 126.912 439.771 133 443.377C154.49 456.105 173.803 456 198 456C204.061 456 226.545 452.465 229.972 457.434C232.11 460.533 231.174 466.34 232.205 470C237.518 488.862 235.537 510.52 236.015 530C237.241 580.06 237.306 629.352 231.285 679C229.278 695.553 225.898 711.218 220.85 727C219.708 730.57 220.468 734.473 218.875 737.911C210.114 756.815 197.982 776.791 183.535 791.787C177.256 798.306 171.162 805.895 164.571 812.061C158.974 817.297 151.73 821.837 150 830L141 831C144.855 844.18 158.334 820.733 163.861 821.69C166.788 822.196 167.897 826.833 170.282 828.426C173.347 830.471 179.565 829.547 183 828.657C187.641 827.456 189.984 823.266 193.134 820.065C200.965 812.106 204.666 808.174 209.458 798C211.565 793.527 215.316 790.299 217.648 786C225.342 771.816 231.425 756.293 238.528 741.866C261.44 695.325 260.64 637.603 263.94 587C265.605 561.465 264.015 534.828 275.472 511.06C284.822 491.665 306.191 476.566 324.981 467.694C334.599 463.154 342.336 456.962 353 453.736C356.313 452.734 361.581 450.183 364.995 450.958C373.052 452.787 377.726 460.849 387 461C387.683 469.523 395.234 471.71 398.111 479.039C406.825 501.235 418.555 522.977 431.826 543C435.813 549.017 436.422 556.598 440.194 562.83C455.343 587.857 468.623 613.862 483.1 639C487.385 646.441 490.674 654.946 495.874 661.816C504.891 673.726 516.101 682.398 527.545 691.781C533.721 696.845 538.775 703.243 545.425 707.775C548.715 710.018 552.769 710.05 555.985 712.433C563.092 717.699 568.484 723.888 578 724L578 721C569.783 719.691 565.069 711.957 558.575 707.304C555.445 705.062 551.43 705.232 548.379 703.062C544.702 700.447 542.748 695.425 539.561 692.213C533.087 685.689 525.719 679.501 518.999 673.039C488.04 643.272 474.542 601.321 455.027 564C433.834 523.47 412.474 483.417 393 442L403.183 453.88L418.862 469.624L430.776 478.418L439.598 490.42L450.772 497.723L456.34 506.38L471.283 522.999L481 539L484 539L485 532L494 541C495.421 545.054 498.595 544.492 501.725 546.854C506.107 550.161 507.654 559.073 514.985 557.173C522.459 555.236 517.899 548.299 522.448 545.027C526.33 542.235 531.648 543.164 535.699 539.649C547.886 529.076 557.793 511.833 567.559 499.103C570.798 494.882 576.282 492.728 578.835 487.83C580.937 483.797 579.138 479.051 578 475L576 475C570.426 489.004 555.05 499.203 545.471 510.286C541.598 514.767 540.169 521.196 535.853 525.228C529.525 531.139 512.063 529.355 518 542C508.049 544.527 497.945 528.716 491.414 522.545C467.44 499.892 442.608 476.445 419.934 452.572C413.8 446.113 408.696 438.674 401.961 432.754C400.013 431.042 395.122 428.232 395.631 425.108C396.226 421.46 402.956 421.429 405.576 420.12C415.839 414.992 424.107 409.329 435 405.867C451.235 400.708 463.171 386.752 480.039 383.302C485.219 382.243 489.982 385.207 495 385.816C504.665 386.988 514.311 384.691 524 386.147C529.342 386.95 533.365 390.535 539 391C540.579 395.722 545.019 399.605 550 400C549.324 395.787 542.679 390.473 545.698 386.318C548.389 382.613 561.44 381.134 566 379.876C580.333 375.922 594.346 370.996 609 367.88C617.709 366.028 623.133 363.535 630.985 369.684C663.848 395.421 693.478 427.171 725.174 454.54C728.657 457.548 733.28 458.757 736.787 461.647C745.72 469.011 752.693 478.938 761.174 486.736C764.97 490.227 770.109 491.723 773.985 495.188C782.825 503.093 790.299 512.529 799.105 520.181C813.344 532.553 828.795 543.344 842.714 556.424C855.689 568.616 869.799 585.792 885.04 594.721C889.94 597.592 896.63 598.029 901.999 599.929C908.871 602.36 916.011 609.748 923.83 605.861C936.183 599.72 933.726 588.392 939 578C936.31 576.293 930.848 570.69 927.473 571.752C921.404 573.661 933.148 595.553 924.024 592.454C920.667 591.313 919.252 587.372 916.726 585.157C910.636 579.817 904.553 576.223 898.753 570.301C886.94 558.239 870.16 549.982 858.434 537.586C855.527 534.513 856.616 529.563 853.486 526.738C848.629 522.354 840.221 522.382 835.305 517.721C832.125 514.707 832.167 507.518 828.682 505.742C824.783 503.755 820.108 505.976 816.289 503.258C810.299 498.994 808.203 490.73 802.545 485.835C796.608 480.699 787.941 480.099 782.318 474.402C779.256 471.3 780.294 466.715 776.852 463.709C771.527 459.058 763.908 460.902 758.634 456.2C753.944 452.018 755.523 444.378 749.941 441.164C743.702 437.572 733.777 437.718 728.303 433.262C724.277 429.984 726.746 424.023 723.397 420.742C719.764 417.183 712.533 417.715 708.318 414.035C704.489 410.691 706.074 405.247 700.956 402.453C696.88 400.227 690.852 401.397 687.318 398.397C683.638 395.273 686.576 389.791 683.397 386.603C680.199 383.397 673.871 385.15 670.059 382.411C666.052 379.533 667.317 374.799 664.258 371.742C661.229 368.716 655.829 370.514 652.43 368.012C648.852 365.377 649.817 360.012 645.856 357.419C642.049 354.927 637.081 355.512 633.17 353.187C624.659 348.127 618.765 341.179 610.996 335.351C606.711 332.137 601.569 330.945 599 326C619.082 319.656 650.153 308.594 662.182 289.999C670.89 276.539 662.498 268.043 661.108 255C659.789 242.621 664.661 230.372 662.336 218C659.574 203.306 642.973 188.986 629 185.684C582.014 174.581 531.777 193.058 487 203.585C471.2 207.299 453.151 206.63 437 209.464C425.135 211.546 413.742 216.512 402 218.726C386.601 221.63 370.465 221.826 355 224.616C336.549 227.944 318.35 234.326 300 238.471C280.289 242.924 259.761 243.773 240 248.59C214.079 254.908 187.055 258.391 161 263.729C147.684 266.457 130.349 270.163 119.015 277.993C87.0277 300.091 81.4658 337.577 95.0694 372C98.3868 380.394 105.22 384.105 109 391z"/>
<path style="fill:#d46a62; stroke:none;" d="M112 386L112 385C104.183 380.565 100.014 377.333 101 368L109 373C105.463 355.999 108.591 341.643 113.073 325C116.333 312.894 118.772 302.508 130.286 294.905C139.036 289.128 149.09 289.995 159 288.572C164.869 287.729 176.29 282.878 181.83 285.212C185.939 286.943 191.794 295.385 191.163 300C190.577 304.28 186.494 306.169 187.939 310.985C192.199 325.184 210.434 334.539 224 335.83C232.976 336.684 249.334 334.572 256.557 328.853C261.747 324.744 263.876 317.649 269.129 313.702C275.883 308.627 288.605 300.355 278.772 289.714C266.485 276.417 253.974 290.704 241 288L241 287C245.265 284.609 246.086 281.628 247 277L269 276.086L337 259.532L410 238.049L445 225.054L599 192L598 189C621.254 189 650.964 194.927 658.363 221C660.104 227.136 659 234.663 659 241C666.473 223.231 654.325 197.915 636.911 190.863C609.379 179.715 576.236 187.426 548 190.17C528.117 192.102 508.569 200.991 489 204.738C472.256 207.945 454.698 207.707 438 211.259C427.965 213.394 418.092 217.392 408 219.242C390.86 222.385 373.027 222.764 356 226.39C339.183 229.971 322.812 235.546 306 239.181C290.231 242.589 273.781 242.771 258 245.616C246.542 247.682 235.412 252.929 224 254.791C200.406 258.64 175.924 259.692 153 266.838C134.467 272.615 114.755 280.729 101.702 295.598C97.8652 299.969 96.7791 306.691 94.8958 312C89.2302 327.971 88.0681 338.775 93.3302 355C97.2795 367.177 97.4236 381.644 112 386z"/>
<path style="fill:#a69fa1; stroke:none;" d="M725 187L725 189L732 189L732 187L725 187M785 188L785 189L792 189L785 188z"/>
<path style="fill:#d72628; stroke:none;" d="M598 189L599 192C582.141 194.855 565.79 200.361 549 203.384C535.022 205.901 520.907 206.546 507 209.518C497.777 211.488 489.19 216.381 480 218.471C467.816 221.243 455.033 221.672 443 225.326C431.158 228.921 419.891 234.817 408 238.38C399.511 240.925 390.379 241.817 382.09 245.129C375.993 247.565 370.316 251.715 364 253.61C354.609 256.429 344.441 256.956 335 259.8C317.105 265.191 299.693 271.854 281 274.289C269.953 275.728 257.86 279.843 247 277L241 287L241 288C254.199 291.754 266.17 275.99 278.772 290.456C288.475 301.595 274.873 308.425 268.259 313.702C263.431 317.555 261.233 324.047 256.557 328.137C249.683 334.15 232.897 336.763 224 335.713C211.478 334.236 190.658 324.148 188.068 309.996C187.362 306.139 190.746 304.338 191.702 301C193.054 296.281 186.737 287.142 182.714 285.068C177.19 282.22 164.063 287.701 158 288.572C148.158 289.986 138.069 289.062 129.428 294.905C118.334 302.407 116.237 312.247 113.073 324C108.757 340.025 103.764 356.653 109 373L101 368C101.01 380.564 120.66 394.267 132 398.982C141.761 403.041 151.71 403.767 162 405.299C188.811 409.292 214.714 410.038 241 401.079C281.312 387.339 322.619 376.352 363 363.444C389.796 354.879 416.082 343.788 443 335.224C452.382 332.239 462.637 331.437 472 328.444C482.312 325.148 491.684 319.119 502 315.749C511.46 312.659 521.607 311.444 531 308.327C542.309 304.575 552.532 298.24 564 294.939C585.81 288.661 609.308 284.146 629.91 274.031C651.918 263.226 670.31 228.55 651.725 207.089C638.252 191.532 617.427 189 598 189z"/>
<path style="fill:#a69fa1; stroke:none;" d="M735 189C733.795 194.171 727.159 192.916 723.134 194.625C716.824 197.305 710.879 203.306 705 207L705 209C716.096 213.037 730.468 205.937 741 201.951C747.338 199.552 753.409 197.686 754 190L735 189M715 192L715 194L719 194L719 192L715 192z"/>
<path style="fill:#d72628; stroke:none;" d="M547 195L550 195L549 193L547 195z"/>
<path style="fill:#a69fa1; stroke:none;" d="M706 196L706 199L709 198L709 197L706 196z"/>
<path style="fill:#5d585b; stroke:none;" d="M729 199L737 198C733.994 195.759 731.224 195.855 729 199z"/>
<path style="fill:#a69fa1; stroke:none;" d="M796 197C795.232 200.688 795.199 202.735 799 204L796 197M694 202L694 204L700 204L699 201L694 202M676 207L676 209L682 209L676 207M806 211C802.53 214.718 798.042 217.082 794.7 221.13C789.719 227.165 786.735 235.441 778.83 238.451C772.898 240.711 766.159 239.584 760 240.17C739.64 242.107 719.236 240.911 702 252.53C695.271 257.066 684.741 263.859 686.846 273.985C688.823 283.488 707.974 280.121 715 279.986C717.877 279.931 724.452 278.61 724.744 283.097C725.133 289.075 704.098 299.136 699 299.052C695.826 299.001 693.16 296.515 690 296C698.401 322.609 722.062 295.765 732.455 285.376C735.182 282.65 746.727 279.417 745.248 274.404C743.759 269.352 734.645 270.8 731 270.872C722.785 271.035 715.755 268.006 708 267.354C703.547 266.98 700.479 270.444 696 270C718.721 244.251 760.333 258.909 787.036 241.127C792.862 237.247 792.648 232.123 796.603 227.418C800.616 222.643 812.143 219.162 806 211M669.333 212.667L669.667 213.333L669.333 212.667z"/>
<path style="fill:#d72628; stroke:none;" d="M444 213L444 215L451 215L451 213L444 213M422 219L422 220L429 220L422 219M368 228L366 229L366 230L368 228M326 239L326 240L329 240L326 239z"/>
<path style="fill:#5d585b; stroke:none;" d="M658 239C649.58 252.297 644.704 263.578 630.826 272.995C623.3 278.102 613.24 278.389 605 281.713C571.277 295.318 535.763 304.392 501 315.749C490.684 319.119 481.312 325.148 471 328.444C461.637 331.437 451.382 332.239 442 335.224C415.082 343.788 388.796 354.879 362 363.444C336.362 371.639 309.876 377.439 284 385.529C273.105 388.935 262.892 395.11 252 398.455C229.629 405.325 203.533 410.56 180 408.911C164.669 407.836 143.826 404.546 130 397.63C123.023 394.14 118.298 386.119 111 384L111 385L135 404.197L149.922 408.653L154.202 421.721L168 429C154.32 428.991 133.971 419.607 121 414.147C114.114 411.248 110.094 405.68 102 408C104.559 414.47 110.14 417.898 114.407 423.104C136.788 450.416 168.672 453 202 453C212.476 453 226.005 454.074 236 452.178C244.087 450.644 252.039 444.408 260 441.85C269.755 438.714 280.445 438.664 290 434.167C308.554 425.434 326.804 421.459 345.961 415.352C350.461 413.917 358.424 406.69 363.458 409.858C367.457 412.376 360.507 414.122 358.996 414.421C350.068 416.186 339.646 418.414 331.83 423.009C308.215 436.895 279.407 438.285 255 451.279C249.626 454.141 225.156 454.772 236.179 468.393C238.515 471.279 242.598 468.539 245 467.285C250.801 464.256 258.56 460.487 265 459.322C284.395 455.812 300.57 447.585 319 440.86C327.986 437.581 338.182 437.053 347 433.621C360.311 428.441 376.053 416.514 382 436L394 435C392.859 431.292 388.076 428.388 389.762 424.13C391.471 419.812 398.54 419.258 402.285 417.4C414.339 411.419 425.978 406.181 438.039 400.431C451.235 394.139 463 384.676 477 380.224C487.095 377.013 498.565 381.936 509 379.468C516.587 377.673 523.703 373.224 531 370.559C542.623 366.314 555.211 363.408 567 360.054C578.399 356.811 589.936 351.793 601 347.58C605.571 345.839 610.354 346.21 612 341L598 334.188L576 342.471L559 345C566.781 335.4 580.652 337.687 590.867 332.637C595.714 330.241 596.968 324.16 602.089 321.493C615.828 314.34 629.71 309.687 642.996 301.76C648.827 298.281 657.414 293.558 660.107 286.911C664.2 276.808 659.294 265.217 657.978 255.424C657.24 249.93 660.165 244.208 658 239M709 254L733 249.286L744 246C736.101 246 711.779 244.498 709 254z"/>
<path style="fill:#d72628; stroke:none;" d="M260 248C261.963 250.944 264.05 250.727 267 249L260 248M243 254L244 255L243 254M219 274L218 259C211.32 261.217 214.081 271.136 219 274z"/>
<path style="fill:#a69fa1; stroke:none;" d="M220 266L221 266C225.544 250.909 239.54 276.281 244 280C242.396 274.258 235.585 264.161 230.787 260.603C225.479 256.668 220.629 260.49 220 266z"/>
<path style="fill:#d72628; stroke:none;" d="M237 259C236.546 262.519 236.899 264.172 240 266L239 259L237 259z"/>
<path style="fill:#f8f8f9; stroke:none;" d="M225.055 260.681C213.86 262.857 232.774 286.031 239.905 284.369C248.135 282.45 231.796 259.371 225.055 260.681z"/>
<path style="fill:#d72628; stroke:none;" d="M201 261L200 263L202 263L201 261M179 264C180.274 271.628 188.065 267.571 191 263L179 264z"/>
<path style="fill:#a69fa1; stroke:none;" d="M210 285L211 285C209.826 279.327 203.727 276.615 202.594 271.044C201.924 267.75 205.724 265.491 208.302 267.647C211.492 270.312 211.921 274 216 276C214.106 272.917 211.756 266.909 208.585 265.071C204.723 262.833 199.969 266.916 200.677 270.976C201.629 276.434 207.683 280.151 210 285z"/>
<path style="fill:#f8f8f9; stroke:none;" d="M204.217 266.762C198.141 269.425 212.388 292.658 220.664 288.397C223.616 286.876 221.597 283.072 220.4 281.018C218.342 277.486 208.305 264.97 204.217 266.762z"/>
<path style="fill:#a69fa1; stroke:none;" d="M221 268L225 274L221 268z"/>
<path style="fill:#d72628; stroke:none;" d="M195 269C193.954 273.576 195.445 276.594 200 278L197 269L195 269z"/>
<path style="fill:#a69fa1; stroke:none;" d="M190 291L191 291C189.387 286.217 182.209 280.957 182.342 276.095C182.427 272.975 186.117 271.547 188.367 273.451C193.401 277.711 200.025 284.044 203 290C204.466 285.651 191.076 271.16 186.871 270.492C179.422 269.31 179.529 277.12 182.823 281.271C185.378 284.49 188.099 287.342 190 291z"/>
<path style="fill:#f8f8f9; stroke:none;" d="M185.066 272.006C176.51 274.579 191.878 297.647 200.848 293.953C209.227 290.502 188.953 270.837 185.066 272.006z"/>
<path style="fill:#d72628; stroke:none;" d="M144 274L144 275L150 274L144 274z"/>
<path style="fill:#a69fa1; stroke:none;" d="M225 274L226 275L225 274M226 275C229.326 279.726 233.707 286.538 240 286L240 285L226 275M217 276L219 278L219 276L217 276M671 279L674 279L673 277L671 279M219 278L221 281L219 278z"/>
<path style="fill:#d72628; stroke:none;" d="M133.667 279.333L134.333 279.667L133.667 279.333M226 280L227 292C234.052 289.405 231.307 283.069 226 280z"/>
<path style="fill:#a69fa1; stroke:none;" d="M685 289C684.307 287.362 683.702 285.975 682.576 284.57C673.992 273.854 673.534 290.687 685 289M221 281C222.231 288.099 219.812 288.976 213 289L213 290C219.259 289.999 228.059 288.541 221 281M243.333 282.667L243.667 283.333L243.333 282.667z"/>
<path style="fill:#d72628; stroke:none;" d="M121 284L121 285L127 285L127 283L121 284M205 283L206 296L201 296L201 299L213 293L213 292L205 283z"/>
<path style="fill:#a69fa1; stroke:none;" d="M240.667 284.333L241.333 284.667L240.667 284.333M211 286L213 289L211 286M246 290L246 291L259 287L246 290z"/>
<path style="fill:#f8f8f9; stroke:none;" d="M191 306C191.287 330.26 223.733 333.121 241 329.665C244.693 328.926 249.36 329.808 252.714 327.987C258.892 324.632 260.959 317.059 265.459 312.148C268.226 309.128 272.342 309.408 275.227 306.682C285.568 296.908 271.846 284.662 261 286.218C248.758 287.973 237.776 295.824 225 295.996C212.626 296.163 203.064 304.368 191 306z"/>
<path style="fill:#a69fa1; stroke:none;" d="M267 286L267 287L276 291L267 286z"/>
<path style="fill:#d72628; stroke:none;" d="M117 290L120 287L117 290z"/>
<path style="fill:#a69fa1; stroke:none;" d="M204 291L205 292L204 291M208 299L208 300L242 292L231 294.228L208 299M261.005 291.953C251.608 294.992 257.083 306.11 264.964 304.292C275.445 301.875 270.002 289.042 261.005 291.953M276 291L278 295L279 295L276 291M191 292L199 296L199 295L191 292z"/>
<path style="fill:#d72628; stroke:none;" d="M112 295L115 293L112 295z"/>
<path style="fill:#a69fa1; stroke:none;" d="M203 293L204 294L203 293z"/>
<path style="fill:#d46a62; stroke:none;" d="M261.019 293.692C253.191 295.884 259.158 304.435 264.995 302.763C274.009 300.181 268.578 291.576 261.019 293.692z"/>
<path style="fill:#a69fa1; stroke:none;" d="M199 294L199 295L202 295L199 294z"/>
<path style="fill:#d72628; stroke:none;" d="M259 297C262.244 300.3 264.973 299.924 269 298C265.679 295.295 262.852 295.314 259 297M103 305L108 297C102.408 297.436 102.425 300.002 103 305z"/>
<path style="fill:#5d585b; stroke:none;" d="M712 297L713 298L712 297z"/>
<path style="fill:#a69fa1; stroke:none;" d="M205 300L205 301L208 301L205 300M191 305L191 306L205 302L191 305M278 303L274 309L278 303M190 306L190 312L191 312L190 306M266 310L266 311L273 310L266 310z"/>
<path style="fill:#d72628; stroke:none;" d="M99 311L98 319L102 312L101 311L99 311z"/>
<path style="fill:#a69fa1; stroke:none;" d="M265 311L266 312L265 311M705 311C706.099 314.321 707.59 314.737 711 315C709.901 311.679 708.41 311.263 705 311M264.333 312.667L264.667 313.333L264.333 312.667M565 315L570 314C567.587 312.338 566.608 312.556 565 315M191 313L192 314L191 313M192.667 314.333L193.333 314.667L192.667 314.333M194 315L195 316L194 315M263 315L261 319L263 315M563 316C542.395 312.513 521.633 329.875 502 334.661C485.995 338.562 471.617 345.069 456 349.87C451.754 351.176 447.175 350.439 443 351.875C433.102 355.28 423.86 361.258 414 364.741C379.466 376.939 343.456 383.876 310 399.559C301.332 403.622 290.191 404.014 281 406.637C271.105 409.461 261.953 414.735 252 417.579C248.314 418.632 233.507 420.307 234.832 425.867C236.138 431.35 250.001 422.942 253 421.344C261.817 416.645 273.353 415.744 283 413.471C292.063 411.337 302.283 406.08 311 402.653C317.533 400.084 324.651 400.449 331 397.995C364.855 384.91 398.574 373.625 433 363.451C448.601 358.841 462.244 349.49 478 345.4C495.098 340.962 510.814 333.468 528 329.529C538.489 327.125 555.302 324.42 563 316M195.333 316.667L195.667 317.333L195.333 316.667M714 321C715.967 328.011 722.712 333.264 727.715 338.286C737.211 347.815 745.879 357.706 755.564 366.959C760.425 371.604 763.738 378.429 771 379L770 371C780.851 371 792.237 369.82 803 370.514C815.439 371.315 829.79 376.883 841.606 368.836C847.14 365.066 846.885 352.093 850.289 346.259C854.343 339.31 862.933 336.787 867 331L851 327C857.987 338.167 843.591 345.41 836.749 352.498C834.334 355.001 831.664 361.758 827.147 360.539C820.768 358.817 826.658 350.093 828 347C812.891 346.998 807.381 338.839 796.004 330.1C793.495 328.173 790.035 322.439 786.94 321.921C784.227 321.467 782.857 328.59 781.497 330.421C776.7 336.876 769.766 347.822 761.015 349.075C746.293 351.182 741.862 329.336 729 326L724 316L714 321M196 318L196 320L198 320L196 318M260 319L261 320L260 319M198 320L199 321L198 320M259.333 320.667L259.667 321.333L259.333 320.667M199 321L200 322L199 321M200.333 322.667L200.667 323.333L200.333 322.667M258 323L259 324L258 323z"/>
<path style="fill:#d72628; stroke:none;" d="M94 324C89.1503 335.493 92.8413 342.973 95.4676 354C96.7662 359.453 95.3943 364.939 101 368L97.3048 339L96 324L94 324z"/>
<path style="fill:#a69fa1; stroke:none;" d="M202.667 324.333L203.333 324.667L202.667 324.333M256.667 324.333L257.333 324.667L256.667 324.333M204 325L205 326L204 325M255 325L256 326L255 325M205.333 326.667L205.667 327.333L205.333 326.667M254.333 326.667L254.667 327.333L254.333 326.667M206 328L207 329L206 328M253 328L254 329L253 328M208 329L208 330L219 331L208 329M219 331L219 332C230.078 336.149 240.643 330.008 252 330L219 331M842 332L843 333L842 332M831 341L831 345L834 341L831 341M474 372C482.373 375.355 494.836 368.652 503 365.661C507.896 363.867 513.098 364.281 518 362.56C527.528 359.216 535.951 353.333 545.089 349.738C549.709 347.921 554.387 348.418 559 346C552.259 343.369 545.408 348.194 539 349.699C523.949 353.234 511.495 359.864 497 364.899C490.109 367.292 479.812 368.03 474 372z"/>
<path style="fill:#5d585b; stroke:none;" d="M92 347L93 348L92 347z"/>
<path style="fill:#f8f8f9; stroke:none;" d="M799 365C798.13 359.252 791.962 347.332 785.004 347.762C780.734 348.025 773.548 354.896 777.032 359.401C778.972 361.909 786.011 362.398 789 363.279C792.329 364.261 795.538 364.849 799 365z"/>
<path style="fill:#5d585b; stroke:none;" d="M93 348L94 349L93 348z"/>
<path style="fill:#a69fa1; stroke:none;" d="M56 362L56 364L60 364L60 362L56 362z"/>
<path style="fill:#5d585b; stroke:none;" d="M100 371L100 375L101 375L100 371M101 377L101 379L103 379L101 377M103.667 379.333L104.333 379.667L103.667 379.333M105 380L111 384L111 383L105 380z"/>
<path style="fill:#a69fa1; stroke:none;" d="M772 381L775 383L772 381z"/>
<path style="fill:#d46a62; stroke:none;" d="M113 386L114 387L113 386M114 388L115 389L114 388M115 389L116 390L115 389M117 391L118 392L117 391M118.333 392.667L118.667 393.333L118.333 392.667M119 394L120 395L119 394M120 395L121 396L120 395M122 396L123 397L122 396M123 397L124 398L123 397M124 398L125 399L124 398z"/>
<path style="fill:#a69fa1; stroke:none;" d="M459 446C468.5 443.496 468.284 456.824 475 459L479.014 440.039L498 421C494.554 421.112 482.401 428.675 480.613 423.978C479.328 420.603 486.865 416.847 489 415.587C499.051 409.657 507.512 408.161 519 410.429C541.39 414.849 557.24 438.512 563 459C567.777 452.992 565.723 445.654 563.424 439C558.686 425.282 552.771 416.592 542.231 406.278C535.026 399.226 522.535 398.015 513 398C483.289 397.952 459 414.202 459 446z"/>
<path style="fill:#d46a62; stroke:none;" d="M128 400L129 401L128 400z"/>
<path style="fill:#a69fa1; stroke:none;" d="M552 402L552 404L559 405C557.74 401.202 555.674 401.021 552 402M791 401L793 404L791 401z"/>
<path style="fill:#5d585b; stroke:none;" d="M504 403L504 404L512 404L512 402L504 403M480 414C486.162 413.944 493.931 411.415 496 405C489.572 405.299 483.056 408.1 480 414M522 405C525.169 410.448 533.877 413.852 540 414C537.193 406.567 529.148 405.059 522 405z"/>
<path style="fill:#a69fa1; stroke:none;" d="M560 407L563 414L563 407L560 407M797 411L797 413L799 413L797 411M566 417L569 419L566 417M570 419L569 420L571 425L573 425C573.508 421.701 572.838 420.741 570 419z"/>
<path style="fill:#5d585b; stroke:none;" d="M547 420L546 424L550 425L547 420M91 422C91.0391 426.318 91.032 429.682 95 432L93 422L91 422z"/>
<path style="fill:#f8f8f9; stroke:none;" d="M111 426L113 429L111 426z"/>
<path style="fill:#5d585b; stroke:none;" d="M551 426L554 431L553 426L551 426z"/>
<path style="fill:#a69fa1; stroke:none;" d="M576 429L576 434L577 434L576 429M169 430L169 431C176.528 434.623 185.965 433.015 194 432L169 430z"/>
<path style="fill:#5d585b; stroke:none;" d="M395 435L399 439L395 435M98 436L99 437L98 436z"/>
<path style="fill:#a69fa1; stroke:none;" d="M825 436L829 439L825 436z"/>
<path style="fill:#5d585b; stroke:none;" d="M101 439L108 445C107.634 440.294 105.801 438.336 101 439M386 441C384.428 449.057 392.062 464.759 399 469L388 441L386 441M401 441C402.723 447.342 406.394 453.524 413 455L414 454L404 441L401 441z"/>
<path style="fill:#a69fa1; stroke:none;" d="M581 441C578.862 447.821 577.824 460.889 582 467C585.059 460.643 586.335 446.224 581 441M456 447L458 452C458.136 460.25 458.787 473.324 469 475C468.915 465.648 463.876 452.221 456 447z"/>
<path style="fill:#5d585b; stroke:none;" d="M130 461L131 470L134 461L130 461M421 461L420 462C421.356 467.136 423.778 469.168 429 470C428.216 465.323 425.184 462.923 421 461z"/>
<path style="fill:#a69fa1; stroke:none;" d="M476 462C476 466.416 474.926 472.516 480 474L478 462L476 462M558 464L557 470L559 470L558 464z"/>
<path style="fill:#5d585b; stroke:none;" d="M430 470L434 474L430 470z"/>
<path style="fill:#a69fa1; stroke:none;" d="M552 474L555 472L552 474M151.314 475.032C146.045 478.398 148.992 488.934 149 494C149.03 512.743 150.785 532.45 149.173 550.999C148.905 554.079 147.771 569.337 154.6 565.712C160.078 562.805 159.51 552.058 158.745 547C155.808 527.6 161.789 509.277 160.791 490C160.549 485.331 160.409 469.221 151.314 475.032z"/>
<path style="fill:#5d585b; stroke:none;" d="M436 476C437.885 482.441 442.126 488.904 449 490L444 481L439 476L436 476z"/>
<path style="fill:#a69fa1; stroke:none;" d="M546 477L546 479L547 480L549 480L550 476L546 477M471 478C473.483 485.293 476.319 491.536 485 489C481.91 483.247 478.177 477.377 471 478M866 481L866 485L869 485L869 481L866 481z"/>
<path style="fill:#5d585b; stroke:none;" d="M406 485C406.304 490.568 409.12 497.059 414 500L408 485L406 485M450 490L454 494L450 490z"/>
<path style="fill:#a69fa1; stroke:none;" d="M486 492C489.257 496.517 497.696 495.94 502 493L486 492M875 491L878 495L879 491L875 491M520 493L520 494L535 494L520 493z"/>
<path style="fill:#5d585b; stroke:none;" d="M456 496C457.698 501.799 463.201 507.302 469 509L459 496L456 496z"/>
<path style="fill:#a69fa1; stroke:none;" d="M881 496L881 500L884 499L884 497L881 496z"/>
<path style="fill:#5d585b; stroke:none;" d="M471 511L474 515L474 511L471 511M475 516C475.571 522.267 477.866 523.927 484 524C482.077 519.816 479.677 516.784 475 516M547 519L549 516L547 519M422 517C421.021 520.674 421.202 522.74 425 524L422 517M426 525L429 530L428 525L426 525M486 526L487 527L486 526M430 531L434 539C433.875 535.122 433.498 532.928 430 531M492 531L494 534L492 531M536.333 531.667L536.667 532.333L536.333 531.667z"/>
<path style="fill:#a69fa1; stroke:none;" d="M912 532L913 533L912 532z"/>
<path style="fill:#5d585b; stroke:none;" d="M524 536L524 539C528.346 538.997 532.44 539.7 534 535L524 536M496 536L499 539L498 536L496 536z"/>
<path style="fill:#a69fa1; stroke:none;" d="M486 541L489 545L489 541L486 541z"/>
<path style="fill:#5d585b; stroke:none;" d="M501 541L501 543L503 543L503 541L501 541z"/>
<path style="fill:#a69fa1; stroke:none;" d="M921.667 542.333L922.333 542.667L921.667 542.333M490 546C490 563.54 497.553 574.338 503.529 590C506.354 597.404 507.549 605.651 510.785 612.911C521.29 636.47 538.672 658.277 553.579 679C561.554 690.085 569.066 700.039 577.811 710.301C580.314 713.239 580.69 716.916 584 719C584.031 715.266 585.273 710.749 584.086 707.17C580.519 696.418 570.548 690.292 565.723 680.907C563.565 676.71 563.447 672.18 560.893 668.039C556.32 660.628 549.042 653.618 545.314 645.985C538.12 631.257 531.964 614.443 523.04 600.289C516.116 589.307 510.358 578.291 503.87 567.001C499.097 558.694 494.216 556.451 494 546L490 546z"/>
<path style="fill:#5d585b; stroke:none;" d="M508 546L507 547C509.778 551.15 511.96 554.358 517 552L517 551L508 546M441 555L444 560L444 555L441 555z"/>
<path style="fill:#a69fa1; stroke:none;" d="M936 556L939 560L939 556L936 556M941 561L944 564L943 561L941 561z"/>
<path style="fill:#5d585b; stroke:none;" d="M446 563L454 576C453.81 570.158 451.205 565.781 446 563z"/>
<path style="fill:#a69fa1; stroke:none;" d="M159 607C158.896 602.537 157.142 598.412 157.083 594C157.042 590.96 157.653 588.056 157.385 585C157.166 582.501 155.648 568.389 150.032 575.604C148.231 577.917 149.577 582.299 149.525 585C149.335 594.941 146.561 605.281 159 607M944 581C946 587.025 953.002 584.632 958 584C955.982 577.92 949.045 580.783 944 581z"/>
<path style="fill:#5d585b; stroke:none;" d="M463 594L464 597L463 594M466 599L469 605L468 599L466 599M476 621L480 628L479 621L476 621M482 630L484 633L482 630M486 636L489 640L489 636L486 636M497 655L496 659L504 664L499 655L497 655M511 673L514 675L513 672L511 673M516 677L516 679L518 679L516 677M520 681L522 683L522 681L520 681z"/>
<path style="fill:#a69fa1; stroke:none;" d="M586 721L586 725L589 725L589 721L586 721M590 726C590.134 731.545 591.224 733.808 597 734L594 726L590 726M102 833L104 833C114.511 816.89 122.221 791.288 117.88 772C116.638 766.481 116.35 753.72 108.144 753.737C102.332 753.749 104 768.374 104 772C104 785.463 101.991 798.606 100.914 812C100.337 819.184 98.7487 826.244 102 833z"/>
<path style="fill:#5d585b; stroke:none;" d="M110 762C106.256 777.727 103.048 801.089 106 817C117.837 806.071 116.416 776.347 113 762L110 762z"/>
<path style="fill:#a69fa1; stroke:none;" d="M130 844L139 836C134.217 837.101 131.053 839.047 130 844z"/>
</svg>
