<?xml version="1.0" standalone="yes"?>
<svg xmlns="http://www.w3.org/2000/svg" width="995" height="865">
<path style="fill:#ffffff; stroke:none;" d="M0 0L0 865L995 865L995 0L0 0z"/>
<path style="fill:#010145; stroke:none;" d="M405 40L405 45L395 45L395 50L385 50L385 60L375 60L375 70L365 70L365 75L360 75L360 85L355 85L355 110L350 110L350 115L355 115L355 140L360 140L360 150L365 150L365 160L375 160L375 170L385 170L385 180L395 180L395 185L385 185L385 190L380 190L380 195L375 195L375 200L365 200L365 205L355 205L355 210L350 210L350 215L340 215L340 220L335 220L335 225L330 225L330 230L325 230L325 235L315 235L315 240L310 240L310 245L300 245L300 250L295 250L295 255L285 255L285 260L280 260L280 265L270 265L270 270L265 270L265 275L260 275L260 280L250 280L250 285L245 285L245 290L235 290L235 295L230 295L230 300L220 300L220 305L215 305L215 310L205 310L205 300L200 300L200 285L195 285L195 280L190 280L190 270L185 270L185 265L180 265L180 255L170 255L170 245L160 245L160 240L155 240L155 235L135 235L135 230L125 230L125 235L105 235L105 240L100 240L100 245L90 245L90 250L85 250L85 255L75 255L75 270L70 270L70 275L65 275L65 290L60 290L60 320L65 320L65 330L70 330L70 345L80 345L80 350L85 350L85 355L100 355L100 360L110 360L110 365L130 365L130 370L125 370L125 375L115 375L115 380L110 380L110 385L105 385L105 390L95 390L95 395L85 395L85 400L80 400L80 405L75 405L75 410L65 410L65 415L60 415L60 420L50 420L50 430L40 430L40 440L50 440L50 445L55 445L55 450L65 450L65 455L70 455L70 460L80 460L80 465L85 465L85 470L95 470L95 475L105 475L105 485L115 485L115 490L120 490L120 495L130 495L130 500L135 500L135 505L130 505L130 510L125 510L125 515L120 515L120 520L115 520L115 525L110 525L110 530L105 530L105 540L100 540L100 550L95 550L95 590L100 590L100 600L105 600L105 610L110 610L110 615L115 615L115 620L120 620L120 625L125 625L125 630L130 630L130 635L145 635L145 640L160 640L160 645L180 645L180 640L195 640L195 635L210 635L210 630L215 630L215 625L220 625L220 620L225 620L225 615L230 615L230 610L235 610L235 595L240 595L240 580L250 580L250 585L255 585L255 590L265 590L265 595L270 595L270 600L275 600L275 605L285 605L285 610L290 610L290 615L300 615L300 620L305 620L305 625L310 625L310 630L320 630L320 635L330 635L330 645L340 645L340 650L345 650L345 655L355 655L355 660L360 660L360 665L370 665L370 670L380 670L380 675L385 675L385 680L395 680L395 700L385 700L385 710L380 710L380 715L375 715L375 765L380 765L380 775L385 775L385 785L395 785L395 795L400 795L400 800L420 800L420 805L460 805L460 800L475 800L475 795L485 795L485 785L495 785L495 775L500 775L500 765L515 765L515 775L525 775L525 780L530 780L530 785L540 785L540 790L545 790L545 795L550 795L550 800L560 800L560 805L570 805L570 810L580 810L580 820L590 820L590 825L595 825L595 830L600 830L600 820L605 820L605 815L610 815L610 810L615 810L615 800L625 800L625 795L630 795L630 790L635 790L635 785L640 785L640 780L645 780L645 775L650 775L650 765L655 765L655 760L660 760L660 755L665 755L665 750L670 750L670 745L675 745L675 740L680 740L680 735L685 735L685 730L690 730L690 720L700 720L700 710L710 710L710 700L720 700L720 690L725 690L725 685L730 685L730 680L735 680L735 670L745 670L745 665L750 665L750 660L755 660L755 650L760 650L760 645L765 645L765 640L770 640L770 635L775 635L775 630L780 630L780 625L785 625L785 620L790 620L790 615L795 615L795 605L800 605L800 600L810 600L810 590L820 590L820 580L830 580L830 570L835 570L835 565L840 565L840 560L845 560L845 555L850 555L850 550L855 550L855 545L860 545L860 540L865 540L865 530L870 530L870 525L875 525L875 520L880 520L880 515L885 515L885 510L890 510L890 505L895 505L895 500L900 500L900 495L905 495L905 485L915 485L915 475L925 475L925 470L930 470L930 460L935 460L935 455L940 455L940 450L945 450L945 445L950 445L950 440L955 440L955 435L960 435L960 430L950 430L950 420L940 420L940 410L935 410L935 405L930 405L930 400L925 400L925 395L920 395L920 390L915 390L915 385L910 385L910 380L905 380L905 375L900 375L900 365L895 365L895 360L890 360L890 355L885 355L885 350L880 350L880 345L875 345L875 340L870 340L870 335L865 335L865 330L860 330L860 320L850 320L850 310L840 310L840 300L830 300L830 290L825 290L825 285L820 285L820 280L815 280L815 275L810 275L810 270L805 270L805 265L800 265L800 255L795 255L795 250L790 250L790 245L785 245L785 240L780 240L780 235L775 235L775 230L770 230L770 225L765 225L765 220L760 220L760 215L755 215L755 205L745 205L745 200L740 200L740 195L735 195L735 190L730 190L730 180L745 180L745 175L755 175L755 170L765 170L765 160L770 160L770 155L775 155L775 140L780 140L780 100L775 100L775 85L770 85L770 80L765 80L765 75L760 75L760 70L745 70L745 65L740 65L740 60L695 60L695 65L690 65L690 70L680 70L680 75L670 75L670 85L665 85L665 95L660 95L660 105L655 105L655 100L650 100L650 95L645 95L645 85L635 85L635 75L625 75L625 70L620 70L620 65L615 65L615 55L610 55L610 50L605 50L605 45L600 45L600 40L590 40L590 45L585 45L585 50L580 50L580 55L570 55L570 60L560 60L560 70L550 70L550 75L540 75L540 80L535 80L535 85L525 85L525 95L515 95L515 100L505 100L505 105L495 105L495 80L490 80L490 75L485 75L485 70L480 70L480 65L475 65L475 60L470 60L470 55L465 55L465 50L455 50L455 45L445 45L445 40L405 40z"/>
<path style="fill:#f40130; stroke:none;" d="M425 45L425 50L400 50L400 55L395 55L395 60L385 60L385 70L375 70L375 75L370 75L370 80L365 80L365 95L360 95L360 135L365 135L365 150L375 150L375 160L385 160L385 170L395 170L395 175L400 175L400 190L390 190L390 195L385 195L385 200L375 200L375 205L365 205L365 215L355 215L355 220L345 220L345 225L335 225L335 235L325 235L325 240L320 240L320 245L310 245L310 255L300 255L300 260L290 260L290 265L280 265L280 275L285 275L285 280L295 280L295 285L300 285L300 290L310 290L310 295L315 295L315 300L325 300L325 305L330 305L330 310L340 310L340 315L345 315L345 320L355 320L355 325L360 325L360 330L365 330L365 320L370 320L370 315L375 315L375 305L380 305L380 300L385 300L385 295L390 295L390 290L400 290L400 285L410 285L410 280L440 280L440 285L450 285L450 290L460 290L460 295L465 295L465 300L460 300L460 305L465 305L465 300L475 300L475 310L470 310L470 320L475 320L475 310L480 310L480 320L485 320L485 375L480 375L480 380L475 380L475 390L470 390L470 395L460 395L460 390L465 390L465 385L470 385L470 375L475 375L475 365L480 365L480 325L475 325L475 365L470 365L470 375L465 375L465 380L460 380L460 385L455 385L455 390L450 390L450 395L460 395L460 400L470 400L470 405L490 405L490 410L525 410L525 415L545 415L545 420L560 420L560 415L570 415L570 410L575 410L575 405L580 405L580 400L590 400L590 395L595 395L595 390L600 390L600 385L605 385L605 380L610 380L610 375L620 375L620 370L625 370L625 365L630 365L630 360L635 360L635 355L645 355L645 345L655 345L655 340L660 340L660 335L670 335L670 330L675 330L675 325L680 325L680 320L690 320L690 310L700 310L700 305L705 305L705 300L710 300L710 295L715 295L715 290L725 290L725 285L730 285L730 280L735 280L735 275L740 275L740 270L745 270L745 265L755 265L755 260L760 260L760 255L765 255L765 250L775 250L775 240L770 240L770 235L765 235L765 230L760 230L760 225L755 225L755 215L745 215L745 205L735 205L735 200L730 200L730 190L720 190L720 180L715 180L715 175L735 175L735 170L750 170L750 165L755 165L755 160L765 160L765 145L770 145L770 140L775 140L775 100L770 100L770 95L765 95L765 85L760 85L760 80L755 80L755 75L745 75L745 70L735 70L735 65L705 65L705 70L690 70L690 75L680 75L680 85L670 85L670 100L665 100L665 110L660 110L660 115L655 115L655 110L650 110L650 105L645 105L645 95L635 95L635 85L625 85L625 75L615 75L615 65L610 65L610 60L605 60L605 55L600 55L600 50L590 50L590 55L585 55L585 60L575 60L575 65L570 65L570 70L560 70L560 75L550 75L550 80L545 80L545 85L535 85L535 95L525 95L525 100L520 100L520 105L510 105L510 110L505 110L505 115L495 115L495 105L490 105L490 90L485 90L485 75L475 75L475 70L470 70L470 65L465 65L465 60L460 60L460 55L455 55L455 50L430 50L430 45L425 45z"/>
<path style="fill:#010145; stroke:none;" d="M415 170L415 175L420 175L420 170L415 170z"/>
<path style="fill:#01d101; stroke:none;" d="M580 175L580 180L575 180L575 185L570 185L570 190L560 190L560 200L570 200L570 195L575 195L575 200L580 200L580 205L585 205L585 210L590 210L590 215L595 215L595 220L600 220L600 230L605 230L605 235L610 235L610 240L615 240L615 270L610 270L610 275L605 275L605 280L600 280L600 285L595 285L595 280L585 280L585 285L580 285L580 280L575 280L575 275L570 275L570 265L560 265L560 255L550 255L550 245L545 245L545 240L540 240L540 235L535 235L535 225L540 225L540 215L535 215L535 220L525 220L525 225L520 225L520 230L515 230L515 235L505 235L505 245L515 245L515 240L520 240L520 245L525 245L525 250L530 250L530 255L535 255L535 265L540 265L540 270L550 270L550 280L555 280L555 285L560 285L560 290L565 290L565 300L570 300L570 295L575 295L575 300L595 300L595 295L600 295L600 290L605 290L605 285L610 285L610 280L615 280L615 275L625 275L625 245L620 245L620 235L615 235L615 230L610 230L610 225L605 225L605 215L600 215L600 210L595 210L595 205L590 205L590 200L585 200L585 195L580 195L580 185L585 185L585 175L580 175z"/>
<path style="fill:#fff101; stroke:none;" d="M125 235L125 240L115 240L115 245L105 245L105 250L95 250L95 255L85 255L85 265L80 265L80 270L75 270L75 280L70 280L70 330L75 330L75 340L85 340L85 345L95 345L95 350L100 350L100 355L120 355L120 360L135 360L135 365L140 365L140 370L135 370L135 375L125 375L125 385L115 385L115 390L110 390L110 395L100 395L100 400L90 400L90 405L85 405L85 410L75 410L75 415L70 415L70 420L60 420L60 430L50 430L50 435L55 435L55 440L60 440L60 445L70 445L70 450L75 450L75 455L80 455L80 460L90 460L90 465L95 465L95 470L105 470L105 475L115 475L115 485L125 485L125 490L135 490L135 495L140 495L140 500L145 500L145 510L135 510L135 515L130 515L130 520L125 520L125 525L120 525L120 530L115 530L115 535L110 535L110 540L105 540L105 600L110 600L110 605L115 605L115 610L120 610L120 615L125 615L125 620L130 620L130 625L135 625L135 630L145 630L145 635L190 635L190 630L200 630L200 625L210 625L210 620L215 620L215 615L220 615L220 610L225 610L225 600L230 600L230 590L235 590L235 570L245 570L245 575L255 575L255 580L260 580L260 585L265 585L265 590L275 590L275 595L280 595L280 600L290 600L290 605L300 605L300 615L310 615L310 620L320 620L320 610L330 610L330 605L335 605L335 600L345 600L345 590L355 590L355 570L345 570L345 555L340 555L340 550L335 550L335 525L340 525L340 515L345 515L345 505L355 505L355 495L365 495L365 490L375 490L375 485L400 485L400 490L405 490L405 495L420 495L420 505L430 505L430 520L440 520L440 515L450 515L450 505L460 505L460 500L465 500L465 495L475 495L475 485L485 485L485 495L480 495L480 500L490 500L490 505L510 505L510 510L520 510L520 515L535 515L535 520L545 520L545 525L565 525L565 530L560 530L560 545L555 545L555 550L550 550L550 565L545 565L545 595L550 595L550 610L555 610L555 615L560 615L560 625L570 625L570 635L580 635L580 640L590 640L590 645L630 645L630 640L640 640L640 635L650 635L650 630L655 630L655 625L665 625L665 635L670 635L670 630L675 630L675 625L670 625L670 615L680 615L680 625L685 625L685 620L690 620L690 615L700 615L700 620L695 620L695 625L690 625L690 630L680 630L680 635L675 635L675 640L665 640L665 740L670 740L670 735L675 735L675 730L680 730L680 725L685 725L685 720L690 720L690 710L700 710L700 700L710 700L710 690L720 690L720 680L725 680L725 675L730 675L730 670L735 670L735 665L740 665L740 660L745 660L745 655L750 655L750 650L755 650L755 640L760 640L760 635L765 635L765 630L770 630L770 625L775 625L775 620L780 620L780 615L785 615L785 610L790 610L790 605L795 605L795 600L800 600L800 590L810 590L810 580L820 580L820 565L815 565L815 560L810 560L810 550L805 550L805 545L800 545L800 535L795 535L795 525L790 525L790 520L785 520L785 510L780 510L780 505L775 505L775 495L770 495L770 485L765 485L765 475L760 475L760 470L755 470L755 465L760 465L760 455L765 455L765 410L755 410L755 400L745 400L745 395L720 395L720 400L710 400L710 410L700 410L700 420L690 420L690 365L695 365L695 320L690 320L690 325L685 325L685 330L680 330L680 335L670 335L670 340L665 340L665 345L660 345L660 350L655 350L655 355L645 355L645 365L635 365L635 370L630 370L630 375L625 375L625 380L615 380L615 385L610 385L610 390L605 390L605 395L600 395L600 400L590 400L590 410L580 410L580 415L575 415L575 420L565 420L565 425L560 425L560 430L555 430L555 435L550 435L550 440L540 440L540 435L545 435L545 430L550 430L550 425L545 425L545 420L505 420L505 415L490 415L490 410L450 410L450 405L430 405L430 400L435 400L435 395L450 395L450 390L455 390L455 385L460 385L460 380L465 380L465 375L470 375L470 365L475 365L475 320L470 320L470 310L465 310L465 305L460 305L460 300L455 300L455 295L450 295L450 290L440 290L440 285L405 285L405 290L395 290L395 295L390 295L390 300L385 300L385 305L380 305L380 310L375 310L375 320L370 320L370 325L365 325L365 330L370 330L370 335L355 335L355 330L345 330L345 320L335 320L335 315L330 315L330 310L320 310L320 305L315 305L315 300L305 300L305 295L300 295L300 290L290 290L290 285L285 285L285 280L275 280L275 275L270 275L270 280L260 280L260 285L255 285L255 290L245 290L245 300L235 300L235 305L225 305L225 310L220 310L220 315L215 315L215 320L200 320L200 300L190 300L190 280L185 280L185 275L180 275L180 270L175 270L175 265L170 265L170 255L160 255L160 250L155 250L155 245L145 245L145 240L135 240L135 235L125 235z"/>
<path style="fill:#f40130; stroke:none;" d="M780 250L780 255L770 255L770 260L765 260L765 265L760 265L760 270L750 270L750 275L745 275L745 280L740 280L740 285L735 285L735 290L730 290L730 295L725 295L725 300L720 300L720 305L715 305L715 310L705 310L705 315L700 315L700 400L710 400L710 395L720 395L720 390L745 390L745 395L755 395L755 400L765 400L765 410L770 410L770 415L775 415L775 450L770 450L770 460L765 460L765 475L770 475L770 480L775 480L775 490L780 490L780 495L785 495L785 505L790 505L790 515L795 515L795 525L800 525L800 535L805 535L805 540L810 540L810 550L820 550L820 565L825 565L825 560L830 560L830 555L835 555L835 550L840 550L840 545L845 545L845 540L850 540L850 535L860 535L860 525L865 525L865 515L875 515L875 505L885 505L885 495L895 495L895 485L905 485L905 475L915 475L915 470L920 470L920 465L925 465L925 455L930 455L930 450L935 450L935 445L940 445L940 440L945 440L945 435L950 435L950 430L940 430L940 420L935 420L935 415L930 415L930 410L925 410L925 400L915 400L915 395L910 395L910 390L905 390L905 385L900 385L900 375L895 375L895 370L890 370L890 365L885 365L885 360L880 360L880 355L875 355L875 350L870 350L870 345L865 345L865 335L860 335L860 330L850 330L850 320L840 320L840 310L830 310L830 300L825 300L825 295L820 295L820 300L815 300L815 305L810 305L810 310L815 310L815 315L810 315L810 320L815 320L815 325L820 325L820 345L830 345L830 370L835 370L835 375L840 375L840 380L845 380L845 385L840 385L840 395L845 395L845 400L840 400L840 405L845 405L845 410L850 410L850 430L845 430L845 425L835 425L835 430L830 430L830 420L815 420L815 415L810 415L810 410L805 410L805 405L800 405L800 410L795 410L795 405L790 405L790 400L775 400L775 395L770 395L770 390L765 390L765 385L755 385L755 380L750 380L750 375L745 375L745 385L740 385L740 380L735 380L735 375L730 375L730 380L725 380L725 385L720 385L720 370L725 370L725 365L730 365L730 360L735 360L735 355L745 355L745 345L755 345L755 335L770 335L770 345L765 345L765 350L760 350L760 355L765 355L765 365L785 365L785 375L790 375L790 380L805 380L805 385L810 385L810 395L830 395L830 400L835 400L835 395L830 395L830 375L825 375L825 365L820 365L820 350L815 350L815 345L810 345L810 335L815 335L815 330L810 330L810 325L805 325L805 320L795 320L795 325L785 325L785 315L790 315L790 310L795 310L795 305L800 305L800 300L810 300L810 290L815 290L815 285L810 285L810 280L805 280L805 275L800 275L800 270L795 270L795 260L790 260L790 255L785 255L785 250L780 250z"/>
<path style="fill:#fff101; stroke:none;" d="M260 270L260 275L265 275L265 270L260 270M255 275L255 280L260 280L260 275L255 275M245 280L245 285L250 285L250 280L245 280z"/>
<path style="fill:#010145; stroke:none;" d="M285 280L285 285L290 285L290 290L300 290L300 285L295 285L295 280L285 280M410 280L410 285L440 285L440 280L410 280M400 285L400 290L405 290L405 285L400 285M440 285L440 290L450 290L450 285L440 285M300 290L300 295L305 295L305 300L315 300L315 295L310 295L310 290L300 290M390 290L390 295L395 295L395 290L390 290M450 290L450 295L455 295L455 300L465 300L465 295L460 295L460 290L450 290z"/>
<path style="fill:#fff101; stroke:none;" d="M810 290L810 300L800 300L800 305L795 305L795 310L790 310L790 315L785 315L785 325L795 325L795 320L805 320L805 325L810 325L810 330L815 330L815 335L810 335L810 345L815 345L815 350L820 350L820 365L825 365L825 375L830 375L830 395L835 395L835 400L830 400L830 395L810 395L810 385L805 385L805 380L790 380L790 375L785 375L785 365L765 365L765 355L760 355L760 350L765 350L765 345L770 345L770 335L755 335L755 345L745 345L745 355L735 355L735 360L730 360L730 365L725 365L725 370L720 370L720 385L725 385L725 380L730 380L730 375L735 375L735 380L740 380L740 385L745 385L745 375L750 375L750 380L755 380L755 385L765 385L765 390L770 390L770 395L775 395L775 400L790 400L790 405L795 405L795 410L800 410L800 405L805 405L805 410L810 410L810 415L815 415L815 420L830 420L830 430L835 430L835 425L845 425L845 430L850 430L850 410L845 410L845 405L840 405L840 400L845 400L845 395L840 395L840 385L845 385L845 380L840 380L840 375L835 375L835 370L830 370L830 345L820 345L820 325L815 325L815 320L810 320L810 315L815 315L815 310L810 310L810 305L815 305L815 300L820 300L820 290L810 290z"/>
<path style="fill:#010145; stroke:none;" d="M385 295L385 300L390 300L390 295L385 295M315 300L315 305L320 305L320 310L330 310L330 305L325 305L325 300L315 300M380 300L380 305L385 305L385 300L380 300M465 300L465 310L475 310L475 300L465 300M375 305L375 310L380 310L380 305L375 305M330 310L330 315L335 315L335 320L345 320L345 315L340 315L340 310L330 310M475 310L475 325L480 325L480 365L475 365L475 375L470 375L470 385L465 385L465 390L460 390L460 395L470 395L470 390L475 390L475 380L480 380L480 375L485 375L485 320L480 320L480 310L475 310M370 315L370 320L375 320L375 315L370 315M345 320L345 330L355 330L355 335L370 335L370 330L360 330L360 325L355 325L355 320L345 320M365 320L365 325L370 325L370 320L365 320M680 320L680 325L675 325L675 330L670 330L670 335L680 335L680 330L685 330L685 325L690 325L690 320L680 320M290 335L290 345L280 345L280 350L275 350L275 355L270 355L270 360L265 360L265 365L275 365L275 360L280 360L280 365L290 365L290 370L295 370L295 375L300 375L300 380L305 380L305 385L310 385L310 395L320 395L320 400L325 400L325 405L330 405L330 415L335 415L335 425L330 425L330 420L325 420L325 410L320 410L320 415L300 415L300 410L295 410L295 415L290 415L290 410L280 410L280 415L275 415L275 410L265 410L265 405L260 405L260 410L240 410L240 405L235 405L235 410L230 410L230 405L220 405L220 410L215 410L215 405L210 405L210 410L205 410L205 415L200 415L200 420L190 420L190 430L215 430L215 435L220 435L220 440L225 440L225 450L235 450L235 460L240 460L240 465L245 465L245 470L250 470L250 475L255 475L255 485L265 485L265 495L270 495L270 505L280 505L280 525L275 525L275 530L270 530L270 535L285 535L285 530L290 530L290 525L300 525L300 515L310 515L310 500L305 500L305 505L285 505L285 500L280 500L280 490L275 490L275 485L270 485L270 480L265 480L265 470L255 470L255 460L250 460L250 455L245 455L245 450L240 450L240 445L235 445L235 440L270 440L270 445L275 445L275 440L280 440L280 445L285 445L285 440L290 440L290 445L310 445L310 440L315 440L315 445L325 445L325 440L330 440L330 450L345 450L345 445L350 445L350 450L355 450L355 455L365 455L365 460L375 460L375 445L370 445L370 440L365 440L365 435L360 435L360 430L355 430L355 420L345 420L345 410L335 410L335 400L330 400L330 395L325 395L325 390L320 390L320 380L315 380L315 375L310 375L310 370L305 370L305 365L300 365L300 335L290 335M660 335L660 340L655 340L655 345L645 345L645 355L655 355L655 350L660 350L660 345L665 345L665 340L670 340L670 335L660 335M635 355L635 360L630 360L630 365L625 365L625 370L620 370L620 375L610 375L610 380L605 380L605 385L600 385L600 390L595 390L595 395L590 395L590 400L600 400L600 395L605 395L605 390L610 390L610 385L615 385L615 380L625 380L625 375L630 375L630 370L635 370L635 365L645 365L645 355L635 355z"/>
<path style="fill:#fff101; stroke:none;" d="M100 385L100 390L105 390L105 385L100 385z"/>
<path style="fill:#010145; stroke:none;" d="M720 390L720 395L745 395L745 390L720 390z"/>
<path style="fill:#f40130; stroke:none;" d="M435 395L435 400L445 400L445 395L435 395z"/>
<path style="fill:#010145; stroke:none;" d="M445 395L445 400L430 400L430 405L450 405L450 410L490 410L490 405L470 405L470 400L460 400L460 395L445 395M710 395L710 400L720 400L720 395L710 395M745 395L745 400L755 400L755 395L745 395z"/>
<path style="fill:#fff101; stroke:none;" d="M75 400L75 405L80 405L80 400L75 400z"/>
<path style="fill:#010145; stroke:none;" d="M580 400L580 405L575 405L575 410L570 410L570 415L560 415L560 420L545 420L545 425L550 425L550 430L545 430L545 435L540 435L540 440L550 440L550 435L555 435L555 430L560 430L560 425L565 425L565 420L575 420L575 415L580 415L580 410L590 410L590 400L580 400M755 400L755 410L765 410L765 400L755 400M490 410L490 415L505 415L505 420L545 420L545 415L525 415L525 410L490 410M765 410L765 455L760 455L760 465L755 465L755 470L760 470L760 475L765 475L765 460L770 460L770 450L775 450L775 415L770 415L770 410L765 410z"/>
<path style="fill:#fff101; stroke:none;" d="M850 430L850 435L855 435L855 430L850 430z"/>
<path style="fill:#010145; stroke:none;" d="M535 440L535 445L530 445L530 450L520 450L520 455L515 455L515 460L510 460L510 465L505 465L505 470L495 470L495 475L485 475L485 485L495 485L495 480L500 480L500 475L505 475L505 470L515 470L515 465L520 465L520 460L525 460L525 455L530 455L530 450L540 450L540 440L535 440M700 440L700 445L695 445L695 450L690 450L690 455L685 455L685 460L680 460L680 475L685 475L685 480L690 480L690 485L680 485L680 495L690 495L690 515L695 515L695 530L700 530L700 535L705 535L705 540L700 540L700 550L705 550L705 555L700 555L700 560L695 560L695 565L690 565L690 560L685 560L685 550L680 550L680 545L665 545L665 535L645 535L645 525L615 525L615 515L610 515L610 520L605 520L605 525L600 525L600 535L590 535L590 545L595 545L595 540L605 540L605 545L610 545L610 550L615 550L615 560L625 560L625 570L635 570L635 580L640 580L640 585L645 585L645 590L650 590L650 595L655 595L655 605L665 605L665 615L670 615L670 605L665 605L665 600L660 600L660 595L655 595L655 585L650 585L650 580L645 580L645 575L640 575L640 570L635 570L635 560L640 560L640 555L650 555L650 560L655 560L655 570L670 570L670 580L680 580L680 575L685 575L685 580L700 580L700 590L725 590L725 585L720 585L720 580L725 580L725 575L720 575L720 570L715 570L715 560L720 560L720 550L715 550L715 545L720 545L720 540L710 540L710 520L705 520L705 515L700 515L700 505L705 505L705 500L700 500L700 495L695 495L695 490L705 490L705 495L710 495L710 505L720 505L720 515L730 515L730 525L735 525L735 535L745 535L745 545L750 545L750 550L755 550L755 555L760 555L760 560L755 560L755 565L750 565L750 575L755 575L755 570L760 570L760 565L765 565L765 560L775 560L775 550L785 550L785 545L790 545L790 540L795 540L795 535L785 535L785 540L775 540L775 535L770 535L770 530L765 530L765 520L760 520L760 515L755 515L755 510L750 510L750 505L745 505L745 495L735 495L735 485L730 485L730 475L720 475L720 465L715 465L715 460L710 460L710 455L705 455L705 450L710 450L710 445L715 445L715 440L700 440z"/>
<path style="fill:#fff101; stroke:none;" d="M75 460L75 465L80 465L80 460L75 460M100 475L100 480L105 480L105 475L100 475z"/>
<path style="fill:#010145; stroke:none;" d="M765 475L765 485L770 485L770 495L775 495L775 505L780 505L780 510L785 510L785 520L790 520L790 525L795 525L795 515L790 515L790 505L785 505L785 495L780 495L780 490L775 490L775 480L770 480L770 475L765 475M375 485L375 490L365 490L365 495L355 495L355 505L345 505L345 515L340 515L340 525L335 525L335 550L340 550L340 555L345 555L345 570L355 570L355 590L345 590L345 600L335 600L335 605L345 605L345 600L355 600L355 595L360 595L360 590L365 590L365 585L370 585L370 575L365 575L365 570L355 570L355 560L350 560L350 555L345 555L345 520L350 520L350 515L355 515L355 505L365 505L365 500L370 500L370 495L405 495L405 500L410 500L410 505L420 505L420 515L425 515L425 520L430 520L430 535L435 535L435 530L440 530L440 525L450 525L450 515L460 515L460 510L465 510L465 505L485 505L485 510L490 510L490 515L510 515L510 520L520 520L520 525L535 525L535 530L545 530L545 535L550 535L550 545L545 545L545 550L540 550L540 605L545 605L545 610L550 610L550 620L555 620L555 625L560 625L560 635L570 635L570 640L575 640L575 645L590 645L590 640L580 640L580 635L570 635L570 625L560 625L560 615L555 615L555 610L550 610L550 595L545 595L545 565L550 565L550 550L555 550L555 545L560 545L560 530L565 530L565 525L545 525L545 520L535 520L535 515L520 515L520 510L510 510L510 505L490 505L490 500L480 500L480 495L485 495L485 485L475 485L475 495L465 495L465 500L460 500L460 505L450 505L450 515L440 515L440 520L430 520L430 505L420 505L420 495L405 495L405 490L400 490L400 485L375 485z"/>
<path style="fill:#01d101; stroke:none;" d="M370 495L370 500L365 500L365 505L355 505L355 515L350 515L350 520L345 520L345 555L350 555L350 560L355 560L355 570L365 570L365 575L370 575L370 585L365 585L365 590L360 590L360 595L355 595L355 600L345 600L345 605L335 605L335 615L330 615L330 620L325 620L325 630L330 630L330 635L335 635L335 640L345 640L345 645L355 645L355 655L365 655L365 660L370 660L370 665L380 665L380 670L390 670L390 675L395 675L395 680L400 680L400 685L410 685L410 690L405 690L405 695L400 695L400 700L395 700L395 710L385 710L385 730L380 730L380 755L385 755L385 775L395 775L395 785L400 785L400 790L405 790L405 795L420 795L420 800L460 800L460 795L475 795L475 785L485 785L485 775L490 775L490 770L495 770L495 750L500 750L500 755L510 755L510 760L515 760L515 765L525 765L525 770L530 770L530 775L535 775L535 780L540 780L540 785L550 785L550 790L555 790L555 795L565 795L565 800L575 800L575 805L580 805L580 810L590 810L590 820L600 820L600 810L605 810L605 805L610 805L610 800L615 800L615 795L620 795L620 790L625 790L625 785L630 785L630 780L635 780L635 775L640 775L640 770L645 770L645 765L650 765L650 755L655 755L655 640L650 640L650 645L635 645L635 650L590 650L590 645L575 645L575 640L570 640L570 635L560 635L560 625L555 625L555 620L550 620L550 610L545 610L545 605L540 605L540 550L545 550L545 545L550 545L550 535L545 535L545 530L535 530L535 525L520 525L520 520L510 520L510 515L490 515L490 510L485 510L485 505L465 505L465 510L460 510L460 515L450 515L450 525L440 525L440 530L435 530L435 535L430 535L430 520L425 520L425 515L420 515L420 505L410 505L410 500L405 500L405 495L370 495z"/>
<path style="fill:#010145; stroke:none;" d="M795 525L795 535L800 535L800 525L795 525z"/>
<path style="fill:#fff101; stroke:none;" d="M550 530L550 535L555 535L555 530L550 530z"/>
<path style="fill:#010145; stroke:none;" d="M800 535L800 545L805 545L805 550L810 550L810 540L805 540L805 535L800 535z"/>
<path style="fill:#fff101; stroke:none;" d="M625 550L625 560L635 560L635 550L625 550z"/>
<path style="fill:#010145; stroke:none;" d="M810 550L810 560L815 560L815 565L820 565L820 550L810 550z"/>
<path style="fill:#f40130; stroke:none;" d="M475 570L475 580L480 580L480 585L470 585L470 580L465 580L465 585L460 585L460 590L455 590L455 595L450 595L450 600L440 600L440 605L435 605L435 610L440 610L440 620L435 620L435 625L440 625L440 630L430 630L430 635L440 635L440 645L445 645L445 650L450 650L450 655L455 655L455 660L465 660L465 665L470 665L470 660L475 660L475 655L535 655L535 665L540 665L540 690L535 690L535 695L530 695L530 700L525 700L525 690L485 690L485 685L475 685L475 690L485 690L485 700L495 700L495 710L500 710L500 715L505 715L505 720L515 720L515 715L510 715L510 710L525 710L525 705L530 705L530 700L540 700L540 690L550 690L550 680L560 680L560 675L555 675L555 670L560 670L560 660L555 660L555 645L550 645L550 635L540 635L540 625L525 625L525 615L520 615L520 620L515 620L515 625L495 625L495 635L490 635L490 625L485 625L485 635L470 635L470 630L465 630L465 635L460 635L460 625L455 625L455 620L450 620L450 615L455 615L455 610L450 610L450 605L460 605L460 600L465 600L465 595L490 595L490 600L495 600L495 605L505 605L505 595L500 595L500 590L495 590L495 580L485 580L485 570L475 570z"/>
<path style="fill:#fff101; stroke:none;" d="M245 580L245 585L250 585L250 580L245 580M265 595L265 600L270 600L270 595L265 595M300 620L300 625L305 625L305 620L300 620z"/>
<path style="fill:#010145; stroke:none;" d="M415 690L415 695L420 695L420 690L415 690M620 805L620 810L625 810L625 815L620 815L620 825L615 825L615 830L625 830L625 815L630 815L630 825L635 825L635 820L640 820L640 830L660 830L660 820L665 820L665 825L670 825L670 830L675 830L675 825L670 825L670 815L675 815L675 810L670 810L670 805L655 805L655 810L660 810L660 815L655 815L655 825L645 825L645 820L650 820L650 805L645 805L645 810L640 810L640 815L630 815L630 805L620 805z"/>
<path style="fill:#ffffff; stroke:none;" d="M665 810L665 815L670 815L670 810L665 810z"/>
<path style="fill:#01d101; stroke:none;" d="M640 815L640 820L645 820L645 815L640 815z"/>
</svg>
