<?xml version="1.0" standalone="yes"?>
<svg xmlns="http://www.w3.org/2000/svg" width="1248" height="784">
<path style="fill:#fcfafa; stroke:none;" d="M0 0L0 784L1248 784L1248 0L0 0z"/>
<path style="fill:#fdab15; stroke:none;" d="M261.148 47.0278C255.92 50.1234 258 60.8731 258 66L258 121L258 192C258 197.889 255.356 212.382 261.228 215.972C266.665 219.296 289.056 218.752 294.892 216.258C298.253 214.821 299.532 207.791 303.465 208.327C307.679 208.902 310.384 214.73 314.015 216.722C322.889 221.592 338.078 220.994 346.83 215.864C384.485 193.793 388.389 130.989 345 111.652C334.915 107.157 324.373 108.088 314 110.265C310.929 110.909 304.189 116.414 301.603 114.364C297.933 111.454 300 99.2383 300 95L300 61C300 57.0504 301.2 50.6525 297.682 47.858C292.935 44.0871 282.689 46 277 46C272.477 46 265.179 44.6412 261.148 47.0278z"/>
<path style="fill:#a76e7b; stroke:none;" d="M262.228 47.7423C256.917 50.2234 259 61.2498 259 66L259 123L259 193C259 198.774 256.494 212.375 263.133 215.257C267.903 217.327 288.045 217.163 292.895 215.107C297.042 213.348 297.936 205.753 303.019 206.327C307.859 206.874 310.268 212.71 314.09 215.062C322.369 220.158 336.557 219.211 345 214.836C382.801 195.253 386.009 130.301 343.91 112.738C334.535 108.826 322.564 109.641 313.015 112.138C309.419 113.078 304.196 120.073 300.518 117.288C296.556 114.289 299 102.476 299 98L299 63C299 58.3868 299.856 51.9642 295.721 48.7423C291.303 45.2994 282.274 47 277 47C272.643 47 266.266 45.856 262.228 47.7423z"/>
<path style="fill:#a70c0c; stroke:none;" d="M265.133 49.5725C258.704 51.695 261 63.7789 261 69L261 128L261 191C261 195.927 258.747 208.825 264.279 211.397C268.546 213.38 287.811 214.096 291.772 211.806C296.485 209.082 294.714 200.652 302.005 202.233C308.384 203.617 310.98 209.741 316.17 212.86C322.346 216.572 334.476 215.798 341 213.262C381.919 197.36 382.014 130.677 341 114.738C333.506 111.825 320.542 111.839 313.09 114.892C308.977 116.576 302.648 124.954 297.514 121.212C292.904 117.852 295 105.947 295 101L295 65C295 61.2917 296.243 54.6916 293.972 51.5139C290.525 46.6888 270.293 47.8693 265.133 49.5725z"/>
<path style="fill:#fdab15; stroke:none;" d="M406.09 51.7415C388.783 58.7419 386.196 80.4862 402.004 90.0663C406.796 92.9703 410.865 97.5372 417 95.2577C428.47 90.9962 436.616 78.1908 433.581 66C430.84 54.9922 416.783 47.4158 406.09 51.7415z"/>
<path style="fill:#a76e7b; stroke:none;" d="M407.039 53.0239C400.078 56.5653 391.567 64.5052 392.419 73C393.364 82.4248 406.791 97.2012 417 92.5548C426.442 88.2574 434.216 80.1363 432.807 69C431.511 58.7488 417.236 47.8369 407.039 53.0239z"/>
<path style="fill:#a70c0c; stroke:none;" d="M411.039 54.5771C389.069 60.6981 394.339 94.3718 417 88.2076C431.58 84.2415 433.878 68.4313 422.961 59.4907C419.415 56.5872 415.994 53.1968 411.039 54.5771z"/>
<path style="fill:#fdab15; stroke:none;" d="M150 225L150 224C131.711 222.403 114.814 213.183 102.255 200.286C90.9693 188.696 81.4969 175.341 78.7145 159C77.5528 152.177 73.9388 146.007 74.0185 139C74.3476 110.086 95.2238 75.3968 122.001 63.8534C132.064 59.5153 142.358 59.6393 153 58.9105C189.898 56.3837 224.594 70.5397 240.865 106C244.204 113.278 248.62 118.676 249 127C252.238 119.059 244.544 110.799 241.435 104C229.57 78.0545 203.159 57.4904 174 57.0031C146.179 56.5381 117.026 56.4921 96.7461 79.2091C82.3176 95.3717 70.2977 123.114 72.0934 145C72.5392 150.434 75.6546 154.847 77.0733 160C86.0626 192.649 113.877 223.426 150 225z"/>
<path style="fill:#a76e7b; stroke:none;" d="M156 58.4244C135.363 61.1341 120.993 61.7418 104 75.4684C68.5365 104.116 66.3723 161.237 95.5285 194.816C115.271 217.553 148.788 230.33 179 226.714C188.126 225.622 196.445 221.653 205 218.424C242.558 204.245 261.249 154.017 247.286 117C233.182 79.6068 196.621 53.0908 156 58.4244z"/>
<path style="fill:#a70c0c; stroke:none;" d="M142 61.4282C91.144 68.7141 62.3444 132.096 87.135 177C104.761 208.925 140.053 224.505 176 218.675C227.692 210.293 265.931 147.105 234.007 99.0895C212.898 67.3412 178.951 56.1345 142 61.4282z"/>
<path style="fill:#fdab15; stroke:none;" d="M658 115C623.205 93.1692 574.345 121.038 570.174 160C568.383 176.728 576.848 192.43 588.209 203.791C601.574 217.156 621.513 222.607 640 218.999C644.631 218.096 652.076 217.815 655.142 213.721C658.455 209.297 657 201.191 657 196C657 191.906 658.036 186.027 656.258 182.228C654.864 179.25 651.752 179.051 648.999 180.14C641.015 183.297 632.485 186.538 624.089 181.736C610.281 173.838 610.222 151.699 626 145.742C635.85 142.022 642.03 147.594 650.985 148.589C655.292 149.067 656.797 145.359 658 142C672.468 149.769 665.999 181.274 666 196C666 201.902 665.048 212.41 671.109 215.821C675.163 218.103 681.517 217 686 217C691.476 217 703.195 219.195 707.566 215.397C711.537 211.946 710 203.676 710 199C710 184.334 709.924 169.666 710.001 155C710.084 139.281 720.417 150.232 727.258 142.486C731.405 137.791 729.877 119.955 728.772 114.005C726.944 104.166 716.479 111.425 711.742 105.682C706.758 99.6389 713.234 89.4606 708.107 83.4337C704.725 79.4586 696.634 81 692 81C685.744 81 674.562 78.8932 669.279 82.858C663.069 87.5179 667.763 96.8261 665.878 102.985C664.498 107.495 659.955 110.592 658 115z"/>
<path style="fill:#a76e7b; stroke:none;" d="M671.148 83.7423C664.159 86.9041 670.201 101.074 666.262 106.816C659.884 116.111 655.437 127.122 660.703 138.961C662.767 143.6 667.462 145.508 667.941 151C669.229 165.763 668 181.177 668 196C668 201.489 666.664 209.414 671.279 213.486C676.548 218.136 684.807 215.008 691 215.008C695.311 215.008 700.771 217.035 704.867 215.257C710.509 212.808 709 203.913 709 199C709 183.098 708.049 166.868 709.044 151C709.871 137.8 725.688 148.214 727.772 136.995C728.811 131.4 730.406 113.517 724.772 110.333C720.097 107.691 714.444 111.987 710.603 106.852C706.094 100.823 711.89 91.4152 707.821 85.3179C705.935 82.4923 701.947 83.006 699 83C691.243 82.984 678.272 80.5196 671.148 83.7423z"/>
<path style="fill:#a70c0c; stroke:none;" d="M674.148 85.7423C667.74 88.6414 672.374 103.241 668.351 108.961C662.945 116.648 658.589 126.179 663.317 136C665.752 141.058 670.299 144.035 670.895 150C672.331 164.378 671 179.547 671 194C671 198.776 669.498 206.839 673.434 210.432C677.355 214.012 686.096 212 691 212C694.729 212 700.265 213.004 703.721 211.397C708.52 209.166 707 200.236 707 196C707 180.684 706.608 165.31 707.015 150C707.133 145.554 708.199 140.271 713.018 138.643C718.506 136.788 724.429 141.44 725.786 132.995C726.518 128.441 727.876 115.905 722.772 113.603C718.079 111.488 712.37 114.81 708.742 109.852C704.284 103.76 709.17 94.7856 706.107 88.2284C703.506 82.662 679.268 83.4263 674.148 85.7423z"/>
<path style="fill:#3e2b57; stroke:none;" d="M157 96L157 97L160 97L157 96z"/>
<path style="fill:#a76e7b; stroke:none;" d="M160 96.4784C118.016 101.246 102.99 158.627 142.17 179.684C149.166 183.444 160.376 182.593 168 181.831C218.572 176.774 212.249 90.5455 160 96.4784z"/>
<path style="fill:#3e2b57; stroke:none;" d="M164 96L164 97L167 97L164 96M152 97L152 98L155 98L152 97M134 106L134 107L152 99C145.295 96.6016 139.013 102.237 134 106z"/>
<path style="fill:#fdab15; stroke:none;" d="M156 105L156 106C162.595 104.776 171.731 103.476 178 106.379C184.258 109.276 187.964 112.369 191.947 117.911C206.68 138.411 195.753 168.31 172 177.258C154.501 183.851 134.693 172.719 129 156C127.284 162.256 133.373 168.586 137.976 171.95C148.261 179.465 161.962 183.446 174.961 178.259C204.277 166.561 213.224 112.482 176 104.302C169.988 102.981 161.933 103.588 156 105z"/>
<path style="fill:#fcfafa; stroke:none;" d="M158 105.529C125.912 112.777 112.544 162.703 147.17 177.258C150.9 178.826 156.039 178 160 178C163.836 178 168.265 178.582 172 177.566C213.396 166.312 204.72 94.9753 158 105.529z"/>
<path style="fill:#fdab15; stroke:none;" d="M154 106L155 107L154 106z"/>
<path style="fill:#3e2b57; stroke:none;" d="M133 107L134 108L133 107z"/>
<path style="fill:#fdab15; stroke:none;" d="M151.667 107.333L152.333 107.667L151.667 107.333M148.667 108.333L149.333 108.667L148.667 108.333M397.015 108.653C391.11 110.564 391.009 115.698 391 121L391 153L391 233C391 241.333 387.902 257.541 392.318 264.786C396.424 271.523 423.137 271.2 429.891 268.397C434.722 266.391 433.998 260.269 434 256L434 220L434 140C434 132.527 437.004 116.439 432.142 110.318C428.068 105.188 402.989 106.719 397.015 108.653M495 108.464C484.72 110.264 477.706 111.702 469 117.576C459.839 123.756 452.91 131.383 449.486 142C446.213 152.147 441.343 159.678 443.329 171C450.26 210.526 497.995 231.434 533.911 216.262C543.445 212.234 548.755 202.795 554.633 195.17C556.949 192.165 561.834 188.541 558.392 184.433C552.545 177.456 525.661 179.692 518.089 182.89C514.561 184.38 512.615 188.054 508.996 189.397C501.626 192.132 492.28 188.982 490.103 181.004C487.812 172.607 500.195 174 505 174L545 174C549.224 174 556.323 175.33 559.397 171.682C565.816 164.063 558.047 150.058 554.964 143C544.461 118.949 522.473 103.653 495 108.464M145.667 109.333L146.333 109.667L145.667 109.333M144 110L145 111L144 110z"/>
<path style="fill:#a76e7b; stroke:none;" d="M397.044 110.742C391.864 112.853 392.008 118.267 392 123L392 154L392 232C392 240.265 389.063 255.576 393.179 262.891C396.922 269.543 423.288 269.387 429.721 266.397C433.678 264.557 432.994 258.57 433 255L433 221L433 143C433 135.106 436.044 119.063 431.543 112.318C429.67 109.511 425.945 110.006 423 110C415.481 109.984 404.067 107.88 397.044 110.742M494 110.439C470.884 114.041 457.429 126.115 449.185 148C446.622 154.806 442.953 161.445 444.225 169C450.74 207.706 496.18 229.22 531.985 215.258C540.82 211.812 547.939 202.514 552.91 195C554.481 192.626 558.814 188.711 556.338 185.703C553.338 182.057 546.124 183 542 183C535.447 183 527.34 181.733 521.004 183.573C516.815 184.788 514.789 188.744 510.961 190.486C502.385 194.389 490.901 190.746 488.682 181.001C486.582 171.775 498.351 173 504 173L544 173C547.994 173 555.258 174.33 558.397 171.258C564.857 164.933 555.994 151.175 553.709 145C544.229 119.386 521.433 106.165 494 110.439M621 110.464C611.477 112.131 605.161 114.581 597 119.858C591.151 123.64 587.826 127.636 583.536 133C548.609 176.673 600.485 231.789 648.995 215.467C657.019 212.767 660.313 188.501 654.258 182.619C650.797 179.257 644.635 184.605 641 185.468C631.645 187.688 616.576 183.195 613.573 172.985C608.193 154.697 620.137 142.485 638 143.015C642.737 143.156 651.534 149.432 655.012 144.681C657.431 141.377 656.994 135.859 657 132C657.008 126.937 657.58 120.496 654.272 116.225C648.5 108.771 629.372 108.998 621 110.464z"/>
<path style="fill:#3e2b57; stroke:none;" d="M129 111L130 112L129 111z"/>
<path style="fill:#fdab15; stroke:none;" d="M142.667 111.333L143.333 111.667L142.667 111.333z"/>
<path style="fill:#3e2b57; stroke:none;" d="M128 112C122.851 120.11 119.027 125.072 119 135L120 135L128 112z"/>
<path style="fill:#fdab15; stroke:none;" d="M141 112L142 113L141 112M140 113L141 114L140 113z"/>
<path style="fill:#a70c0c; stroke:none;" d="M398.228 113.742C394.407 115.527 395.006 120.499 395 124L395 155L395 231C395 238.855 392.106 253.973 396.179 260.852C399.278 266.086 422.498 265.825 427.721 263.397C431.416 261.679 430.983 256.377 430.999 253C431.05 242.667 431 232.333 431 222L431 145C431 137.372 433.943 121.877 429.682 115.318C426.72 110.757 402.952 111.536 398.228 113.742M494 113.428C458.774 118.472 436.458 158.668 455.228 189.985C468.982 212.931 505.248 222.139 529.961 212.737C535.483 210.636 556.656 195.279 550.957 187.603C548.659 184.508 540.371 186 537 186C532.287 186 526.603 185.146 522.015 186.318C518.303 187.266 516.294 190.771 512.961 192.427C503.996 196.882 489.776 194.331 486.789 184C483.079 171.167 493.511 171 503 171L542 171C545.944 171 553.185 172.338 556.258 169.258C561.447 164.054 552.963 154.382 551.655 149C545.081 121.954 520.666 109.61 494 113.428M652 144C653.776 140.31 653.993 137.071 654 133C654.049 102.637 615.292 112.471 598 122.304C559.224 144.355 573.42 203.744 614 213.532C633.012 218.117 662.401 215.212 653.566 188.149C652.086 183.615 636.603 191.209 631 190.061C613.017 186.376 609.345 170.699 611.109 155.001C612.257 144.781 629.59 136.589 639 138.405C643.641 139.301 647.514 142.58 652 144z"/>
<path style="fill:#fdab15; stroke:none;" d="M139 115L140 116L139 115M138.333 116.667L138.667 117.333L138.333 116.667M135 120L138 118L135 120M133.667 120.333L134.333 120.667L133.667 120.333M132 121L133 122L132 121M131.333 122.667L131.667 123.333L131.333 122.667M130.333 124.667L130.667 125.333L130.333 124.667z"/>
<path style="fill:#3e2b57; stroke:none;" d="M244 126L244 130L245 130L244 126z"/>
<path style="fill:#fdab15; stroke:none;" d="M129 127L129 130L130 130L129 127M128.333 131.667L128.667 132.333L128.333 131.667M250 131L250 143L251 143L250 131z"/>
<path style="fill:#3e2b57; stroke:none;" d="M245 133L245 148L246 148L245 133z"/>
<path style="fill:#a76e7b; stroke:none;" d="M496.004 134.533C489.421 136.155 480.949 150.67 488.434 155.821C493.109 159.039 509.626 158.08 514.985 156.566C523.657 154.116 519.342 143.151 515.301 138.228C511.263 133.309 501.717 133.126 496.004 134.533z"/>
<path style="fill:#fdab15; stroke:none;" d="M127 135L128 136L127 135M494.274 138.028C490.438 140.396 485.618 150.635 490.434 153.972C494.17 156.561 510.84 156.403 514.566 153.821C518.862 150.844 515.499 143.363 513.031 140.228C509.808 136.134 498.658 135.321 494.274 138.028M126 138L126 151L127 151L126 138z"/>
<path style="fill:#a76e7b; stroke:none;" d="M314 138.519C286.44 142.91 289.763 194.626 318 190.613C347.035 186.487 343.916 133.752 314 138.519z"/>
<path style="fill:#fcfafa; stroke:none;" d="M496.104 139.028C478.12 148.964 502.46 159.809 512.682 152.972C522.43 146.453 504.522 134.377 496.104 139.028z"/>
<path style="fill:#fdab15; stroke:none;" d="M310 143.637C297.616 147.158 294.153 169.995 301.589 179.867C306.07 185.816 316.477 186.585 323 184.701C346.454 177.929 336.55 136.089 310 143.637z"/>
<path style="fill:#fcfafa; stroke:none;" d="M315 144.598C293.271 145.676 294.711 185.336 318 183.906C341.135 182.485 339.041 143.405 315 144.598z"/>
<path style="fill:#3e2b57; stroke:none;" d="M244 149L240 168L241 168C242.667 162.237 246.398 154.879 244 149z"/>
<path style="fill:#fdab15; stroke:none;" d="M250 149L250 160L251 160L250 149M127 152L127 155L128 155L127 152M249 162L249 168L250 168L249 162z"/>
<path style="fill:#3e2b57; stroke:none;" d="M239 169L240 170L239 169z"/>
<path style="fill:#fdab15; stroke:none;" d="M248.333 169.667L248.667 170.333L248.333 169.667z"/>
<path style="fill:#3e2b57; stroke:none;" d="M238 171L239 172L238 171M237.333 172.667L237.667 173.333L237.333 172.667z"/>
<path style="fill:#fdab15; stroke:none;" d="M247 172L247 175L248 175L247 172z"/>
<path style="fill:#3e2b57; stroke:none;" d="M236.333 174.667L236.667 175.333L236.333 174.667z"/>
<path style="fill:#fdab15; stroke:none;" d="M246 176L245 180L246 180L246 176z"/>
<path style="fill:#3e2b57; stroke:none;" d="M235 178L236 179L235 178M234 180L216 201C221.714 197.426 234.19 187.31 234 180z"/>
<path style="fill:#fdab15; stroke:none;" d="M244 180L245 181L244 180M243 181L244 182L243 181M242 182L240 188L241 188L242 182M239.333 189.667L239.667 190.333L239.333 189.667M238 191L239 192L238 191M237 192L238 193L237 192M236.333 193.667L236.667 194.333L236.333 193.667M235 195L236 196L235 195M233.667 196.333L234.333 196.667L233.667 196.333M232 197L233 198L232 197M230 198L230 200L232 198L230 198M229 200L230 201L229 200M228.333 201.667L228.667 202.333L228.333 201.667M227 203L228 204L227 203z"/>
<path style="fill:#3e2b57; stroke:none;" d="M212 204L213 205L212 204z"/>
<path style="fill:#fdab15; stroke:none;" d="M226 204L227 205L226 204z"/>
<path style="fill:#3e2b57; stroke:none;" d="M211 205L212 206L211 205z"/>
<path style="fill:#fdab15; stroke:none;" d="M225 205L226 206L225 205z"/>
<path style="fill:#3e2b57; stroke:none;" d="M209.667 206.333L210.333 206.667L209.667 206.333z"/>
<path style="fill:#fdab15; stroke:none;" d="M224 206L225 207L224 206z"/>
<path style="fill:#3e2b57; stroke:none;" d="M207.667 207.333L208.333 207.667L207.667 207.333z"/>
<path style="fill:#fdab15; stroke:none;" d="M223 207L224 208L223 207z"/>
<path style="fill:#3e2b57; stroke:none;" d="M204.667 208.333L205.333 208.667L204.667 208.333z"/>
<path style="fill:#fdab15; stroke:none;" d="M222 208L223 209L222 208z"/>
<path style="fill:#3e2b57; stroke:none;" d="M196 214L196 215L204 209L196 214z"/>
<path style="fill:#fdab15; stroke:none;" d="M220.667 209.333L221.333 209.667L220.667 209.333M218.667 210.333L219.333 210.667L218.667 210.333M217 211L218 212L217 211M216 212L217 213L216 212M215 213L216 214L215 213M214 214L215 215L214 214z"/>
<path style="fill:#3e2b57; stroke:none;" d="M192 215L192 216L195 216L192 215z"/>
<path style="fill:#fdab15; stroke:none;" d="M212.667 215.333L213.333 215.667L212.667 215.333z"/>
<path style="fill:#3e2b57; stroke:none;" d="M187 216L187 217L191 217L187 216z"/>
<path style="fill:#fdab15; stroke:none;" d="M210.667 216.333L211.333 216.667L210.667 216.333z"/>
<path style="fill:#3e2b57; stroke:none;" d="M180 217L180 218L186 218L180 217z"/>
<path style="fill:#fdab15; stroke:none;" d="M207.667 217.333L208.333 217.667L207.667 217.333M204.667 218.333L205.333 218.667L204.667 218.333z"/>
<path style="fill:#3e2b57; stroke:none;" d="M166 219L166 220L173 220L166 219z"/>
<path style="fill:#fdab15; stroke:none;" d="M202.667 219.333L203.333 219.667L202.667 219.333M199.667 220.333L200.333 220.667L199.667 220.333M196.667 221.333L197.333 221.667L196.667 221.333M193.667 222.333L194.333 222.667L193.667 222.333M187 225L187 226L193 224L187 225M151 225L152 226L151 225M153 226L153 227L158 227L153 226M180 226L180 227L187 227L180 226M158 227L158 228L176 228L158 227M884 265.635C876.79 267.586 866.303 276.73 866.507 285C866.784 296.237 881.611 306.164 892 303.686C916.926 297.741 906.172 259.634 884 265.635M130 429C131.04 425.709 133.195 423.656 136.996 424.478C141.221 425.391 142.42 429.863 146.129 431.397C152.375 433.979 168.56 432.242 175 430.428C180.894 428.769 193.384 423.28 195.018 416.996C196.284 412.125 194.352 406.966 195.343 402C196.203 397.697 199.141 394.331 200 390L204 391C202.533 387.513 200.08 382.177 195.907 381.373C190.524 380.336 184.06 386.255 179 387.791C163.064 392.628 135.363 390.184 133 369L132 369L131 372C109.647 355.296 125.495 318.486 149 312.515C155.256 310.925 162.583 310.293 168.999 311.189C170.677 311.423 174.911 312.255 174.369 314.816C173.547 318.693 157.481 318.343 154 322C168.114 316.817 178.068 319.335 191 325.626C195.28 327.708 201.026 329.587 204 325L203 325C199.61 326.804 195.919 324.757 194.643 320.981C192.119 313.515 192.425 285.717 204 290C199.768 278.464 190.525 277.35 180 274.511C160.91 269.362 138.58 270.575 121 281.723C78.9606 308.381 68.7037 363.372 97.8032 403.91C105.814 415.071 118.513 422.155 130 429z"/>
<path style="fill:#a76e7b; stroke:none;" d="M203 327C204.184 322.029 204 317.084 204 312L204 302C204 299.048 202.632 281.14 196.179 290.434C193.979 293.604 195 299.352 195 303C195 312.452 190.503 325.014 203 327z"/>
<path style="fill:#fdab15; stroke:none;" d="M204 291L204 324L205 324L204 291M582.015 292.573C569.825 294.459 579.974 314.566 574.258 321.582C572.242 324.056 568.75 324.559 566.859 327.225C564.24 330.916 564.563 345.73 567.179 349.491C569.683 353.09 574.421 353.059 575.682 358.005C578.338 368.417 576 382.252 576 393C576 399.789 572.889 417.261 577.603 422.486C582.789 428.235 603.967 425.559 610.999 424.409C620.777 422.81 619 415.115 619 407C619 391.777 616.35 373.949 618.719 359.005C620.253 349.331 633.409 356.62 635.682 348.856C636.898 344.703 637.899 327.906 634.397 325.014C630.21 321.557 623.304 325.053 619.782 319.853C615.769 313.928 620.843 303.929 617.486 297.109C614.145 290.321 588.862 291.513 582.015 292.573M1049.11 293.742C1040.59 297.406 1047.34 314.002 1043.16 320.91C1038.51 328.592 1034.97 339.543 1038.74 348.91C1040.76 353.928 1044.66 356.068 1044.96 362C1045.72 376.92 1045 392.059 1045 407C1045 410.82 1043.29 420.142 1046.6 422.825C1051.57 426.851 1063.06 425 1069 425C1073.87 425 1080.31 425.873 1084.77 423.486C1089.6 420.905 1088 412.532 1088 408C1088 392.343 1087.71 376.655 1088 361.001C1088.24 348.278 1103.57 357.651 1104.89 345.996C1105.49 340.726 1107.02 327.504 1101.72 324.322C1097.58 321.831 1091.95 324.92 1089.03 319.866C1085.11 313.089 1090.3 303.36 1086.49 296.228C1084.78 293.039 1081.19 293.048 1078 293.004C1069.91 292.891 1056.59 290.526 1049.11 293.742z"/>
<path style="fill:#a76e7b; stroke:none;" d="M131 372C132.071 367.01 129.975 362.961 130.055 358C130.24 346.507 136.054 333.702 145.105 326.509C152.113 320.94 160.427 318.729 168.999 317.42C170.731 317.155 175.607 316.987 175.079 314.13C173.951 308.036 154.062 311.31 150 312.096C128.7 316.214 105.052 358.562 131 372z"/>
<path style="fill:#fdab15; stroke:none;" d="M264 317.557C243.593 322.778 221.384 332.364 213.951 354C206.34 376.154 212.127 403.948 231.17 418.046C237.494 422.727 243.955 423.542 251 426.268C260.912 430.103 268.953 433.996 280 431.316C304.375 425.401 329.212 407.324 331.895 380C334.692 351.509 313.609 330.428 289 322.154C280.486 319.291 273.44 315.142 264 317.557M152 322L153 323L152 322M151 323L152 324L151 323M395 333L393 333C389.149 319.505 374.587 324.115 363 323.996C358.904 323.954 351.895 322.188 349.179 326.314C344.549 333.348 348 351.697 348 360L348 406C348 410.45 346.422 418.888 349.742 422.411C354.15 427.089 366.222 425 372 425C376.949 425 384.238 426.03 388.697 423.336C392.848 420.828 391 411.148 391 407C391 393.866 388.486 377.788 391.532 365C393.455 356.928 399.596 351.693 407.999 353.228C416.642 354.808 416.997 363.978 417 371L417 407C417 411.17 415.754 417.938 418.179 421.581C422.075 427.432 452.189 427.712 455.821 421.772C459.017 416.545 457 405.947 457 400C457 381.822 462.252 352.389 449.585 337.285C438.815 324.445 406.284 315.186 395 333M521 323.461C513.301 324.263 501.937 325.784 495.039 329.317C480.889 336.566 467.033 359.312 483.213 372.046C492.241 379.151 505.511 381.49 515.999 384.804C519.909 386.039 524.007 389.429 523.377 393.995C522.573 399.828 516.578 399.991 512 400C505.798 400.013 499.118 400.676 493 399.532C488.967 398.778 484.957 396.306 481.044 398.758C471.429 404.783 463.05 419.392 478 423.51C483.767 425.098 489.478 425.834 495 428.312C502.148 431.519 508.131 432.465 516 431.91C522.24 431.471 526.393 428.311 532 426.119C537.486 423.973 543.941 423.39 548.896 420.005C562.557 410.673 567.675 391.642 559.698 377.043C557.63 373.259 552.735 369.428 549.486 366.568C543.002 360.859 517.6 363.554 516.662 353.997C516.241 349.706 520.571 348.26 524.001 348.044C531.123 347.596 541.483 351.933 547.945 349.396C552.36 347.663 563.176 335.335 559.968 330.314C557.943 327.143 552.302 327.105 549 326.349C545.343 325.511 541.753 324.406 538 324.086C532.394 323.609 526.623 322.875 521 323.461M652.001 323.444C640.291 324.924 644 353.038 644 363C644 377.332 643.902 391.668 644.003 406C644.034 410.421 642.548 418.944 645.742 422.436C650.729 427.886 671.181 425.771 677.995 424.811C687.15 423.522 684.082 414.543 684.004 408C683.789 389.947 682.376 375.004 693.424 360.001C697.063 355.059 699.815 353.043 706 353.001C710.102 352.973 718.102 354.516 720.821 350.566C722.738 347.781 722 343.19 722 340C722 335.996 723.101 329.831 720.821 326.303C716.311 319.324 702.203 326.003 697.104 329.136C694.145 330.954 691.93 336.794 688.133 336.793C683.666 336.793 685.346 326.606 681.697 324.318C676.794 321.244 657.966 322.69 652.001 323.444M803 334L800 334C797.817 328.24 792.336 327.867 787 326.164C770.711 320.963 753.82 326.846 742.104 339.043C721.772 360.212 722.862 398.734 745.209 418.585C760.7 432.345 789.141 437.271 800 415L803 415C805.659 428.647 818.579 425.054 830 424.999C835.653 424.972 844.291 425.217 844.941 417.985C846.825 397.023 845 375.054 845 354C845 346.621 847.445 333.991 844.397 327.228C842.029 321.977 832.481 323.626 828 323.911C816.17 324.664 805.778 319.316 803 334M876 323.468C859.93 325.099 866 353.891 866 366L866 407C866 411.103 864.521 418.982 867.742 422.146C873.618 427.918 894.399 425.895 901.985 424.811C912.615 423.292 908 393.404 908 385L908 341C908 336.531 909.65 328.001 905.682 324.858C901.116 321.241 881.98 322.861 876 323.468M928.001 323.444C917.852 324.725 920 333.999 920 342L920 400C920 405.696 917.322 420.366 923.148 423.566C927.35 425.874 933.396 425 938 425C943.349 425 954.086 426.944 958.397 423.062C961.022 420.698 960 415.152 960 412L960 380C960 368.868 961.09 351.43 976.999 353.11C990.663 354.552 989 374.437 989 384L989 411C989 414.449 988.165 419.538 990.742 422.297C995.84 427.756 1015.12 425.792 1021.98 424.811C1031.17 423.498 1028 408.779 1028 402C1028 379.627 1033.01 352.497 1017.61 334.044C1006.66 320.926 987.053 322.826 973.015 327.789C969.987 328.859 967.014 333.814 964.029 333.794C959.657 333.764 960.761 325.744 956.852 324.148C950.426 321.524 934.955 322.566 928.001 323.444M148.667 324.333L149.333 324.667L148.667 324.333M145.667 325.333L146.333 325.667L145.667 325.333M144 326L145 327L144 326M143 327L144 328L143 327M142.333 328.667L142.667 329.333L142.333 328.667M141 330L142 331L141 330M140.333 332.667L140.667 333.333L140.333 332.667M139 334L140 335L139 334M138 335L139 336L138 335M137 336L138 337L137 336M134 340L137 337L134 340M133 340L133 343L134 343L133 340M132 344L132 348L133 348L132 344z"/>
<path style="fill:#fcfafa; stroke:none;" d="M264 348.699C236.35 357.677 247.933 411.421 279.999 399.106C302.777 390.359 292.186 339.547 264 348.699z"/>
<path style="fill:#fdab15; stroke:none;" d="M131 349L131 352L132 352L131 349M130 353L130 364L131 364L130 353z"/>
<path style="fill:#fcfafa; stroke:none;" d="M778.17 354.027C755.628 366.364 771.086 407.999 795.907 393.836C814.751 383.083 800.66 341.718 778.17 354.027z"/>
<path style="fill:#fdab15; stroke:none;" d="M131.333 364.667L131.667 365.333L131.333 364.667z"/>
<path style="fill:#a76e7b; stroke:none;" d="M200 390C198.645 394.122 195.787 397.628 195.189 402C194.45 407.401 196.594 413.993 193.846 418.956C191.242 423.658 179.101 428.992 174 430.428C167.928 432.138 152.957 433.722 147.054 431.397C143.922 430.163 142.726 426.775 139.871 425.179C137.478 423.841 132.008 423.194 130.662 426.39C128.528 431.458 144.627 434.99 148 435.664C160.447 438.152 170.59 437.108 183 436.086C188.603 435.624 197.378 434.829 201.566 430.57C207.292 424.748 204.016 406.69 204 399C203.991 394.825 204.381 391.454 200 390z"/>
<path style="fill:#fdab15; stroke:none;" d="M204 399L204 427L205 427L204 399M203.333 428.667L203.667 429.333L203.333 428.667M131 430L132 431L131 430M202 430L203 431L202 430M132.667 431.333L133.333 431.667L132.667 431.333M201 431L202 432L201 431M134 432L134 433L144 435L134 432M199.667 432.333L200.333 432.667L199.667 432.333M195 433L195 434L198 434L195 433M192 434L192 435L195 435L192 434M144 435L144 436L147 436L144 435M189 435L189 436L192 436L189 435M152 436L152 437L155 437L152 436M179 436L179 437L188 437L179 436M156 437L156 438L159 438L156 437M174 437L174 438L177 438L174 437M161 438L161 439L165 439L161 438M167 438L167 439L171 439L167 438M116.667 482.333L117.333 482.667L116.667 482.333z"/>
<path style="fill:#a76e7b; stroke:none;" d="M118.001 482.529C108.73 484.684 110 492.251 110 500L110 551L110 608C110 615.424 108.04 626.329 111.938 632.985C115.332 638.778 122.578 641.667 129 641.961C144.93 642.69 161.052 642 177 642C184.271 642 194 643.359 200.812 640.262C211.07 635.598 205.602 609.623 199.581 603.279C190.079 593.266 166.353 608.082 159.028 594.895C155.682 588.872 158 576.769 158 570C158 550.352 157.533 530.641 158.015 511C158.233 502.07 159.387 491.346 151.582 484.589C145.533 479.352 125.388 480.813 118.001 482.529z"/>
<path style="fill:#fdab15; stroke:none;" d="M146 482L146 483L149 483L146 482M114 483L115 484L114 483M112 484L113 485L112 484M152 484L153 485L152 484M110.333 485.667L110.667 486.333L110.333 485.667z"/>
<path style="fill:#3e2b57; stroke:none;" d="M119.109 485.742C113.29 488.246 115.976 496.111 115.999 501C116.073 516.333 116 531.667 116 547L116 607C116 613.806 113.706 625.83 117.179 631.867C120.255 637.212 130.593 636.932 136 636.996C149.329 637.155 162.67 637 176 637C182.303 637 190.18 637.827 195.941 634.686C203.827 630.387 201.948 611.053 195.581 606.009C185.217 597.8 162.271 611.717 154.09 598.891C150.232 592.845 153 581.001 153 574L153 514C153 506.524 154.589 494.736 150.062 488.228C146.292 482.809 124.793 483.297 119.109 485.742z"/>
<path style="fill:#fdab15; stroke:none;" d="M153 486L154 487L153 486M109 487L109 626L110 626L110 529C110 517.056 113.607 497.98 109 487M154.333 488.667L154.667 489.333L154.333 488.667M155.333 490.667L155.667 491.333L155.333 490.667M156 492L157 493L156 492M157.333 493.667L157.667 494.333L157.333 493.667M158 495L158 596L159 596C160.029 572.032 160 548.041 160 524C160 515.53 162.459 502.444 158 495M313 530L314 531L313 530M618.667 530.333L619.333 530.667L618.667 530.333M822 530L823 531L822 530M241 531L241 532L245 532L241 531z"/>
<path style="fill:#a76e7b; stroke:none;" d="M245 531.428C219.554 535.124 200.721 565.594 203.171 590C203.807 596.343 207.132 600.304 209.288 606C211.457 611.732 212.028 617.727 216.634 622.367C226.263 632.065 245.301 644.714 260 638.929C266.312 636.445 273.097 626.568 278.857 625.77C283.036 625.191 282.556 633.838 286.147 635.397C292.579 638.189 310.133 637.446 316.985 635.982C325.753 634.109 323 620.658 323 614L323 555C323 549.524 325.195 537.805 321.397 533.434C317.389 528.822 290.361 528.825 285.279 532.028C282.601 533.715 282.731 539.844 279.686 540.369C276.106 540.986 272.147 534.895 269 533.514C262.011 530.448 252.422 530.35 245 531.428z"/>
<path style="fill:#fdab15; stroke:none;" d="M260 531L261 532L260 531M319 531L320 532L319 531M346 531L347 532L346 531z"/>
<path style="fill:#a76e7b; stroke:none;" d="M347.144 531.742C340.917 534.52 344 546.609 344 552L344 613C344 618.146 341.429 632.9 347.148 635.397C351.211 637.171 357.642 636 362 636C367.201 636 379.421 638.238 383.411 634.397C386.939 631 386 623.409 386 619C386.001 605.7 381.901 584.435 386.603 572.015C388.584 566.782 394.731 563.995 400 564.034C413.852 564.137 413 581.136 413 591C413 601.666 412.949 612.334 413.001 623C413.019 626.807 412.786 632.554 416.419 634.972C420.676 637.807 430.058 635.977 435 636.001C439.391 636.022 444.702 637.647 448.891 635.964C455.847 633.17 453 618.041 453 612C453 589.295 457.897 562.369 444.035 543.094C434.592 529.964 413.13 528.437 399.004 533.344C395.588 534.531 392.629 539.604 389.105 539.654C385.459 539.707 385.188 533.012 381.867 531.603C375.486 528.897 353.472 528.919 347.144 531.742z"/>
<path style="fill:#fdab15; stroke:none;" d="M407 531L408 532L407 531M423 531L423 532L427 532L423 531M511 531L511 532L514 532L511 531z"/>
<path style="fill:#a76e7b; stroke:none;" d="M514 531.424C465.737 537.839 453.28 610.453 495.09 634.86C506.272 641.388 524.309 641.234 535.961 636.272C538.635 635.134 540.304 632.006 543.031 631.203C545.997 630.33 546.762 633.855 546.941 636.002C547.753 645.755 538.802 656.344 529 657.681C519.562 658.967 517.202 650.947 509.91 647.707C503.835 645.007 478.927 644.536 473.333 648.318C467.568 652.216 477.899 666.37 480.865 669.624C492.593 682.49 513.802 689.512 531 688.957C536.868 688.767 542.287 686.485 548 685.425C597.233 676.292 589 618.333 589 581L589 546C589 542.244 590.193 535.677 587.258 532.742C584.992 530.476 580.908 531.005 578 531C570.297 530.987 557.282 528.504 550.225 531.742C547.434 533.023 546.528 538.509 543.316 538.515C540.084 538.522 537.012 534.053 534 532.893C528.081 530.613 520.193 530.601 514 531.424z"/>
<path style="fill:#fdab15; stroke:none;" d="M526.667 531.333L527.333 531.667L526.667 531.333M549 531L550 532L549 531M586 531L587 532L586 531M613 531L614 532L613 531z"/>
<path style="fill:#a76e7b; stroke:none;" d="M614.147 531.742C609.483 533.84 610.685 539.942 610.914 544C611.571 555.599 611 567.382 611 579C611 589.625 608.596 604.132 613.313 614C625.464 639.421 668.734 647.176 693 635.686C724.204 620.911 720 591.386 720 562C720 555.251 722.992 538.722 718.397 533.434C713.912 528.273 689.412 529.594 683.055 531.318C676.206 533.175 678 543.662 678 549C678 563.973 681.365 583.506 677.682 597.996C676.533 602.517 668.894 609.02 664 608.419C651.212 606.849 650 591.561 650 582C650 570.011 649.726 557.985 650.015 546C650.117 541.77 651.875 536.092 648.297 532.742C644.356 529.053 634.013 531 629 531C624.576 531 618.27 529.888 614.147 531.742z"/>
<path style="fill:#fdab15; stroke:none;" d="M647 531L648 532L647 531M716 531L717 532L716 531M776.667 531.333L777.333 531.667L776.667 531.333z"/>
<path style="fill:#a76e7b; stroke:none;" d="M778 531.425C736.333 537.1 722.778 599.309 753 625.815C764.796 636.16 780.523 643.898 795.996 636.895C800.658 634.785 803.862 627.775 808.946 627.176C813.497 626.64 814.536 634.719 819.044 636.042C826.197 638.143 840.537 637.06 847.981 635.852C856.499 634.469 854 620.183 854 614L854 556C854 549.905 856.165 538.383 852.142 533.318C848.34 528.531 823.565 529.45 818.043 531.603C814.544 532.968 812.931 538.343 808.957 538.365C805.364 538.385 802.229 534.44 799 533.144C792.589 530.571 784.747 530.506 778 531.425z"/>
<path style="fill:#fdab15; stroke:none;" d="M792 531L793 532L792 531M908.667 531.333L909.333 531.667L908.667 531.333z"/>
<path style="fill:#a76e7b; stroke:none;" d="M943 630C944.652 643.075 936.543 660.928 920 657.513C913.576 656.187 911.345 650.113 905.911 647.434C901.622 645.321 896.544 646.942 892 646.996C886.896 647.057 870.481 644.285 868.929 651.109C866.308 662.631 881.327 673.086 889 678.228C912.26 693.817 947.311 691.354 968.892 673.443C983.917 660.973 985 641.03 985 623L985 568C985 560.059 989.022 539.466 984.142 533.318C981.966 530.577 978.124 531.006 975 531C967.079 530.984 954.449 528.61 947.108 531.742C944.114 533.02 943.072 537.775 939.882 538.231C936.549 538.707 933.147 533.834 929.985 532.803C921.263 529.96 907.312 529.649 899 533.895C862.595 552.493 851.773 612.625 892.015 634.861C903.638 641.284 920.885 641.405 932.907 636.262C936.984 634.517 938.331 630.754 943 630z"/>
<path style="fill:#fdab15; stroke:none;" d="M922.667 531.333L923.333 531.667L922.667 531.333M946 531L947 532L946 531M1045 531L1045 532L1049 532L1045 531z"/>
<path style="fill:#a76e7b; stroke:none;" d="M1049 531.424C1013.06 536.202 988.311 579.741 1009.09 612.83C1024.74 637.752 1060.92 646.704 1087.99 636.106C1096.34 632.834 1104.78 623.157 1110.61 616.576C1113.03 613.853 1116.13 608.953 1113.24 605.514C1108.95 600.409 1082.68 601.209 1077.09 604.178C1072.6 606.562 1070.44 610.927 1065 611.786C1058.19 612.86 1047.52 612.065 1045.44 603.996C1042.82 593.874 1054.7 595 1061 595L1099 595C1103.76 595 1110.86 596.275 1114.57 592.566C1120.05 587.083 1114.44 576.328 1113.25 570C1107.66 540.263 1075.87 527.853 1049 531.424z"/>
<path style="fill:#fdab15; stroke:none;" d="M1070 531L1070 532L1073 532L1070 531M238 532L239 533L238 532M265 532L265 533L268 533L265 532M283 532L284 533L283 532M321 532L322 533L321 532M384 532L385 533L384 532M400 532L400 533L403 533L400 532M429 532L430 533L429 532M504.667 532.333L505.333 532.667L504.667 532.333M533.667 532.333L534.333 532.667L533.667 532.333M679 532L680 533L679 532M718 532L719 533L718 532M769.667 532.333L770.333 532.667L769.667 532.333M797.667 532.333L798.333 532.667L797.667 532.333M815 532L816 533L815 532M852 532L853 533L852 532M901.667 532.333L902.333 532.667L901.667 532.333M929.667 532.333L930.333 532.667L929.667 532.333M1039.67 532.333L1040.33 532.667L1039.67 532.333M1077.67 532.333L1078.33 532.667L1077.67 532.333M236 533L237 534L236 533z"/>
<path style="fill:#3e2b57; stroke:none;" d="M253 533.522C240.01 534.313 223.037 543.91 216.228 555.039C213.455 559.571 213.194 565.17 211.147 570C208.874 575.365 205.283 578.745 205.456 585C205.632 591.378 209.903 595.256 211.775 601C214.268 608.645 214.856 615.649 221.105 621.572C229.821 629.834 248.904 641.606 261 634.518C265.631 631.804 275.364 619.206 279.982 619.207C286.045 619.207 283.435 629.303 286.742 631.972C291.014 635.419 308.634 633.721 313.981 632.852C321.783 631.583 319 617.776 319 612L319 556C319 550.926 321.569 539.406 318.254 535.434C315.328 531.926 291.188 531.875 287.318 534.322C283.487 536.744 285.887 545.091 279.945 545.248C271.188 545.48 263.128 532.905 253 533.522z"/>
<path style="fill:#fdab15; stroke:none;" d="M270 533L271 534L270 533M322 533L323 534L322 533z"/>
<path style="fill:#3e2b57; stroke:none;" d="M352.019 533.576C344.576 535.715 347 547.055 347 553L347 611C347 616.652 344.541 629.67 351.109 632.397C354.771 633.917 360.107 633 364 633C368.417 633 378.008 634.786 381.397 631.397C384.131 628.663 383 622.503 383 619L383 584C383 572.429 385.248 557.952 401 559.422C424.276 561.594 416 598.803 416 615C416 619.417 414.774 628.826 418.738 631.972C421.967 634.535 430.091 632.998 434 633C437.702 633.001 442.303 634.117 445.891 633.397C452.712 632.027 450 616.097 450 611C450 589.588 454.611 563.432 441.273 545.109C435.922 537.758 417.603 531.103 409 534.634C403.396 536.934 393.917 544.454 388.055 544.368C382.591 544.288 384.295 536.596 380.683 534.322C376.737 531.837 356.659 532.243 352.019 533.576z"/>
<path style="fill:#fdab15; stroke:none;" d="M397 533L398 534L397 533M431 533L432 534L431 533M502 533L503 534L502 533M536 533L537 534L536 533M547 533L548 534L547 533z"/>
<path style="fill:#3e2b57; stroke:none;" d="M555.018 533.498C548.965 534.718 549.929 543.956 543.981 543.549C533.736 542.849 527.592 532.315 516 534.329C470.63 542.208 459.184 606.12 497 631.146C506.893 637.693 523.266 637.689 533.96 633.262C537.99 631.593 540.158 625.185 544.971 625.546C551.635 626.047 550.213 637.557 549.957 642C549.108 656.703 529.67 665.381 517.043 659.347C509.58 655.781 510.77 649.052 501 649.001C495.984 648.974 477.53 646.208 476.607 653.109C475.735 659.633 481.82 664.983 486 668.96C498.305 680.665 517.908 686.867 535 684.816C552.393 682.728 575.217 672.582 582.107 654.985C590.627 633.223 586 603.023 586 580C586 569.334 585.95 558.666 586.001 548C586.018 544.398 587.663 538.563 585.127 535.564C581.682 531.488 560.226 532.448 555.018 533.498z"/>
<path style="fill:#fdab15; stroke:none;" d="M588 533L589 534L588 533z"/>
<path style="fill:#3e2b57; stroke:none;" d="M616.228 533.743C612.148 535.625 613.001 541.327 613 545L613 578C613 593.753 613.394 609.749 623.638 622.942C626.606 626.765 631.043 627.319 635 629.648C648.752 637.744 675.033 639.857 690 632.836C720.132 618.702 716 591.594 716 563C716 556.962 719.082 540.039 715.243 535.514C711.996 531.685 689.987 532.233 685.059 533.473C678.534 535.115 681 547.96 681 553C681 567.446 684.503 587.124 680.427 600.985C678.272 608.316 669.305 613.362 662 612.188C639.632 608.59 647 568.77 647 553C647 548.43 649.408 538.036 645.562 534.859C641.643 531.62 633.718 534.099 629 533.985C625.057 533.89 619.977 532.014 616.228 533.743z"/>
<path style="fill:#fdab15; stroke:none;" d="M649 533L650 534L649 533M719 533L720 534L719 533M767 533L768 534L767 533M800.667 533.333L801.333 533.667L800.667 533.333M814 533L815 534L814 533z"/>
<path style="fill:#3e2b57; stroke:none;" d="M820.133 533.743C815.683 535.674 817.033 542.804 811.941 543.497C804.631 544.493 796.003 536.116 789 534.418C774.899 530.999 755.283 544.323 747.724 555.17C727.356 584.395 747.577 634.794 784 636.49C796.742 637.083 802.011 620.575 812.856 621.356C817.508 621.692 816.291 629.675 819.433 632.127C823.12 635.005 844.295 634.565 848.566 632.397C851.466 630.925 850.985 626.709 850.999 624C851.041 616 851 608 851 600L851 552C851 547.653 852.791 538.04 849.397 534.743C845.906 531.353 836.536 534.159 832 533.961C828.229 533.796 823.772 532.164 820.133 533.743z"/>
<path style="fill:#fdab15; stroke:none;" d="M898 533L899 534L898 533M932 533L933 534L932 533z"/>
<path style="fill:#3e2b57; stroke:none;" d="M952.018 533.537C946.187 534.939 946.156 544.05 939.995 543.538C929.91 542.699 923.583 531.895 912 534.39C898.652 537.266 885.651 544.914 878.085 556.209C874.184 562.032 873.648 569.32 872.816 576C870.007 598.566 873.941 618.971 895 631.751C904.81 637.704 920.47 637.714 930.907 633.262C934.741 631.626 936.44 626.504 941.01 626.377C948.528 626.167 947.237 637.139 946.957 642C946.145 656.056 926.302 665.44 914.015 659.566C907.346 656.378 907.466 649.164 899 649.005C893.92 648.909 873.816 646.131 873.242 653.109C872.687 659.845 878.783 665.711 883.286 669.799C895.463 680.855 914.438 686.804 931 684.816C936.563 684.148 945.035 682.945 950 680.432C960.831 674.95 971.556 667.731 977.428 656.816C988.452 636.323 983 603.427 983 581L983 548C983 544.511 984.118 538.511 981.972 535.514C979.312 531.799 956.617 532.432 952.018 533.537z"/>
<path style="fill:#fdab15; stroke:none;" d="M1036.67 533.333L1037.33 533.667L1036.67 533.333M1081.67 533.333L1082.33 533.667L1081.67 533.333M235 534L236 535L235 534M271 534L272 535L271 534M282.333 534.667L282.667 535.333L282.333 534.667M385.333 534.667L385.667 535.333L385.333 534.667M432 534L433 535L432 534M537 534L538 535L537 534M678.333 534.667L678.667 535.333L678.333 534.667M766 534L767 535L766 534M802 534L803 535L802 534M853.333 534.667L853.667 535.333L853.333 534.667M897 534L898 535L897 534M934 534L935 535L934 534M943 534L944 535L943 534M1034 534L1035 535L1034 534z"/>
<path style="fill:#3e2b57; stroke:none;" d="M1051 534.468C1042.32 536.105 1030.56 540.439 1023.21 545.402C997.468 562.797 1002.72 603.745 1022.38 622.471C1037.53 636.907 1065.75 640.517 1085 633.258C1093.37 630.103 1099.21 622.48 1105.32 616.514C1107.49 614.4 1112.46 611.223 1109.95 607.564C1107.37 603.807 1098.82 605.994 1095 606C1090.4 606.007 1083.51 604.724 1079.22 606.603C1076.12 607.965 1074.94 611.829 1071.95 613.583C1063.39 618.601 1045.97 617.331 1041.89 606.999C1038.73 598.987 1041.88 591.418 1051 591.13C1065.46 590.673 1080.44 592 1095 592C1099.48 592 1107.83 593.508 1111.4 590.142C1116.88 584.974 1108.66 566.799 1105.45 562C1093.22 543.698 1074.82 529.973 1051 534.468z"/>
<path style="fill:#fdab15; stroke:none;" d="M1084.67 534.333L1085.33 534.667L1084.67 534.333M234 535L235 536L234 535M272 535L273 536L272 535M343.333 535.667L343.667 536.333L343.333 535.667M433 535L434 536L433 535M499 535L500 536L499 535M538 535L539 536L538 535M610 535L610 538L611 538L610 535M650.333 535.667L650.667 536.333L650.333 535.667M765 535L766 536L765 535M803 535L804 536L803 535M813 535L814 536L813 535M896 535L897 536L896 535M985 535L986 536L985 535M1032 535L1033 536L1032 535M1086 535L1087 536L1086 535M233 536L234 537L233 536M273 536L274 537L273 536M323 536L323 630L324 630L324 565L323 536M434 536L435 537L434 536M498 536L499 537L498 536M546 536L547 537L546 536M589 536L589 542L590 542L589 536M764 536L765 537L764 536M895 536L896 537L895 536M935 536L936 537L935 536M1031 536L1032 537L1031 536M1087 536L1088 537L1087 536M231 537L232 538L231 537M436 537L437 538L436 537M496 537L497 538L496 537M720 537L720 541L721 541L720 537M763 537L764 538L763 537M805 537L806 538L805 537M812 537L813 538L812 537M936 537L937 538L936 537M942 537L943 538L942 537M1030 537L1031 538L1030 537M1088 537L1089 538L1088 537M228 538L229 539L228 538M392 538L393 539L392 538M494 538L495 539L494 538M545 538L546 539L545 538M760.667 538.333L761.333 538.667L760.667 538.333M806 538L807 539L806 538M811 538L812 539L811 538M891 538L892 539L891 538M937 538L938 539L937 538M941 538L942 539L941 538M1028 538L1029 539L1028 538M1089 538L1090 539L1089 538M226 539L227 540L226 539M386 539L387 540L386 539M391 539L392 540L391 539M440 539L441 540L440 539M492 539L493 540L492 539M543 539L544 540L543 539M758 539L759 540L758 539M939.667 539.333L940.333 539.667L939.667 539.333M1026 539L1027 540L1026 539M281 540L282 541L281 540M343 540L343 632L344 632L344 568L343 540M387 540L388 541L387 540M389 540L390 541L389 540M442 540L443 541L442 540M490 540L491 541L490 540M610 540L610 603L611 603L611 560L610 540M650 540L650 595L651 595L651 558L650 540M756 540L757 541L756 540M887 540L888 541L887 540M1024 540L1025 541L1024 540M1092 540L1093 541L1092 540M223 541L224 542L223 541M278 541L279 542L278 541M280 541L281 542L280 541M443 541L444 542L443 541M489 541L490 542L489 541M755 541L756 542L755 541M886 541L887 542L886 541M1022 541L1023 542L1022 541M222 542L223 543L222 542M488 542L489 543L488 542M754 542L755 543L754 542M985 542L985 637L986 637L986 571L985 542M1020 542L1021 543L1020 542M1095.67 542.333L1096.33 542.667L1095.67 542.333M221 543L222 544L221 543M444 543L445 544L444 543M487 543L488 544L487 543M753 543L754 544L753 543M1097 543L1098 544L1097 543M219 544L220 545L219 544M486 544L487 545L486 544M883 544L884 545L883 544M1017 544L1018 545L1017 544M218 545L219 546L218 545M445 545L446 546L445 545M751 545L752 546L751 545M217 546L218 547L217 546M485 546L486 547L485 546M882 546L883 547L882 546M446 547L447 548L446 547M484 547L485 548L484 547M750 547L751 548L750 547M1100 547L1101 548L1100 547M1015 548L1016 549L1015 548M447 549L448 550L447 549M880 549L881 550L880 549M1101 549L1102 550L1101 549M448 550L449 551L448 550M747 550L748 551L747 550M214 551L215 552L214 551M449 551L450 552L449 551M877 551L878 552L877 551M1014 551L1015 552L1014 551M213 552L214 553L213 552M450 552L451 553L450 552M744 552L745 553L744 552M876 552L877 553L876 552M1013 552L1014 553L1013 552M479 553L480 554L479 553M743 553L744 554L743 553M1012 553L1013 554L1012 553M1104 553L1105 554L1104 553M451 554L452 555L451 554M1011 554L1012 555L1011 554M874 555L875 556L874 555M1009 555L1010 556L1009 555z"/>
<path style="fill:#a76e7b; stroke:none;" d="M1051 555.468C1044.53 556.74 1035.3 569.563 1042.32 575.142C1047.41 579.187 1066.83 578.433 1072.89 576.566C1080.98 574.076 1075.83 561.992 1071.81 558.228C1066.93 553.654 1057.2 554.25 1051 555.468z"/>
<path style="fill:#fdab15; stroke:none;" d="M211 556L212 557L211 556M477 556L478 557L477 556M742 556L743 557L742 556M1106 556L1107 557L1106 556M873 557L874 558L873 557M1057 557L1057 558L1061 558L1057 557M1107 557L1108 558L1107 557M476 558L477 559L476 558M741.333 558.667L741.667 559.333L741.333 558.667M1052 558L1045 566L1052 558z"/>
<path style="fill:#fcfafa; stroke:none;" d="M1053 559.028C1030.57 570.264 1061.35 580.042 1071.68 572.972C1075.35 570.459 1072.08 566.379 1070.11 564.005C1065.92 558.968 1059.53 555.754 1053 559.028z"/>
<path style="fill:#fdab15; stroke:none;" d="M1065 558L1066 559L1065 558z"/>
<path style="fill:#a76e7b; stroke:none;" d="M260 559.554C230.512 562.804 237.619 609.031 267 605.826C295.42 602.727 289.848 556.264 260 559.554z"/>
<path style="fill:#fdab15; stroke:none;" d="M452 559L452 562L453 562L452 559z"/>
<path style="fill:#a76e7b; stroke:none;" d="M525 559.518C499.405 564.977 505.392 618.64 533.999 612.176C560.25 606.245 555.9 552.927 525 559.518M793 559.519C763.599 565.173 769.929 611.392 801 605.532C826.523 600.719 821.202 554.095 793 559.519z"/>
<path style="fill:#fdab15; stroke:none;" d="M872 559L873 560L872 559z"/>
<path style="fill:#a76e7b; stroke:none;" d="M925 559.519C919.88 560.503 912.994 561.778 909.653 566.109C897.587 581.748 907.515 617.328 930.985 612.362C955.231 607.232 953.605 554.017 925 559.519z"/>
<path style="fill:#fdab15; stroke:none;" d="M1007.33 559.667L1007.67 560.333L1007.33 559.667M1066 559L1067 560L1066 559M1108 559L1109 560L1108 559M210.333 560.667L210.667 561.333L210.333 560.667M475.333 560.667L475.667 561.333L475.333 560.667M1067 560L1068 561L1067 560M1109 560L1110 561L1109 560M1110 561L1111 562L1110 561M740 562L741 563L740 562M871 562L872 563L871 562M1068 562L1069 563L1068 562M1006.33 563.667L1006.67 564.333L1006.33 563.667M1069 563L1070 564L1069 563M1111 563L1112 564L1111 563M209 564L210 565L209 564M255 564L255 565L259 565L255 564z"/>
<path style="fill:#fcfafa; stroke:none;" d="M259 564.441C239.873 567.461 244.243 606.919 267 602.772C278.672 600.645 286.049 583.342 280.543 573.089C276.487 565.537 266.926 563.189 259 564.441z"/>
<path style="fill:#fdab15; stroke:none;" d="M266 564L266 565L270 565L266 564M394.667 564.333L395.333 564.667L394.667 564.333M404.667 564.333L405.333 564.667L404.667 564.333M474 564L475 565L474 564M523.667 564.333L524.333 564.667L523.667 564.333z"/>
<path style="fill:#fcfafa; stroke:none;" d="M525 564.464C504.737 568.145 509.938 612.009 531 608.32C555.28 604.068 552.316 559.502 525 564.464z"/>
<path style="fill:#fdab15; stroke:none;" d="M534.667 564.333L535.333 564.667L534.667 564.333M789 564L789 565L792 565L789 564z"/>
<path style="fill:#fcfafa; stroke:none;" d="M792 564.428C768.124 567.849 775.079 606.512 799 602.786C812.566 600.674 817.789 579.701 809.995 569.34C806.179 564.268 797.761 563.603 792 564.428z"/>
<path style="fill:#fdab15; stroke:none;" d="M800.667 564.333L801.333 564.667L800.667 564.333M921 564L921 565L924 565L921 564z"/>
<path style="fill:#fcfafa; stroke:none;" d="M924 564.429C901.293 567.609 904.02 610.047 928 607.809C950.25 605.733 949.276 560.889 924 564.429z"/>
<path style="fill:#fdab15; stroke:none;" d="M931.667 564.333L932.333 564.667L931.667 564.333M1070 564L1071 565L1070 564M208 565L209 566L208 565M253 565L254 566L253 565M273 565L274 566L273 565M392 565L393 566L392 565M519.667 565.333L520.333 565.667L519.667 565.333M739 565L739 568L740 568L739 565M785 565L786 566L785 565M804.667 565.333L805.333 565.667L804.667 565.333M870.333 565.667L870.667 566.333L870.333 565.667M917 565L918 566L917 565M1071 565L1072 566L1071 565M1112 565L1113 566L1112 565M251 566L252 567L251 566M274 566L275 567L274 566M391 566L392 567L391 566M408 566L409 567L408 566M539 566L540 567L539 566M783 566L784 567L783 566M807 566L808 567L807 566M915 566L916 567L915 566M936 566L937 567L936 566M1072 566L1073 567L1072 566M207 567L208 568L207 567M250 567L251 568L250 567M275 567L276 568L275 567M389 567L390 568L389 567M540 567L541 568L540 567M808 567L809 568L808 567M913 567L914 568L913 567M937 567L938 568L937 567M1005 567L1006 568L1005 567M1044.33 567.667L1044.67 568.333L1044.33 567.667M1073 567L1074 568L1073 567M206 568L207 569L206 568M276 568L277 569L276 568M388 568L389 569L388 568M409 568L410 569L409 568M473 568L474 569L473 568M781 568L782 569L781 568M205.333 569.667L205.667 570.333L205.333 569.667M249 569L250 570L249 569M277 569L278 570L277 569M410.333 569.667L410.667 570.333L410.333 569.667M515 569L516 570L515 569M543 569L544 570L543 569M780 569L781 570L780 569M810 569L811 570L810 569M940 569L941 570L940 569M1113 569L1113 572L1114 572L1113 569M386 570L387 571L386 570M514 570L515 571L514 570M544 570L545 571L544 570M869.333 570.667L869.667 571.333L869.333 570.667M911 570L912 571L911 570M248.333 571.667L248.667 572.333L248.333 571.667M472 571L472 574L473 574L472 571M779 571L780 572L779 571M811 571L812 572L811 571M941 571L942 572L941 571M1004.33 571.667L1004.67 572.333L1004.33 571.667M1044 571L1045 572L1044 571M204 572L205 573L204 572M280 572L281 573L280 572M411 572L411 575L412 575L411 572M545 572L546 573L545 572M738.333 572.667L738.667 573.333L738.333 572.667M910.333 572.667L910.667 573.333L910.333 572.667M1073 572L1074 573L1073 572M942 573L942 576L943 576L942 573M1046 573L1047 574L1046 573M1072 573L1073 574L1072 573M281 574L282 575L281 574M471.333 574.667L471.667 575.333L471.333 574.667M513 574L514 575L513 574M778 574L779 575L778 574M868.333 574.667L868.667 575.333L868.333 574.667M1067 574L1068 575L1067 574M203 575L204 576L203 575M812 575L813 576L812 575M1003 575L1004 576L1003 575M247 576L247 589L248 589L247 576M470 576L471 577L470 576M546.333 576.667L546.667 577.333L546.333 576.667M737.333 576.667L737.667 577.333L737.333 576.667M777.333 576.667L777.667 577.333L777.333 576.667M867.333 576.667L867.667 577.333L867.333 576.667M909 576L910 577L909 576M1114 576L1115 577L1114 576M412 577L412 628L413 628C413 613.689 417.508 590.127 412 577M469 578L470 579L469 578M866 578L867 579L866 578M1002 579L1002 582L1003 582L1002 579M1115 579L1116 580L1115 579M468 580L469 581L468 580M865 580L866 581L865 580M1116.33 581.667L1116.67 582.333L1116.33 581.667M864 583L864 590L865 590L864 583M777.333 587.667L777.667 588.333L777.333 587.667M812.333 588.667L812.667 589.333L812.333 588.667M281 590L282 591L281 590M737.333 590.667L737.667 591.333L737.333 590.667M1002.33 590.667L1002.67 591.333L1002.33 590.667M1116 590L1117 591L1116 590M280 591L281 592L280 591M203 592L204 593L203 592M248.333 592.667L248.667 593.333L248.333 592.667M279 592L280 593L279 592M468 592L469 593L468 592M779 592L780 593L779 592M811 592L812 593L811 592M865 592L866 593L865 592M1115 592L1116 593L1115 592M278 593L279 594L278 593M546 593L546 596L547 596L546 593M1114 593L1115 594L1114 593M277 594L278 595L277 594M780 594L781 595L780 594M866.333 594.667L866.667 595.333L866.333 594.667M909.333 594.667L909.667 595.333L909.333 594.667M1112 594L1113 595L1112 594M249 595L250 596L249 595M276 595L277 596L276 595M469.333 595.667L469.667 596.333L469.333 595.667M513.333 595.667L513.667 596.333L513.333 595.667M810 595L811 596L810 595M942 595L942 598L943 598L942 595M1003.33 595.667L1003.67 596.333L1003.33 595.667M1047.67 595.333L1048.33 595.667L1047.67 595.333M1052 595L1052 596L1110 596L1091 595L1052 595M159 596L160 597L159 596M738 596L738 600L739 600L738 596M867.333 596.667L867.667 597.333L867.333 596.667M1046 596L1047 597L1046 596M160 597L161 598L160 597M204 597L205 598L204 597M250 597L251 598L250 597M275 597L276 598L275 597M470.333 597.667L470.667 598.333L470.333 597.667M809 597L810 598L809 597M1045 597L1046 598L1045 597M162 598L163 599L162 598M274 598L275 599L274 598M514 598L515 599L514 598M545 598L546 599L545 598M651 598L652 599L651 598M782 598L783 599L782 598M808 598L809 599L808 598M910 598L911 599L910 598M164 599L164 600L167 600L164 599M205 599L206 600L205 599M273 599L274 600L273 599M471.333 599.667L471.667 600.333L471.333 599.667M544 599L545 600L544 599M783 599L784 600L783 599M806 599L807 600L806 599M868 599L869 600L868 599M941 599L942 600L941 599M195.667 600.333L196.333 600.667L195.667 600.333M272 600L273 601L272 600M515 600L516 601L515 600M543 600L544 601L543 600M652 600L653 601L652 600M677 600L678 601L677 600M785 600L786 601L785 600M940 600L941 601L940 600M1004 600L1005 601L1004 600M198 601L199 602L198 601M206 601L207 602L206 601M271 601L272 602L271 601M472.333 601.667L472.667 602.333L472.333 601.667M516 601L517 602L516 601M541 601L542 602L541 601M653 601L654 602L653 601M787 601L788 602L787 601M803 601L804 602L803 601M869.333 601.667L869.667 602.333L869.333 601.667M912 601L913 602L912 601M939 601L940 602L939 601M199 602L200 603L199 602M207 602L208 603L207 602M256 602L257 603L256 602M269 602L270 603L269 602M517 602L518 603L517 602M540 602L541 603L540 602M675 602L676 603L675 602M789 602L790 603L789 602M801 602L802 603L801 602M913 602L914 603L913 602M937 602L938 603L937 602M1005 602L1006 603L1005 602M200 603L201 604L200 603M208 603L209 604L208 603M518 603L519 604L518 603M539 603L540 604L539 603M674 603L675 604L674 603M719 603L720 604L719 603M1077 603L1078 604L1077 603M1110 603L1111 604L1110 603M473 604L474 605L473 604M521 604L522 605L521 604M537 604L538 605L537 604M672 604L673 605L672 604M739 604L740 605L739 604M917 604L918 605L917 604M934 604L935 605L934 604M1075 604L1076 605L1075 604M201 605L202 606L201 605M209.333 605.667L209.667 606.333L209.333 605.667M536 605L537 606L536 605M658 605L659 606L658 605M718 605L719 606L718 605M919 605L920 606L919 605M933 605L934 606L933 605M1006 605L1007 606L1006 605M1045 605L1046 606L1045 605M1074 605L1075 606L1074 605M202 606L202 609L203 609L202 606M524 606L525 607L524 606M535 606L536 607L535 606M611.333 606.667L611.667 607.333L611.333 606.667M659 606L660 607L659 606M870 606L870 609L871 609L870 606M921 606L922 607L921 606M932 606L933 607L932 606M1114 606L1115 607L1114 606M525 607L526 608L525 607M534 607L535 608L534 607M660 607L661 608L660 607M668 607L669 608L668 607M740.333 607.667L740.667 608.333L740.333 607.667M922.667 607.333L923.333 607.667L922.667 607.333M931 607L932 608L931 607M1046 607L1047 608L1046 607M1073 607L1074 608L1073 607M474.333 608.667L474.667 609.333L474.333 608.667M526.667 608.333L527.333 608.667L526.667 608.333M531.667 608.333L532.333 608.667L531.667 608.333M662 608L662 609L668 609L662 608M717.333 608.667L717.667 609.333L717.333 608.667M925 608L925 609L930 609L925 608M1072 608L1073 609L1072 608M1007.33 609.667L1007.67 610.333L1007.33 609.667M1048 609L1049 610L1048 609M1071 609L1072 610L1071 609M203.333 610.667L203.667 611.333L203.333 610.667M741 610L742 611L741 610M1050 610L1051 611L1050 610M1069 610L1070 611L1069 610M1114 610L1115 611L1114 610M210.333 611.667L210.667 612.333L210.333 611.667M871 611L872 612L871 611M1053.67 611.333L1054.33 611.667L1053.67 611.333M1065 611L1065 612L1068 612L1065 611M204.333 612.667L204.667 613.333L204.333 612.667M475 612L476 613L475 612M612.333 612.667L612.667 613.333L612.333 612.667M742 612L743 613L742 612M1008 612L1009 613L1008 612M1113 612L1114 613L1113 612M872 613L873 614L872 613M211 614L212 615L211 614M476 614L477 615L476 614M716 614L717 615L716 614M743 614L744 615L743 614M873 614L874 615L873 614M1112 614L1113 615L1112 614M205 615L205 622L206 622L205 615M477 615L478 616L477 615M1011 615L1012 616L1011 615M212 616L213 617L212 616M614 616L615 617L614 616M744 616L745 617L744 616M874 616L875 617L874 616M1012 616L1013 617L1012 616M213 617L214 618L213 617M478 617L479 618L478 617M715 617L716 618L715 617M1109 617L1110 618L1109 617M745 618L746 619L745 618M875 618L876 619L875 618M1014 618L1015 619L1014 618M1108 618L1109 619L1108 618M214 619L215 620L214 619M479 619L480 620L479 619M617 619L618 620L617 619M714 619L715 620L714 619M746 619L747 620L746 619M713 620L714 621L713 620M747 620L748 621L747 620M1015 620L1016 621L1015 620M1106 620L1107 621L1106 620M215 621L216 622L215 621M480 621L481 622L480 621M618 621L619 622L618 621M712 621L713 622L712 621M748 621L749 622L748 621M1105 621L1106 622L1105 621M711 622L712 623L711 622M749 622L750 623L749 622M877 622L878 623L877 622M217 623L218 624L217 623M482 623L483 624L482 623M619 623L620 624L619 623M710 623L711 624L710 623M750 623L751 624L750 623M878 623L879 624L878 623M1017 623L1018 624L1017 623M219 624L220 625L219 624M278.667 624.333L279.333 624.667L278.667 624.333M484 624L485 625L484 624M620 624L621 625L620 624M880 624L881 625L880 624M1018 624L1019 625L1018 624M206 625L206 634L207 634L206 625M221 625L222 626L221 625M277 625L278 626L277 625M281 625L282 626L281 625M485 625L486 626L485 625M621 625L622 626L621 625M1019 625L1020 626L1019 625M222 626L223 627L222 626M276 626L277 627L276 626M622 626L623 627L622 626M808 626L808 627L811 627L808 626M1020 626L1021 627L1020 626M223 627L224 628L223 627M275 627L276 628L275 627M623 627L624 628L623 627M705 627L706 628L705 627M806 627L807 628L806 627M812 627L813 628L812 627M1022 627L1023 628L1022 627M224 628L225 629L224 628M274 628L275 629L274 628M624 628L625 629L624 628M704 628L705 629L704 628M756 628L757 629L756 628M1024 628L1025 629L1024 628M1098 628L1099 629L1098 628M110 629L110 632L111 632L110 629M225 629L226 630L225 629M273 629L274 630L273 629M282 629L282 632L283 632L282 629M385 629L385 632L386 632L385 629M543.667 629.333L544.333 629.667L543.667 629.333M626.667 629.333L627.333 629.667L626.667 629.333M702 629L703 630L702 629M757 629L758 630L757 629M886 629L887 630L886 629M1027 629L1028 630L1027 629M1096 629L1097 630L1096 629M272 630L273 631L272 630M413.333 630.667L413.667 631.333L413.333 630.667M629.667 630.333L630.333 630.667L629.667 630.333M700 630L701 631L700 630M759 630L760 631L759 630M813 630L814 631L813 630M853.333 630.667L853.667 631.333L853.333 630.667M938 630L939 631L938 630M942 630L943 631L942 630M1094 630L1095 631L1094 630M491 631L492 632L491 631M546 631L547 632L546 631M631 631L632 632L631 631M698 631L699 632L698 631M761 631L762 632L761 631M802 631L803 632L802 631M1093 631L1094 632L1093 631M228 632L229 633L228 632M271 632L272 633L271 632M322.333 632.667L322.667 633.333L322.333 632.667M540 632L541 633L540 632M632 632L633 633L632 632M697 632L698 633L697 632M762 632L763 633L762 632M888 632L889 633L888 632M111 633L112 634L111 633M229 633L230 634L229 633M270 633L271 634L270 633M414 633L415 634L414 633M452 633L453 634L452 633M492 633L493 634L492 633M633 633L634 634L633 633M696 633L697 634L696 633M814 633L815 634L814 633M889 633L890 634L889 633M936 633L937 634L936 633M943 633L943 642L944 642L943 633M112 634L113 635L112 634M205 634L205 637L206 637L205 634M230 634L231 635L230 634M269 634L270 635L269 634M283 634L284 635L283 634M321 634L322 635L321 634M344 634L345 635L344 634M384 634L385 635L384 634M493 634L494 635L493 634M539 634L540 635L539 634M634 634L635 635L634 634M695 634L696 635L695 634M800 634L801 635L800 634M852 634L853 635L852 634M890 634L891 635L890 634M1032 634L1033 635L1032 634M1091 634L1092 635L1091 634M113 635L114 636L113 635M232 635L233 636L232 635M267 635L268 636L267 635M284 635L285 636L284 635M320 635L321 636L320 635M383 635L384 636L383 635M451 635L452 636L451 635M495 635L496 636L495 635M538 635L539 636L538 635M635 635L636 636L635 635M694 635L695 636L694 635M799 635L800 636L799 635M816 635L817 636L816 635M851 635L852 636L851 635M892 635L893 636L892 635M935 635L936 636L935 635M1034 635L1035 636L1034 635M1090 635L1091 636L1090 635M114 636L115 637L114 636M235.667 636.333L236.333 636.667L235.667 636.333M264 636L265 637L264 636M286 636L286 637L313 637L286 636M314 636L314 637L318 637L314 636M349 636L349 637L382 637L349 636M418 636L418 637L443 637L418 636M447.667 636.333L448.333 636.667L447.667 636.333M498.667 636.333L499.333 636.667L498.667 636.333M536 636L537 637L536 636M638.667 636.333L639.333 636.667L638.667 636.333M691 636L692 637L691 636M767 636L768 637L767 636M797 636L798 637L797 636M818 636L818 637L821 637L818 636M824 636L824 637L850 637L824 636M895.667 636.333L896.333 636.667L895.667 636.333M933 636L934 637L933 636M1037.67 636.333L1038.33 636.667L1037.67 636.333M1087 636L1088 637L1087 636M204 637L205 638L204 637M240.667 637.333L241.333 637.667L240.667 637.333M262 637L263 638L262 637M504 637L504 638L507 638L504 637M530 637L530 638L533 638L530 637M644 637L644 638L650 638L644 637M683 637L683 638L686 638L683 637M771 637L771 638L774 638L771 637M794 637L795 638L794 637M900 637L900 638L903 638L900 637M926 637L926 638L929 638L926 637M1042 637L1042 638L1046 638L1042 637M1079 637L1079 638L1082 638L1079 637M117 638L118 639L117 638M203.333 638.667L203.667 639.333L203.333 638.667M245 638L246 639L245 638M509 638L510 639L509 638M527 638L528 639L527 638M588.333 638.667L588.667 639.333L588.333 638.667M653 638L654 639L653 638M679.667 638.333L680.333 638.667L679.667 638.333M776 638L777 639L776 638M791 638L792 639L791 638M905 638L906 639L905 638M924 638L925 639L924 638M1049 638L1050 639L1049 638M1075.67 638.333L1076.33 638.667L1075.67 638.333M118.667 639.333L119.333 639.667L118.667 639.333M248 639L249 640L248 639M259 639L260 640L259 639M511 639L512 640L511 639M524 639L525 640L524 639M655 639L656 640L655 639M674 639L674 640L677 640L674 639M779 639L780 640L779 639M789 639L790 640L789 639M907 639L908 640L907 639M921 639L922 640L921 639M1051 639L1052 640L1051 639M1070 639L1070 640L1073 640L1070 639M120 640L121 641L120 640M121 641L121 642L176 643L203 641L180 642L121 641M251 640L251 641L258 641L251 640M514 640L514 641L522 641L514 640M658 640L658 641L671 641L658 640M782 640L782 641L787 641L782 640M910 640L910 641L918 641L910 640M1054 640L1054 641L1067 641L1054 640M546 641L546 644L547 644L546 641M984 641L984 644L985 644L984 641M587 643L587 646L588 646L587 643M477 646L477 647L504 647L477 646M505 646L505 647L509 647L505 646M545 646L546 647L545 646M874 646L874 647L899 647L874 646M903.667 646.333L904.333 646.667L903.667 646.333M942 646L943 647L942 646M474 647L475 648L474 647M510 647L511 648L510 647M544 647L545 648L544 647M871 647L872 648L871 647M941 647L942 648L941 647M983.333 647.667L983.667 648.333L983.333 647.667M471 648L472 649L471 648M543 648L544 649L543 648M586 648L587 649L586 648M869 648L870 649L869 648M940 648L941 649L940 648M470 649L470 652L471 652L470 649M542 649L543 650L542 649M868 649L869 650L868 649M939 649L940 650L939 649M513 650L514 651L513 650M867.333 650.667L867.667 651.333L867.333 650.667M909 650L910 651L909 650M937 650L938 651L937 650M982.333 650.667L982.667 651.333L982.333 650.667M539 651L540 652L539 651M910 651L911 652L910 651M471.333 652.667L471.667 653.333L471.333 652.667M538 652L539 653L538 652M585.333 652.667L585.667 653.333L585.333 652.667M868.333 652.667L868.667 653.333L868.333 652.667M911 652L912 653L911 652M537 653L538 654L537 653M912 653L913 654L912 653M981.333 653.667L981.667 654.333L981.333 653.667M472.333 654.667L472.667 655.333L472.333 654.667M536 654L537 655L536 654M913 654L914 655L913 654M518 655L519 656L518 655M535 655L536 656L535 655M869.333 655.667L869.667 656.333L869.333 655.667M914 655L915 656L914 655M519.667 656.333L520.333 656.667L519.667 656.333M534 656L535 657L534 656M915.667 656.333L916.333 656.667L915.667 656.333M930 656L931 657L930 656M473 657L474 658L473 657M523 657L523 658L531 658L523 657M919 657L919 658L927 658L919 657M584 658L585 659L584 658M870 658L871 659L870 658M980 658L981 659L980 658M474 660L475 661L474 660M583 660L584 661L583 660M582 661L583 662L582 661M871 661L872 662L871 661M475 662L476 663L475 662M580 662L581 663L580 662M579 663L580 664L579 663M872 663L873 664L872 663M976 663L977 664L976 663M578 664L579 665L578 664M873 664L874 665L873 664M975 664L976 665L975 664M577 665L578 666L577 665M874 665L875 666L874 665M974 665L975 666L974 665M973.333 666.667L973.667 667.333L973.333 666.667M479 667L480 668L479 667M576 667L577 668L576 667M875 667L876 668L875 667M480 669L481 670L480 669M575 669L576 670L575 669M876 669L877 670L876 669M972 669L973 670L972 669M877 670L878 671L877 670M482 671L483 672L482 671M574 671L575 672L574 671M971 671L972 672L971 671M484 672L485 673L484 672M573 672L574 673L573 672M485 673L486 674L485 673M572 673L573 674L572 673M882 673L883 674L882 673M571 674L572 675L571 674M883 674L884 675L883 674M967 674L968 675L967 674M488 675L489 676L488 675M569 675L570 676L569 675M489 676L490 677L489 676M567 676L568 677L567 676M886 676L887 677L886 676M963 676L964 677L963 676M491 677L492 678L491 677M564 677L565 678L564 677M961 677L962 678L961 677M493 678L494 679L493 678M959 678L960 679L959 678M495 679L496 680L495 679M891 679L892 680L891 679M958 679L959 680L958 679M957 680L958 681L957 680M956 681L957 682L956 681M498 682L499 683L498 682M559 682L560 683L559 682M955 682L956 683L955 682M557 683L558 684L557 683M954 683L955 684L954 683M501.667 684.333L502.333 684.667L501.667 684.333M553.667 684.333L554.333 684.667L553.667 684.333M898.667 684.333L899.333 684.667L898.667 684.333M949.667 684.333L950.333 684.667L949.667 684.333M506 685L506 686L511 686L506 685M547 685L547 686L551 686L547 685M906.667 685.333L907.333 685.667L906.667 685.333M943 685L943 686L947 686L943 685M514 686L515 687L514 686M542 686L543 687L542 686M910 686L911 687L910 686M938 686L939 687L938 686M516.667 687.333L517.333 687.667L516.667 687.333M540 687L541 688L540 687M912.667 687.333L913.333 687.667L912.667 687.333M936 687L937 688L936 687M521 688L521 689L525 689L521 688M535 688L535 689L538 689L535 688M917 688L917 689L921 689L917 688M931 688L931 689L934 689L931 688z"/>
</svg>
