<?xml version="1.0" standalone="yes"?>
<svg xmlns="http://www.w3.org/2000/svg" width="1440" height="1440">
<path style="fill:#fffefd; stroke:none;" d="M0 0L0 1440L1440 1440L1440 0L0 0z"/>
<path style="fill:#f6c5a4; stroke:none;" d="M784 21.4244C766.639 23.7036 748.503 21.567 731 22.3657C671.445 25.0835 611.44 24.0183 552 28.0895C526.845 29.8124 503.667 36.0165 479 40.385C461.172 43.5425 442.839 42.0953 425 45.4598C413.353 47.6565 403.344 53.6191 392 56.5216C380.878 59.3672 369.151 58.7708 358 61.9236C351.548 63.7478 346.181 68.0409 340 70.547C331.272 74.0856 321.696 74.7339 313 78.2577C307.594 80.4485 303.952 84.7703 299 87.6366C292.148 91.6024 283.787 91.5537 277 95.6128C252.926 110.011 232.41 128.383 216.211 151C212.732 155.859 207.678 159.398 205.272 165C200.041 177.186 200 194.894 200 208C200 222.634 200.439 241.671 211.105 252.961C230.376 273.359 254.907 272.295 279 264.885C286.67 262.526 295.392 261.105 301.961 256.211C323.787 239.947 339.337 214.737 362 199.703C367.232 196.232 374.227 195.88 380 193.547C392.71 188.41 401.07 183.38 415 181.714C438.059 178.957 461.775 180 485 180C492.878 180 504.873 178.638 506.772 189.001C511.098 212.619 497.654 233.761 493.46 256C490.915 269.494 492.059 283.687 489.334 297C486.508 310.809 479.443 322.981 477.081 337C474.855 350.211 475.47 363.921 472.714 377C470.302 388.444 463.412 398.322 461.435 410C459.195 423.231 459.43 436.961 456.346 450C453.422 462.361 447.218 473.41 444.805 486C442.531 497.863 443.294 510.332 440.334 522C437.862 531.746 431.877 540.126 429.665 550C427.01 561.854 427.913 574.256 425.101 586C422.745 595.842 416.634 604.19 414.239 614C411.337 625.887 411.96 638.227 409.1 650C406.787 659.522 400.613 667.57 397.91 677C394.726 688.105 395.373 699.939 392.254 711C390.285 717.984 385.362 723.273 382.877 730C379.059 740.332 379.75 751.579 376.557 762C374.141 769.886 368.281 776.182 365.544 784C362.937 791.448 363.426 799.707 360.521 807C358.137 812.983 353.006 817.141 350.468 823C342.081 842.362 335.9 862.508 327.731 882C325.107 888.263 319.677 892.718 317.094 899C314.71 904.799 314.718 911.312 312.084 917C309.333 922.941 303.919 927.042 301.248 933C298.802 938.455 298.953 944.62 296.33 950C293.717 955.359 288.694 958.804 285.999 964.015C283.089 969.642 283.102 976.317 280.33 982C277.411 987.985 271.562 991.796 269.119 998.001C267.092 1003.15 267.049 1009.1 264.431 1014C261.638 1019.22 256.589 1022.73 253.825 1028C251 1033.38 250.923 1039.61 248.164 1045C245.608 1049.99 240.87 1053.21 238.086 1058C234.867 1063.54 234.429 1070.31 231.573 1076C228.944 1081.24 224.206 1084.92 221.349 1090C211.075 1108.27 202.125 1126.95 191.119 1145C188.055 1150.03 187.229 1156.03 184.031 1161C181.02 1165.68 176.4 1168.99 173.836 1174C171.391 1178.78 171.132 1184.32 168.467 1189C165.746 1193.78 161.009 1196.58 157.966 1201.04C150.225 1212.38 144.503 1225.2 137.637 1237C130.253 1249.69 118.322 1260.06 110.88 1273C99.8789 1292.12 97.7741 1315.62 98.9645 1337C100.743 1368.93 107.951 1409.79 145 1415.56C186.715 1422.06 225.152 1376.06 247.043 1347C289.039 1291.24 325.213 1231.36 354.676 1168C357.354 1162.24 357.897 1155.78 360.518 1150C363.13 1144.24 367.943 1139.78 370.468 1134C373.083 1128.01 373.164 1121.14 375.387 1115C377.725 1108.55 383.376 1104.27 386.045 1098C388.906 1091.28 388.887 1083.67 391.904 1077C395.059 1070.02 400.29 1064.3 402.91 1057C405.593 1049.52 405.7 1041.33 408.88 1034C411.377 1028.24 416.091 1023.91 418.289 1018C421.059 1010.55 421.252 1002.47 424.065 995C426.844 987.617 431.85 981.445 434.456 974C437.185 966.203 436.621 957.739 439.388 950C441.839 943.143 447.253 937.917 449.641 931C452.881 921.616 452.154 911.209 455.559 902C457.944 895.551 462.95 890.517 465.301 884C468.92 873.968 468.453 863.053 471.749 853C474.087 845.872 479.033 840.073 481.561 833C485.024 823.311 484.548 812.808 487.439 803C490.029 794.215 495.596 786.778 498.229 778C501.352 767.589 500.979 756.427 503.924 746C506.135 738.168 511.625 731.859 513.845 724C516.81 713.499 516.472 702.475 519.428 692C521.905 683.225 527.376 675.743 529.845 667C533.086 655.525 532.962 643.463 536.159 632C538.427 623.866 543.968 617.25 546.255 609C549.246 598.207 548.882 586.77 551.924 576C554.681 566.237 560.809 558.096 562.985 548C565.041 538.467 564.614 528.405 567.159 519C569.375 510.811 574.848 504.067 577.48 496C581.271 484.379 580.97 471.824 583.899 460C585.928 451.806 591.232 445.062 593.572 437C597.086 424.888 596.507 412.099 599.924 400C602.88 389.531 609.36 380.89 611.551 370C613.405 360.786 612.703 351.078 615.159 342C617.547 333.17 623.412 325.867 625.842 317C629.253 304.551 628.731 291.251 632.749 279C635.367 271.018 640.376 264.282 642.346 256C645.019 244.758 645.234 233.128 648.427 222C650.849 213.563 656.177 206.486 658.572 198C660.909 189.716 660.288 177.88 666.394 171.214C672.892 164.12 685.348 165.736 694 164.714C719.192 161.741 744.756 162.233 770 159.83C845.094 152.683 922.959 153.659 998 160.83C1037.01 164.558 1074.36 163.753 1110 181.996C1124.42 189.376 1130.01 202.45 1133.63 217C1135.99 226.496 1139.64 236.127 1139.96 246C1140.36 258.749 1135.67 271.573 1133.42 284C1131.7 293.522 1131.75 303.733 1128.96 313C1126.9 319.826 1121.83 324.685 1118.79 331C1115.68 337.442 1114.45 344.639 1111.18 351C1104.49 364.003 1095.66 375.278 1087.44 387.089C1079.16 398.985 1072.77 412.355 1063.64 423.675C1056.49 432.547 1047.1 439.89 1039.32 448.174C1020.93 467.772 1002.39 488.202 982 505.791C949.018 534.236 912.954 556.209 874 574.324C867.894 577.164 863.265 582.429 857 584.881C849.021 588.005 840.087 587.659 832 590.547C824.307 593.294 817.882 598.632 810 600.957C800.928 603.633 791.174 602.712 782 604.899C771.099 607.498 761.736 613.425 751 616.265C741.485 618.783 731.418 618.897 722 621.721C714.044 624.108 707.629 629.203 700 632.24C692.915 635.06 684.92 634.99 678 638.189C673.093 640.458 669.556 644.706 665 647.532C659.142 651.166 652.551 653.143 647 657.339C632.663 668.177 625.113 682.03 616.471 697C614.035 701.22 610.166 704.482 608.225 709C600.66 726.603 613.397 739.533 631 735.471C637.234 734.032 641.926 729.306 648 727.443C656.735 724.764 666.175 724.93 675 722.279C682.608 719.993 688.525 714.643 696 712.217C706.725 708.736 718.844 708.811 730 707.914C743.781 706.807 759.039 705.059 770.985 713.789C781.895 721.761 790.623 736.056 796.32 748C800.406 756.566 807.636 762.326 809.384 772C814.177 798.514 814.179 834.625 808.714 861C806.05 873.859 799.06 885.017 796.611 898C794.987 906.609 794.997 915.628 792.251 924C789.493 932.407 783.862 939.378 781.428 948C778.562 958.157 778.698 968.985 775.239 979C773.045 985.352 768.447 990.558 766.442 997C762.984 1008.11 763.117 1019.93 759.792 1031C757.058 1040.1 751.058 1047.58 749.015 1057C746.438 1068.88 746.551 1081.16 743.522 1093C741.143 1102.29 736.225 1110.53 734.211 1120C731.098 1134.64 731.923 1149.22 730.911 1164C729.131 1189.99 727.249 1220.61 734.159 1246C736.206 1253.52 740.754 1259.92 743.826 1267C746.894 1274.07 746.913 1282.09 750.378 1289C756.938 1302.08 767.695 1313.25 776.214 1325C790.626 1344.88 806.506 1355.82 827 1368.47C831.874 1371.48 835.556 1375.67 841 1377.77C851.806 1381.93 863.808 1381.31 875 1383.89C886.475 1386.53 898.094 1390.66 910 1390.66C919.076 1390.66 926.519 1386.86 935 1384.43C967.457 1375.12 991.435 1357 1018 1336.53C1029.31 1327.81 1042.77 1321.49 1053.96 1312.47C1063.47 1304.8 1071.45 1294.97 1081 1287.39C1098.09 1273.84 1116.99 1262.46 1133.96 1248.48C1154.56 1231.51 1174.37 1212.53 1194.17 1194.62C1211.42 1179.02 1228.16 1163.14 1245.04 1147.17C1255.11 1137.64 1266.63 1126.47 1263.77 1111C1261.71 1099.83 1244.35 1102.16 1237 1105.83C1224.97 1111.84 1215.97 1121.61 1205 1128.9C1193.24 1136.71 1179.8 1142.85 1169.09 1152.33C1149.51 1169.66 1128.65 1183.56 1108 1199.53C1097.65 1207.53 1088.59 1217.82 1078 1225.36C1067.35 1232.95 1054.95 1238.63 1044 1245.95C1019.98 1262.02 994.325 1278.64 966 1286.96C946.177 1292.78 926.04 1285.97 908 1279.06C901.455 1276.56 893.64 1275.91 888.039 1271.47C876.535 1262.34 871.683 1252.14 864.79 1240C861.696 1234.55 857.318 1230.12 855.443 1224C852.155 1213.28 853 1200.14 853 1189C853 1171.74 851.432 1152.83 855.924 1136C858.237 1127.33 863.13 1119.62 865.572 1111C868.743 1099.81 868.321 1088.25 870.888 1077C873.01 1067.71 878.289 1059.97 881.112 1051C884.736 1039.48 884.194 1027.65 886.669 1016C888.86 1005.69 895.568 997.197 898.265 987C901.379 975.23 900.367 962.71 903.378 951C905.726 941.868 911.394 934.19 913.845 925C917.185 912.476 916.143 899.521 918.665 887C921.033 875.247 927.181 864.773 929.551 853C933.707 832.352 933 810.957 933 790C933 774.701 935.007 756.582 929.437 742C927.321 736.462 922.639 732.395 920.184 727C917.39 720.859 916.745 713.673 912.891 708.039C909.147 702.567 902.986 698.954 898.576 694C890.255 684.653 880.101 684.583 870.004 678.637C866.408 676.519 861.945 672.52 864.647 668.043C869.29 660.352 881.866 660.334 889 655.871C910.778 642.247 933.73 629.258 956 616.532C960.762 613.811 966.347 613.025 971 610.031C1043 563.703 1113.26 515.62 1175.17 455.289C1189.12 441.695 1204.33 428.262 1216.47 412.985C1247.67 373.739 1277.7 332.227 1298.68 287C1301.91 280.025 1301.75 272.051 1304.79 265C1307.12 259.576 1311.72 255.53 1313.88 250C1323.71 224.885 1323.31 195.755 1319.3 170C1318.05 162.032 1318.17 153.517 1314.89 146C1312.71 140.992 1308.29 137.44 1305.22 133C1291.21 112.767 1276.68 101.369 1256 88.5323C1250.99 85.4222 1247.34 80.5051 1242 77.9159C1236.28 75.1417 1229.79 74.8717 1224 72.3202C1217.59 69.4969 1212.65 64.3767 1206 62.0154C1197.01 58.823 1187.19 58.4414 1178 55.8448C1167.61 52.9102 1158.77 46.8702 1148 44.6659C1134.56 41.9139 1120.43 43.2008 1107 40.3311C1091.78 37.0791 1077.58 31.1544 1062 29.2855C1015.12 23.6599 967.151 25.9526 920 23.9607C894.689 22.8914 869.307 23.069 844 21.9607C824.483 21.106 803.479 18.8671 784 21.4244z"/>
<path style="fill:#f19d64; stroke:none;" d="M740 30.4244C723.718 32.537 706.416 31 690 31C657.255 31 623.671 30.8518 591 33.0895C559.579 35.2416 529.206 41.9706 498 45.7145C478.378 48.0686 458.492 47.5984 439 51.2607C427.639 53.3954 417.288 58.8949 406 61.1929C394.802 63.4727 383.008 63.3258 372 66.4282C364.133 68.6453 357.54 73.0626 350 75.9343C341.583 79.1401 332.443 79.3062 324 82.3835C312.664 86.5155 302.495 93.4009 291 97.71C284.279 100.229 279.098 105.439 273 109.071C251.809 121.691 234.446 136.125 221.031 157C217.677 162.22 212.776 166.018 210.559 172C206.845 182.025 207 194.451 207 205C207 223.263 206.863 237.526 221.039 250.895C229.597 258.966 242.798 260.004 254 260C265.419 259.996 280.654 258.799 291 253.622C318.115 240.054 332.699 209.714 358 193.995C381.832 179.188 405.034 177.159 432 173.576C451.916 170.929 471.064 171.664 491 171.997C501.329 172.169 512.769 175.127 514.493 187C515.508 193.989 513.119 202.961 512.286 210C509.82 230.832 503.956 248.756 499.425 269C495.881 284.833 496.152 301.12 492.789 317C490.189 329.281 484.651 340.667 482.2 353C479.507 366.55 479.973 380.545 476.625 394C474.078 404.234 468.991 413.679 466.804 424C463.798 438.188 464.099 452.858 460.764 467C458.008 478.684 452.05 489.085 449.804 501C447.683 512.252 447.828 523.831 445.102 535C442.331 546.35 436.467 556.562 433.888 568C431.297 579.492 431.617 591.456 428.762 603C426.195 613.374 420.253 622.528 417.749 633C415.245 643.472 416.029 654.544 413.076 665C410.535 673.998 404.991 681.907 402.428 691C399.85 700.147 400.268 709.811 397.844 719C395.403 728.255 389.697 735.969 386.749 745C384.105 753.098 384.101 761.796 381.842 770C379.449 778.69 373.501 785.61 370.442 794C367.966 800.794 368.08 808.265 365.391 815C362.661 821.839 357.267 827.256 354.36 834C351.472 840.696 351.535 848.332 348.481 855C345.978 860.468 341.289 864.452 338.88 870C335.944 876.76 335.782 884.412 332.326 891C329.691 896.025 325.275 899.774 322.904 905C320.147 911.078 320.008 917.969 317.084 924C314.582 929.162 309.96 932.852 307.378 938C304.361 944.014 304.069 950.994 301.004 957C293.017 972.65 283.285 987.334 275.377 1003C272.49 1008.72 272.039 1015.41 268.929 1021C266.306 1025.72 261.995 1029.26 259.416 1034C256.515 1039.33 256.35 1045.68 253.558 1051C250.851 1056.16 246.016 1059.85 243.185 1065C240.416 1070.04 240.008 1075.83 237.647 1081C235.159 1086.45 230.236 1089.93 227.225 1095C224.088 1100.28 223.68 1106.69 220.633 1112C217.697 1117.12 212.769 1120.65 210.138 1126C198.836 1148.99 187.007 1173.29 173.031 1195C170.183 1199.42 165.817 1202.58 162.969 1207C159.96 1211.67 159.035 1217.32 156.031 1222C145.818 1237.9 134.853 1253.18 124.613 1269C120.996 1274.59 115.465 1278.63 113.094 1285C107.908 1298.93 109 1315.41 109 1330C109 1353.1 108.33 1378.07 123.7 1396C129.672 1402.97 133.474 1407.47 143 1408.71C160.703 1411.02 170.996 1404.73 185 1395.54C208.517 1380.12 226.641 1360.49 243.378 1338C251.486 1327.1 261.581 1317.13 269.034 1305.99C277.328 1293.59 283.204 1279.47 291.133 1267C293.936 1262.59 298.427 1259.58 300.954 1254.99C303.718 1249.96 304.145 1243.98 306.966 1239C309.552 1234.43 313.984 1231.46 316.637 1226.99C320.137 1221.09 320.519 1214.02 323.8 1208C326.757 1202.58 331.873 1198.79 334.235 1193C336.477 1187.51 336.745 1181.35 339.427 1176C341.995 1170.88 346.593 1167.15 349.084 1162C351.854 1156.27 351.918 1149.8 354.349 1144C356.991 1137.69 362.305 1133.19 365.095 1127C367.805 1120.98 367.745 1114.14 370.118 1108C372.782 1101.11 378.212 1095.77 381.121 1089C384.007 1082.28 384.422 1074.82 387.069 1068C389.465 1061.83 394.112 1056.99 396.815 1051C400.255 1043.38 400.063 1034.77 403.069 1027C405.701 1020.2 410.895 1014.81 413.532 1008C416.518 1000.29 416.291 991.726 419.232 984C421.799 977.257 426.891 971.823 429.239 965C432.03 956.893 432.021 948.098 434.865 940C437.823 931.577 443.456 924.64 445.961 916C448.051 908.788 448.019 901.168 450.358 894C453.33 884.891 459.274 877.231 461.961 868C464.338 859.832 464.15 851.13 466.746 843C469.438 834.571 475.033 827.47 477.56 819C480.378 809.555 480.226 799.465 483.036 790C485.636 781.243 490.962 773.717 493.56 765C496.28 755.875 495.861 746.15 498.428 737C501.274 726.86 507.302 718.207 509.985 708C512.468 698.555 512.217 688.474 514.757 679C517.198 669.893 523.048 662.128 525.511 653C528.343 642.504 528.195 631.483 531.155 621C533.331 613.294 537.976 606.601 540.481 599C544.221 587.648 544.007 575.497 547.158 564C549.554 555.258 554.814 547.693 557.254 539C560.183 528.563 559.491 517.384 562.569 507C565.445 497.3 571.207 488.77 573.841 479C576.658 468.553 576.275 457.473 579.158 447C581.638 437.992 587.02 430.058 589.572 421C592.307 411.294 592.213 400.867 594.425 391C596.574 381.412 602.205 373.346 604.845 364C607.809 353.503 607.404 342.496 610.156 332C612.718 322.229 617.935 313.591 620.971 304C624.453 293 624.051 281.183 626.896 270C629.464 259.906 635.265 251.068 637.985 241C640.736 230.821 640.364 220.156 643.439 210C645.779 202.274 650.74 195.655 653.251 188C655.716 180.484 655.27 171.149 661.214 165.214C667.976 158.461 681.102 159.011 690 157.729C715.591 154.042 741.177 150.092 767 148.961C821.924 146.555 876.939 144.549 932 146.961C964.402 148.38 995.948 148.014 1028 154.197C1049.19 158.285 1075.65 156.338 1095 166.259C1107.95 172.899 1121.19 178.672 1130.79 190C1135.26 195.284 1136.54 201.842 1139.31 208C1153.51 239.527 1149.38 262.969 1139.35 295C1136.49 304.109 1136.68 314.013 1133.45 323C1131.25 329.125 1126.43 333.382 1123.41 339C1120.21 344.966 1120.03 352.005 1117 358C1114.34 363.279 1109.52 366.97 1106.48 372C1054.38 458.141 974.259 535.748 883 578.912C876.958 581.77 872.157 586.801 866 589.468C858.775 592.599 850.431 592.963 843 595.696C836.382 598.13 830.739 602.605 824 604.783C814.244 607.937 803.888 607.764 794 610.13C784.13 612.493 775.676 617.829 766 620.572C755.87 623.443 745.236 623.809 735 626.236C726.268 628.306 719.345 633.916 711 636.91C703.534 639.588 695.383 639.552 688 642.464C659.065 653.879 628.556 678.503 619.22 709C616.994 716.271 619.65 723.251 628 723.88C639.243 724.727 656.418 720.117 667 716.301C673.644 713.905 679.304 709.418 686 707.101C694.873 704.031 704.787 703.89 714 702.411C726.344 700.428 739.43 696.202 752 698.465C777.14 702.989 791.44 721.656 802.374 743C805.52 749.14 811.232 753.429 813.613 760C820.449 778.866 819.136 805.187 817.914 824.999C816.839 842.422 817.211 860.944 813.101 878C810.584 888.447 804.424 897.519 801.899 908C799.917 916.228 799.879 924.823 797.572 933C794.888 942.51 788.854 950.569 786.042 960C783.528 968.434 783.717 977.466 781.522 986C779.207 995 773.076 1002.16 770.44 1011C767.331 1021.42 767.579 1032.51 764.573 1043C762.264 1051.05 757.42 1057.94 755.155 1066C751.489 1079.04 751.606 1092.77 748.789 1106C746.256 1117.89 741.142 1128.9 739.275 1141C735.044 1168.4 733.44 1201.71 739.004 1229C741.008 1238.83 746.129 1247.45 748.964 1257C750.997 1263.85 751.316 1271.35 753.979 1278C760.122 1293.34 771.802 1306.08 781.214 1319C791.253 1332.78 804.47 1347.68 819 1357.03C823.638 1360.02 829.161 1360.79 834 1363.33C857.443 1375.63 883.989 1381.01 911 1379.96C951.4 1378.39 981.088 1354.97 1012.04 1331.79C1050.72 1302.82 1089.37 1274.11 1127 1243.53C1143.07 1230.48 1157.34 1213.9 1174.01 1201.9C1195.94 1186.11 1217.4 1165.27 1235.3 1145.01C1241.24 1138.29 1252.89 1132.96 1250.59 1122.02C1248.02 1109.77 1231.19 1118.13 1225 1122.13C1202.15 1136.9 1178.1 1154.14 1157.09 1171.53C1115.15 1206.24 1072 1239.83 1025 1266.96C1014.18 1273.2 1004.09 1277.83 993 1283.38C985.772 1286.99 980.07 1291.86 972 1293.76C928.171 1304.08 884.074 1286.18 860.672 1249C857.277 1243.61 852.652 1239.19 850.599 1233C847.423 1223.42 847.591 1212.93 846.911 1203C845.139 1177.15 844.704 1148.37 850.898 1123C853.682 1111.6 859.992 1101.53 862.489 1090C864.71 1079.75 864.409 1069.13 867.44 1059C870.324 1049.36 875.736 1040.87 878.101 1031C880.633 1020.43 880.413 1009.52 883.427 999C885.899 990.378 890.888 982.701 893.104 974C896.117 962.175 895.922 949.834 898.895 938C901.493 927.66 907.238 918.428 909.575 908C912.438 895.224 912.273 881.895 914.614 869C916.658 857.742 921.299 847.194 923.551 836C926.723 820.233 927.001 804.023 927 788C926.998 753.394 915.251 721.492 890 697.975C886.625 694.832 883.237 691.522 879 689.554C869.291 685.044 843.458 683.162 852.689 665.015C857.945 654.682 873.266 656.563 882 650.306C890.453 644.251 899.383 642.151 908 637.02C935.202 620.822 963.187 605.987 990 589.035C1086.16 528.238 1177.38 455.586 1245.36 362.985C1253.88 351.378 1259.55 338.151 1266.93 326.004C1269.88 321.152 1274.92 318.012 1277.56 312.999C1280.51 307.406 1280.68 300.707 1283.52 295C1286.05 289.911 1290.46 286.076 1293 281C1296.55 273.898 1296.1 265.356 1299.09 258C1302.07 250.666 1307.23 244.638 1309.65 237C1315.6 218.214 1314.42 196.354 1313.09 177C1312.53 168.857 1312.81 159.633 1309.47 152C1307.24 146.926 1302.95 143.425 1299.79 139C1285.32 118.752 1269.86 105.934 1249 93.007C1243.76 89.7617 1239.71 85.1072 1234 82.5178C1227.95 79.7756 1221.15 79.4125 1215 76.9066C1208.64 74.3129 1203.46 69.4664 1197 67.0934C1188.04 63.7999 1178.21 63.8175 1169 61.5247C1158.98 59.032 1150.02 53.5997 1140 51.2361C1122.72 47.1616 1104.54 47.39 1087 44.8689C1064.42 41.6219 1042.92 35.3507 1020 33.1698C974.762 28.8643 928.453 31.5366 883 30.9961C850.74 30.6124 818.352 30 786 30C770.969 30 754.883 28.4933 740 30.4244z"/>
<path style="fill:#f08034; stroke:none;" d="M664 35.4244C644.923 37.929 625.169 35.3453 606 37.1698C578.797 39.7588 552.155 46.1919 525 48.8302C505.409 50.7336 485.502 49.7252 466 52.2893C450.307 54.3527 436.282 60.5939 421 64.1127C407.813 67.1492 394.114 66.1055 381 69.4784C372.993 71.5377 366.672 76.7103 359 79.4529C349.636 82.7999 339.292 82.2684 330 85.7107C323.009 88.3005 317.928 94.177 311 96.8811C302.519 100.191 294.452 100.607 287 106.453C274.056 116.607 258.697 122.358 246.04 133.329C223.027 153.276 211 178.829 211 209C211 226.365 212.737 239.134 228.039 250.197C235.584 255.651 246.232 254 255 254C264.046 254 275.517 254.685 284 251.235C289.65 248.938 293.227 244.16 298 240.61C308.447 232.84 318.685 225.322 327.826 215.907C335.522 207.981 342.77 198.21 352.039 191.969C356.328 189.082 361.583 188.18 366 185.521C371.169 182.409 375.174 177.624 381 175.61C398.906 169.418 421.238 168.997 440 165.614C459.215 162.15 483.068 160.079 502 166.054C510.152 168.626 520.186 176.01 521.492 185C522.627 192.823 517.545 203.052 516.424 211C514.509 224.589 515.409 238.536 512.489 252C510.248 262.335 504.902 271.709 502.374 282C498.568 297.495 499.932 313.472 496.715 329C494.465 339.859 488.539 349.327 485.899 360C482.409 374.108 483.867 388.833 480.996 403C478.59 414.876 472.067 425.195 469.425 437C466.477 450.177 467.845 463.897 464.764 477C462.375 487.158 456.46 495.922 453.896 506C450.537 519.202 451.874 532.797 448.764 546C446.53 555.484 440.711 563.62 438.159 573C434.782 585.412 436.084 598.556 433.101 611C431.011 619.719 425.501 626.603 422.749 635C418.715 647.312 419.969 660.513 416.96 673C414.78 682.049 408.517 689.172 405.913 698C402.733 708.779 403.772 720.271 400.56 731C397.888 739.927 391.167 746.842 388.899 756C386.852 764.265 387.453 772.959 384.441 781C381.768 788.137 376.223 793.825 373.467 801C370.758 808.052 371.49 816.144 368.351 823C365.777 828.623 360.56 832.372 358.109 838C355.053 845.015 355.576 853.021 352.471 860C350.004 865.545 345.15 869.541 342.543 875C339.674 881.008 339.293 887.845 336.881 894C334.532 899.995 329.413 904.217 326.645 910C323.581 916.4 323.165 923.712 320.001 930C317.442 935.086 313.045 938.957 310.402 944C307.261 949.993 307.018 957.004 304.001 963C301.27 968.426 296.559 972.55 293.832 978C291.134 983.392 290.704 989.63 288.001 995C280.06 1010.78 269.797 1025.3 261.835 1041C249.24 1065.83 238.029 1091.49 224.583 1116C221.898 1120.89 217.141 1124.16 214.367 1129C211.5 1134 211.328 1139.97 208.583 1145C205.684 1150.32 200.316 1153.68 197.417 1159C185.296 1181.23 173.953 1204.63 160.034 1226C157.121 1230.47 152.698 1233.64 149.649 1238C141.728 1249.32 135.774 1262.41 128.034 1273.99C124.581 1279.15 118.869 1281.97 116.563 1288C112.294 1299.17 114 1315.15 114 1327C114 1350.04 111.851 1372.54 126.621 1391C131.544 1397.15 134.426 1403.42 143 1404.7C159.007 1407.09 167.57 1400.38 180 1392.1C203.621 1376.38 221.957 1356.17 239.518 1334C247.794 1323.55 257.427 1314.07 264.892 1302.99C267.804 1298.66 268.765 1293.47 271.363 1289C274.217 1284.09 278.972 1280.75 282.031 1276C290.377 1263.04 296.039 1248.45 303.417 1235C306.077 1230.15 310.776 1226.86 313.442 1222C316.508 1216.42 316.707 1209.68 319.558 1204C322.22 1198.7 327.518 1195.4 330.08 1190C332.787 1184.3 332.605 1177.73 335.328 1172C338.119 1166.13 343.349 1161.91 346.084 1156C348.865 1149.99 348.761 1143.02 351.554 1137C354.695 1130.23 360.33 1125.16 362.91 1118C365.128 1111.84 365.328 1105.02 367.966 1099C370.412 1093.42 375.475 1089.57 377.891 1084C381.069 1076.68 380.453 1068.33 383.482 1061C386.058 1054.76 391.53 1050.34 394.07 1044C397.265 1036.02 396.984 1027.01 400.119 1019C402.833 1012.07 408.76 1007.28 410.957 1000C413.123 992.82 412.59 985.088 415.104 978C417.685 970.724 423.72 965.293 426.239 958C429.268 949.231 428.431 939.72 431.549 931C434.006 924.128 439.395 918.837 441.907 912C445.128 903.231 444.311 893.839 447.04 885C449.404 877.344 455.021 871.398 457.882 864C461.618 854.338 460.175 843.767 463.221 834C465.786 825.772 472.037 819.225 474.557 811C477.537 801.275 476.338 790.714 479.209 781C481.665 772.691 487.733 766.285 490.229 758C493.369 747.576 492.145 736.366 495.209 726C497.629 717.814 503.452 711.159 505.83 703C508.978 692.2 508.237 680.787 511.159 670C513.818 660.183 520.205 651.887 522.845 642C525.643 631.52 524.328 620.289 527.901 610C530.344 602.966 535.534 597.104 537.7 590C541.18 578.587 540.222 566.423 543.289 555C545.665 546.154 551.509 538.738 554.087 530C557.371 518.867 556.443 507.149 559.49 496C561.654 488.081 567.227 481.699 569.78 474C573.662 462.292 572.344 449.872 575.239 438C577.414 429.081 583.536 421.724 586.226 413C589.711 401.697 588.376 389.391 591.49 378C593.637 370.146 599.197 363.807 601.561 356C605.119 344.25 604.054 331.814 607.156 320C609.419 311.381 614.876 304.394 617.641 296C621.5 284.286 620.122 271.794 623.289 260C625.685 251.08 631.732 243.74 634.427 235C637.522 224.963 636.432 214.146 638.9 204C640.928 195.663 646.366 188.876 649.547 181C652.041 174.825 652.522 167.151 657.225 162.109C663.441 155.444 675.621 155.2 684 153.105C709.052 146.842 732.544 145.253 758 142.83C780.458 140.693 803.559 142.001 826 141.985L958 142C978.491 142 999.717 141.27 1020 144.439C1034.33 146.677 1047.85 151.704 1062 154.551C1073.78 156.921 1088.13 155.402 1099 160.832C1109.12 165.887 1122.97 173.046 1130.96 181.04C1137.12 187.201 1139.05 194.481 1142.81 202C1145.72 207.809 1150.27 212.724 1152.23 219C1157.79 236.852 1156.5 262.997 1152.1 281C1149.84 290.266 1144.13 297.958 1141.44 307C1139.3 314.171 1139.76 321.933 1137.24 329C1134.57 336.481 1127.58 341.255 1125.16 349C1121.58 360.429 1116.26 366.057 1110.21 376C1107.33 380.75 1106.08 386.315 1103.03 391C1091.27 409.07 1076.15 424.499 1062.52 441.039C1010.95 503.582 946.379 557.081 874 592.084C867.077 595.432 859.117 595.408 852 598.257C845.014 601.054 839.179 606.084 832 608.477C822.389 611.681 811.84 611.163 802 613.503C788.231 616.778 777.445 624.505 763 626.285C746.635 628.301 735.179 634.885 720 639.96C711.533 642.791 702.345 642.72 694 645.811C688.008 648.031 683.522 652.62 678 655.648C673.231 658.264 667.68 658.681 663.001 661.482C654.056 666.837 646.011 676.027 639.486 683.985C634.971 689.492 629.718 692.936 627.363 700C620.062 721.898 644.501 718.902 658 713.768C665.384 710.959 671.39 705.487 679 703.21C690.031 699.91 701.846 700.603 713 697.279C723.024 694.292 734.301 688.481 745 689.326C762.356 690.696 778.125 702.771 789.3 714.911C799.308 725.782 811.147 740.089 816.867 754C824.6 772.806 825.283 799.961 823.911 820C822.406 841.975 822.096 867.713 816.622 889C814.228 898.308 807.773 905.751 805.289 915C802.656 924.805 803.592 935.284 800.402 945C797.823 952.856 791.818 959.053 789.44 967C786.62 976.421 787.701 986.63 784.779 996C782.306 1003.93 776.222 1010.07 773.774 1018C770.667 1028.07 771.359 1038.78 769.181 1049C767.05 1059.01 760.18 1067.09 757.666 1077C754.166 1090.8 755.381 1105.15 752.55 1119C750.266 1130.17 745.656 1140.75 743.614 1152C740.677 1168.18 740.809 1184.61 741.004 1201C741.202 1217.63 747.945 1230.45 752.255 1246C754.885 1255.49 753.994 1265.95 758.189 1275C760.49 1279.96 764.921 1283.32 767.637 1288C770.565 1293.05 770.797 1299.09 773.97 1304C785.46 1321.75 805.415 1343.53 824.04 1354.1C829.608 1357.26 836.232 1357.88 842 1360.63C848.095 1363.54 853.498 1368.05 860 1370.08C878.872 1375.95 903.375 1374.82 923 1373.96C938.306 1373.29 945.105 1367.48 958 1360.55C962.442 1358.17 967.627 1357.53 972 1354.93C984.538 1347.47 996.148 1337.13 1008 1328.64C1046.25 1301.24 1083.78 1271.84 1120 1241.67C1136.91 1227.59 1153.62 1209.6 1172 1197.81C1177.93 1194 1181.67 1188.77 1187.01 1184.38C1201.7 1172.31 1217.75 1159.09 1229.53 1143.99C1233.23 1139.23 1245.04 1132.81 1243.64 1126.06C1241.03 1113.47 1221.6 1132.04 1218 1134.56C1193.24 1151.94 1169.6 1172.34 1144 1188.47C1125.71 1200 1107.72 1216.82 1091 1230.79C1072.73 1246.06 1050.7 1258.46 1030 1269.91C1024.79 1272.79 1021.19 1277.74 1016 1280.58C1010.04 1283.85 1002.92 1284.16 997 1287.53C991.771 1290.51 987.849 1294.92 982 1296.9C972.881 1299.97 962.464 1299 953 1299C938.554 1299 921.968 1301.16 908 1296.78C901.196 1294.65 897.113 1289.06 891 1285.82C875.057 1277.38 867.508 1267.31 857.211 1253C853.687 1248.11 848.735 1244.97 846.785 1239C837.005 1209.06 840.07 1176.37 843.714 1146C845.061 1134.78 844.563 1123.04 847.239 1112C849.646 1102.08 856.344 1093.95 858.761 1084C861.477 1072.82 860.458 1061.1 863.49 1050C866.083 1040.51 872.687 1032.7 874.789 1023C877.07 1012.47 876.433 1001.39 879.156 991C881.734 981.165 887.995 972.882 890.346 963C893.088 951.472 892.2 939.425 895.155 928C897.864 917.526 904.387 908.562 906.55 898C909.66 882.815 908.28 867.142 911.51 852C915.841 831.693 922.395 813.12 921.986 792C921.634 773.803 916.537 760.07 911.746 743C909.796 736.052 909.909 728.296 906.005 722C900.06 712.412 887.207 701.079 878 694.649C870.499 689.411 860.801 692.227 853.015 687.86C844.708 683.201 842.745 668.947 847.14 661.005C852.742 650.879 867.323 653.442 876 647.366C885.022 641.047 893.626 638.695 903 633.583C907.478 631.141 910.592 626.923 915 624.363C920.331 621.268 926.597 620.308 932 617.352C945.542 609.943 957.834 600.425 971 592.479C975.719 589.631 981.301 588.674 985.996 585.786C990.219 583.189 992.827 578.838 997.015 576.213C1088.57 518.828 1177.3 448.824 1241.36 359.996C1250.08 347.91 1256.18 333.586 1263.99 321C1266.9 316.323 1271.53 313.035 1273.95 308C1276.54 302.604 1276.76 296.41 1279.33 291C1282.1 285.158 1287.34 280.929 1289.89 275C1293.32 267.052 1292.74 257.977 1295.93 250C1298.78 242.883 1304.24 237.392 1306.64 230C1311.27 215.773 1309 198.76 1309 184C1309 174.814 1309.6 164.622 1305.79 156C1293.62 128.511 1268.04 109.888 1243 95.929C1237.67 92.9561 1233.65 88.193 1228 85.6805C1221.3 82.7 1213.76 82.7783 1207 80.0702C1199.62 77.1144 1193.7 71.5975 1186 69.2061C1175.56 65.9634 1164.44 67.0643 1154 63.9637C1144.43 61.1237 1135.85 55.8115 1126 53.8071C1107.52 50.0459 1088.6 51.2646 1070 48.5718C1049.82 45.6494 1030.36 39.1091 1010 37.1698C949.664 31.4237 887.629 35 827 35L719 35C701.027 35 681.819 33.085 664 35.4244z"/>
<path style="fill:#e86d1a; stroke:none;" d="M1220 1141C1201.28 1144.92 1190.49 1163.9 1175.99 1174.49C1172.68 1176.91 1168.39 1177.28 1165.1 1179.7C1161.71 1182.2 1160.41 1186.62 1156.81 1188.86C1153.15 1191.14 1148.66 1191.12 1145.09 1193.8C1127.47 1207.05 1112.22 1223.51 1094 1236.49C1083.32 1244.09 1070.65 1249.56 1060.09 1257.64C1056 1260.77 1053.39 1265.45 1049 1268.27C1044.18 1271.38 1037.99 1270.72 1033.04 1273.56C1027.57 1276.69 1024.51 1282.75 1019 1285.91C1013.46 1289.09 1006.43 1288.35 1001.04 1291.84C992.841 1297.15 989.774 1302.96 979 1303.41C962.79 1304.07 946.267 1302.81 930 1303C921.077 1303.11 911.78 1305.63 903 1302.78C896.011 1300.5 893.924 1293.66 887.996 1290.01C883.671 1287.34 878.238 1287.24 874.04 1284.3C863.625 1277 860.427 1266.49 853.351 1257.05C849.369 1251.74 843.21 1249.81 840.92 1243C837.091 1231.62 841.412 1218.93 836.885 1207C834.626 1201.05 829.78 1195.72 828.966 1189.29C826.855 1172.6 838.305 1159.08 839.946 1143C841.405 1128.7 837.292 1112.78 842.109 1099C844.854 1091.15 853.043 1088.27 855.236 1080C858.517 1067.62 854.449 1054.47 857.594 1042C859.925 1032.76 868.604 1028.8 871.073 1020C874.972 1006.1 870.536 991.273 874.139 977C875.994 969.651 883.888 967.1 886.451 959.999C891.405 946.276 886.448 931.143 889.517 917C891.626 907.279 900.188 902.415 902.957 893C907.105 878.894 902.592 864.304 904.286 850C906.41 832.056 914.156 815.59 915.83 798C917.159 784.036 910.888 774.601 907.681 762C904.965 751.335 907.519 739.099 904.347 729C902.384 722.748 896.586 720.681 892 716.787C885.468 711.241 880.889 702.446 873.982 697.703C866.069 692.269 856.302 698.575 848.005 693.181C838.089 686.736 834.971 666.683 841.653 657.001C849.762 645.251 862.192 650.656 871.83 643.347C875.822 640.321 878.345 636.176 883 633.916C888.324 631.331 894.799 631.382 899.907 628.547C903.506 626.549 905.546 622.694 909.04 620.479C914.57 616.973 921.346 616.56 926.999 613.442C931.249 611.098 933.807 606.717 938.039 604.453C943.011 601.794 949.036 602.358 953.985 599.467C959.625 596.171 961.261 589.305 967.004 586.14C971.989 583.392 977.993 584.649 982.91 581.633C994.436 574.562 1004.37 563.288 1016 555.995C1020.65 553.085 1026.33 553.396 1030.96 550.517C1042.65 543.244 1051.53 530.44 1063 522.699C1073.46 515.643 1085.86 511.1 1095.82 503.2C1118.08 485.539 1137.84 462.254 1158 442C1176.6 423.314 1194.64 404.417 1212.21 385.043C1215.47 381.452 1220.16 379.571 1223.21 375.815C1226.08 372.287 1226.63 367.6 1229.43 364.093C1232.07 360.784 1236.21 358.931 1238.07 354.96C1240.2 350.388 1240 345.432 1242.97 341.04C1246.12 336.393 1251.78 334.641 1254.86 329.957C1258.2 324.872 1257.22 318.056 1260.88 313.213C1263.6 309.614 1267.54 308.313 1269.56 303.985C1272.66 297.323 1271.5 289.512 1274.72 283.019C1277.67 277.085 1284.48 275.629 1287.04 269C1290.43 260.233 1286.75 250.441 1290.65 242.001C1294.14 234.45 1301.54 231.499 1303.84 223C1306.61 212.764 1304.57 201.444 1304.57 191C1304.57 181.523 1306.68 171.123 1303.19 162C1301.04 156.391 1295.89 154.662 1292.86 149.946C1290.11 145.685 1290.41 140.266 1287.35 136.015C1279.65 125.315 1265.63 114.307 1254.96 106.653C1250.12 103.181 1244.19 104.766 1239 102.276C1232.95 99.3722 1230.9 92.4493 1225 89.4568C1217.98 85.9028 1208.57 88.6289 1201 86.0818C1193.13 83.4336 1189.76 75.4312 1182 72.5594C1169.35 67.8761 1153.57 71.9673 1140 68.8757C1130.97 66.8185 1125.76 58.1804 1116 56.3109C1092.86 51.8805 1068.55 56.9034 1045 53.5756C1029.62 51.4015 1016.7 42.8479 1001 41.1659C947.121 35.394 891.909 39.9133 838 40C759.75 40.1257 679.884 33.5952 602 43.2863C592.311 44.4918 584.32 50.3662 575 51.787C551.859 55.3149 528.486 56.0377 505 56C491.813 55.9788 479.18 53.9731 466 56.4598C455.87 58.371 449.419 65.1165 440 68.2515C422.342 74.1285 404.5 68.55 387 72.6798C377.497 74.9224 372.799 84.2543 363 86.4714C353.739 88.5669 344.281 86.2081 335 89.3634C328.127 91.6998 325.947 98.0802 319.985 101.442C313.116 105.315 305.088 102.734 298.004 105.789C291.539 108.577 288.242 115.321 282 118.676C264.947 127.841 244.503 135.932 233.148 153.093C229.958 157.916 231.787 163.88 229.276 168.985C225.192 177.29 216.831 178.405 215.3 189C212.478 208.531 211.708 239.55 234.001 248.106C241.188 250.865 252.301 247.997 260 248C267.262 248.003 275.134 250.36 281.96 246.95C287.349 244.257 289.612 238.166 294.04 234.329C303.235 226.361 313.738 220.143 322.815 211.726C330.538 204.564 336.495 195.082 345.093 188.653C350.052 184.945 356.876 185.788 361.985 182.297C367.357 178.625 369.323 171.502 376 169.573C387.048 166.38 399.68 168.922 411 166.319C418.223 164.659 423.234 159.393 430.001 157.044C440.847 153.278 452.752 153.982 464 154C477.089 154.021 494.073 150.542 505.995 157.044C511.707 160.159 515.941 166.013 520.714 170.38C525.821 175.052 531.863 177.322 532.819 185C533.936 193.956 522.627 202.072 520.503 211C516.398 228.258 521.507 246.407 518.561 264C516.772 274.683 506.976 281.269 504.669 292C500.967 309.221 505.721 326.666 501.877 344C499.73 353.678 490.736 359.082 488.514 369C485.546 382.247 489.45 395.611 487.711 409C485.939 422.638 476.017 429.604 473.215 442C469.66 457.722 474.241 473.402 470.475 489C468.046 499.059 458.844 504.656 456.514 515C453.386 528.887 457.889 543.007 454.334 557C451.686 567.422 441.795 572.979 440.21 584C438.304 597.252 441.597 610.787 438.316 624C436.274 632.224 427.524 635.423 425.16 644C421.589 656.95 425.842 670.609 422.292 683.714C419.522 693.938 409.65 698.693 407.616 710C405.922 719.413 409.389 728.561 406.56 738C404.071 746.305 395.857 749.111 393.109 757C389.657 766.911 393.908 777.984 390.045 788C387.365 794.948 380.074 797.396 377.283 804.004C373.816 812.212 377.925 821.018 374.297 828.91C371.835 834.266 365.219 835.77 362.453 841.015C358.406 848.69 361.076 858.098 357.443 865.999C354.639 872.096 348.308 874.828 345.62 881.001C342.46 888.256 344.119 897.248 339.991 903.985C337.287 908.397 332.082 910.346 329.8 915.04C326.385 922.067 328.364 930.244 324.583 936.985C321.727 942.075 315.799 943.7 313.1 949.005C309.773 955.546 312.075 963.459 308.547 969.957C305.931 974.775 300.135 976.166 297.417 981.015C293.776 987.512 296.088 995.436 292.547 1001.96C289.931 1006.77 284.135 1008.17 281.417 1013.02C277.92 1019.26 280.233 1026.58 277.297 1032.91C274.835 1038.21 268.125 1039.73 265.279 1045C261.919 1051.23 263.864 1059 260.682 1064.9C258.312 1069.29 252.742 1070.71 249.995 1075.02C246.317 1080.77 247.263 1087.97 244.277 1093.98C242.129 1098.31 237.583 1100.1 234.995 1104.04C231.662 1109.12 231.672 1115.56 229.096 1120.96C226.642 1126.1 221.061 1128.07 218.453 1133.02C215.684 1138.27 216.401 1144.73 213.558 1149.98C210.822 1155.05 204.848 1156.31 201.858 1161.04C198.505 1166.35 200.567 1173.43 197.351 1178.98C194.503 1183.9 188.871 1185.45 185.702 1190.02C182.543 1194.58 183.007 1200.23 180.544 1204.98C178.495 1208.94 174.327 1210.73 171.904 1214.33C168.89 1218.81 168.132 1224.47 165.182 1229C162.009 1233.86 156.244 1236.11 153.228 1241.04C150.619 1245.3 151.08 1250.54 148.95 1255C145.444 1262.34 137.895 1271.09 133.034 1277.91C128.727 1283.94 120.937 1284.74 119.34 1293C116.426 1308.07 120.642 1326.44 119.961 1342C119.485 1352.86 116.66 1365.57 121.133 1375.98C123.446 1381.37 128.918 1381.23 132.143 1385.39C135.199 1389.34 134.039 1394.88 138.225 1398.35C144.245 1403.33 157.662 1401.37 163.985 1397.77C168.001 1395.48 170.299 1391.32 174.015 1388.65C188.236 1378.44 200.882 1368.09 213.13 1354.91C221.479 1345.92 228.947 1335.99 237.468 1327.33C240.534 1324.21 244.713 1322.55 247.348 1318.96C249.786 1315.63 250.303 1311.39 252.652 1308C255.383 1304.06 259.776 1301.41 261.775 1296.96C263.829 1292.4 263.58 1287.23 266.652 1283.04C270.016 1278.46 275.976 1276.99 278.91 1271.98C281.964 1266.77 280.674 1260.22 284.005 1255.04C286.842 1250.63 291.982 1248.7 294.583 1244C297.541 1238.65 297.511 1232.19 300.97 1227.04C303.507 1223.26 307.634 1221.16 309.647 1216.96C312.367 1211.29 311.881 1204.59 314.573 1199C317.064 1193.83 322.914 1192.01 325.428 1186.98C328.964 1179.91 327.467 1171.06 331.442 1164.09C335.876 1156.32 341.95 1153.57 344.251 1144C345.616 1138.32 345.186 1132.05 348.703 1127.04C351.969 1122.39 357.194 1120.68 359.235 1115C361.914 1107.54 358.932 1099.19 362.433 1092.02C365.404 1085.93 372.666 1085.03 374.941 1078C377.458 1070.22 374.964 1061.78 378.144 1054C380.859 1047.36 388.351 1044.98 391.045 1038C394.257 1029.67 390.737 1019.91 394.573 1012C397.307 1006.37 404.042 1004.83 406.492 998.975C409.924 990.782 406.757 981.319 408.764 973C411.025 963.625 419.709 962.166 422.736 953.999C426.505 943.832 422.52 932.43 426.562 922C429.218 915.149 436.954 913.032 439.197 906C442.468 895.742 438.054 884.173 442.514 874C445.522 867.138 453.447 864.611 455.481 857C458.445 845.913 454.106 834.198 457.8 823.004C460.036 816.227 467.831 814.808 470.437 808C474.909 796.315 469.766 783.617 473.637 772C476.313 763.971 484.77 760.271 486.96 752C490.324 739.297 485.739 726.449 490.562 714C493.305 706.922 500.758 704.539 502.84 697C505.875 686.013 502.774 674.177 504.935 663C506.919 652.743 516.618 647.928 519.405 638C522.766 626.029 518.644 614.077 521.9 602.001C524.233 593.345 533.473 590.259 535.481 581C538.137 568.761 534.573 556.098 537.928 544C540.341 535.302 549.201 531.993 551.485 523C554.686 510.403 550.504 497.659 554.059 485.004C556.315 476.972 565.16 473.804 567.561 465.004C570.921 452.691 566.256 440.341 569.746 428C572.36 418.758 581.661 414.903 583.532 405C585.957 392.172 580.999 377.197 586.653 365.015C588.634 360.746 593.182 358.826 595.728 354.957C604.601 341.469 597.525 323.906 601.415 309C603.437 301.254 611.645 297.478 614.532 290C619.989 275.86 613.904 260.568 618.279 246.005C620.264 239.395 628.32 238.177 630.556 231C634.666 217.815 630.307 204.163 634.214 191C635.981 185.047 641.301 183.543 644.521 178.867C648.562 173 648.168 164.687 652.652 159.214C657.189 153.676 666.599 153.156 673 150.996C683.154 147.569 690.046 140.115 701 138.325C725.784 134.276 751.951 136 777 136L901 136C944.254 136 991.061 131.181 1034 137.3C1046.6 139.095 1054.35 146.782 1066 150.279C1078.41 154.004 1092.51 149.053 1104 154.353C1108.87 156.601 1111.6 161.162 1116 164.031C1123.57 168.961 1132.53 170.291 1138.21 178.015C1142.93 184.433 1143.85 192.306 1147.88 198.957C1150.68 203.584 1155.94 205.832 1157.98 211.001C1161.38 219.592 1160 229.963 1160 239C1160 255.997 1161.86 274.254 1158.53 291C1156.85 299.447 1148.51 301.677 1145.56 309.039C1141.64 318.832 1146.4 329.656 1140.18 338.981C1137.59 342.865 1133.21 344.806 1131 349.019C1127.9 354.935 1128.27 362.21 1124.91 367.996C1122.16 372.737 1116.68 375.116 1114.18 380.004C1111.73 384.803 1112.62 390.341 1109.35 394.995C1106.44 399.129 1101.82 400.642 1098.53 404.224C1095.38 407.653 1094.4 412.352 1091.58 415.985C1088.64 419.78 1084.37 422.25 1081.39 426.015C1074.19 435.113 1069.04 445.924 1061.61 454.96C1043.53 476.949 1021.22 497.85 999.957 516.786C990.816 524.927 978.557 529.89 969.043 537.533C958.786 545.774 949.837 556.88 938.985 564.297C933.589 567.984 926.579 567.066 921.039 570.367C916.879 572.846 914.771 577.341 910.91 580.15C905.252 584.265 898.041 584.52 892.015 587.684C887.743 589.927 885.222 594.257 880.996 596.583C873.345 600.793 864.058 599.327 856.001 602.259C850.636 604.212 848.651 609.308 843.982 612.063C832.673 618.735 817.095 613.433 805 617.524C797.275 620.137 792.808 627.293 785 629.91C772.389 634.136 758.914 629.784 746 633.494C738.795 635.564 735.833 642.951 729 645.656C719.382 649.464 708.601 646.115 699 649.363C691.843 651.785 689.498 658.817 682.996 661.95C677.848 664.431 672.114 662.915 667.004 665.009C656.374 669.365 648.338 681.838 640.79 689.83C637.392 693.428 633.314 696.002 631.808 701C627.608 714.938 646.072 714.019 653.999 710.001C661.829 706.032 665.918 699.106 675 696.9C684.76 694.529 694.184 698.447 704 694.91C710.446 692.587 714.986 687.583 721 684.557C730.666 679.694 746.738 678.7 757 681.905C763.985 684.087 765.312 689.094 770.213 693.61C774.416 697.483 780.516 697.976 784.895 701.499C788.706 704.566 790.412 709.474 794.043 712.791C802.038 720.093 804.883 726.479 811.108 734.816C815.506 740.704 820.808 743.182 822.482 751C824.236 759.19 823.603 767.834 825.756 776C829.223 789.148 834.579 797.87 833.961 812C833.298 827.128 825.668 840.023 824.171 855C822.622 870.489 826.471 886.891 821.606 901.996C819.323 909.084 811.009 911.32 808.789 919C805.51 930.347 810.454 943.916 805.772 954.999C802.882 961.838 795.289 963.498 793.105 971C789.855 982.164 794.374 994.263 790.265 1005C786.391 1015.13 777.54 1019.22 775.464 1031C773.746 1040.74 777.049 1050.09 774.254 1060C771.547 1069.6 762.825 1074.25 760.503 1084C756.868 1099.26 760.658 1115.4 758.715 1131C756.216 1151.08 745.079 1166.89 745.079 1188C745.079 1197.38 746.151 1208.28 749.76 1217C752.621 1223.92 757.718 1229.39 758.985 1237C760.695 1247.28 757.039 1260.32 761.009 1270C763.459 1275.97 770.252 1277.65 773.467 1283.04C776.962 1288.91 774.919 1296.4 778.707 1301.96C789.328 1317.55 802.742 1330.85 817.911 1341.85C821.191 1344.23 823.333 1347.95 827.004 1349.82C833.858 1353.32 842.789 1352.2 849.999 1355.52C857.767 1359.1 860.974 1366 870 1367.98C880.647 1370.33 891.298 1368 902 1368C912.557 1368 928.218 1371.54 937.999 1367.66C943.982 1365.28 945.966 1359.15 951.09 1355.86C956.346 1352.48 963.368 1354.49 968.96 1351.25C974.53 1348.02 976.69 1341.48 982.004 1337.85C992.367 1330.77 1004.77 1326.45 1014.99 1319.2C1025.18 1311.96 1034.34 1301.54 1044.01 1293.32C1054.51 1284.41 1067.11 1278.39 1077.96 1270.35C1088.07 1262.85 1096.3 1252.52 1106.04 1244.53C1125.7 1228.42 1144.4 1210.85 1164.1 1195.51C1174.94 1187.07 1187.48 1180.31 1197.17 1169.99C1204.49 1162.2 1220.48 1153.08 1220 1141z"/>
</svg>
