<?xml version="1.0" standalone="yes"?>
<svg xmlns="http://www.w3.org/2000/svg" width="1196" height="672">
<path style="fill:#fdfcfb; stroke:none;" d="M0 0L0 672L583 672C582.99 587.005 582 502.004 582 417L582 344C582 334.856 579.29 320.562 582.742 312.043C585.76 304.597 599.457 300.857 606 297.144C628.801 284.209 652.762 273.127 676 260.997C680.844 258.469 700.213 244.8 704.397 249.362C707.756 253.024 706 262.389 706 267L706 316L706 438C706 460.367 704.106 483.836 707 506C744.699 488.278 782.419 468.902 819 448.971C830.92 442.477 842.985 436.31 855 429.987C858.938 427.914 864.481 423.233 868.981 422.97C876.823 422.511 874.396 440.388 874.089 445C872.84 463.785 875 483.072 875 502C875 508.752 876.847 518.554 870.867 523.312C852.294 538.091 825.129 547.592 804 558.475C757.459 582.445 711.672 607.975 665 631.656C647.545 640.513 630.22 649.672 613 658.972C605.572 662.984 595.758 665.679 590 672L1196 672L1196 0L608 0L630 7.74536L680 29C672.56 38.4811 655.668 44.1456 645 49.561C640.793 51.6964 635.853 54.2577 631 53.4413C612.043 50.2524 598.52 34.4067 578 37C579.988 43.9172 587.959 46.8165 594 49.7415C611.198 58.0687 628.135 60.0012 647 60C682.269 59.9977 718.047 56.861 753 63.8079C777.748 68.7265 801.127 79.8032 824 89.9691C841.288 97.6528 875.095 108.766 874.817 132C874.618 148.607 853.995 157.289 841 162.053C801.299 176.609 762.13 166.955 724 153.23C712.355 149.038 701.256 143.754 690 138.618C686.986 137.243 679.525 135.604 680.037 131.062C680.663 125.511 698.382 119.512 703 117.259C708.653 114.502 717.715 107.423 724 107.565C729.372 107.686 735.21 112.294 740 114.434C756.813 121.948 779.146 136.977 798 131C796.23 125.243 790.145 122.554 785 120.119C772.082 114.005 757.33 106.634 743 104.951C701.247 100.046 658.666 107.875 617 100.714C591.834 96.3884 569.594 80.2485 545 76C554.775 88.4861 574.743 96.798 588 105.38C623.239 128.19 656.35 149.855 695 166.626C709.987 173.128 724.794 180.476 740 186.457C744.534 188.24 755.131 190.612 756.654 196.001C758.202 201.474 743.607 205.956 740 207.759C732.468 211.525 721.542 220.406 713 220.598C704.91 220.78 693.457 212.219 686 209C656.697 196.349 628.074 180.655 598 169.94C565.876 158.494 532.484 150.38 500 140.037C482.048 134.321 464.196 128.597 446 123.711C437.549 121.441 429.86 117.074 421 117L421 118C431.489 122.069 441.564 127.153 452 131.166C454.85 132.262 462.487 134.163 463.654 137.325C464.943 140.816 457.234 143.918 455 144.996C444.769 149.937 430.523 161.091 419 161.259C410.227 161.387 399.734 154.207 392 150.502C382.72 146.057 375.14 144.819 365 145C366.304 153.269 376.256 155.989 383 159.08C402.48 168.01 424.725 169.855 446 167.83C503.163 162.39 558.425 173.333 610 198.023C626.925 206.125 650.987 213.84 659.471 232C669.495 253.459 633.9 269.969 618 272.916C575.948 280.709 540.119 274.393 501 257.502C492.699 253.918 484.358 250.32 476 246.861C472.658 245.478 468.03 244.501 466.122 241.066C464.042 237.321 469.389 235.06 472.001 233.785C481.023 229.378 489.873 224.499 499 220.309C519.004 211.125 543.56 231.819 563 238.258C565.619 239.125 587.466 244.759 581.338 235.155C577.426 229.024 567.376 226.307 561 223.831C544.055 217.252 529.303 212.463 511 212.015C482.886 211.326 453.977 214.503 426 211.83C388.331 208.231 348.748 194.787 316 175.895C310.274 172.592 304.129 168.701 299 164.532C279.358 148.569 288.013 131.937 307 121C332.331 106.409 361.607 105.759 390 108C386.06 102.753 374.291 100.848 368 100C370.809 90.8674 387.122 86.6268 395 82.5764C400.601 79.6968 407.51 74.6102 414 74.6019C424.739 74.5881 438.991 82.4407 449 86.243C471.141 94.6542 493.803 101.724 516 110L516 109C498.293 96.4271 478.202 87.6142 460 75.8341C454.716 72.414 445.003 69.2142 441.636 63.6782C439.062 59.4467 446.255 56.6794 449 55.2199C457.555 50.6717 475.169 37.6653 485 38.8419C491.767 39.6517 498.599 47.3172 505 50C490.113 16.5492 532.383 10.1243 554 1C541.593 -4.20642 519.515 0 506 0L393 0L0 0z"/>
<path style="fill:#fac016; stroke:none;" d="M505 50C499.325 46.6408 492.422 39.9742 486 38.6065C477.712 36.8416 464.277 47.0649 457 50.537C453.387 52.2612 438.793 57.5438 440.346 62.831C441.967 68.3519 453.515 72.3107 458 75.1805C476.487 87.0109 496.352 99.2693 516 109L516 110C495.451 99.673 471.518 94.4177 450 86.243C439.65 82.311 425.122 74.3437 414 74.3472C407.736 74.3492 401.377 78.7242 396 81.537C388.268 85.5818 369.609 90.4828 368 100L390 108C362.022 104.464 330.788 106.722 306 121C287.224 131.815 279.174 150.011 299 165.319C332.866 191.468 382.694 207.788 425 211.83C452.979 214.504 481.851 211.325 510 212.015C528.303 212.463 543.055 217.252 560 223.831C566.528 226.366 576.311 229.089 580.534 235.155C586.854 244.233 565.478 238.78 563 237.922C544.494 231.516 519.25 211.057 500 219.424C490.453 223.574 481.417 228.879 472.001 233.309C468.775 234.826 463.271 237.374 466.002 241.779C470.769 249.467 491.781 253.954 500 257.502C538.695 274.21 575.304 281.178 617 273.261C634.115 270.011 670.426 254.451 659.471 231C651.268 213.44 627.394 205.871 611 198.023C560.105 173.659 508.258 164.576 452 167.039C428.211 168.081 406.214 169.263 384 159.08C377.071 155.904 367.299 153.017 365 145C378.104 144.927 387.147 148.919 399 154.305C405.285 157.16 412.866 162.102 420 161.47C431.74 160.43 444.494 150.49 455 145.463C457.533 144.251 465.5 141.289 464.248 137.325C463.224 134.079 455.816 132.249 453 131.166C442.223 127.022 432.259 121.08 421 118L421 117C429.399 117.18 436.961 121.552 445 123.711C463.197 128.597 481.048 134.321 499 140.037C531.484 150.38 564.876 158.494 597 169.94C626.355 180.399 654.508 195.542 683 208.14C691.341 211.828 703.892 220.927 713 220.801C721.696 220.681 732.409 212.148 740 208.259C744.025 206.197 757.364 202.486 757.364 196.91C757.364 191.862 748.71 189.412 745 187.922C731.17 182.368 717.507 176.235 704 169.91C685.882 161.425 666.6 154.561 649 144.971C628.078 133.573 608.985 118.316 589 105.38C574.463 95.9694 557.902 87.6094 545 76C569.543 82.7642 591.403 96.9634 617 100.866C656.819 106.936 697.266 99.5817 737 104.286C752.615 106.134 767.895 112.334 782 119.151C787.957 122.029 794.864 124.862 798 131C778.449 135.467 758.446 122.231 741 114.434C735.814 112.117 729.83 107.451 724 107.296C717.378 107.12 708.914 113.972 703 116.781C698.212 119.055 680.017 125.258 679.546 131.062C679.147 135.988 686.67 137.528 690 139.092C701.208 144.355 712.479 149.113 724 153.594C760.786 167.902 802.599 176.736 841 162.424C854.061 157.557 871.992 150.677 874.671 135C879.374 107.471 835.082 94.3663 816 85.6952C796.208 76.7014 774.516 67.4894 753 63.6157C716.231 56.996 679.041 60 642 60C624.974 60 609.35 56.8104 594 49.2438C587.927 46.2502 581.033 43.3513 578 37C598.657 35.3718 612.722 52.3685 632 53.7755C642.09 54.5118 652.43 45.6271 661 41.3696C667.448 38.1663 676.506 35.7254 680 29C658.706 16.5715 624.961 0.0856934 600 0C603.718 5.28412 618.675 6.29712 625 8.02856C643.018 12.9606 659.34 22.9886 677 29L677 31C666.756 35.2866 656.818 40.8057 647 46C642.578 48.3397 637.235 52.2563 632 51.743C619.911 50.5576 606.765 39.9549 595 36.1945C589.945 34.5787 583.118 32.5806 578.323 36.1396C572.048 40.7967 584.743 47.3122 588 49.0409C601.563 56.2396 617.6 61.2853 633 61.9606C670.382 63.6 707.57 59.0396 745 64.4282C771.255 68.2081 797.2 79.1709 821 90.4969C837.009 98.1155 872.84 108.819 872.656 131C872.515 147.924 851.318 156.691 838 161.09C798.65 174.085 760.496 165.437 723 150.939C712.839 147.01 702.755 142.868 693 138.012C690.146 136.591 684.435 135.457 683.346 131.996C682.385 128.944 686.96 127.265 689.001 126.259C695.982 122.818 702.948 119.269 710 115.975C714.129 114.047 719.284 109.507 724 109.689C728.981 109.881 734.607 113.9 739 115.997C750.293 121.388 762.81 128.67 775 131.624C780.383 132.929 797.135 139.407 799.168 129.911C800.376 124.269 789.744 120.437 786 118.526C771.164 110.957 755.393 105.334 739 102.464C700.617 95.7432 659.751 106.508 621 99.5355C599.389 95.6472 577.985 87.7 558 78.8086C547.37 74.0796 536.473 66.2109 525 64C527.607 68.6438 532.498 70.4609 536.714 73.4406C547.363 80.9659 558.139 88.1276 569 95.355C594.292 112.185 619.322 131.435 646 145.971C660.817 154.045 676.878 159.599 692 167.034C707.022 174.419 722.625 180.855 738 187.41C741.888 189.067 752.245 191.669 753.654 196.134C755.155 200.889 738.391 206.814 735 208.474C728.726 211.545 720.076 218.366 713 218.644C708.72 218.812 704.694 215.379 701 213.63C692.783 209.738 684.197 206.597 676 202.641C611.86 171.685 545.105 150.938 477 131.363C441.823 121.253 407.021 105.986 371 99L371 97C381.185 92.2458 391.006 86.6218 401 81.4745C405.094 79.3657 410.21 75.7606 415 76.3843C422.342 77.3403 429.977 81.77 437 84.1019C456.743 90.6574 476.412 97.676 496 104.647C505.036 107.863 519.515 117.311 529 115L501 97.3958L442 63L442 61L472 45.7778L485 40.7986L512 55C509.143 49.7779 504.68 46.1922 503.634 40C500.28 20.1445 530.883 8.43256 546 4.60876C551.579 3.19745 556.675 3.6723 562 1C556.109 -1.46539 545.966 2.505 540 4.34802C520.445 10.3884 490.75 25.4047 505 50z"/>
<path style="fill:#a12650; stroke:none;" d="M512 55L486 40.6281L473 44.8333L442 61L442 63L529 115C519.632 116.266 506.701 108.472 498 105.031C478.453 97.2998 457.97 90.733 438 84.1019C430.621 81.6517 421.827 76.3314 414 76.1381C401.91 75.8396 380.976 90.4266 371 97L371 99C406.452 108.176 440.872 121.267 476 131.363C517.061 143.165 559.808 154.075 600 168.951C625.778 178.491 651.071 191.531 676 203.114C685.534 207.544 702.642 219.166 713 218.837C720.572 218.597 729.319 211.744 736 208.474C739.606 206.709 755.642 201.301 754.248 196.134C753.019 191.576 742.861 189.056 739 187.41C723.304 180.718 707.245 174.25 692 166.525C677.29 159.072 661.507 153.876 647 145.971C620.726 131.655 595.759 112.83 571 96.0278C556.568 86.2339 536.316 77.3431 525 64C557.538 74.2752 585.599 93.3461 620 99.5355C658.486 106.46 698.635 96.8333 737 102.3C753.681 104.677 770.036 110.891 785 118.526C788.682 120.405 798.578 123.934 798.654 129C798.806 139.129 780.474 132.708 776 131.624C763.501 128.595 750.547 121.125 739 115.525C734.483 113.335 728.211 108.922 723 109.383C719.067 109.731 715.397 112.733 712 114.514C704.119 118.646 695.965 122.289 688.005 126.259C685.589 127.464 681.236 129.384 683.086 132.816C684.662 135.737 689.235 136.635 692 138.012C700.156 142.072 708.519 145.598 717 148.911C755.586 163.983 788.85 170.848 830 163.854C845.939 161.145 873.873 149.697 872.79 130C871.573 107.866 838.542 98.3692 822 90.4969C798.2 79.1709 772.255 68.2081 746 64.4282C708.967 59.0967 672.092 62.906 635 61.9854C619.303 61.5958 602.795 56.3626 589 49.0409C585.896 47.3933 573.57 41.3546 578.377 36.7269C582.529 32.7297 589.311 34.6959 594 36.1945C606.09 40.0582 618.61 50.0209 631 51.7824C637.186 52.6619 642.781 48.7614 648 46C657.609 40.9163 667.637 36.5165 677 31L677 29C652.413 17.3635 623.996 3.74323 596.911 0.13269C579.756 -2.15399 562.517 1.06958 546 4.37885C528.643 7.85638 496.969 21.6738 504.34 44C505.787 48.3827 509.166 51.5078 512 55z"/>
<path style="fill:#3f2648; stroke:none;" d="M670 29L670 31L675 31L675 29L670 29M444 61L448 64L444 61z"/>
<path style="fill:#fdfcfb; stroke:none;" d="M542.667 74.3333L543.333 74.6667L542.667 74.3333z"/>
<path style="fill:#3f2648; stroke:none;" d="M375 97L375 98L380 97L375 97z"/>
<path style="fill:#a12650; stroke:none;" d="M463 139L463 137C418.54 119.034 374.531 97.5112 326 114.562C313.084 119.1 286.339 127.991 288.204 146C289.104 154.693 297.167 161.949 304 166.456C319.95 176.976 337.941 186.036 356 192.31C384.492 202.209 412.458 210.357 443 210.946C480.798 211.675 517.871 205.736 554 219.468C563.458 223.062 575.802 226.459 582.833 234.17C586.938 238.673 582.69 241.882 578 243.022C572.373 244.389 566.263 240.969 561 239.255C545.239 234.122 526.62 218.662 510 218.394C502.31 218.271 493.639 224.822 487 228.139C483.241 230.017 468.815 234.712 468.176 239.17C467.546 243.566 476.15 245.058 479 246.287C490.668 251.318 502.185 256.593 514 261.308C548.933 275.248 588.508 281.765 625 269.228C638.578 264.564 656.307 256.744 659.603 241C661.007 234.291 655.716 225.734 650.699 221.66C638.59 211.825 623.146 205.394 609 199.14C583.706 187.956 557.609 176.323 530 172.3C493.244 166.945 456.687 172.423 420 169.91C403.774 168.799 389.42 164.431 375 156.937C371.921 155.337 358.115 148.599 365.167 144.318C380.325 135.118 402.461 157.793 417 159.761C422.444 160.498 428.316 156.9 433 154.525C443.007 149.452 453.333 144.696 463 139z"/>
<path style="fill:#fdfcfb; stroke:none;" d="M395 109L395 110L401 111L395 109z"/>
<path style="fill:#3f2648; stroke:none;" d="M853.333 110.667L853.667 111.333L853.333 110.667z"/>
<path style="fill:#fdfcfb; stroke:none;" d="M409 113L409 114L414 115L409 113z"/>
<path style="fill:#3f2648; stroke:none;" d="M865 140L864 143L865 140M860 146L861 147L863 144L860 146M392 145L392 146L395 146L392 145z"/>
<path style="fill:#fac016; stroke:none;" d="M346 369C350.344 382.703 349.854 397.122 352.63 411C360.331 449.513 366.85 488.417 374.551 527C377.852 543.538 377.05 564.556 384.51 579.945C386.908 584.892 393.507 585.963 398 588.32C410.286 594.766 422.698 600.862 435 607.255C438.751 609.204 446.477 614.522 450.867 612.759C454.942 611.123 455.469 604.693 455.999 601C457.501 590.531 460.35 580.267 462.764 570C473.167 525.749 481.627 480.94 493 437C499.322 449.914 496 468.927 496 483L496 585L496 619C496 623.614 494.942 629.872 497.742 633.87C500.817 638.261 506.514 639.136 511 641.364C520.895 646.28 530.862 651.219 541 655.591C551.015 659.91 559.628 667.733 571 668C574.844 639.456 572 609.056 572 580L572 414L572 342C572 333.73 575.121 319.552 572.106 312.044C569.419 305.354 556.11 301.74 550 298.755C528.202 288.109 505.922 278.455 484.039 267.972C478.237 265.193 464.64 255.555 458.279 257.083C452.506 258.469 450.661 280.807 449.294 286C441.168 316.877 435.187 348.583 428.801 380C426.903 389.338 425.03 398.593 423.572 408C423.244 410.117 422.633 416.016 419.245 415.369C414.929 414.544 415.11 399.547 414.258 396C409.333 375.476 406.738 354.728 402.6 334C397.162 306.751 392.876 279.206 387.464 252C385.798 243.626 386.697 227.667 381.566 221.044C377.538 215.844 368.83 213.026 363 210.224C349.396 203.684 335.886 196.942 322 191.052C308.536 185.342 294.788 178.429 282 171.385C278.145 169.261 271.842 163.858 267.434 167.607C261.953 172.267 266.261 183.882 265.907 190C264.591 212.719 263.67 236.299 265.83 259C267.929 281.058 265.555 303.961 265.015 326C263.924 370.492 264.016 415.599 265.961 460C266.811 479.417 261.718 503.173 266.322 521.995C267.713 527.683 275.435 530.21 280 532.914C293.899 541.148 309.281 546.288 323 554.681C326.839 557.03 337.759 565.016 342.103 560.254C344.362 557.777 343.09 552.128 343.41 549C344.627 537.116 343 524.046 343 512C343 478.653 342.664 445.269 343.96 412C344.5 398.137 339.666 382.16 346 369z"/>
<path style="fill:#3f2648; stroke:none;" d="M749.333 196.667L749.667 197.333L749.333 196.667M471 238L475 240L471 238M653 244L653 248L654 248L653 244z"/>
<path style="fill:#fac016; stroke:none;" d="M583 672L584 672L584 409L584 338C584 331.139 581.223 316.966 584.897 311.133C589.631 303.617 606.236 298.623 614 294.536C634.246 283.88 654.545 273.265 675 263.037C684.099 258.487 693.989 250.93 704 249L705 339L705 507C720.477 505.973 738.31 491.468 752 484.498C791.68 464.299 830.758 442.011 871 423C874.016 431.276 873 440.302 873 449L873 495C873 501.707 875.381 514.201 871.397 519.895C867.913 524.874 860.158 527.424 855 530.283C841.181 537.944 826.882 544.748 813 552.305C761.098 580.559 708.148 606.895 656 634.706C640.399 643.026 624.795 651.45 609 659.399C602.687 662.576 592.629 665.698 589 672C654.501 634.391 723.207 601.622 790 566.336C807.953 556.851 825.892 547.17 844 537.966C852.47 533.661 866.021 529.648 872.486 522.585C876.984 517.671 875 507.143 875 501C875 482.537 872.523 463.244 874.171 445C874.589 440.363 876.815 423.235 869.941 422.532C865.545 422.082 859.705 426.849 856 428.88C845.118 434.847 833.779 440.018 823 446.15C785.313 467.592 743.787 483.054 707 506C702.7 442.567 706 377.685 706 314L706 266C706 261.691 707.807 251.862 704.397 248.619C699.886 244.329 680.872 257.914 676 260.463C652.758 272.622 628.942 283.849 606 296.566C599.724 300.044 585.692 304.14 582.742 311.105C579.314 319.2 582 333.26 582 342L582 415C582 500.663 582.943 586.442 583 672z"/>
<path style="fill:#a12650; stroke:none;" d="M700 249L701 250L700 249z"/>
<path style="fill:#43257f; stroke:none;" d="M701 249L701 250L703 252L704 252L701 249z"/>
<path style="fill:#a12650; stroke:none;" d="M703 249L704 250L703 249M698 250L697 252L698 250z"/>
<path style="fill:#43257f; stroke:none;" d="M699 250C674.315 267.93 643.062 279.87 616 293.997C607.846 298.253 589.865 303.134 585.028 311.224C581.269 317.51 584 331.786 584 339L584 410L584 672L588 672L605 660.941L648 638.529L812 552.308L855 529.976L871.058 519.787L872 495L872 429L871 429L870 448L868 448L867 433L852 437C854.311 432.939 866.685 425.395 871 427L872 427C869.014 422.584 864.698 426.645 861 428.572C851.661 433.438 842.403 438.504 833 443.248C802.673 458.548 771.432 473.224 742 490.14C733.843 494.828 725.364 499.096 717 503.41C714.361 504.771 710.282 507.916 707.148 507.172C702.363 506.037 704 496.535 704 493L704 448L704 255L703 255L701 261C697.515 255.38 692.971 259.17 688 261L699 250z"/>
<path style="fill:#3f2648; stroke:none;" d="M688 261C693.233 259.682 696.697 256.529 701 261L703 250C698.478 251 689.322 256.475 688 261z"/>
<path style="fill:#a12650; stroke:none;" d="M695 252L696 253L695 252M704 252L704 507L705 507L705 327L705 275L704 252M693 253L694 254L693 253M691.667 254.333L692.333 254.667L691.667 254.333M689.667 255.333L690.333 255.667L689.667 255.333M686.667 256.333L687.333 256.667L686.667 256.333M685 257L686 258L685 257z"/>
<path style="fill:#3f2648; stroke:none;" d="M641 258L642 259L641 258z"/>
<path style="fill:#a12650; stroke:none;" d="M684 258L685 259L684 258M682 259L683 260L682 259M679.667 260.333L680.333 260.667L679.667 260.333M676 263L679 261L676 263z"/>
<path style="fill:#3f2648; stroke:none;" d="M684 262L681 263L681 264L685 263L684 262z"/>
<path style="fill:#a12650; stroke:none;" d="M674.667 263.333L675.333 263.667L674.667 263.333M671 264L671 265L674 265L671 264M669.667 265.333L670.333 265.667L669.667 265.333M668 266L669 267L668 266z"/>
<path style="fill:#3f2648; stroke:none;" d="M671 270C665.311 268.956 660.729 271.808 657 276C665.347 275.908 674.249 273.185 679 266L671 270z"/>
<path style="fill:#a12650; stroke:none;" d="M666.667 267.333L667.333 267.667L666.667 267.333M663.667 268.333L664.333 268.667L663.667 268.333M661.667 269.333L662.333 269.667L661.667 269.333z"/>
<path style="fill:#3f2648; stroke:none;" d="M701.333 269.667L701.667 270.333L701.333 269.667z"/>
<path style="fill:#a12650; stroke:none;" d="M660 270L661 271L660 270M658.667 271.333L659.333 271.667L658.667 271.333M656.667 272.333L657.333 272.667L656.667 272.333M654.667 273.333L655.333 273.667L654.667 273.333M653 274L654 275L653 274M651.667 275.333L652.333 275.667L651.667 275.333M648.667 276.333L649.333 276.667L648.667 276.333M646.667 277.333L647.333 277.667L646.667 277.333z"/>
<path style="fill:#3f2648; stroke:none;" d="M649 279L649 280L655 280L654 277L649 279z"/>
<path style="fill:#a12650; stroke:none;" d="M645 278L646 279L645 278M643.667 279.333L644.333 279.667L643.667 279.333M640.667 280.333L641.333 280.667L640.667 280.333M639 281L640 282L639 281M637.667 282.333L638.333 282.667L637.667 282.333M635.667 283.333L636.333 283.667L635.667 283.333M632.667 284.333L633.333 284.667L632.667 284.333M631 285L632 286L631 285z"/>
<path style="fill:#3f2648; stroke:none;" d="M602 303C607.649 307.901 628.325 294.245 633.611 290.028C636.25 287.923 639.253 288.484 640 285C627.602 287.236 613.039 296.894 602 303z"/>
<path style="fill:#a12650; stroke:none;" d="M629.667 286.333L630.333 286.667L629.667 286.333M627.667 287.333L628.333 287.667L627.667 287.333M625.667 288.333L626.333 288.667L625.667 288.333z"/>
<path style="fill:#3f2648; stroke:none;" d="M701 288L701 312L702 312L701 288z"/>
<path style="fill:#a12650; stroke:none;" d="M623.667 289.333L624.333 289.667L623.667 289.333M620 292L623 290L620 292M617.667 292.333L618.333 292.667L617.667 292.333M614 295L617 293L614 295M612.667 295.333L613.333 295.667L612.667 295.333M609.667 296.333L610.333 296.667L609.667 296.333M608 297L609 298L608 297M606.667 298.333L607.333 298.667L606.667 298.333M604.667 299.333L605.333 299.667L604.667 299.333M602 300L603 301L602 300M600 301L601 302L600 301M599 302L600 303L599 302M597 303L598 304L597 303M594 304L595 305L594 304M592 305L593 306L592 305z"/>
<path style="fill:#3f2648; stroke:none;" d="M587 323L588 323C589.17 313.603 592.139 310.6 601 307C591.635 300.607 584.74 315.353 587 323z"/>
<path style="fill:#a12650; stroke:none;" d="M591 306L592 307L591 306M589.667 307.333L590.333 307.667L589.667 307.333M586.667 308.333L587.333 308.667L586.667 308.333M585 309L586 310L585 309M584 310L585 311L584 310M583 313L583 316L584 316L583 313z"/>
<path style="fill:#3f2648; stroke:none;" d="M701 319L700 385L702 385L702 340L701 319M587 329L588 330L587 329M587 331L588 332L587 331z"/>
<path style="fill:#fac016; stroke:none;" d="M828 336C824.701 336 804.125 334.213 804.921 339.005C805.391 341.834 809.592 342.75 810.972 345.143C813.48 349.491 809.028 362.796 816.051 363.94C823.335 365.126 819.927 348.558 821.488 345.147C823.48 340.792 827.563 341.614 828 336M838 355L839 355C842.245 366.238 849.52 365.994 853 355L854 355C854.049 357.305 856.935 369.66 860.397 362.677C862.566 358.304 862.904 331.837 854.143 337.762C849.462 340.927 848.841 348.783 845 353C844.524 348.351 842.705 341.89 839.351 338.434C836.101 335.086 832.057 336.672 831.228 341.019C830.268 346.06 829.473 357.117 831.603 361.833C834.731 368.759 837.704 357.28 838 355z"/>
<path style="fill:#a12650; stroke:none;" d="M809 338L810 339L809 338M812 338L816 361L818 361L819 344C814.845 342.709 814.845 340.291 819 339L819 343L820 343L821 338L812 338M824 338L825 339L824 338M832 341L837 339L832 341M856 338L856 339L859 339L856 338z"/>
<path style="fill:#43257f; stroke:none;" d="M815 344L816 344L815 341L816 340L819 341C816.218 337.932 814.516 340.849 815 344z"/>
<path style="fill:#3f2648; stroke:none;" d="M833 362L835 362C835.59 357.328 840.517 346.735 839.338 343.045C838.121 339.237 833.636 338.891 832.858 343.059C831.758 348.949 832.257 356.089 833 362z"/>
<path style="fill:#43257f; stroke:none;" d="M837 339L838 340L837 339z"/>
<path style="fill:#a12650; stroke:none;" d="M854 339L855 340L854 339z"/>
<path style="fill:#43257f; stroke:none;" d="M855 339L856 340L855 339z"/>
<path style="fill:#3f2648; stroke:none;" d="M857 363C862.317 357.793 860.697 345.39 858 339C849.036 342.224 855.238 355.599 857 363z"/>
<path style="fill:#43257f; stroke:none;" d="M858 339L859 340L858 339z"/>
<path style="fill:#3f2648; stroke:none;" d="M816 340L815 341L816 344L819 341L816 340z"/>
<path style="fill:#43257f; stroke:none;" d="M838 340L839 341L838 340M853 340L854 341L853 340z"/>
<path style="fill:#a12650; stroke:none;" d="M859 340L860 341L859 340z"/>
<path style="fill:#43257f; stroke:none;" d="M832.333 341.667L832.667 342.333L832.333 341.667z"/>
<path style="fill:#a12650; stroke:none;" d="M839 341L840 342L839 341M852 341L853 342L852 341z"/>
<path style="fill:#43257f; stroke:none;" d="M859.333 341.667L859.667 342.333L859.333 341.667M818 342L817 344L819 344L818 342M852 342L853 343L852 342M832 344L832 353L833 353L832 344z"/>
<path style="fill:#a12650; stroke:none;" d="M840 344L840 351L843 353L844 353L840 344z"/>
<path style="fill:#43257f; stroke:none;" d="M839 347L840 348L839 347z"/>
<path style="fill:#a12650; stroke:none;" d="M851 347L848 353L849 353L852 352L852 349L855 350L855 349L851 347z"/>
<path style="fill:#43257f; stroke:none;" d="M852 347L853 348L852 347M836 350L839 349L836 350M853 348L854 349L853 348M816 349L817 354L818 354L818 349L816 349z"/>
<path style="fill:#a12650; stroke:none;" d="M837 349L838 350L837 349M836 350L837 351L836 350z"/>
<path style="fill:#43257f; stroke:none;" d="M841 350L840 355L841 355L843 352L841 350z"/>
<path style="fill:#a12650; stroke:none;" d="M855.333 350.667L855.667 351.333L855.333 350.667z"/>
<path style="fill:#3f2648; stroke:none;" d="M841 351L845 363L847 363L851 352C845.993 354.932 845.447 355.045 841 351z"/>
<path style="fill:#43257f; stroke:none;" d="M849.667 351.333L850.333 351.667L849.667 351.333M851.333 352.667L851.667 353.333L851.333 352.667M843 353L844 354L843 353M848 353L849 354L848 353z"/>
<path style="fill:#a12650; stroke:none;" d="M851 354L849 358L851 354M840 355L841 356L840 355M844 355L844 356L848 356L844 355z"/>
<path style="fill:#43257f; stroke:none;" d="M850 355L851 356L850 355M816 356L816 358L818 358L818 356L816 356z"/>
<path style="fill:#a12650; stroke:none;" d="M841 356L842 359L843 359L841 356z"/>
<path style="fill:#43257f; stroke:none;" d="M842 356L843 357L842 356M849 356L850 357L849 356M848.333 357.667L848.667 358.333L848.333 357.667M832 358L832 361L833 361L832 358M835 358L835 361L836 361L835 358M843.333 358.667L843.667 359.333L843.333 358.667z"/>
<path style="fill:#a12650; stroke:none;" d="M848.333 359.667L848.667 360.333L848.333 359.667M843 360L844 361L843 360M832 361L833 362L832 361M835 361L836 362L835 361z"/>
<path style="fill:#43257f; stroke:none;" d="M856 361L857 362L856 361M859 361L858 363L859 361z"/>
<path style="fill:#a12650; stroke:none;" d="M833.667 362.333L834.333 362.667L833.667 362.333z"/>
<path style="fill:#43257f; stroke:none;" d="M844 362L845 363L844 362z"/>
<path style="fill:#a12650; stroke:none;" d="M847 362L848 363L847 362M856 362L857 363L856 362M859 362L860 363L859 362M845.667 363.333L846.333 363.667L845.667 363.333M857 363L858 364L857 363M869.667 423.333L870.333 423.667L869.667 423.333M867 424L868 425L867 424M871 424L872 425L871 424M866 425L867 426L866 425z"/>
<path style="fill:#3f2648; stroke:none;" d="M852 437L867 433L868 448L870 448L871 425C865.742 426.429 853.813 431.707 852 437z"/>
<path style="fill:#a12650; stroke:none;" d="M864 426L865 427L864 426M872 426L872 514L873 514L873 453L872 426M863 427L864 428L863 427M860.667 428.333L861.333 428.667L860.667 428.333M858 429L859 430L858 429M856.667 430.333L857.333 430.667L856.667 430.333M855 431L856 432L855 431M852 432L853 433L852 432M850 433L851 434L850 433z"/>
<path style="fill:#3f2648; stroke:none;" d="M701 434L701 460L702 460L701 434z"/>
<path style="fill:#a12650; stroke:none;" d="M849 434L850 435L849 434M847.667 435.333L848.333 435.667L847.667 435.333M844.667 436.333L845.333 436.667L844.667 436.333M843 437L844 438L843 437M841 438L842 439L841 438z"/>
<path style="fill:#3f2648; stroke:none;" d="M846 440L849 438L846 440z"/>
<path style="fill:#a12650; stroke:none;" d="M840 439L841 440L840 439M837.667 440.333L838.333 440.667L837.667 440.333M836 441L837 442L836 441M834 442L835 443L834 442M832 443L833 444L832 443M829.667 444.333L830.333 444.667L829.667 444.333M827.667 445.333L828.333 445.667L827.667 445.333M826 446L827 447L826 446z"/>
<path style="fill:#3f2648; stroke:none;" d="M830 449L836 447C833.238 445.408 830.714 445.669 830 449z"/>
<path style="fill:#a12650; stroke:none;" d="M824.667 447.333L825.333 447.667L824.667 447.333M822 448L823 449L822 448M820.667 449.333L821.333 449.667L820.667 449.333z"/>
<path style="fill:#3f2648; stroke:none;" d="M825 451L828 449L825 451z"/>
<path style="fill:#a12650; stroke:none;" d="M819 450L820 451L819 450M817 451L818 452L817 451z"/>
<path style="fill:#3f2648; stroke:none;" d="M587 452L587 456L588 456L587 452z"/>
<path style="fill:#a12650; stroke:none;" d="M814 452L815 453L814 452M812 453L813 454L812 453M811 454L812 455L811 454z"/>
<path style="fill:#3f2648; stroke:none;" d="M815 455L815 456L820 455L815 455z"/>
<path style="fill:#a12650; stroke:none;" d="M809 455L810 456L809 455M806 456L807 457L806 456z"/>
<path style="fill:#3f2648; stroke:none;" d="M799 464L814 460L814 456L799 464M587 457L588 458L587 457z"/>
<path style="fill:#a12650; stroke:none;" d="M804 457L805 458L804 457M803 458L804 459L803 458z"/>
<path style="fill:#3f2648; stroke:none;" d="M587 459L588 460L587 459z"/>
<path style="fill:#a12650; stroke:none;" d="M801.667 459.333L802.333 459.667L801.667 459.333M798.667 460.333L799.333 460.667L798.667 460.333M796 461L797 462L796 461M794.667 462.333L795.333 462.667L794.667 462.333M793 463L794 464L793 463z"/>
<path style="fill:#3f2648; stroke:none;" d="M587 464L587 480L588 480L587 464M700 464L701 505L702 505L702 464L700 464z"/>
<path style="fill:#a12650; stroke:none;" d="M790.667 464.333L791.333 464.667L790.667 464.333M788.667 465.333L789.333 465.667L788.667 465.333M787 466L788 467L787 466M785.667 467.333L786.333 467.667L785.667 467.333M783 468L784 469L783 468M781 469L782 470L781 469M780 470L781 471L780 470z"/>
<path style="fill:#3f2648; stroke:none;" d="M783 471L783 472L789 471L783 471z"/>
<path style="fill:#a12650; stroke:none;" d="M778 471L779 472L778 471M774.667 472.333L775.333 472.667L774.667 472.333M773 473L774 474L773 473z"/>
<path style="fill:#3f2648; stroke:none;" d="M775 477L784 476L784 473C779.839 473.049 777.112 473.17 775 477z"/>
<path style="fill:#a12650; stroke:none;" d="M771.667 474.333L772.333 474.667L771.667 474.333M769.667 475.333L770.333 475.667L769.667 475.333M767.667 476.333L768.333 476.667L767.667 476.333M766 477L767 478L766 477z"/>
<path style="fill:#3f2648; stroke:none;" d="M768 479L768 480L774 480L774 478L768 479z"/>
<path style="fill:#a12650; stroke:none;" d="M764.667 478.333L765.333 478.667L764.667 478.333M762.667 479.333L763.333 479.667L762.667 479.333M759.667 480.333L760.333 480.667L759.667 480.333M756 483L759 481L756 483M754.667 483.333L755.333 483.667L754.667 483.333M751.667 484.333L752.333 484.667L751.667 484.333M749 485L750 486L749 485M748 486L749 487L748 486z"/>
<path style="fill:#3f2648; stroke:none;" d="M752 487L752 488L756 488L752 487z"/>
<path style="fill:#a12650; stroke:none;" d="M747 487L748 488L747 487M743.667 488.333L744.333 488.667L743.667 488.333M742 489L743 490L742 489z"/>
<path style="fill:#3f2648; stroke:none;" d="M744 490L744 492C747.927 493.044 749.853 492.499 752 489L744 490z"/>
<path style="fill:#a12650; stroke:none;" d="M738 491L738 492L742 491L738 491M736.667 492.333L737.333 492.667L736.667 492.333M734.667 493.333L735.333 493.667L734.667 493.333M733 494L734 495L733 494z"/>
<path style="fill:#3f2648; stroke:none;" d="M737 496L740 494L737 496z"/>
<path style="fill:#a12650; stroke:none;" d="M731.667 495.333L732.333 495.667L731.667 495.333M727 498L730 496L727 498M725.667 498.333L726.333 498.667L725.667 498.333M723.667 499.333L724.333 499.667L723.667 499.333M721.667 500.333L722.333 500.667L721.667 500.333M719.667 501.333L720.333 501.667L719.667 501.333M718 502L719 503L718 502M716.667 503.333L717.333 503.667L716.667 503.333M713.667 504.333L714.333 504.667L713.667 504.333M710 507L713 505L710 507z"/>
<path style="fill:#3f2648; stroke:none;" d="M719 505L714 507L714 508C716.582 508.5 720.278 508.466 719 505z"/>
<path style="fill:#a12650; stroke:none;" d="M705 507L705 508L710 508L705 507z"/>
<path style="fill:#3f2648; stroke:none;" d="M704 510L704 512L708 512L708 510L704 510M869 513L864 521C868.45 520.072 870.84 517.55 869 513z"/>
<path style="fill:#a12650; stroke:none;" d="M872 516L872 520L873 520L872 516M871 520L872 521L871 520z"/>
<path style="fill:#3f2648; stroke:none;" d="M862 521C857.164 523.764 847.717 525.125 846 531C851.297 530.644 860.606 526.51 862 521z"/>
<path style="fill:#a12650; stroke:none;" d="M870 521L871 522L870 521M868.667 522.333L869.333 522.667L868.667 522.333M866.667 523.333L867.333 523.667L866.667 523.333M864.667 524.333L865.333 524.667L864.667 524.333M863 525L864 526L863 525M861.667 526.333L862.333 526.667L861.667 526.333M859.667 527.333L860.333 527.667L859.667 527.333M857 528L858 529L857 528M855.667 529.333L856.333 529.667L855.667 529.333M854 530L855 531L854 530M852.667 531.333L853.333 531.667L852.667 531.333z"/>
<path style="fill:#3f2648; stroke:none;" d="M838 535L846 533C842.668 531.617 839.994 531.924 838 535z"/>
<path style="fill:#a12650; stroke:none;" d="M849.667 532.333L850.333 532.667L849.667 532.333M848 533L849 534L848 533M847 534L848 535L847 534M845 535L846 536L845 535z"/>
<path style="fill:#3f2648; stroke:none;" d="M832 539L837 536C834.007 536.064 832.654 535.946 832 539z"/>
<path style="fill:#a12650; stroke:none;" d="M842 536L843 537L842 536M840 537L841 538L840 537M839 538L840 539L839 538z"/>
<path style="fill:#3f2648; stroke:none;" d="M826 542L831 539L826 542z"/>
<path style="fill:#a12650; stroke:none;" d="M837 539L838 540L837 539M834.667 540.333L835.333 540.667L834.667 540.333M832.667 541.333L833.333 541.667L832.667 541.333M831 542L832 543L831 542z"/>
<path style="fill:#3f2648; stroke:none;" d="M784 563L776 565L776 566C780.445 567.074 790.987 563.735 792 559L822 546L822 544C813.912 542.046 799.582 552.735 792.576 556.87C789.159 558.886 785.399 559.018 784 563z"/>
<path style="fill:#a12650; stroke:none;" d="M830 543L831 544L830 543M826.667 544.333L827.333 544.667L826.667 544.333M825 545L826 546L825 545M823.667 546.333L824.333 546.667L823.667 546.333M821.667 547.333L822.333 547.667L821.667 547.333M819 548L820 549L819 548M817.667 549.333L818.333 549.667L817.667 549.333M815.667 550.333L816.333 550.667L815.667 550.333M813.667 551.333L814.333 551.667L813.667 551.333M811.667 552.333L812.333 552.667L811.667 552.333M808 555L811 553L808 555M806.667 555.333L807.333 555.667L806.667 555.333M803.667 556.333L804.333 556.667L803.667 556.333M802 557L803 558L802 557M800.667 558.333L801.333 558.667L800.667 558.333M798.667 559.333L799.333 559.667L798.667 559.333M796 560L797 561L796 560M794.667 561.333L795.333 561.667L794.667 561.333M793 562L794 563L793 562M791.667 563.333L792.333 563.667L791.667 563.333M788.667 564.333L789.333 564.667L788.667 564.333M785 567L788 565L785 567z"/>
<path style="fill:#3f2648; stroke:none;" d="M769 570L776 567L769 570z"/>
<path style="fill:#a12650; stroke:none;" d="M783.667 567.333L784.333 567.667L783.667 567.333M779 570L782 568L779 570M778 570L779 571L778 570M776.667 571.333L777.333 571.667L776.667 571.333z"/>
<path style="fill:#3f2648; stroke:none;" d="M765 572L764 574L766 574L765 572z"/>
<path style="fill:#a12650; stroke:none;" d="M773.667 572.333L774.333 572.667L773.667 572.333M771.667 573.333L772.333 573.667L771.667 573.333M769.667 574.333L770.333 574.667L769.667 574.333z"/>
<path style="fill:#3f2648; stroke:none;" d="M748 583L761 576C755.195 574.425 749.79 577.144 748 583z"/>
<path style="fill:#a12650; stroke:none;" d="M767.667 575.333L768.333 575.667L767.667 575.333M765.667 576.333L766.333 576.667L765.667 576.333M763.667 577.333L764.333 577.667L763.667 577.333M762 578L763 579L762 578M760.667 579.333L761.333 579.667L760.667 579.333M757.667 580.333L758.333 580.667L757.667 580.333M756 581L757 582L756 581M755 582L756 583L755 582M753 583L754 584L753 583z"/>
<path style="fill:#3f2648; stroke:none;" d="M740 586L746 584L740 586z"/>
<path style="fill:#a12650; stroke:none;" d="M750.667 584.333L751.333 584.667L750.667 584.333M747 587L750 585L747 587z"/>
<path style="fill:#3f2648; stroke:none;" d="M729 592L717 597L717 598C723.75 597.552 734.36 592.879 739 588C734.503 587.041 731.421 588.015 729 592z"/>
<path style="fill:#a12650; stroke:none;" d="M745.667 587.333L746.333 587.667L745.667 587.333M742.667 588.333L743.333 588.667L742.667 588.333M741 589L742 590L741 589M739.667 590.333L740.333 590.667L739.667 590.333M738 591L739 592L738 591M734.667 592.333L735.333 592.667L734.667 592.333M733 593L734 594L733 593M731.667 594.333L732.333 594.667L731.667 594.333M729.667 595.333L730.333 595.667L729.667 595.333M727 596L728 597L727 596M725 597L726 598L725 597M723.667 598.333L724.333 598.667L723.667 598.333M722 599L723 600L722 599M719.667 600.333L720.333 600.667L719.667 600.333M717.667 601.333L718.333 601.667L717.667 601.333z"/>
<path style="fill:#3f2648; stroke:none;" d="M709 602L710 603L709 602z"/>
<path style="fill:#a12650; stroke:none;" d="M716 602L717 603L716 602M714.667 603.333L715.333 603.667L714.667 603.333z"/>
<path style="fill:#3f2648; stroke:none;" d="M704 606L708 605L704 606z"/>
<path style="fill:#a12650; stroke:none;" d="M712 604L713 605L712 604M710 605L711 606L710 605M709 606L710 607L709 606M707 607L708 608L707 607z"/>
<path style="fill:#3f2648; stroke:none;" d="M647 608L646 611L647 608z"/>
<path style="fill:#a12650; stroke:none;" d="M704 608L705 609L704 608z"/>
<path style="fill:#3f2648; stroke:none;" d="M649.333 609.667L649.667 610.333L649.333 609.667M693 611L696 609L693 611z"/>
<path style="fill:#a12650; stroke:none;" d="M703 609L704 610L703 609M702 610L703 611L702 610M699 611L699 612L702 612L699 611z"/>
<path style="fill:#3f2648; stroke:none;" d="M688 614L692 613L688 614z"/>
<path style="fill:#a12650; stroke:none;" d="M697 612L698 613L697 612M695.667 613.333L696.333 613.667L695.667 613.333M694 614L695 615L694 614M691 615L691 616L694 616L691 615z"/>
<path style="fill:#3f2648; stroke:none;" d="M679 619L685 616L679 619z"/>
<path style="fill:#a12650; stroke:none;" d="M686 619L690 616L686 619M684.667 619.333L685.333 619.667L684.667 619.333M681.667 620.333L682.333 620.667L681.667 620.333M680 621L681 622L680 621M678.667 622.333L679.333 622.667L678.667 622.333z"/>
<path style="fill:#3f2648; stroke:none;" d="M668 623L662 624L662 626L668 623z"/>
<path style="fill:#a12650; stroke:none;" d="M676.667 623.333L677.333 623.667L676.667 623.333M674 624L675 625L674 624M672.667 625.333L673.333 625.667L672.667 625.333M671 626L672 627L671 626M669.667 627.333L670.333 627.667L669.667 627.333M666.667 628.333L667.333 628.667L666.667 628.333z"/>
<path style="fill:#3f2648; stroke:none;" d="M657.667 629.333L658.333 629.667L657.667 629.333z"/>
<path style="fill:#a12650; stroke:none;" d="M663 631L666 629L663 631M660 631L660 632L663 632L660 631M657 634L660 632L657 634M655.667 634.333L656.333 634.667L655.667 634.333M653.667 635.333L654.333 635.667L653.667 635.333M651.667 636.333L652.333 636.667L651.667 636.333z"/>
<path style="fill:#3f2648; stroke:none;" d="M632 641L632 642C637.107 643.39 640.515 641.638 643 637L632 641z"/>
<path style="fill:#a12650; stroke:none;" d="M648 639L651 637L648 639M646.667 639.333L647.333 639.667L646.667 639.333M643.667 640.333L644.333 640.667L643.667 640.333M642 641L643 642L642 641M641 642L642 643L641 642z"/>
<path style="fill:#3f2648; stroke:none;" d="M627 646L632 643L627 646z"/>
<path style="fill:#a12650; stroke:none;" d="M639 643L640 644L639 643M636 644L637 645L636 644M634 645L635 646L634 645M633 646L634 647L633 646z"/>
<path style="fill:#3f2648; stroke:none;" d="M618 648C620.179 651.273 622.743 650.568 624 647L618 648z"/>
<path style="fill:#a12650; stroke:none;" d="M631 647L632 648L631 647M628.667 648.333L629.333 648.667L628.667 648.333M627 649L628 650L627 649M626 650L627 651L626 650M624 651L625 652L624 651M621.667 652.333L622.333 652.667L621.667 652.333M619 653L620 654L619 653M617.667 654.333L618.333 654.667L617.667 654.333z"/>
<path style="fill:#3f2648; stroke:none;" d="M602 656L602 658C605.332 658.638 606.842 658.294 608 655L602 656z"/>
<path style="fill:#a12650; stroke:none;" d="M615.667 655.333L616.333 655.667L615.667 655.333M611 657L611 658L615 657L611 657M608 660L611 658L608 660z"/>
<path style="fill:#3f2648; stroke:none;" d="M591 666L601 659C595.907 659.467 593.287 661.439 591 666z"/>
<path style="fill:#a12650; stroke:none;" d="M605.667 660.333L606.333 660.667L605.667 660.333M603.667 661.333L604.333 661.667L603.667 661.333M602 662L603 663L602 662M600.667 663.333L601.333 663.667L600.667 663.333M598 664L599 665L598 664z"/>
<path style="fill:#3f2648; stroke:none;" d="M589 665L590 666L589 665z"/>
<path style="fill:#a12650; stroke:none;" d="M596 665L597 666L596 665M595 666L596 667L595 666M593.667 667.333L594.333 667.667L593.667 667.333M590.667 668.333L591.333 668.667L590.667 668.333M588 669L588 672L589 672L590 669L588 669z"/>
</svg>
